<svg width="16" height="25" viewBox="0 0 16 25" fill="none" xmlns="http://www.w3.org/2000/svg">
    <path d="M0.843263 12.4724C0.844198 12.117 0.919122 11.7658 1.06326 11.441C1.2074 11.1162 1.4176 10.825 1.68047 10.5859L11.6575 1.44608C12.1578 0.987459 12.8199 0.746374 13.4979 0.775855C14.176 0.805337 14.8146 1.10297 15.2732 1.60328C15.5001 1.85125 15.6759 2.14148 15.7906 2.45739C15.9053 2.7733 15.9566 3.10871 15.9417 3.44446C15.9267 3.78021 15.8458 4.10974 15.7035 4.41421C15.5612 4.71869 15.3604 4.99216 15.1124 5.219L7.19362 12.4724L15.1087 19.7258C15.3688 19.9492 15.5813 20.2227 15.7336 20.5298C15.8859 20.837 15.975 21.1717 15.9954 21.5139C16.0159 21.8562 15.9674 22.1991 15.8528 22.5222C15.7382 22.8453 15.5598 23.1422 15.3282 23.395C15.0967 23.6479 14.8167 23.8517 14.5049 23.9942C14.193 24.1368 13.8557 24.2152 13.513 24.2249C13.1703 24.2346 12.8291 24.1753 12.5097 24.0505C12.1903 23.9258 11.8993 23.7381 11.6539 23.4987L1.68047 14.3588C1.4176 14.1198 1.2074 13.8285 1.06326 13.5038C0.919122 13.179 0.844198 12.8277 0.843263 12.4724ZM15.2074 3.33254C15.2072 2.97824 15.104 2.63165 14.9103 2.33494C14.7167 2.03822 14.4411 1.80416 14.1169 1.66124C13.7927 1.51832 13.4339 1.47269 13.0843 1.5299C12.7346 1.58711 12.4092 1.7447 12.1474 1.9835L2.17037 11.1233C1.98305 11.2946 1.83346 11.503 1.73112 11.7353C1.62877 11.9675 1.57591 12.2186 1.57591 12.4724C1.57591 12.7262 1.62877 12.9772 1.73112 13.2095C1.83346 13.4417 1.98305 13.6501 2.17037 13.8214L12.1474 22.9613C12.3246 23.1233 12.5319 23.2488 12.7576 23.3308C12.9833 23.4127 13.2229 23.4493 13.4627 23.4386C13.7026 23.4279 13.938 23.3701 14.1555 23.2684C14.373 23.1668 14.5683 23.0233 14.7303 22.8461C14.8924 22.6689 15.0179 22.4616 15.0998 22.2359C15.1817 22.0102 15.2184 21.7706 15.2077 21.5308C15.197 21.2909 15.1392 21.0556 15.0375 20.8381C14.9358 20.6206 14.7923 20.4252 14.6152 20.2632L6.40394 12.7429C6.36673 12.7084 6.33712 12.6665 6.31698 12.62C6.29683 12.5734 6.28661 12.5231 6.28695 12.4724C6.28661 12.4216 6.29683 12.3714 6.31698 12.3248C6.33712 12.2782 6.36673 12.2363 6.40394 12.2018L14.6152 4.68158C14.8021 4.51011 14.9513 4.30162 15.0532 4.06937C15.1552 3.83712 15.2077 3.58619 15.2074 3.33254Z" fill="white"/>
</svg>
