<svg id="b186cce8-5417-4f03-b217-59bbc2157f7b" data-name="business" xmlns="http://www.w3.org/2000/svg" viewBox="0 0 98.98 85.24"><defs><style>.bb5ed3d2-3bcc-4857-8437-bdde35c83888{fill:#fff;}.ad7e4304-9387-4f13-b320-bec2332f952d{fill:#f36;}</style></defs><g id="ee8c9952-1d96-4016-9fc5-aa4a2878d835" data-name="business-outlinev3"><path class="bb5ed3d2-3bcc-4857-8437-bdde35c83888" d="M66.84,20S66.62,9.16,58.46,9.16H40.41S33,9.87,33,21.12H39l.7-5.19a28.74,28.74,0,0,1,3.08-1.86l9.41.25,5.12.42a13.26,13.26,0,0,1,2.6.49c.21.21,2.17,6,2.17,6s-1,.79.71.79,3.29.21,3.51,0A9,9,0,0,0,66.84,20Z" transform="translate(-0.41 -7.38)"/><path class="ad7e4304-9387-4f13-b320-bec2332f952d" d="M58.65,11.39a6,6,0,0,1,6,6v3.4H35.12v-3.4a6,6,0,0,1,6-6h17.5m0-4H41.15a10,10,0,0,0-10,10.05v7.41H68.69V17.43a10,10,0,0,0-10-10Z" transform="translate(-0.41 -7.38)"/><path class="ad7e4304-9387-4f13-b320-bec2332f952d" d="M57,17.12a1.52,1.52,0,0,1,1.51,1.51V22H41.25V18.63a1.52,1.52,0,0,1,1.51-1.51H57m0-3.19H42.76a4.69,4.69,0,0,0-4.7,4.7v6.56H61.75V18.63A4.7,4.7,0,0,0,57,13.93Z" transform="translate(-0.41 -7.38)"/><path class="bb5ed3d2-3bcc-4857-8437-bdde35c83888" d="M3.59,40.27H95.4a0,0,0,0,1,0,0V76.65a6.58,6.58,0,0,1-6.58,6.58H10.17a6.58,6.58,0,0,1-6.58-6.58V40.27a0,0,0,0,1,0,0Z"/><path class="ad7e4304-9387-4f13-b320-bec2332f952d" d="M91.4,92.62H8.4A6.42,6.42,0,0,1,2,86.21V45.65H97.81V86.21A6.42,6.42,0,0,1,91.4,92.62ZM6,49.66V86.21a2.41,2.41,0,0,0,2.4,2.4h83a2.41,2.41,0,0,0,2.4-2.4V49.66Z" transform="translate(-0.41 -7.38)"/><path class="bb5ed3d2-3bcc-4857-8437-bdde35c83888" d="M96.82,51.39,49.71,64,3,51.39a.77.77,0,0,1-.56-.74V26.16A3.56,3.56,0,0,1,6,22.6H93.82a3.56,3.56,0,0,1,3.56,3.56V50.65A.77.77,0,0,1,96.82,51.39Z" transform="translate(-0.41 -7.38)"/><path class="ad7e4304-9387-4f13-b320-bec2332f952d" d="M49.71,66.07,2.46,53.33a2.78,2.78,0,0,1-2-2.68V26.16A5.58,5.58,0,0,1,6,20.59H93.82a5.58,5.58,0,0,1,5.57,5.57V50.65a2.78,2.78,0,0,1-2,2.68ZM4.42,49.7,49.71,61.91,95.38,49.69V26.16a1.56,1.56,0,0,0-1.56-1.56H6a1.56,1.56,0,0,0-1.56,1.56Z" transform="translate(-0.41 -7.38)"/><rect class="bb5ed3d2-3bcc-4857-8437-bdde35c83888" x="44.34" y="51.35" width="10.31" height="11.9" rx="3.34"/><path class="ad7e4304-9387-4f13-b320-bec2332f952d" d="M52.75,72.64h-5.7a4.31,4.31,0,0,1-4.31-4.31V61a4.32,4.32,0,0,1,4.31-4.31h5.7A4.32,4.32,0,0,1,57.06,61v7.3A4.31,4.31,0,0,1,52.75,72.64Zm-5.7-11.9a.3.3,0,0,0-.3.29v7.3a.31.31,0,0,0,.3.3h5.7a.31.31,0,0,0,.3-.3V61a.3.3,0,0,0-.3-.29Z" transform="translate(-0.41 -7.38)"/></g></svg>