<svg width="26" height="22" viewBox="0 0 26 22" fill="none" xmlns="http://www.w3.org/2000/svg">
<path d="M19.7779 11.3297C20.5571 11.3297 21.3187 11.5606 21.9666 11.9933C22.6145 12.4259 23.1194 13.0408 23.4176 13.7602C23.7158 14.4797 23.7938 15.2713 23.6418 16.0351C23.4898 16.7989 23.1146 17.5004 22.5636 18.051C22.0126 18.6017 21.3107 18.9767 20.5464 19.1286C19.7822 19.2805 18.9901 19.2025 18.2702 18.9045C17.5503 18.6065 16.935 18.1019 16.5021 17.4544C16.0693 16.8069 15.8382 16.0457 15.8382 15.267C15.8396 14.2232 16.2551 13.2225 16.9936 12.4844C17.7321 11.7463 18.7334 11.3311 19.7779 11.3297ZM19.7779 10.1113C18.7575 10.1113 17.7602 10.4137 16.9118 10.9802C16.0634 11.5467 15.4022 12.3519 15.0118 13.294C14.6213 14.2361 14.5192 15.2727 14.7182 16.2728C14.9173 17.2729 15.4086 18.1915 16.1301 18.9126C16.8515 19.6336 17.7707 20.1246 18.7714 20.3236C19.7721 20.5225 20.8094 20.4204 21.752 20.0302C22.6947 19.64 23.5004 18.9791 24.0672 18.1313C24.6341 17.2835 24.9366 16.2867 24.9366 15.267C24.9366 13.8996 24.3931 12.5883 23.4257 11.6214C22.4582 10.6545 21.1461 10.1113 19.7779 10.1113Z" fill="#25AEB4"/>
<path d="M19.8113 2.9668H2.35099C1.23969 2.9668 0.338806 3.86713 0.338806 4.97776V15.8174C0.338806 16.9281 1.23969 17.8284 2.35099 17.8284H19.8113C20.9226 17.8284 21.8234 16.9281 21.8234 15.8174V4.97776C21.8234 3.86713 20.9226 2.9668 19.8113 2.9668Z" fill="white"/>
<path d="M19.8138 3.30607C20.2574 3.30675 20.6826 3.48316 20.9963 3.79665C21.31 4.11013 21.4865 4.53511 21.4872 4.97845V15.8156C21.4865 16.2591 21.3101 16.6844 20.9965 16.9983C20.6829 17.3122 20.2576 17.4892 19.8138 17.4905H2.36123C2.1408 17.4908 1.92247 17.4478 1.71869 17.3638C1.51491 17.2798 1.32968 17.1565 1.17358 17.001C1.01748 16.8455 0.893554 16.6607 0.808889 16.4573C0.724224 16.2539 0.680474 16.0359 0.680137 15.8156V4.97845C0.680816 4.53511 0.857337 4.11013 1.17101 3.79665C1.48469 3.48316 1.90993 3.30675 2.35353 3.30607H19.8061H19.8138ZM19.8061 2.62891H2.35353C2.04458 2.62857 1.7386 2.68909 1.45307 2.80702C1.16754 2.92494 0.908068 3.09796 0.689489 3.31616C0.47091 3.53437 0.297509 3.7935 0.179202 4.07872C0.0608943 4.36395 -1.84105e-07 4.66968 0 4.97845V15.8156C-3.70887e-07 16.4389 0.247608 17.0368 0.688426 17.4778C1.12924 17.9189 1.72721 18.167 2.35096 18.1677H19.8035C20.4273 18.167 21.0253 17.9189 21.4661 17.4778C21.9069 17.0368 22.1545 16.4389 22.1545 15.8156V4.97845C22.1538 4.35552 21.9059 3.7583 21.4652 3.31782C21.0244 2.87734 20.4268 2.62959 19.8035 2.62891H19.8061Z" fill="#25AEB4"/>
<path d="M20.1526 6.63281H1.95575V16.6953H20.1526V6.63281Z" fill="#25AEB4"/>
<path d="M8.05127 7.75195H3.67529V11.2352H8.05127V7.75195Z" fill="white"/>
<path d="M13.2332 7.75195H8.85718V11.2352H13.2332V7.75195Z" fill="white"/>
<path d="M18.415 7.75195H14.0391V11.2352H18.415V7.75195Z" fill="white"/>
<path d="M8.05127 12.0371H3.67529V15.5204H8.05127V12.0371Z" fill="white"/>
<path d="M13.2332 12.0371H8.85718V15.5204H13.2332V12.0371Z" fill="white"/>
<path d="M7.66632 4.10876C7.4224 4.10808 7.1887 4.01076 7.01646 3.83814C6.84422 3.66553 6.7475 3.4317 6.7475 3.18792V1.13592C6.75995 0.900442 6.86232 0.678707 7.0335 0.516422C7.20469 0.354138 7.43165 0.263672 7.66761 0.263672C7.90356 0.263672 8.13052 0.354138 8.30171 0.516422C8.4729 0.678707 8.57527 0.900442 8.58772 1.13592V3.18792C8.58772 3.43214 8.49064 3.66636 8.31785 3.83905C8.14505 4.01174 7.91069 4.10876 7.66632 4.10876Z" fill="white"/>
<path d="M7.66633 0.412965C7.85556 0.412965 8.03704 0.488092 8.17085 0.621818C8.30466 0.755545 8.37983 0.936917 8.37983 1.12603V3.17803C8.38017 3.27177 8.36195 3.36465 8.32621 3.45131C8.29047 3.53798 8.23793 3.61672 8.17161 3.68301C8.10529 3.74929 8.02649 3.8018 7.93977 3.83751C7.85306 3.87323 7.76012 3.89144 7.66633 3.8911C7.57275 3.8911 7.48009 3.87264 7.39367 3.83677C7.30725 3.80091 7.22876 3.74834 7.16271 3.68209C7.09666 3.61585 7.04435 3.53722 7.00877 3.45072C6.97319 3.36422 6.95505 3.27155 6.95539 3.17803V1.12603C6.95539 0.93736 7.03021 0.756376 7.16346 0.622723C7.29672 0.48907 7.47754 0.413644 7.66633 0.412965ZM7.66633 0C7.36795 0.000679269 7.08202 0.119614 6.87128 0.330713C6.66053 0.541812 6.54218 0.827835 6.54218 1.12603V3.17803C6.5349 3.33026 6.55862 3.48237 6.61189 3.62516C6.66517 3.76796 6.74689 3.89846 6.85212 4.00876C6.95734 4.11906 7.08387 4.20687 7.22404 4.26686C7.36422 4.32686 7.51512 4.35779 7.66761 4.35779C7.8201 4.35779 7.971 4.32686 8.11118 4.26686C8.25135 4.20687 8.37789 4.11906 8.48311 4.00876C8.58833 3.89846 8.67005 3.76796 8.72333 3.62516C8.7766 3.48237 8.80032 3.33026 8.79305 3.17803V1.12603C8.79102 0.82849 8.6715 0.543786 8.46049 0.333866C8.24948 0.123947 7.96406 0.00579945 7.66633 0.00513011V0Z" fill="#25AEB4"/>
<path d="M14.5806 4.10985C14.4597 4.10985 14.34 4.08602 14.2284 4.03971C14.1167 3.9934 14.0153 3.92553 13.93 3.83999C13.8446 3.75445 13.777 3.65292 13.7309 3.54121C13.6849 3.42951 13.6614 3.30982 13.6617 3.18902V1.13702C13.6617 0.893479 13.7586 0.659914 13.9309 0.487705C14.1032 0.315496 14.3369 0.21875 14.5806 0.21875C14.8243 0.21875 15.058 0.315496 15.2303 0.487705C15.4026 0.659914 15.4994 0.893479 15.4994 1.13702V3.18902C15.4994 3.43279 15.4027 3.66662 15.2304 3.83924C15.0582 4.01186 14.8245 4.10917 14.5806 4.10985Z" fill="white"/>
<path d="M14.5806 0.412965C14.7694 0.413644 14.9502 0.48907 15.0834 0.622723C15.2167 0.756376 15.2915 0.93736 15.2915 1.12603V3.17803C15.2919 3.27155 15.2737 3.36422 15.2381 3.45072C15.2026 3.53722 15.1502 3.61585 15.0842 3.6821C15.0181 3.74834 14.9397 3.80091 14.8532 3.83677C14.7668 3.87264 14.6742 3.8911 14.5806 3.8911C14.4868 3.89144 14.3938 3.87323 14.3071 3.83751C14.2204 3.8018 14.1416 3.74929 14.0753 3.68301C14.009 3.61672 13.9564 3.53798 13.9207 3.45131C13.885 3.36465 13.8667 3.27177 13.8671 3.17803V1.12603C13.8671 0.936917 13.9422 0.755545 14.0761 0.621818C14.2099 0.488092 14.3913 0.412965 14.5806 0.412965ZM14.5806 0C14.282 0.000677493 13.9958 0.119531 13.7846 0.330556C13.5735 0.541582 13.4545 0.8276 13.4539 1.12603V3.17803C13.4539 3.47668 13.5726 3.76309 13.7839 3.97426C13.9952 4.18543 14.2818 4.30407 14.5806 4.30407C14.8794 4.30407 15.166 4.18543 15.3773 3.97426C15.5886 3.76309 15.7073 3.47668 15.7073 3.17803V1.12603C15.7053 0.82849 15.5857 0.543786 15.3747 0.333866C15.1637 0.123947 14.8783 0.00579946 14.5806 0.00513011V0Z" fill="#25AEB4"/>
<path d="M19.706 20.7328C18.6243 20.7328 17.5669 20.4122 16.6674 19.8116C15.768 19.211 15.067 18.3573 14.653 17.3585C14.2391 16.3598 14.1308 15.2607 14.3418 14.2004C14.5528 13.1401 15.0737 12.1662 15.8386 11.4017C16.6035 10.6373 17.5781 10.1167 18.639 9.90581C19.7 9.6949 20.7997 9.80315 21.799 10.2169C22.7984 10.6306 23.6526 11.3312 24.2536 12.23C24.8546 13.1289 25.1754 14.1857 25.1754 15.2668C25.174 16.7161 24.5973 18.1056 23.5719 19.1303C22.5465 20.1551 21.1562 20.7314 19.706 20.7328Z" fill="white"/>
<path d="M19.706 10.111C20.726 10.1125 21.7227 10.4162 22.57 10.9836C23.4173 11.551 24.0774 12.3568 24.4666 13.299C24.8559 14.2412 24.957 15.2775 24.757 16.2771C24.5571 17.2767 24.0652 18.1947 23.3434 18.9149C22.6216 19.6352 21.7024 20.1254 20.7019 20.3237C19.7014 20.5221 18.6646 20.4195 17.7224 20.0291C16.7802 19.6386 15.9749 18.9778 15.4084 18.1301C14.8419 17.2825 14.5396 16.286 14.5396 15.2666C14.5396 13.8992 15.0831 12.5879 16.0505 11.621C17.018 10.6541 18.3301 10.111 19.6983 10.111H19.706ZM19.6983 9.49023C18.5555 9.49176 17.4388 9.83183 16.4893 10.4675C15.5398 11.1031 14.8002 12.0058 14.3639 13.0614C13.9276 14.117 13.8143 15.2782 14.0381 16.3982C14.262 17.5182 14.8131 18.5468 15.6218 19.3538C16.4304 20.1609 17.4603 20.7103 18.5813 20.9326C19.7022 21.1548 20.864 21.04 21.9197 20.6025C22.9754 20.1651 23.8776 19.4247 24.5124 18.475C25.1471 17.5252 25.4859 16.4087 25.4859 15.2666C25.4832 13.7359 24.8732 12.2688 23.7897 11.1869C22.7062 10.105 21.2376 9.49672 19.706 9.49536L19.6983 9.49023Z" fill="#25AEB4"/>
<path d="M19.7779 19.2608C21.9849 19.2608 23.774 17.4728 23.774 15.2671C23.774 13.0615 21.9849 11.2734 19.7779 11.2734C17.5709 11.2734 15.7817 13.0615 15.7817 15.2671C15.7817 17.4728 17.5709 19.2608 19.7779 19.2608Z" fill="#25AEB4"/>
<path d="M22.1981 15.7372H19.5726V12.6899C19.5478 12.5753 19.4845 12.4726 19.3932 12.399C19.3019 12.3253 19.1881 12.2852 19.0708 12.2852C18.9535 12.2852 18.8397 12.3253 18.7484 12.399C18.6571 12.4726 18.5938 12.5753 18.569 12.6899V16.3682C18.569 16.4643 18.6071 16.5566 18.6749 16.6248C18.7427 16.693 18.8347 16.7317 18.9309 16.7324H22.1981C22.273 16.7485 22.3506 16.7477 22.4251 16.73C22.4996 16.7123 22.5692 16.6782 22.6288 16.6301C22.6884 16.582 22.7365 16.5212 22.7696 16.4521C22.8026 16.3831 22.8197 16.3075 22.8197 16.2309C22.8197 16.1544 22.8026 16.0788 22.7696 16.0097C22.7365 15.9406 22.6884 15.8798 22.6288 15.8318C22.5692 15.7837 22.4996 15.7495 22.4251 15.7318C22.3506 15.7141 22.273 15.7133 22.1981 15.7295V15.7372Z" fill="white"/>
</svg>
