<?xml version="1.0" encoding="UTF-8"?>
<svg width="1024px" height="1024px" viewBox="0 0 1024 1024" version="1.1" xmlns="http://www.w3.org/2000/svg" xmlns:xlink="http://www.w3.org/1999/xlink">
    <!-- Generator: Sketch 53 (72520) - https://sketchapp.com -->
    <title>Logo Copy</title>
    <desc>Created with Sketch.</desc>
    <g id="Logo-Copy" stroke="none" stroke-width="1" fill="none" fill-rule="evenodd">
        <path d="M449.505539,452.536076 L574.649047,452.536076 L574.649047,494.228086 L449.505539,494.228086 L449.505539,452.536076 Z M733.691021,494.228086 C760.658796,494.228086 784.508845,477.046418 793.041851,451.47749 L868.041051,226.595785 L868.041051,681.842129 C868.041051,716.324895 839.970667,744.380143 805.469297,744.380143 L218.685289,744.380143 C184.183919,744.380143 156.113535,716.324895 156.113535,681.842129 L156.113535,226.579499 L231.107304,451.47749 C239.645741,477.046418 263.49579,494.228086 290.463565,494.228086 L407.791036,494.228086 L407.791036,515.074091 C407.791036,526.593679 417.122484,535.920096 428.648287,535.920096 L595.506299,535.920096 C607.032102,535.920096 616.36355,526.593679 616.36355,515.074091 L616.36355,494.228086 L733.691021,494.228086 Z M595.506299,119 C630.007669,119 658.078053,147.055248 658.078053,181.538014 L658.078053,202.384019 L832.16006,202.384019 L753.489116,438.285878 C750.637538,446.814282 742.674848,452.536076 733.691021,452.536076 L616.36355,452.536076 L616.36355,431.690072 C616.36355,420.170483 607.032102,410.844067 595.506299,410.844067 L428.648287,410.844067 C417.122484,410.844067 407.791036,420.170483 407.791036,431.690072 L407.791036,452.536076 L290.463565,452.536076 C281.479738,452.536076 273.517048,446.814282 270.66547,438.285878 L191.999957,202.384019 L366.076533,202.384019 L366.076533,181.538014 C366.076533,147.055248 394.146917,119 428.648287,119 L595.506299,119 Z M407.791036,202.384019 L616.36355,202.384019 L616.36355,181.538014 C616.36355,170.034711 607.015809,160.69201 595.506299,160.69201 L428.648287,160.69201 C417.138778,160.69201 407.791036,170.034711 407.791036,181.538014 L407.791036,202.384019 Z M194.312896,871.735335 C197.931879,872.802656 200.735065,874.655616 202.722539,877.29427 C204.710014,879.932924 205.703736,883.179309 205.703736,887.033523 C205.703736,892.310832 203.760786,896.491109 199.874829,899.57448 C195.988872,902.657851 190.634638,904.199513 183.811965,904.199513 L154,904.199513 L154,841.494731 L182.922055,841.494731 C189.44809,841.494731 194.624345,842.947451 198.450974,845.852936 C202.277604,848.75842 204.19089,852.731166 204.19089,857.771292 C204.19089,861.03255 203.315821,863.893519 201.565657,866.354287 C199.815493,868.815054 197.39793,870.608719 194.312896,871.735335 Z M167.526623,867.021359 L180.608291,867.021359 C184.167946,867.021359 186.793153,866.413588 188.483989,865.198028 C190.174825,863.982468 191.020231,862.129509 191.020231,859.639094 C191.020231,857.030087 190.174825,855.117833 188.483989,853.902273 C186.793153,852.686713 184.167946,852.078943 180.608291,852.078943 L167.526623,852.078943 L167.526623,867.021359 Z M182.210128,893.615302 C185.888438,893.615302 188.55814,892.992707 190.219312,891.7475 C191.880485,890.502292 192.711059,888.486272 192.711059,885.699379 C192.711059,882.912486 191.880485,880.866818 190.219312,879.562315 C188.55814,878.257812 185.888438,877.60557 182.210128,877.60557 L167.526623,877.60557 L167.526623,893.615302 L182.210128,893.615302 Z M241.923048,905 C233.142565,905 226.45348,902.731977 221.855591,898.195864 C217.257703,893.659751 214.958794,887.033567 214.958794,878.317114 L214.958794,841.494731 L228.574407,841.494731 L228.574407,878.939715 C228.574407,883.920545 229.716446,887.715406 232.000559,890.324413 C234.284671,892.933419 237.592134,894.237903 241.923048,894.237903 C246.253962,894.237903 249.576258,892.918595 251.890034,890.279941 C254.20381,887.641287 255.36068,883.861249 255.36068,878.939715 L255.36068,841.494731 L268.976294,841.494731 L268.976294,878.317114 C268.976294,886.974271 266.662553,893.585631 262.035001,898.151393 C257.407449,902.717154 250.703532,905 241.923048,905 Z M281.079062,904.199513 L281.079062,841.494731 L294.961648,841.494731 L294.961648,904.199513 L281.079062,904.199513 Z M329.401142,905 C324.654935,905 320.086779,904.362582 315.696537,903.087726 C311.306296,901.812871 307.657704,900.048854 304.750652,897.795621 L309.200199,887.922953 C315.251613,892.13294 322.04452,894.237903 329.579124,894.237903 C333.494745,894.237903 336.505575,893.600484 338.611704,892.325629 C340.717834,891.050774 341.770882,889.286756 341.770882,887.033523 C341.770882,885.017473 340.806824,883.446163 338.878677,882.319547 C336.95053,881.19293 333.524413,880.095978 328.600223,879.028658 C323.082758,877.902041 318.67775,876.538263 315.385069,874.937282 C312.092388,873.3363 309.689656,871.364751 308.176803,869.022575 C306.663949,866.680399 305.907534,863.789782 305.907534,860.350637 C305.907534,856.555719 306.960583,853.17592 309.066712,850.211141 C311.172842,847.246361 314.124345,844.919043 317.921311,843.229119 C321.718276,841.539194 326.108452,840.694244 331.09197,840.694244 C335.541539,840.694244 339.827893,841.346486 343.95116,842.650989 C348.074428,843.955493 351.352228,845.704687 353.784659,847.898624 L349.335112,857.771292 C343.580336,853.561304 337.529013,851.456342 331.180961,851.456342 C327.561978,851.456342 324.714296,852.153055 322.63783,853.546501 C320.561365,854.939948 319.523148,856.852202 319.523148,859.283322 C319.523148,860.706416 319.923603,861.877487 320.724525,862.796568 C321.525448,863.71565 322.860298,864.530952 324.729118,865.2425 C326.597937,865.954047 329.252806,866.695231 332.693807,867.466074 C340.762359,869.244941 346.561544,871.527788 350.091535,874.314681 C353.621527,877.101574 355.386496,880.95573 355.386496,885.877265 C355.386496,891.806825 353.102418,896.476283 348.534194,899.88578 C343.965969,903.295277 337.588349,905 329.401142,905 Z M406.823259,841.494731 L419.815936,841.494731 L419.815936,904.199513 L409.492987,904.199513 L378.257168,864.264127 L378.257168,904.199513 L365.353481,904.199513 L365.353481,841.494731 L375.587439,841.494731 L406.823259,881.252231 L406.823259,841.494731 Z M432.274668,904.199513 L432.274668,841.494731 L475.524265,841.494731 L475.524265,852.256828 L445.801291,852.256828 L445.801291,866.932416 L473.744446,866.932416 L473.744446,877.694513 L445.801291,877.694513 L445.801291,893.437416 L475.524265,893.437416 L475.524265,904.199513 L432.274668,904.199513 Z M507.027057,905 C502.28085,905 497.712694,904.362582 493.322453,903.087726 C488.932211,901.812871 485.283619,900.048854 482.376567,897.795621 L486.826114,887.922953 C492.877528,892.13294 499.670435,894.237903 507.205039,894.237903 C511.12066,894.237903 514.13149,893.600484 516.237619,892.325629 C518.343749,891.050774 519.396798,889.286756 519.396798,887.033523 C519.396798,885.017473 518.432739,883.446163 516.504592,882.319547 C514.576446,881.19293 511.150329,880.095978 506.226139,879.028658 C500.708673,877.902041 496.303665,876.538263 493.010984,874.937282 C489.718303,873.3363 487.315572,871.364751 485.802718,869.022575 C484.289865,866.680399 483.533449,863.789782 483.533449,860.350637 C483.533449,856.555719 484.586498,853.17592 486.692628,850.211141 C488.798757,847.246361 491.75026,844.919043 495.547226,843.229119 C499.344192,841.539194 503.734368,840.694244 508.717885,840.694244 C513.167454,840.694244 517.453808,841.346486 521.577076,842.650989 C525.700343,843.955493 528.978143,845.704687 531.410575,847.898624 L526.961028,857.771292 C521.206251,853.561304 515.154928,851.456342 508.806876,851.456342 C505.187893,851.456342 502.340211,852.153055 500.263746,853.546501 C498.18728,854.939948 497.149063,856.852202 497.149063,859.283322 C497.149063,860.706416 497.549518,861.877487 498.350441,862.796568 C499.151363,863.71565 500.486214,864.530952 502.355033,865.2425 C504.223852,865.954047 506.878722,866.695231 510.319722,867.466074 C518.388274,869.244941 524.187459,871.527788 527.717451,874.314681 C531.247442,877.101574 533.012412,880.95573 533.012412,885.877265 C533.012412,891.806825 530.728334,896.476283 526.160109,899.88578 C521.591885,903.295277 515.214265,905 507.027057,905 Z M564.960159,905 C560.213952,905 555.645796,904.362582 551.255554,903.087726 C546.865313,901.812871 543.216721,900.048854 540.309669,897.795621 L544.759216,887.922953 C550.81063,892.13294 557.603537,894.237903 565.138141,894.237903 C569.053762,894.237903 572.064592,893.600484 574.170721,892.325629 C576.276851,891.050774 577.329899,889.286756 577.329899,887.033523 C577.329899,885.017473 576.365841,883.446163 574.437694,882.319547 C572.509547,881.19293 569.08343,880.095978 564.15924,879.028658 C558.641775,877.902041 554.236767,876.538263 550.944086,874.937282 C547.651405,873.3363 545.248673,871.364751 543.73582,869.022575 C542.222966,866.680399 541.466551,863.789782 541.466551,860.350637 C541.466551,856.555719 542.5196,853.17592 544.625729,850.211141 C546.731859,847.246361 549.683362,844.919043 553.480328,843.229119 C557.277293,841.539194 561.667469,840.694244 566.650987,840.694244 C571.100556,840.694244 575.38691,841.346486 579.510177,842.650989 C583.633445,843.955493 586.911245,845.704687 589.343676,847.898624 L584.894129,857.771292 C579.139353,853.561304 573.08803,851.456342 566.739978,851.456342 C563.120995,851.456342 560.273313,852.153055 558.196847,853.546501 C556.120382,854.939948 555.082165,856.852202 555.082165,859.283322 C555.082165,860.706416 555.48262,861.877487 556.283542,862.796568 C557.084465,863.71565 558.419315,864.530952 560.288135,865.2425 C562.156954,865.954047 564.811823,866.695231 568.252824,867.466074 C576.321376,869.244941 582.120561,871.527788 585.650552,874.314681 C589.180544,877.101574 590.945513,880.95573 590.945513,885.877265 C590.945513,891.806825 588.661435,896.476283 584.093211,899.88578 C579.524986,903.295277 573.147366,905 564.960159,905 Z M625.740971,904.199513 L625.740971,841.494731 L639.623557,841.494731 L639.623557,892.903758 L667.655703,892.903758 L667.655703,904.199513 L625.740971,904.199513 Z M704.675934,905 C698.446537,905 693.032976,903.680693 688.435088,901.042039 C683.837199,898.403384 680.292429,894.667818 677.80067,889.835226 C675.308911,885.002635 674.063051,879.325167 674.063051,872.802651 C674.063051,866.280135 675.308911,860.602666 677.80067,855.770075 C680.292429,850.937484 683.837199,847.216741 688.435088,844.607734 C693.032976,841.998728 698.446537,840.694244 704.675934,840.694244 C710.905331,840.694244 716.318892,841.998728 720.91678,844.607734 C725.514669,847.216741 729.059439,850.937484 731.551198,855.770075 C734.042956,860.602666 735.288817,866.280135 735.288817,872.802651 C735.288817,879.325167 734.042956,885.002635 731.551198,889.835226 C729.059439,894.667818 725.514669,898.403384 720.91678,901.042039 C716.318892,903.680693 710.905331,905 704.675934,905 Z M704.675934,894.237903 C709.896762,894.237903 714.005136,892.399767 717.001179,888.723439 C719.997222,885.047112 721.495222,879.740236 721.495222,872.802651 C721.495222,865.865066 720.012054,860.573013 717.045675,856.926334 C714.079295,853.279654 709.956089,851.456342 704.675934,851.456342 C699.395778,851.456342 695.287405,853.279654 692.350689,856.926334 C689.413973,860.573013 687.945637,865.865066 687.945637,872.802651 C687.945637,879.740236 689.428805,885.047112 692.395184,888.723439 C695.361564,892.399767 699.455106,894.237903 704.675934,894.237903 Z M799.807248,869.600704 L799.807248,900.286023 C796.781541,901.768413 793.221939,902.92466 789.128336,903.754799 C785.034732,904.584937 780.822536,905 776.491622,905 C769.846932,905 764.092242,903.71034 759.22738,901.130982 C754.362518,898.551623 750.624935,894.845704 748.014522,890.013112 C745.404108,885.180521 744.09892,879.443758 744.09892,872.802651 C744.09892,866.280135 745.389276,860.602666 747.970026,855.770075 C750.550776,850.937484 754.243863,847.216741 759.049398,844.607734 C763.854933,841.998728 769.461306,840.694244 775.868686,840.694244 C780.377582,840.694244 784.574946,841.316839 788.460904,842.562046 C792.346861,843.807254 795.565334,845.526801 798.116421,847.720738 L793.755864,857.593406 C790.848813,855.51806 788.015963,854.020868 785.25723,853.101786 C782.498497,852.182705 779.51733,851.723171 776.31364,851.723171 C764.210812,851.723171 758.159489,858.749594 758.159489,872.802651 C758.159489,880.036714 759.731646,885.432532 762.876008,888.990268 C766.020371,892.548004 770.766507,894.326846 777.114559,894.326846 C780.555559,894.326846 783.966844,893.882135 787.348517,892.992701 L787.348517,879.206543 L775.067767,879.206543 L775.067767,869.600704 L799.807248,869.600704 Z M840.387117,905 C834.15772,905 828.744159,903.680693 824.14627,901.042039 C819.548382,898.403384 816.003612,894.667818 813.511853,889.835226 C811.020094,885.002635 809.774234,879.325167 809.774234,872.802651 C809.774234,866.280135 811.020094,860.602666 813.511853,855.770075 C816.003612,850.937484 819.548382,847.216741 824.14627,844.607734 C828.744159,841.998728 834.15772,840.694244 840.387117,840.694244 C846.616514,840.694244 852.030075,841.998728 856.627963,844.607734 C861.225851,847.216741 864.770622,850.937484 867.262381,855.770075 C869.754139,860.602666 871,866.280135 871,872.802651 C871,879.325167 869.754139,885.002635 867.262381,889.835226 C864.770622,894.667818 861.225851,898.403384 856.627963,901.042039 C852.030075,903.680693 846.616514,905 840.387117,905 Z M840.387117,894.237903 C845.607945,894.237903 849.716319,892.399767 852.712362,888.723439 C855.708405,885.047112 857.206404,879.740236 857.206404,872.802651 C857.206404,865.865066 855.723237,860.573013 852.756857,856.926334 C849.790478,853.279654 845.667272,851.456342 840.387117,851.456342 C835.106961,851.456342 830.998587,853.279654 828.061872,856.926334 C825.125156,860.573013 823.65682,865.865066 823.65682,872.802651 C823.65682,879.740236 825.139988,885.047112 828.106367,888.723439 C831.072747,892.399767 835.166289,894.237903 840.387117,894.237903 Z" id="Combined-Shape" fill="#BABABA"></path>
    </g>
</svg>