<svg width="147" height="131" viewBox="0 0 147 131" fill="none" xmlns="http://www.w3.org/2000/svg">
<rect width="147" height="131" rx="9" fill="#25AFB5" fill-opacity="0.63"/>
<path d="M103.224 97.358H129.602C129.866 97.358 130.081 97.128 130.081 96.8438V29.6597C130.081 29.3754 129.866 29.1454 129.602 29.1454H94.2073C93.9418 29.1454 93.7271 29.3754 93.7271 29.6597V68.1804H91.207V21.9521C91.207 18.8296 93.571 16.3 96.4873 16.3H97.6933C97.7693 16.1243 97.9334 16 98.1269 16H102.725C102.919 16 103.083 16.1243 103.159 16.3H127.441C130.357 16.3 132.721 18.8296 132.721 21.9521V29.254C132.885 29.3368 133 29.5111 133 29.7182V31.5865C133 31.7937 132.885 31.9694 132.721 32.0493V34.2219C132.885 34.3033 133 34.479 133 34.6861V36.5545C133 36.7602 132.885 36.9359 132.721 37.0173V104.381C132.721 107.504 130.357 110.034 127.441 110.034H103.224V97.358ZM112.123 19.9395C111.68 19.9395 111.324 20.3223 111.324 20.7951C111.324 21.2693 111.681 21.6521 112.123 21.6521C112.564 21.6521 112.923 21.2679 112.923 20.7951C112.923 20.3223 112.566 19.9395 112.123 19.9395ZM114.923 23.9647H108.924C108.658 23.9647 108.445 24.1947 108.445 24.4775C108.445 24.7603 108.66 24.9903 108.924 24.9903H114.923C115.187 24.9903 115.403 24.7603 115.403 24.4775C115.403 24.1932 115.187 23.9647 114.923 23.9647ZM111.644 107.89C113.937 107.89 115.802 105.894 115.802 103.439C115.802 100.983 113.937 98.9864 111.644 98.9864C109.349 98.9864 107.484 100.983 107.484 103.439C107.484 105.894 109.349 107.89 111.644 107.89Z" fill="black"/>
<path d="M111.624 99.9705C113.388 99.9705 114.823 101.507 114.823 103.394C114.823 105.284 113.388 106.818 111.624 106.818C109.859 106.818 108.425 105.284 108.425 103.394C108.425 101.507 109.861 99.9705 111.624 99.9705Z" fill="black"/>
<path d="M94.6668 89.6933C96.4305 89.6933 97.866 91.2303 97.866 93.1172C97.866 95.0069 96.4305 96.5439 94.6668 96.5439C92.9032 96.5439 91.4677 95.0069 91.4677 93.1172C91.469 91.2303 92.9032 89.6933 94.6668 89.6933Z" fill="black"/>
<path d="M13.2808 102.206V76.2051C13.2808 73.0813 15.6421 70.553 18.5611 70.553H25.381C25.4543 70.3759 25.6198 70.2531 25.8132 70.2531H27.5582C27.7503 70.2531 27.9157 70.3759 27.9878 70.553H30.0182C30.0943 70.3759 30.2597 70.2531 30.4532 70.2531H32.1955C32.3903 70.2531 32.553 70.3759 32.6277 70.553H95.5474C98.4637 70.553 100.826 73.0827 100.826 76.2051V109.348C100.826 112.472 98.4637 115 95.5474 115H18.5611C15.6421 115 13.2808 112.47 13.2808 109.348V108.057C13.1167 107.975 13.0006 107.801 13.0006 107.592V102.669C13.0006 102.46 13.1167 102.286 13.2808 102.206ZM94.6669 97.5709C96.9602 97.5709 98.8266 95.5755 98.8266 93.1172C98.8266 90.6633 96.9602 88.6635 94.6669 88.6635C92.3736 88.6635 90.5072 90.6633 90.5072 93.1172C90.5086 95.5755 92.3736 97.5709 94.6669 97.5709ZM25.2769 111.789C25.2769 112.073 25.4943 112.302 25.7585 112.302H88.5088C88.7742 112.302 88.9877 112.073 88.9877 111.789V73.8912C88.9877 73.6069 88.7729 73.3784 88.5088 73.3784H25.7598C25.4957 73.3784 25.2782 73.6069 25.2782 73.8912V111.789H25.2769ZM20.4395 96.0311C20.4395 96.3125 20.6543 96.5439 20.9184 96.5439C21.1826 96.5439 21.3974 96.3125 21.3974 96.0311V89.6077C21.3974 89.3234 21.1826 89.0935 20.9184 89.0935C20.6543 89.0935 20.4395 89.3234 20.4395 89.6077V96.0311ZM17.4818 93.46C17.9221 93.46 18.2823 93.0787 18.2823 92.6059C18.2823 92.1331 17.9221 91.7488 17.4818 91.7488C17.0389 91.7488 16.68 92.1331 16.68 92.6059C16.68 93.0787 17.0389 93.46 17.4818 93.46Z" fill="black"/>
<path d="M44.4012 53.5438L47.1333 57.3016C48.685 37.5999 57.7049 28.224 65.1488 23.8166C73.4405 18.9117 81.3753 19.0001 81.7095 19.0001L82.5653 19.0165L82.5653 21.9726L81.6788 21.9562C81.6046 21.948 73.8716 21.8925 66.0579 26.5424C56.2597 32.3806 50.6938 42.696 49.4779 57.2235L52.2714 53.9262L52.1438 58.1815L48.0585 63L44.272 57.7991L44.4012 53.5438Z" fill="black"/>
</svg>
