<svg id="b52aa9ec-85ec-449e-8162-624ffa48762c" data-name="chart-icon" xmlns="http://www.w3.org/2000/svg" viewBox="0 0 99.19 84.08"><defs><style>.a54fbb38-48b1-4bad-8f26-22d61e048784{fill:#C4C4C4;}.b2c555d5-94f1-43de-9206-cac4a65ceb5b{fill:#fff;}</style></defs><g id="a7093d61-a27e-4f11-b99c-aed63f10a81e" data-name="chart-outline"><path class="a54fbb38-48b1-4bad-8f26-22d61e048784" d="M89.11,92H83.33a4.18,4.18,0,0,1-4.27-4c0-.19,0-.39,0-.59V50.9c0-3.69,0-7.37,0-11.06,0-3,1.71-4.66,4.69-4.66H95a4.25,4.25,0,0,1,4.59,4.57q0,9.2,0,18.38v10q0,9.56,0,19.09a6.47,6.47,0,0,1-.29,2,4.1,4.1,0,0,1-4,2.74Z" transform="translate(-0.4 -7.96)"/><path class="b2c555d5-94f1-43de-9206-cac4a65ceb5b" d="M86.15,37.57H83.74c-1.66,0-2.3.64-2.31,2.28V87.48c0,.12,0,.25,0,.38a1.8,1.8,0,0,0,1.9,1.76h12a1.7,1.7,0,0,0,1.71-1.13,4.14,4.14,0,0,0,.15-1.26q0-9.54,0-19.09V39.76c0-1.51-.69-2.19-2.21-2.19Z" transform="translate(-0.4 -7.96)"/><path class="a54fbb38-48b1-4bad-8f26-22d61e048784" d="M99.23,15.57A10.3,10.3,0,0,0,84.87,9a10.25,10.25,0,0,0-5.45,11.91C76.32,23,73,25.28,69.06,28.05a10.07,10.07,0,0,0-13.45,1.39c-.51.56-.58.53-1.14.32-1.93-.75-3.92-1.42-5.83-2.06l-1.49-.5a10.51,10.51,0,0,0-.32-2.46A10.23,10.23,0,0,0,34,17.45,10.27,10.27,0,0,0,27,30c-3.42,2.38-6.84,4.76-10.28,7.18a10,10,0,0,0-9.36-1.42,10.25,10.25,0,0,0,3.5,20,4,4,0,0,0,.49,0,9.53,9.53,0,0,0,4.49-1.42A10,10,0,0,0,20.6,42.89c3.66-2.51,7.25-5,10.36-7.22A9.4,9.4,0,0,0,35.7,37.5a10.06,10.06,0,0,0,9.18-3.75c2.64.93,5.28,1.84,8,2.75a10.27,10.27,0,0,0,8.58,10A10.24,10.24,0,0,0,73,33.73q5.19-3.55,10.35-7.15a9.9,9.9,0,0,0,8.55,1.59A10.19,10.19,0,0,0,99.23,15.57ZM10.63,48.78a3.14,3.14,0,0,1-2.25-.9,3.46,3.46,0,0,1-1-2.41,3.34,3.34,0,0,1,3.35-3.35h0a3.54,3.54,0,0,1,2.42,1.14,3.1,3.1,0,0,1,1,2.21A3.27,3.27,0,0,1,10.63,48.78ZM39.24,29.67a3.32,3.32,0,0,1-2.35,1h0a3.33,3.33,0,1,1,0-6.65h0a3.33,3.33,0,0,1,3.31,3.32A3.28,3.28,0,0,1,39.24,29.67Zm23.86,10h0a3.27,3.27,0,0,1-2.35-1,3.34,3.34,0,0,1-1-2.38A3.4,3.4,0,0,1,63.11,33h0a3.31,3.31,0,0,1,2.34,1,3.35,3.35,0,0,1,1,2.38A3.38,3.38,0,0,1,63.1,39.72ZM92.64,18.26a3.33,3.33,0,0,1-3.32,3.32h0a3.28,3.28,0,0,1-2.33-1,3.34,3.34,0,0,1,2.32-5.72h0a3.29,3.29,0,0,1,2.34,1,3.36,3.36,0,0,1,1,2.39Z" transform="translate(-0.4 -7.96)"/><path class="b2c555d5-94f1-43de-9206-cac4a65ceb5b" d="M96.91,16.16a7.68,7.68,0,0,0-4.28-5.06,7.77,7.77,0,0,0-6.71,0,7.85,7.85,0,0,0-4.18,9.17,2.11,2.11,0,0,1-.92,2.54C77.65,25,74.31,27.29,70.31,30.1a2,2,0,0,1-2.53,0,7.62,7.62,0,0,0-10.4,1,3,3,0,0,1-3.77.94c-1.88-.73-3.84-1.38-5.73-2l-1.73-.58a1.92,1.92,0,0,1-1.38-1.9,9,9,0,0,0-.24-2.13,7.85,7.85,0,0,0-9.85-5.6A7.73,7.73,0,0,0,30,23.6a7.61,7.61,0,0,0-.59,6,1.83,1.83,0,0,1-.76,2.23q-5.35,3.7-10.69,7.46a2,2,0,0,1-2.48,0,7.67,7.67,0,0,0-4.67-1.65A8.4,8.4,0,0,0,8.11,38a7.88,7.88,0,0,0,2.8,15.32H11a6.82,6.82,0,0,0,3.65-1.11,7.65,7.65,0,0,0,3.6-8.77,2.09,2.09,0,0,1,.9-2.48c3.76-2.58,7.47-5.18,10.59-7.38a1.9,1.9,0,0,1,2.45,0,7.17,7.17,0,0,0,3.71,1.49A7.74,7.74,0,0,0,43.22,32a1.68,1.68,0,0,1,2.05-.65c2.85,1,5.7,2,8.55,3a1.9,1.9,0,0,1,1.4,2,7.88,7.88,0,1,0,15.46-2,2,2,0,0,1,.84-2.39c3.53-2.42,7.06-4.85,10.56-7.3a2,2,0,0,1,2.57,0,7.52,7.52,0,0,0,6.64,1.3A7.85,7.85,0,0,0,96.91,16.16ZM10.63,48.78a3.14,3.14,0,0,1-2.25-.9,3.46,3.46,0,0,1-1-2.41,3.34,3.34,0,0,1,3.35-3.35h0a3.54,3.54,0,0,1,2.42,1.14,3.1,3.1,0,0,1,1,2.21A3.27,3.27,0,0,1,10.63,48.78ZM39.24,29.67a3.32,3.32,0,0,1-2.35,1h0a3.33,3.33,0,1,1,0-6.65h0a3.33,3.33,0,0,1,3.31,3.32A3.28,3.28,0,0,1,39.24,29.67Zm23.86,10h0a3.27,3.27,0,0,1-2.35-1,3.34,3.34,0,0,1-1-2.38A3.4,3.4,0,0,1,63.11,33h0a3.31,3.31,0,0,1,2.34,1,3.35,3.35,0,0,1,1,2.38A3.38,3.38,0,0,1,63.1,39.72ZM92.64,18.26a3.33,3.33,0,0,1-3.32,3.32h0a3.28,3.28,0,0,1-2.33-1,3.34,3.34,0,0,1,2.32-5.72h0a3.29,3.29,0,0,1,2.34,1,3.36,3.36,0,0,1,1,2.39Z" transform="translate(-0.4 -7.96)"/><path class="a54fbb38-48b1-4bad-8f26-22d61e048784" d="M14.87,41.59a6,6,0,0,0-4.18-1.86,5.74,5.74,0,0,0-4,9.86,5.44,5.44,0,0,0,3.83,1.57h.14a5.64,5.64,0,0,0,5.82-5.6A5.45,5.45,0,0,0,14.87,41.59Zm-4.24,7.19a3.14,3.14,0,0,1-2.25-.9,3.46,3.46,0,0,1-1-2.41,3.34,3.34,0,0,1,3.35-3.35h0a3.54,3.54,0,0,1,2.42,1.14,3.1,3.1,0,0,1,1,2.21A3.27,3.27,0,0,1,10.63,48.78Z" transform="translate(-0.4 -7.96)"/><path class="a54fbb38-48b1-4bad-8f26-22d61e048784" d="M67.15,32.36a5.64,5.64,0,0,0-4-1.7h0a5.73,5.73,0,0,0,0,11.45h0a5.74,5.74,0,0,0,5.74-5.68A5.68,5.68,0,0,0,67.15,32.36ZM63.1,39.72h0a3.27,3.27,0,0,1-2.35-1,3.34,3.34,0,0,1-1-2.38A3.4,3.4,0,0,1,63.11,33h0a3.31,3.31,0,0,1,2.34,1,3.35,3.35,0,0,1,1,2.38A3.38,3.38,0,0,1,63.1,39.72Z" transform="translate(-0.4 -7.96)"/><path class="a54fbb38-48b1-4bad-8f26-22d61e048784" d="M36.93,21.61h0a5.69,5.69,0,0,0-4.08,9.7,5.67,5.67,0,0,0,4,1.72h0a5.71,5.71,0,0,0,0-11.42Zm2.31,8.06a3.32,3.32,0,0,1-2.35,1h0a3.33,3.33,0,1,1,0-6.65h0a3.33,3.33,0,0,1,3.31,3.32A3.28,3.28,0,0,1,39.24,29.67Z" transform="translate(-0.4 -7.96)"/><path class="a54fbb38-48b1-4bad-8f26-22d61e048784" d="M93.34,14.18a5.67,5.67,0,0,0-4-1.68h0a5.73,5.73,0,0,0-4,9.8,5.66,5.66,0,0,0,4,1.67h0a5.73,5.73,0,0,0,4-9.79Zm-.7,4.08a3.33,3.33,0,0,1-3.32,3.32h0a3.28,3.28,0,0,1-2.33-1,3.34,3.34,0,0,1,2.32-5.72h0a3.29,3.29,0,0,1,2.34,1,3.36,3.36,0,0,1,1,2.39Z" transform="translate(-0.4 -7.96)"/><path class="a54fbb38-48b1-4bad-8f26-22d61e048784" d="M36.51,92H31.08a4.17,4.17,0,0,1-4.44-4.45V67.75c0-3.74,0-7.49,0-11.23,0-2.68.06-5.35.1-8A4,4,0,0,1,31,44.28c1.16,0,2.33,0,3.5,0,2.59,0,5.28,0,7.92,0A4.7,4.7,0,0,1,46,45.61a4.57,4.57,0,0,1,1.19,3.51c0,.5,0,1,0,1.56,0,.26,0,.51,0,.77V87.63A4.21,4.21,0,0,1,42.77,92Z" transform="translate(-0.4 -7.96)"/><path class="b2c555d5-94f1-43de-9206-cac4a65ceb5b" d="M31.22,46.67H31c-1.29,0-1.88.57-1.9,1.86-.05,2.67-.09,5.33-.1,8q0,5.61,0,11.21V87.56a1.82,1.82,0,0,0,2,2.06H42.77a1.84,1.84,0,0,0,2-2V51.45c0-.24,0-.49,0-.73,0-.57,0-1.16,0-1.76a2.16,2.16,0,0,0-.54-1.7,2.23,2.23,0,0,0-1.76-.62c-2.67.07-5.38,0-8,0Z" transform="translate(-0.4 -7.96)"/><path class="a54fbb38-48b1-4bad-8f26-22d61e048784" d="M68.92,92h-.1c-2.66-.06-5.37-.05-8,0H57.27a4.21,4.21,0,0,1-4.44-4.46q0-14.86,0-29.72a4.27,4.27,0,0,1,4.48-4.52c3.87,0,7.75,0,11.63,0a4.23,4.23,0,0,1,4.42,4.41v15c0,1.4,0,2.81,0,4.21,0,3.45,0,7,0,10.51a4.5,4.5,0,0,1-1.31,3.31A4.45,4.45,0,0,1,68.92,92Z" transform="translate(-0.4 -7.96)"/><path class="b2c555d5-94f1-43de-9206-cac4a65ceb5b" d="M64.09,89.61c1.59,0,3.19,0,4.78,0A2.06,2.06,0,0,0,71,87.48c0-3.52,0-7.1,0-10.55,0-1.41,0-2.81,0-4.21v-15a1.86,1.86,0,0,0-2-2q-5.81,0-11.62,0a1.91,1.91,0,0,0-2.1,2.13V87.55a1.87,1.87,0,0,0,2.07,2.07c1.18,0,2.36,0,3.54,0Z" transform="translate(-0.4 -7.96)"/><path class="a54fbb38-48b1-4bad-8f26-22d61e048784" d="M16.41,92h-.13C13.69,92,11,92,8.48,92c-1.18,0-2.36,0-3.55,0a4.2,4.2,0,0,1-4.52-4.5c0-2.57,0-5.13,0-7.7V66.92a4.16,4.16,0,0,1,2.68-4.2,4.57,4.57,0,0,1,1.71-.28H16.56A4.16,4.16,0,0,1,21,66.8c0,2.49,0,5,0,7.46v3c0,1,0,2,0,3,0,2.33,0,4.74,0,7.11A4.41,4.41,0,0,1,16.41,92Z" transform="translate(-0.4 -7.96)"/><path class="b2c555d5-94f1-43de-9206-cac4a65ceb5b" d="M11.68,89.6c1.55,0,3.11,0,4.66.05a2,2,0,0,0,2.25-2.24c-.05-2.4,0-4.83,0-7.17,0-1,0-2,0-3h0v-3c0-2.48,0-5,0-7.45a1.8,1.8,0,0,0-2-2c-3.92,0-7.83,0-11.75,0a2.63,2.63,0,0,0-.82.1,1.83,1.83,0,0,0-1.2,2V79.81c0,2.56,0,5.13,0,7.69a1.86,1.86,0,0,0,2.13,2.12c1.18,0,2.36,0,3.54,0Z" transform="translate(-0.4 -7.96)"/></g></svg>