<?xml version="1.0" standalone="no"?>
<!DOCTYPE svg PUBLIC "-//W3C//DTD SVG 20010904//EN"
 "http://www.w3.org/TR/2001/REC-SVG-20010904/DTD/svg10.dtd">
<svg version="1.0" xmlns="http://www.w3.org/2000/svg"
 width="980.000000pt" height="980.000000pt" viewBox="0 0 980.000000 980.000000"
 preserveAspectRatio="xMidYMid meet">
<metadata>
Created by potrace 1.16, written by Peter Selinger 2001-2019
</metadata>
<g transform="translate(0.000000,980.000000) scale(0.100000,-0.100000)"
fill="#fff" stroke="none">
<path d="M4655 9794 c-1104 -67 -2073 -448 -2910 -1145 -129 -108 -401 -375
-519 -509 -637 -726 -1040 -1595 -1175 -2536 -38 -263 -46 -384 -45 -704 0
-445 40 -782 141 -1185 216 -865 650 -1631 1283 -2266 499 -501 1027 -850
1679 -1109 1039 -413 2233 -448 3313 -96 392 128 806 326 1153 553 1013 663
1753 1685 2059 2843 304 1153 184 2365 -339 3425 -402 815 -1027 1506 -1798
1989 -640 401 -1344 641 -2122 722 -135 14 -597 26 -720 18z m3072 -2766 c244
-244 443 -447 443 -453 0 -5 -953 -963 -2118 -2128 l-2117 -2117 -1253 1253
-1252 1252 415 415 415 415 803 -803 802 -802 1705 1705 c938 938 1707 1705
1710 1705 3 0 204 -199 447 -442z"/>
</g>
</svg>
