<svg width="48" height="48" viewBox="0 0 48 48" fill="none" xmlns="http://www.w3.org/2000/svg">
  <rect x="14.3999" y="9.6001" width="21.6" height="28.8" fill="white"/>
  <path d="M0 24C0 17.6348 2.52856 11.5303 7.02944 7.02944C11.5303 2.52856 17.6348 0 24 0C27.1517 0 30.2726 0.620778 33.1844 1.82689C36.0962 3.033 38.742 4.80083 40.9706 7.02944C43.1992 9.25804 44.967 11.9038 46.1731 14.8156C47.3792 17.7274 48 20.8483 48 24C48 30.3652 45.4714 36.4697 40.9706 40.9706C36.4697 45.4714 30.3652 48 24 48C20.8483 48 17.7274 47.3792 14.8156 46.1731C11.9038 44.967 9.25804 43.1992 7.02944 40.9706C2.52856 36.4697 0 30.3652 0 24ZM19.2 36L31.2 24L19.2 12V36Z" fill="#04A9B0"/>
</svg>
