<svg xmlns="http://www.w3.org/2000/svg" viewBox="0 0 94.96 98.19"><defs><style>.a{fill:#ee3968;}</style></defs><path class="a" d="M92.16,49.93H5.93a3.44,3.44,0,0,1-3.41-3.46V19.6a3.44,3.44,0,0,1,3.24-3.45L92,.9h.15a3.43,3.43,0,0,1,3.4,3.32l1.92,13.22L11.36,31.25l-.53-3.34L93.65,14.63,92.18,4.31,6.08,19.53H5.93l0,26.94,86.25.07V38.1l-81.07.15V34.87l84.47-.16V46.47A3.43,3.43,0,0,1,92.16,49.93Z" transform="translate(-2.52 -0.9)"/><path class="a" d="M92.26,99.1H5.9a3.38,3.38,0,0,1-3.38-3.36V72H5.91V95.74l86.35,0v-44A3.37,3.37,0,0,1,95.64,55v40.7A3.38,3.38,0,0,1,92.26,99.1Z" transform="translate(-2.52 -0.9)"/><rect class="a" x="7.63" y="40.76" width="13.77" height="3.39" transform="translate(-32.11 33.31) rotate(-60.55)"/><rect class="a" x="22.87" y="40.76" width="13.77" height="3.39" transform="translate(-24.36 46.58) rotate(-60.55)"/><rect class="a" x="38.1" y="40.76" width="13.77" height="3.39" transform="translate(-16.62 59.85) rotate(-60.55)"/><rect class="a" x="51.65" y="40.76" width="13.77" height="3.39" transform="translate(-9.73 71.64) rotate(-60.55)"/><rect class="a" x="65.19" y="40.76" width="13.77" height="3.39" transform="translate(-2.85 83.43) rotate(-60.55)"/><rect class="a" x="80.43" y="40.76" width="13.77" height="3.39" transform="translate(4.89 96.7) rotate(-60.55)"/><rect class="a" x="8.15" y="21.47" width="13.77" height="3.39" transform="translate(-14.37 28.57) rotate(-70.22)"/><rect class="a" x="23.17" y="18.92" width="13.77" height="3.39" transform="matrix(0.34, -0.94, 0.94, 0.34, -2.04, 41)"/><rect class="a" x="38.19" y="16.36" width="13.77" height="3.39" transform="translate(10.3 53.44) rotate(-70.21)"/><rect class="a" x="51.54" y="14.09" width="13.77" height="3.39" transform="translate(21.27 64.5) rotate(-70.2)"/><rect class="a" x="64.89" y="11.81" width="13.77" height="3.39" transform="translate(32.24 75.56) rotate(-70.2)"/><rect class="a" x="79.91" y="9.25" width="13.77" height="3.39" transform="translate(44.61 88.02) rotate(-70.23)"/><rect class="a" x="10.37" y="62.64" width="72.37" height="3.39"/><rect class="a" x="10.37" y="79.57" width="72.37" height="3.39"/></svg>