<svg xmlns="http://www.w3.org/2000/svg" viewBox="0 0 70.02 99.97"><defs><style>.a{fill:#25AFB5;}</style></defs><path class="a" d="M61.36,9.44a6.87,6.87,0,0,0,.44-2.36,7.08,7.08,0,1,0-14.16,0,7.1,7.1,0,0,0,.43,2.36H43v9.44h23.5V9.44Zm-4.09,4.91h-5V9.25h5Z" transform="translate(-14.99)"/><polygon class="a" points="45.19 5.11 45.19 8.22 66.66 8.22 66.66 96.09 3.36 96.09 3.36 8.22 23.97 8.22 23.97 5.11 0 5.11 0 99.97 70.02 99.97 70.02 5.11 45.19 5.11"/><path class="a" d="M23.17,13.05V91.69H76.39V13.05H64.32v8.27H35.17V13.05ZM38.1,49.5l8.78,8.79L61.39,43.77l5.73,5.73L46.88,69.76,32.37,55.25Z" transform="translate(-14.99)"/></svg>