<svg xmlns="http://www.w3.org/2000/svg" viewBox="0 0 100 44.37"><defs><style>.a{fill:#fff;}.b{fill:#25afb5;}</style></defs><path class="a" d="M47.08,60.56c-.17.32-.3.56-.46.81l-1.35,1.88v0h1.82V61.43a8.42,8.42,0,0,1,0-.87Z" transform="translate(0 -27.81)"/><path class="a" d="M77.4,60.31c-.64,0-1.09.56-1.09,1.35a1.06,1.06,0,0,0,1.06,1.17,1.25,1.25,0,0,0,1.09-.58.51.51,0,0,0,.07-.27C78.53,61,78.18,60.31,77.4,60.31Z" transform="translate(0 -27.81)"/><path class="a" d="M71.34,62.18a1.08,1.08,0,0,0,.84-1,.86.86,0,0,0-.93-.9.88.88,0,0,0-1,.89C70.29,61.72,70.7,62,71.34,62.18Z" transform="translate(0 -27.81)"/><path class="a" d="M58.91,62.29a1.22,1.22,0,0,0-1.07.68.54.54,0,0,0-.09.33c0,.91.43,1.58,1.22,1.58s1.08-.54,1.08-1.33A1.12,1.12,0,0,0,58.91,62.29Z" transform="translate(0 -27.81)"/><path class="a" d="M71.13,62.72a1.2,1.2,0,0,0-1,1.14,1,1,0,0,0,1.11,1,1,1,0,0,0,1.11-1C72.34,63.26,71.88,62.93,71.13,62.72Z" transform="translate(0 -27.81)"/><path class="a" d="M19.18,27.81,0,39V61.1L19.18,72.19H100V27.81ZM77.5,34.54h.39V58.43H77.5Zm-7.64,0h.79V58.43h-.79Zm-10.08,0V58.43H58.15V34.54Zm-8,0h.78V58.43h-.78Zm-3.32,0V58.43h-.31V34.54Zm-7.55,0h.79V58.43h-.79Zm-1.93,0h.23V58.43H39Zm-4.21,0h.42V58.43h-.42Zm-.52,0V58.43h-.93V34.54Zm-6.56,0H28V58.43h-.31ZM9,52.9A2.9,2.9,0,1,1,11.85,50,2.9,2.9,0,0,1,9,52.9Zm5.9,11.15V34.54h3.32V64.05Zm3.84,0V34.54h.79V64.05Zm1.77-29.51h2.65V58.43H20.47Zm2,30.82c-1,0-1.75-1-1.76-2.74s.77-2.78,1.85-2.78,1.77,1,1.77,2.7S23.67,65.36,22.48,65.36Zm3.65-30.82h.95V58.43h-.95ZM27.9,65.36V60.53h0l-1,.52-.15-.57L28,59.84h.64v5.53Zm1.79-6.93V34.54h2V58.43Zm2.75,6.93V64.9l.59-.57c1.41-1.34,2-2,2-2.89A1,1,0,0,0,34,60.36a1.93,1.93,0,0,0-1.18.47l-.23-.53a2.42,2.42,0,0,1,1.56-.56,1.56,1.56,0,0,1,1.69,1.61c0,1-.74,1.85-1.9,3l-.44.4v0H36v.62ZM38,58.43H36.63V34.54H38Zm2,7a2.8,2.8,0,0,1-1.44-.38l.2-.58a2.5,2.5,0,0,0,1.23.35c1,0,1.26-.61,1.25-1.07,0-.77-.71-1.1-1.43-1.1h-.42v-.56h.42c.55,0,1.23-.29,1.23-.94,0-.44-.28-.83-1-.83a2,2,0,0,0-1.1.36l-.2-.54a2.65,2.65,0,0,1,1.45-.43c1.09,0,1.58.65,1.58,1.32a1.37,1.37,0,0,1-1,1.3v0A1.44,1.44,0,0,1,42,63.8C42,64.68,41.34,65.46,40,65.46Zm2.47-30.92h4.19V58.43h-4.2Zm6.07,29.32h-.77v1.5h-.71v-1.5H44.52v-.49L47,59.84h.81v3.43h.77Zm.66-5.43V34.54H50.3V58.43Zm1.5-23.89h.4V58.43h-.4Zm1.57,30.92a2.75,2.75,0,0,1-1.38-.34l.19-.57a2.44,2.44,0,0,0,1.18.3,1.22,1.22,0,0,0,1.31-1.2c0-.71-.49-1.22-1.59-1.22a5,5,0,0,0-.76.06l.35-2.65h2.65v.63H52.13l-.21,1.42a2.52,2.52,0,0,1,1.64.26,1.58,1.58,0,0,1,.79,1.42A1.92,1.92,0,0,1,52.29,65.46Zm3.08-7V34.54h.55V58.43Zm3.6,7c-1.18,0-2-.92-2-2.36A3.46,3.46,0,0,1,58,60.61a3,3,0,0,1,1.76-.82,4.27,4.27,0,0,1,.55,0v.61a2.94,2.94,0,0,0-.56,0,2.23,2.23,0,0,0-1.92,2h0a1.68,1.68,0,0,1,1.34-.64,1.65,1.65,0,0,1,1.66,1.79A1.84,1.84,0,0,1,59,65.46Zm2-7h-.53V34.54H61Zm1.62-23.89h2.65V58.43H62.61Zm4.25,25.79-2.41,5h-.77l2.4-4.89H63.37v-.62h3.49Zm.16-1.9h-.78V34.54H67Zm2,0h-.4V34.54H69Zm2.25,7c-1.16,0-1.85-.69-1.85-1.5a1.58,1.58,0,0,1,1.1-1.48v0a1.38,1.38,0,0,1-.88-1.24,1.55,1.55,0,0,1,1.71-1.48A1.38,1.38,0,0,1,72,62.4v0a1.53,1.53,0,0,1,1.11,1.43A1.7,1.7,0,0,1,71.22,65.46Zm3-7H71.88V34.54h2.39Zm4.06,6.23a2.75,2.75,0,0,1-1.61.75,3.48,3.48,0,0,1-.68,0v-.61a3.36,3.36,0,0,0,.6,0,2.12,2.12,0,0,0,1.16-.54,2.48,2.48,0,0,0,.73-1.47h0a1.66,1.66,0,0,1-2.93-1.09,1.89,1.89,0,0,1,1.89-2c1.13,0,1.82.92,1.82,2.33A3.44,3.44,0,0,1,78.33,64.66Zm3.18-.61h-.78V34.54h.78Zm2.5,0h-1.9V34.54H84Zm1.13,0h-.79V34.54h.79Z" transform="translate(0 -27.81)"/><path class="a" d="M22.53,60.4c-.63,0-1.09.77-1.09,2.23s.43,2.18,1.08,2.18,1.1-.87,1.1-2.23S23.28,60.4,22.53,60.4Z" transform="translate(0 -27.81)"/><path class="b" d="M56.35,65.65a4.27,4.27,0,0,1-2.61-.89L44,57.29A3.36,3.36,0,1,1,48.07,52l7.6,5.82L68.18,37a3.36,3.36,0,1,1,5.76,3.46L60,63.57a4.3,4.3,0,0,1-2.89,2A4.15,4.15,0,0,1,56.35,65.65Zm1.47-6.23h0Z" transform="translate(0 -27.81)"/></svg>