<svg width="15" height="15" viewBox="0 0 15 15" fill="none" xmlns="http://www.w3.org/2000/svg">
    <path fill-rule="evenodd" clip-rule="evenodd" d="M1.24988 0.588815L0.168455 1.66995C-0.0541906 1.89254 -0.0541906 2.27412 0.168455 2.4967L1.47252 3.80043L3.38092 1.89254L2.07685 0.588815C1.8542 0.366228 1.47252 0.366228 1.24988 0.588815ZM1.91782 4.2456L8.08829 10.4144L9.99668 8.50655L3.82621 2.33771L1.91782 4.2456ZM8.59719 10.796L10.8236 11.4956C10.9827 11.5274 11.1099 11.4002 11.0781 11.2412L10.3784 9.01532L8.59719 10.796Z" fill="white"/>
    <path d="M2.01862 7.19662C2.01862 6.96813 1.82272 6.77229 1.59417 6.77229C1.36563 6.77229 1.16973 6.96813 1.16973 7.19662V12.7782C1.16973 13.9859 2.18186 14.9978 3.38989 14.9978H11.7808C13.0215 14.9978 14.001 13.9859 14.001 12.7782V4.3895C14.001 3.14915 13.0215 2.16992 11.7808 2.16992H7.14459C6.91604 2.16992 6.75279 2.36577 6.75279 2.59425C6.75279 2.82274 6.91604 2.98594 7.14459 2.98594H11.7808C12.5644 2.98594 13.1847 3.60612 13.1847 4.3895V12.7782C13.1847 13.529 12.5644 14.1491 11.7808 14.1491H3.38989C2.63896 14.1491 2.01862 13.529 2.01862 12.7782V7.19662Z" fill="white"/>
</svg>
