<svg class="gs-icon" id="b5bd96cb-d699-48f2-ae17-84c18d2b989a-5" data-name="call" xmlns="http://www.w3.org/2000/svg" viewBox="0 0 78.43 99.79">
    <g id="b05f81e2-66a6-4e72-b074-937ab92d93a4" data-name="resume-outline">
        <path fill="#fff" class="bfafc104-2536-4fb5-9cbf-e89641868380" d="M61.52,27.8A1.81,1.81,0,0,1,61,26.5V3.79H14.47V96.21H85.53V28.34H62.82A1.81,1.81,0,0,1,61.52,27.8Z" transform="translate(-10.78 -0.1)"></path>
        <path fill="#C4C4C4" class="af6b65cc-b197-45ac-a3bc-450477ba3d8d-5" d="M89.22,26.49c0-.06,0-.12,0-.17a.68.68,0,0,1,0-.14.06.06,0,0,1,0,0,.75.75,0,0,0,0-.16v0l-.06-.15v0L89,25.66s0,0,0,0l-.07-.12,0,0-.08-.11,0,0-.1-.11,0,0L64.12.64h0L64,.52l0,0L63.84.41h0L63.69.32h0L63.52.24h0L63.36.18h0l-.17,0h0L63,.11H12.63A1.85,1.85,0,0,0,10.78,2v96.1a1.85,1.85,0,0,0,1.85,1.85H87.37a1.85,1.85,0,0,0,1.85-1.85V26.5h0ZM85.53,96.21H14.47V3.79H61V26.5a1.84,1.84,0,0,0,1.84,1.84H85.53ZM64.66,6.39,82.93,24.66H64.66Z" transform="translate(-10.78 -0.1)"></path>
        <path fill="#C4C4C4" class="b5f6f5ae-7390-4979-b738-03331d3c1b40-5" d="M70.86,63.69H29.14a1.84,1.84,0,1,0,0,3.68H70.86a1.84,1.84,0,0,0,0-3.68Z" transform="translate(-10.78 -0.1)"></path>
        <path fill="#C4C4C4" class="b5f6f5ae-7390-4979-b738-03331d3c1b40-5" d="M70.86,50.06H29.14a1.84,1.84,0,1,0,0,3.68H70.86a1.84,1.84,0,1,0,0-3.68Z" transform="translate(-10.78 -0.1)"></path>
    </g>
</svg>