<svg id="af78fdad-619b-4fba-81b0-5c02239e8e40" data-name="gear-icon" xmlns="http://www.w3.org/2000/svg" viewBox="0 0 99.07 99.07"><defs><style>.ecf3530f-e3f5-4d6e-a338-f7a1d3440fdb{fill:#fff;}.f1c0f04d-d94e-449f-af32-88e2c49101cf{fill:#f36;}</style></defs><g id="ab169251-105d-4088-9003-43831583301a" data-name="gear-outline"><path class="ecf3530f-e3f5-4d6e-a338-f7a1d3440fdb" d="M42.66,97.7,32.51,95a1.91,1.91,0,0,1-1-1.32l-.59-7.3a7.12,7.12,0,0,0-2.77-4.81L25.11,79.2a7.13,7.13,0,0,0-4.32-1.46,5,5,0,0,0-1,.08l-7.2,1.33h-.16a2,2,0,0,1-1.38-.63L5.83,69.44a2,2,0,0,1,.23-1.63l4.75-5.57a7.07,7.07,0,0,0,1.43-5.36l-.49-3.83A7.08,7.08,0,0,0,9,48.33L3,44.17a1.91,1.91,0,0,1-.65-1.51L5,32.52a1.89,1.89,0,0,1,1.32-1l7.3-.59a7.12,7.12,0,0,0,4.81-2.77l2.36-3.06a7,7,0,0,0,1.38-5.29l-1.33-7.2a1.93,1.93,0,0,1,.62-1.54l9.09-5.25a1.42,1.42,0,0,1,.54-.09,1.88,1.88,0,0,1,1.09.32l5.57,4.75a7.15,7.15,0,0,0,4.39,1.52,6.17,6.17,0,0,0,1-.08l3.82-.5A7.1,7.1,0,0,0,51.67,9l4.16-6a1.91,1.91,0,0,1,1.39-.65h.12L67.49,5a1.91,1.91,0,0,1,1,1.32l.59,7.3a7.15,7.15,0,0,0,2.77,4.81l3.06,2.36a7.13,7.13,0,0,0,4.32,1.46,5,5,0,0,0,1-.08l7.2-1.32.16,0a2,2,0,0,1,1.38.63l5.25,9.09a2,2,0,0,1-.23,1.63l-4.75,5.57a7.12,7.12,0,0,0-1.44,5.36l.5,3.83A7.08,7.08,0,0,0,91,51.67l6,4.16a1.91,1.91,0,0,1,.65,1.51L95,67.48a1.89,1.89,0,0,1-1.32,1l-7.3.59a7.09,7.09,0,0,0-4.81,2.77L79.2,74.89a7,7,0,0,0-1.38,5.29l1.32,7.2a1.89,1.89,0,0,1-.61,1.54l-9.09,5.25a1.42,1.42,0,0,1-.54.09,1.88,1.88,0,0,1-1.09-.32l-5.57-4.75a7.15,7.15,0,0,0-4.39-1.52,6.17,6.17,0,0,0-1,.08l-3.82.5A7,7,0,0,0,48.33,91l-4.16,6a1.92,1.92,0,0,1-1.4.65ZM50,21.49A28.51,28.51,0,1,0,78.51,50,28.54,28.54,0,0,0,50,21.49Z" transform="translate(-0.46 -0.46)"/><path class="f1c0f04d-d94e-449f-af32-88e2c49101cf" d="M57.22,4.17l9.44,2.52.57,7.08a8.92,8.92,0,0,0,3.46,6.12l3,2.31a8.93,8.93,0,0,0,5.5,1.9,7.77,7.77,0,0,0,1.3-.11l7-1.29,4.89,8.46-4.61,5.41a8.87,8.87,0,0,0-1.86,6.77l.49,3.77A8.89,8.89,0,0,0,90,53.18l5.86,4-2.52,9.44-7.08.57a8.92,8.92,0,0,0-6.12,3.46l-2.31,3A8.87,8.87,0,0,0,76,80.51l1.29,7L68.84,92.4l-5.41-4.61a9,9,0,0,0-5.58-2,7.64,7.64,0,0,0-1.19.1l-3.77.49A8.89,8.89,0,0,0,46.82,90l-4,5.86-9.44-2.52-.57-7.08a8.92,8.92,0,0,0-3.46-6.12l-3-2.31a8.93,8.93,0,0,0-5.5-1.9,8,8,0,0,0-1.31.11l-7,1.29L7.6,68.84l4.61-5.41a8.86,8.86,0,0,0,1.86-6.77l-.49-3.77A8.89,8.89,0,0,0,10,46.82l-5.86-4,2.52-9.44,7.08-.57a8.92,8.92,0,0,0,6.12-3.46l2.31-3A8.87,8.87,0,0,0,24,19.49l-1.29-7L31.16,7.6l5.41,4.61a9,9,0,0,0,5.58,2,7.64,7.64,0,0,0,1.19-.1l3.77-.49A8.89,8.89,0,0,0,53.18,10l4-5.86M50,80.34A30.34,30.34,0,1,0,19.66,50,30.37,30.37,0,0,0,50,80.34M57.22.46a3.73,3.73,0,0,0-2.9,1.45L50.16,8a5.27,5.27,0,0,1-3.45,2l-3.92.51a3.31,3.31,0,0,1-.64.06A5.32,5.32,0,0,1,39,9.41L33.38,4.67a3.58,3.58,0,0,0-2.28-.76,3.1,3.1,0,0,0-1.38.29L20.47,9.54A3.69,3.69,0,0,0,19.05,13l1.32,7.2a5.24,5.24,0,0,1-1,3.84l-2.41,3.14a5.27,5.27,0,0,1-3.45,2l-7.29.59A3.7,3.7,0,0,0,3.26,32L.51,42.27a3.65,3.65,0,0,0,1.4,3.41l6,4.16a5.27,5.27,0,0,1,2,3.45l.51,3.92a5.24,5.24,0,0,1-1,3.84L4.67,66.62a3.66,3.66,0,0,0-.47,3.66l5.34,9.25A3.73,3.73,0,0,0,12.46,81,2.63,2.63,0,0,0,13,81l7.2-1.32a3.24,3.24,0,0,1,.64-.06A5.32,5.32,0,0,1,24,80.66l3.14,2.41a5.27,5.27,0,0,1,2,3.45l.59,7.29A3.7,3.7,0,0,0,32,96.74l10.32,2.75a2.76,2.76,0,0,0,.51.05,3.73,3.73,0,0,0,2.9-1.45l4.16-6a5.27,5.27,0,0,1,3.45-2l3.92-.51a3.31,3.31,0,0,1,.64-.06,5.32,5.32,0,0,1,3.2,1.09l5.57,4.74a3.58,3.58,0,0,0,2.28.76,3.13,3.13,0,0,0,1.38-.29l9.25-5.34A3.69,3.69,0,0,0,81,87.05l-1.32-7.2a5.24,5.24,0,0,1,1-3.84l2.41-3.14a5.32,5.32,0,0,1,3.45-2l7.29-.58a3.7,3.7,0,0,0,2.93-2.25l2.75-10.32a3.65,3.65,0,0,0-1.4-3.41l-6-4.16a5.27,5.27,0,0,1-2-3.45l-.51-3.92a5.24,5.24,0,0,1,1-3.84l4.74-5.57a3.66,3.66,0,0,0,.47-3.66l-5.34-9.25A3.73,3.73,0,0,0,87.54,19a2.63,2.63,0,0,0-.49,0l-7.2,1.32a3.24,3.24,0,0,1-.64.06A5.32,5.32,0,0,1,76,19.34l-3.14-2.41a5.27,5.27,0,0,1-2-3.45L70.3,6.19a3.7,3.7,0,0,0-2.25-2.93L57.73.51a2.76,2.76,0,0,0-.51,0ZM50,76.67A26.67,26.67,0,1,1,76.67,50,26.67,26.67,0,0,1,50,76.67Z" transform="translate(-0.46 -0.46)"/></g></svg>