<svg id="f3c6d31d-b490-4822-ba1b-bf1d61483871" data-name="globe-icon" xmlns="http://www.w3.org/2000/svg" viewBox="0 0 98.96 98.96"><defs><style>.e360efde-131e-4090-b64b-0d6df45bdc40{fill:#C4C4C4;}.a68896d7-882d-435b-a6fd-3a30ea0174bf{fill:#fff;}</style></defs><g id="a73c8210-efea-4453-a3f7-e360adad6c76" data-name="globe-outline"><path class="e360efde-131e-4090-b64b-0d6df45bdc40" d="M50,.52A49.48,49.48,0,1,0,99.48,50,49.54,49.54,0,0,0,50,.52Z" transform="translate(-0.52 -0.52)"/><path class="a68896d7-882d-435b-a6fd-3a30ea0174bf" d="M50,3.08A46.92,46.92,0,1,1,3.08,50,46.92,46.92,0,0,1,50,3.08" transform="translate(-0.52 -0.52)"/><path class="e360efde-131e-4090-b64b-0d6df45bdc40" d="M78.84,54.68a3.94,3.94,0,0,0,1.94,2c.36-1.5-3-7.93-4.28-8.39-.61.76-.17,1.47.17,2.15C77.37,51.86,78.11,53.27,78.84,54.68Z" transform="translate(-0.52 -0.52)"/><path class="e360efde-131e-4090-b64b-0d6df45bdc40" d="M65.66,40.81a10.51,10.51,0,0,0-1.42-.72,3.28,3.28,0,0,0-4.15,1.19c-.87,1.16-1.36,2.7-3.13,3l.2.36a24.81,24.81,0,0,1,3.69-1.2,25.28,25.28,0,0,1,3.9,0,12.41,12.41,0,0,0,.12,1.43c.08.35.2.85.46,1,1.09.56,2.23,1,3.41,1.53,0-1.88.08-1.85,1.86-1.46a14.59,14.59,0,0,0,3.77.42c1.42-.05,2.41-1.62,2.12-3.24-1.51,1-2.57,0-3.71-.73-.66-.42-1.31-.87-2-1.24-.19-.1-.5,0-.75,0a3.33,3.33,0,0,0,.27.73c.09.13.35.14.45.27s.35.5.3.69-.42.47-.59.43a3.12,3.12,0,0,1-1.23-.55,15.07,15.07,0,0,1-1.32-1.34,11.39,11.39,0,0,1-1.27,2c-.19.2-.78,0-1.18,0,.1-.29.12-.68.32-.86C66.51,41.82,66.51,41.32,65.66,40.81Z" transform="translate(-0.52 -0.52)"/><path class="e360efde-131e-4090-b64b-0d6df45bdc40" d="M3.68,52.83l-.19.08-.8-.75c.85,21.69,16.69,38,32.19,42.52-.72-1.34-1.38-2.59-2-3.83a4.23,4.23,0,0,1-.55-1C31.93,88.26,30.69,87,31,85.2c0-.09-.07-.2-.11-.3-.78-2.13-1.59-4.25-2.33-6.4a5.78,5.78,0,0,0-2.35-3,34.22,34.22,0,0,1-3.5-2.76c-.44-.38-.65-1-1.07-1.44a4.65,4.65,0,0,1-.77-5.73,2.26,2.26,0,0,0-1-3.52c-.41.12-.89.24-1.16,0-1-.69-1.95-1.51-3-2.24a7.48,7.48,0,0,0-1.86-1.15c-1.6-.59-3.29-.95-4.86-1.6A6.12,6.12,0,0,1,6.28,55.2,51.78,51.78,0,0,1,3.5,49.93,7,7,0,0,0,2.85,49l-.35.15C2.9,50.41,3.29,51.62,3.68,52.83Z" transform="translate(-0.52 -0.52)"/><path class="e360efde-131e-4090-b64b-0d6df45bdc40" d="M95.74,51.88a9.35,9.35,0,0,0-5.74-3c-2.12-.22-4.28-.3-6.16-1.51,0,0-.13,0-.5.11a6.74,6.74,0,0,0,1.41,1.58,35.34,35.34,0,0,0,4,1.87c.82.32,1,.82.55,1.45a8.92,8.92,0,0,1-2.16,2.29,50.58,50.58,0,0,1-5.06,2.5c-.41.2-1,.23-.72.91s.64.68,1.21.51c.87-.26,1.74-.47,2.62-.7l.27.22a7.08,7.08,0,0,1-.57,1.68c-1.5,2.3-3.09,4.53-4.58,6.83a4.57,4.57,0,0,0-.85,3.93,2.74,2.74,0,0,1-.58,2.4,13.29,13.29,0,0,0-2.05,3.24,14.19,14.19,0,0,1-3.37,5.6,11.64,11.64,0,0,1-3.69,2c-.56.23-1.06-.05-1.28-.77-.61-2-1.17-4.11-2-6.08a8.43,8.43,0,0,1-.32-4.79,8.47,8.47,0,0,0-.3-3.11,9.88,9.88,0,0,0-1-2.24,3.47,3.47,0,0,1-.36-2.66c.11-.39-.12-1.23-.32-1.27-1.39-.27-2.64-1.16-4.21-.75a24.25,24.25,0,0,1-3.92.45,1,1,0,0,1-.68-.19c-2.11-2.12-5-3.79-4.32-7.53a7.65,7.65,0,0,0-.09-1.16,2.5,2.5,0,0,1,.15-1c.66-1.42,1.24-2.91,2.77-3.68a1,1,0,0,0,.34-.39c.51-.91.95-1.86,1.51-2.74s.7-1.36-.25-1.94a1.62,1.62,0,0,1-.93-1.77,3,3,0,0,1,2.82-2.71c.84-.12,1-.49.67-1.23l-.93-1.84,2.27-1.18c.61-.31,1.19-.62.66-1.33,1.62-1.3,3.1-2.66,5.29-2.55a16.64,16.64,0,0,0,1.69-.22,1.21,1.21,0,0,0,1.27-1.19,3.47,3.47,0,0,1,2.32-3.13A7.37,7.37,0,0,0,69.34,26c-1.42-.38-1.68-.8-1.29-2.21.19-.69.33-1.39.52-2.22-1.52.61-2.74,3.58-2.07,4.79a1.69,1.69,0,0,1-.06,2.05,10.2,10.2,0,0,1-.51.93,2.24,2.24,0,0,1-1,.72c-.2,0-.57-.41-.75-.7-.44-.67-.71-1.57-1.83-1-.09.05-.36,0-.38-.09A16.79,16.79,0,0,1,61.21,26c-.12-.62.23-1,.86-1.28a2.83,2.83,0,0,0,1.76-2,16.49,16.49,0,0,0,.63-2.15,5.16,5.16,0,0,1,2.42-3.36A3.39,3.39,0,0,1,70.17,17a7.63,7.63,0,0,0,1.47,1A11.35,11.35,0,0,1,73.82,19a1.57,1.57,0,0,0,2,.21c1.46-.87,2.88-1.81,4.31-2.72,0,0,0-.14,0-.3a20.77,20.77,0,0,0-2.61-.38c-.86,0-1.08-.47-1.12-1.19-.07-.93-.21-1.85-.23-2.77a1.86,1.86,0,0,0-1-1.72A45.67,45.67,0,0,0,63.53,4.79c-2.35-.68-4.78-1.09-7.18-1.58-.58-.12-1.29-.28-1.64.66l2,1c-.35.46-.64.86-.95,1.23A7,7,0,0,0,54,9.39c-.38,2.31-.74,4.64-2.3,6.1,0,1,.34,2,0,2.48a6.24,6.24,0,0,1-3.54,2.56c-2.19.68-4.38,1.54-5.54,3.83-.44.88-1,1.7-1.64,2.78-.49-.57-1.06-.95-1.21-1.45-.73-2.45-1-4.87.92-7,.2-.22.41-.71.3-.88a2.26,2.26,0,0,1,.17-2.41c1.08-2.21.91-2.91-.91-4.56a2.36,2.36,0,0,1-.73-1.41,3.4,3.4,0,0,1,2.42-3.16c1.27-.31,1.63-.74,1.8-2.44A50.2,50.2,0,0,0,39.4,6.38a10.75,10.75,0,0,0-1.79,2.24,2.74,2.74,0,0,1-.62.72,1.4,1.4,0,0,1-1.85-.25,1.14,1.14,0,0,1,.07-1.71c.4-.46.95-1.25,0-1.36a16.66,16.66,0,0,0-4,.45c1.2,1.21,1.17,1.76,0,3.15a3.64,3.64,0,0,1-.24-.35c-.94-1.77-.94-1.77-2.81-1.1l-.3.11c-.78.29-1.69.49-1,1.67a.46.46,0,0,1-.08.4c-1.37,1.89-2,4.4-4.53,5.31-.71.26-.73.82-.14,1.32a1.2,1.2,0,0,0,1.87,0c.57-.58,1.22-1.08,1.81-1.65a5.4,5.4,0,0,0,.78-1c.53-.86,1-1.79,1.55-2.62,1.05-1.47,1.44-1.52,3.16-.58-2.72,1.48-3.56,3.91-3.63,6.84a3.26,3.26,0,0,0,2.14-3.1,3.49,3.49,0,0,1,2.45-3.38c1.22-.36,2.81.78,2.48,1.87a1.83,1.83,0,0,0,.67,2.16,1.38,1.38,0,0,1,.31,1.92c-.73.88-.28,1.58,0,2.37s-.31,1.68-.94,1.7a6.39,6.39,0,0,1-1.17-.23c.14.55.26.95.33,1.35a1.55,1.55,0,0,1-1,1.7c-.63.35-.88-.16-1.18-.56-1.2-1.54-1.22-2,0-3.64.73-1,1.36-2,.64-3.19a2.14,2.14,0,0,0-1.08-.77c-.18-.06-.62.27-.75.52a28.12,28.12,0,0,0-1.24,2.94c-.22.63-.51,1-1.21.88a3.29,3.29,0,0,0-.8.11c.18.67.35,1.27.55,2l-2.12.5c.35-1.07.61-1.89.88-2.71a2,2,0,0,0-1,.43A11.38,11.38,0,0,1,23.7,22c-1.92.72-3.34,2.78-2.7,4.7a39.32,39.32,0,0,0,2.59,5.24c.84-.89,1.56-1.71,2.36-2.46.53-.51,1-.93.42-1.7-.08-.11,0-.38.08-.55.42-.93.88-1.83,1.27-2.76.24-.58.54-.84,1.11-.45s1.36,1,2,1.49a13.24,13.24,0,0,0-.66,1.26,2.66,2.66,0,0,0,0,.8,2.25,2.25,0,0,0,.84-.18,18.37,18.37,0,0,0,1.42-1.21,2.23,2.23,0,0,1,.21.56c.16,2.58,1.28,5,1,7.66,0,.3.46.65.69,1s.47.55.46.82a1.11,1.11,0,0,1-.55.77,1.83,1.83,0,0,1-2.51-.59c.29-.74.57-1.46.8-2.07l-4.22.57c.74.76,1.38,1.45,2,2.11S31,38,30.16,38.3s-2,.54-3.05.85c-.55.17-1.44.33-1.54.68-.31,1-1.06,1.42-1.89,1.85a2.26,2.26,0,0,0-.94,1A12,12,0,0,1,19.38,47a1.82,1.82,0,0,0-.51,2.63,6.52,6.52,0,0,1,.46,1.91l-.52.18c-.36-.73-.76-1.44-1.08-2.19-.52-1.2-2.14-1.89-2.81-1s-1.07.58-1.74.49c-1.45-.18-2.29.14-2.71,1.16a6.23,6.23,0,0,0-.36,4.57A2.05,2.05,0,0,0,12,56.14a1.49,1.49,0,0,0,1.74-1c.29-.72.86-.94,1.74-.81-.26.72-.46,1.36-.71,2-.37.88-.15,1.27.82,1.31.48,0,1,0,1.49,0a10.81,10.81,0,0,0,.31,2.25c.22.56.76,1.43,1.15,1.42,1.24,0,2.6,0,3.61-1a1.93,1.93,0,0,1,2.27-.46,10.22,10.22,0,0,0,2.92.5,3.51,3.51,0,0,1,2.44,1.08A14.05,14.05,0,0,0,32.21,63c.67.41,1.41.72,2.07,1.15s1.31,1.09,2,1.49c1.49.82,3.06,1.51,4.58,2.3a7,7,0,0,1,1.67,1.12A1.62,1.62,0,0,1,43,70.31c-.32,2.35-.7,4.7-1.13,7a2.57,2.57,0,0,1-.74,1.43,6.48,6.48,0,0,0-2.56,4.72c-.07,1-.25,1.9-1.08,2.14a28.94,28.94,0,0,1-.2,2.89c-.19,1.08-.58,2.13-.78,3.21A2.38,2.38,0,0,0,36.78,93c.22.53.73,1,.78,1.51.11,1.07.65,1.41,1.61,1.62a48.7,48.7,0,0,0,16.55.83A46.36,46.36,0,0,0,82.37,84.29,46.69,46.69,0,0,0,96.7,56.55C97,54.87,97.15,53.28,95.74,51.88ZM82.25,80a1.19,1.19,0,0,1-1.13.32c-.55-.29-.68-.81-.45-1.53.65-2,2.34-3.25,3.54-4.88C84.12,76.17,83.1,78.08,82.25,80Z" transform="translate(-0.52 -0.52)"/></g></svg>