<?xml version="1.0" encoding="utf-8"?>
<!DOCTYPE svg PUBLIC "-//W3C//DTD SVG 1.1//EN" "http://www.w3.org/Graphics/SVG/1.1/DTD/svg11.dtd">
<svg version="1.1" xmlns="http://www.w3.org/2000/svg" xmlns:xlink="http://www.w3.org/1999/xlink" x="0px" y="0px" viewBox="0 0 1000 1000" xml:space="preserve">
<metadata> Svg Vector Icons : http://www.onlinewebfonts.com/icon </metadata>
<g><path fill="#25AFB5" d="M500,500.4c85.9,0,152.7-89.1,152.7-181.3v-28.9c0-92.2-66.8-157.7-152.7-157.7c-85.9,0-152.7,65.4-152.7,157.7v28.9C347.3,411.3,414.1,500.4,500,500.4z M194,530.2c24.6,0,91.8-31.9,91.8-98v-49c0-66.1-48.5-98-91.8-98c-41.9,0-91.8,31.9-91.8,98v49C102.2,498.3,170.8,530.2,194,530.2z M743.9,652.8c-0.1-0.5-0.2-0.9-0.2-1.4c-0.7-5.8-1.8-11.4-3.4-16.9c0-0.1,0-0.1,0-0.2c-3.2-11.8-8.6-23.1-16.7-34.2V600c-13.3-18.3-33.3-37.1-65.8-55.3c-17.2-9.6-24.7-14.1-35.4-14.1c-16.9,0-31.6,13.1-56.5,35.9l0,0l-22.6,20.8c-0.8,0.8-25.2,35.2-43.4,35.2c-18.2,0-42.6-34.4-43.4-35.2l-22.6-20.8H434c-24.8-22.8-39.6-35.9-56.5-35.9c-10.6,0-20.1,4.4-35.3,14.1c-31.5,19.9-52.5,36.9-65.7,55.3l-0.1,0c-0.1,0-0.1,0.1-0.1,0.2c-8,11.1-13.4,22.3-16.6,34c-0.1,0.1-0.1,0.2-0.1,0.3c-1.5,5.5-2.6,11.1-3.3,16.8c-0.1,0.5-0.2,1-0.2,1.6c-0.7,6.1-1,12.3-1,18.7c0,0.7,0,134.1,0,134.8c0,43.6,16.4,61.3,61.3,61.3h367.5c45.2,0,61.3-16.8,61.3-61.3c0-0.6,0-134,0-134.8C745,665,744.6,658.9,743.9,652.8z M806.5,530.2c24.6,0,91.8-31.9,91.8-98v-49c0-66.1-48.5-98-91.8-98c-41.9,0-91.8,31.9-91.8,98v49C714.7,498.3,783.3,530.2,806.5,530.2z M79.7,596.6C22.7,629,10,680.8,10,714.4c0,0.5-0.1,60.8,0,61.3c0,44.4,14.9,61.3,61.3,61.3h122.5c0,0,0-130.2,0-183.8l-30.6-30.6C130.8,593.9,103.4,583.1,79.7,596.6z M193.7,653.1C194.4,653.7,193.7,638.6,193.7,653.1L193.7,653.1z M990,714.4c0-33.6-12.7-85.4-69.7-117.8c-23.7-13.5-51.1-2.6-83.5,25.9l-30.6,30.6c0,53.6,0,183.8,0,183.8h122.5c46.3,0,61.3-16.8,61.3-61.3C990,775.1,990,714.9,990,714.4z M806.2,653.1C806.2,638.6,805.6,653.7,806.2,653.1L806.2,653.1z"/></g>
</svg>