<svg xmlns="http://www.w3.org/2000/svg" fill="none" viewBox="0 0 80 82">
  <path stroke="#C4C4C4" stroke-width="2" d="M79 40.577c0 21.858-17.46 39.577-39 39.577S1 62.434 1 40.577C1 18.72 18.46 1 40 1s39 17.72 39 39.577z"/>
  <path fill="#C4C4C4" d="M37.49 30.395h6.896v38.64H37.49v-38.64zm3.448-7.436c-1.342 0-2.467-.438-3.377-1.313-.862-.875-1.293-1.944-1.293-3.208 0-1.263.43-2.333 1.293-3.207.91-.924 2.035-1.386 3.377-1.386 1.34 0 2.442.438 3.304 1.313.91.826 1.365 1.87 1.365 3.135 0 1.312-.455 2.43-1.365 3.353-.862.875-1.963 1.313-3.304 1.313z"/>
</svg>