<svg width="25" height="27" xmlns="http://www.w3.org/2000/svg">

 <g>
  <title>background</title>
  <rect fill="none" id="canvas_background" height="29" width="27" y="-1" x="-1"/>
 </g>
 <g>
  <title>Layer 1</title>
  <g stroke="null" id="svg_1">
   <path stroke="null" fill="#25afb5" id="svg_2" d="m24.6942,9.57954c-0.26333,-0.32083 -0.66222,-0.50811 -1.08332,-0.50811l-1.38888,0c0,-0.74969 -0.62166,-1.35714 -1.38888,-1.35714l-1.38888,0l0,-1.35714c0,-0.74969 -0.62166,-1.35714 -1.38888,-1.35714l-16.6665,0c-0.76721,0 -1.38888,0.60746 -1.38888,1.35714l0,16.28572c0,0.74969 0.62166,1.35714 1.38888,1.35714l2.77775,0l13.88875,0l2.77775,0c0.6511,0 1.21554,-0.44189 1.35499,-1.06291l2.77775,-12.21429c0.09222,-0.40171 -0.00778,-0.82243 -0.27166,-1.14326zm-6.63882,-1.86526l-1.38888,0c-0.71999,0 -1.30554,0.53743 -1.37499,1.22306l0,4.90797l1.73609,0c0.28,0 0.53388,0.16557 0.6411,0.41854c0.10667,0.25406 0.04778,0.54611 -0.15055,0.73937l-4.86106,4.74946c-0.13555,0.13246 -0.31333,0.19869 -0.49111,0.19869c-0.17778,0 -0.35555,-0.06623 -0.49111,-0.19869l-4.86106,-4.75c-0.19833,-0.1938 -0.25778,-0.48586 -0.15055,-0.73883c0.10722,-0.25351 0.36055,-0.41854 0.64166,-0.41854l1.73609,0l0,-4.77389l-2.09665,0c-0.6511,0 -1.21499,0.44189 -1.35554,1.06291l-2.77775,12.21429c-0.02222,0.09826 -0.03222,0.19651 -0.03222,0.29423l-1.38999,0l0,-16.28572l16.6665,0l0,1.35714z"/>
  </g>
  <g id="svg_3"/>
  <g id="svg_4"/>
  <g id="svg_5"/>
  <g id="svg_6"/>
  <g id="svg_7"/>
  <g id="svg_8"/>
  <g id="svg_9"/>
  <g id="svg_10"/>
  <g id="svg_11"/>
  <g id="svg_12"/>
  <g id="svg_13"/>
  <g id="svg_14"/>
  <g id="svg_15"/>
  <g id="svg_16"/>
  <g id="svg_17"/>
 </g>
</svg>