<svg id="eb859a6c-9b38-4d8f-9e33-5fb530be299b" data-name="Layer 1" xmlns="http://www.w3.org/2000/svg" viewBox="0 0 99.34 99.3"><defs><style>.bc269b0b-53ee-48bd-809a-d6976e91dde4{fill:#fff;}.bf8084bf-879b-408c-a50e-0aac459ad85c{fill:#f36;}</style></defs><g id="a0124aa2-57aa-4381-bb75-5a46a48d37a6" data-name="phone-outline"><path id="be32fae2-f56e-4aa5-818d-710f78ee7561" data-name="White BG" class="bc269b0b-53ee-48bd-809a-d6976e91dde4" d="M22.28,4.14a3.74,3.74,0,0,0-.54.05l-1.36.2c-.79.11-1.54.21-2.24.38l-.56.13c-2.34.54-4.54,1.06-6,2.69C6.71,13.1,4.27,18.92,4.13,25.39v0a25.73,25.73,0,0,0,1.62,8.86c3,9,6.67,18.52,13.13,26.5A130.75,130.75,0,0,0,37.17,79.44,63.41,63.41,0,0,0,54.11,90c3.48,1.39,7.41,3,11.29,4.15a34.53,34.53,0,0,0,8.31,1.71C80,96.18,85.82,94,92,88.87A7.3,7.3,0,0,0,94.4,85c.51-2,.91-3.62,1.23-5.29.54-2.78.49-2.8-1.88-4.18L79.47,67.29l-2.93-1.7c-1.74-1-2.12-.87-3.3.25A47.63,47.63,0,0,0,70,69.34l-1.28,1.47c-.54.6-1.06,1.2-1.59,1.8-.72.83-1.45,1.66-2.19,2.48a5.54,5.54,0,0,1-7.22,1.25c-1.66-.92-3.62-2-5.59-3.18-8.6-5-15.16-10.79-20.06-17.61-2.41-3.36-4.55-7-6.62-10.44-.62-1-1.23-2.08-1.86-3.12a5.12,5.12,0,0,1,1.09-6.66c.94-.86,1.89-1.7,2.85-2.54.69-.6,1.37-1.19,2-1.8l1.19-1c1.26-1.13,2.46-2.19,3.55-3.35.91-1,1.06-1.38.24-2.86-.11-.21-.23-.4-.35-.6s-.2-.31-.29-.47l-1.8-3c-1.49-2.52-3-5-4.47-7.58-1.14-2-2.26-4-3.35-5.94l-.55-1A1.55,1.55,0,0,0,22.28,4.14Z" transform="translate(-0.33 -0.35)"/><path class="bf8084bf-879b-408c-a50e-0aac459ad85c" d="M75,99.65c-.49,0-1,0-1.47,0a39.15,39.15,0,0,1-9.22-1.87c-4-1.24-8-2.84-11.57-4.25a67,67,0,0,1-18-11.13A133.62,133.62,0,0,1,15.93,63.15C9.09,54.71,5.26,44.85,2.15,35.47A29.29,29.29,0,0,1,.34,25.3c.16-7.41,2.91-14,8.41-20.23C11,2.54,14,1.83,16.72,1.2l.54-.13C18.15.87,19,.74,19.87.63L21.12.44a5.39,5.39,0,0,1,5.94,2.82l.56,1c1.07,1.94,2.18,4,3.31,5.88,1.47,2.53,3,5,4.46,7.56l1.79,3c.08.13.16.27.25.4s.31.51.46.77c1.54,2.81,1.29,5.05-.8,7.28-1.21,1.29-2.53,2.46-3.81,3.6l-1.15,1c-.69.62-1.39,1.23-2.09,1.84-.93.81-1.86,1.62-2.77,2.46s-.63,1.58-.42,1.92c.63,1,1.25,2.09,1.87,3.14,2,3.41,4.13,6.94,6.45,10.17,4.58,6.38,10.75,11.79,18.89,16.55C56,71,57.94,72.11,59.58,73a1.78,1.78,0,0,0,2.56-.49c.72-.8,1.43-1.61,2.14-2.42l1.61-1.84c.42-.47.84-1,1.25-1.43,1.1-1.26,2.22-2.56,3.48-3.76,2.47-2.34,4.73-2.57,7.82-.78L81.37,64l14.28,8.27c3.82,2.22,4.55,3.82,3.71,8.18C99,82.22,98.6,83.94,98.07,86a11,11,0,0,1-3.69,5.82C88,97.07,81.65,99.65,75,99.65ZM22.28,4.14a3.74,3.74,0,0,0-.54.05l-1.36.2c-.79.11-1.54.21-2.24.38l-.56.13c-2.34.54-4.54,1.06-6,2.69C6.71,13.1,4.27,18.92,4.13,25.39v0a25.73,25.73,0,0,0,1.62,8.86c3,9,6.67,18.52,13.13,26.5A130.75,130.75,0,0,0,37.17,79.44,63.41,63.41,0,0,0,54.11,90c3.48,1.39,7.41,3,11.29,4.15a34.53,34.53,0,0,0,8.31,1.71C80,96.18,85.82,94,92,88.87A7.3,7.3,0,0,0,94.4,85c.51-2,.91-3.62,1.23-5.29.54-2.78.49-2.8-1.88-4.18L79.47,67.29l-2.93-1.7c-1.74-1-2.12-.87-3.3.25A47.63,47.63,0,0,0,70,69.34l-1.28,1.47c-.54.6-1.06,1.2-1.59,1.8-.72.83-1.45,1.66-2.19,2.48a5.54,5.54,0,0,1-7.22,1.25c-1.66-.92-3.62-2-5.59-3.18-8.6-5-15.16-10.79-20.06-17.61-2.41-3.36-4.55-7-6.62-10.44-.62-1-1.23-2.08-1.86-3.12a5.12,5.12,0,0,1,1.09-6.66c.94-.86,1.89-1.7,2.85-2.54.69-.6,1.37-1.19,2-1.8l1.19-1c1.26-1.13,2.46-2.19,3.55-3.35.91-1,1.06-1.38.24-2.86-.11-.21-.23-.4-.35-.6s-.2-.31-.29-.47l-1.8-3c-1.49-2.52-3-5-4.47-7.58-1.14-2-2.26-4-3.35-5.94l-.55-1A1.55,1.55,0,0,0,22.28,4.14Z" transform="translate(-0.33 -0.35)"/></g></svg>