<svg id="aed052d9-3c70-470b-af5d-170acc98eba9" data-name="Layer 1" xmlns="http://www.w3.org/2000/svg" viewBox="0 0 99.35 99.3"><defs><style>.a10a374c-f447-48b8-8182-7bfde6b320aa{fill:#ed3868;}</style></defs><path id="ea3c608f-5825-4622-9c63-a8d992ab78f2" data-name="phone-solid" class="a10a374c-f447-48b8-8182-7bfde6b320aa" d="M.34,24.37C.5,16.71,3.58,10.24,8.58,4.6c2.06-2.32,5-2.87,7.83-3.55C17.68.75,19,.64,20.29.43a3.61,3.61,0,0,1,4.13,1.94c1.34,2.4,2.66,4.81,4,7.18,2.14,3.69,4.33,7.35,6.5,11,.23.38.48.76.7,1.16,1.16,2.11,1.12,3.5-.54,5.27s-3.33,3.15-5,4.69-3.41,3-5.06,4.5a3.33,3.33,0,0,0-.79,4.46c2.84,4.7,5.53,9.51,8.73,14,5.35,7.45,12.36,13.14,20.25,17.76,1.91,1.12,3.84,2.21,5.77,3.28a3.78,3.78,0,0,0,5.09-.9c1.32-1.46,2.6-3,3.91-4.44,1.59-1.77,3.08-3.64,4.8-5.28,2-1.9,3.39-1.92,5.78-.54l17.9,10.36c3.21,1.86,3.62,2.72,2.9,6.43-.36,1.89-.83,3.76-1.31,5.62a9.52,9.52,0,0,1-3.18,5c-5.9,4.89-12.5,8.12-20.34,7.68a38.8,38.8,0,0,1-9.12-1.86c-4-1.24-8-2.81-11.88-4.37A68.64,68.64,0,0,1,35.4,82.13,138.71,138.71,0,0,1,16.1,62.44c-6.77-8.37-10.65-18.12-14-28.17A28.24,28.24,0,0,1,.34,24.37Z" transform="translate(-0.33 -0.35)"/></svg>