<svg xmlns="http://www.w3.org/2000/svg" data-name="Layer 1" viewBox="0 0 99.34 99.3">
  <g data-name="phone-outline">
    <path fill="#fff" d="M21.95 3.79a3.74 3.74 0 00-.54.05l-1.36.2c-.79.11-1.54.21-2.24.38l-.56.13c-2.34.54-4.54 1.06-6 2.69-4.87 5.51-7.31 11.33-7.45 17.8a25.73 25.73 0 001.62 8.86c3 9 6.67 18.52 13.13 26.5a130.75 130.75 0 0018.29 18.69 63.41 63.41 0 0016.94 10.56c3.48 1.39 7.41 3 11.29 4.15a34.53 34.53 0 008.31 1.71c6.29.32 12.11-1.86 18.29-6.99a7.3 7.3 0 002.4-3.87c.51-2 .91-3.62 1.23-5.29.54-2.78.49-2.8-1.88-4.18l-14.28-8.24-2.93-1.7c-1.74-1-2.12-.87-3.3.25a47.63 47.63 0 00-3.24 3.5l-1.28 1.47c-.54.6-1.06 1.2-1.59 1.8-.72.83-1.45 1.66-2.19 2.48a5.54 5.54 0 01-7.22 1.25c-1.66-.92-3.62-2-5.59-3.18-8.6-5-15.16-10.79-20.06-17.61-2.41-3.36-4.55-7-6.62-10.44-.62-1-1.23-2.08-1.86-3.12a5.12 5.12 0 011.09-6.66c.94-.86 1.89-1.7 2.85-2.54.69-.6 1.37-1.19 2-1.8l1.19-1c1.26-1.13 2.46-2.19 3.55-3.35.91-1 1.06-1.38.24-2.86-.11-.21-.23-.4-.35-.6s-.2-.31-.29-.47l-1.8-3c-1.49-2.52-3-5-4.47-7.58-1.14-2-2.26-4-3.35-5.94l-.55-1a1.55 1.55 0 00-1.42-1.05z" data-name="White BG"/>
    <path fill="#25afb5" d="M74.67 99.3H73.2a39.15 39.15 0 01-9.22-1.87c-4-1.24-8-2.84-11.57-4.25a67 67 0 01-18-11.13A133.62 133.62 0 0115.6 62.8C8.76 54.36 4.93 44.5 1.82 35.12A29.29 29.29 0 01.01 24.95c.16-7.41 2.91-14 8.41-20.23 2.25-2.53 5.25-3.24 7.97-3.87l.54-.13c.89-.2 1.74-.33 2.61-.44l1.25-.19a5.39 5.39 0 015.94 2.82l.56 1c1.07 1.94 2.18 4 3.31 5.88 1.47 2.53 3 5 4.46 7.56l1.79 3c.08.13.16.27.25.4s.31.51.46.77c1.54 2.81 1.29 5.05-.8 7.28-1.21 1.29-2.53 2.46-3.81 3.6l-1.15 1c-.69.62-1.39 1.23-2.09 1.84-.93.81-1.86 1.62-2.77 2.46s-.63 1.58-.42 1.92c.63 1 1.25 2.09 1.87 3.14 2 3.41 4.13 6.94 6.45 10.17 4.58 6.38 10.75 11.79 18.89 16.55 1.94 1.17 3.88 2.28 5.52 3.17a1.78 1.78 0 002.56-.49c.72-.8 1.43-1.61 2.14-2.42l1.61-1.84c.42-.47.84-1 1.25-1.43 1.1-1.26 2.22-2.56 3.48-3.76 2.47-2.34 4.73-2.57 7.82-.78l2.93 1.72 14.28 8.27c3.82 2.22 4.55 3.82 3.71 8.18-.36 1.77-.76 3.49-1.29 5.55a11 11 0 01-3.69 5.82c-6.38 5.25-12.73 7.83-19.38 7.83zM21.95 3.79a3.74 3.74 0 00-.54.05l-1.36.2c-.79.11-1.54.21-2.24.38l-.56.13c-2.34.54-4.54 1.06-6 2.69-4.87 5.51-7.31 11.33-7.45 17.8a25.73 25.73 0 001.62 8.86c3 9 6.67 18.52 13.13 26.5a130.75 130.75 0 0018.29 18.69 63.41 63.41 0 0016.94 10.56c3.48 1.39 7.41 3 11.29 4.15a34.53 34.53 0 008.31 1.71c6.29.32 12.11-1.86 18.29-6.99a7.3 7.3 0 002.4-3.87c.51-2 .91-3.62 1.23-5.29.54-2.78.49-2.8-1.88-4.18l-14.28-8.24-2.93-1.7c-1.74-1-2.12-.87-3.3.25a47.63 47.63 0 00-3.24 3.5l-1.28 1.47c-.54.6-1.06 1.2-1.59 1.8-.72.83-1.45 1.66-2.19 2.48a5.54 5.54 0 01-7.22 1.25c-1.66-.92-3.62-2-5.59-3.18-8.6-5-15.16-10.79-20.06-17.61-2.41-3.36-4.55-7-6.62-10.44-.62-1-1.23-2.08-1.86-3.12a5.12 5.12 0 011.09-6.66c.94-.86 1.89-1.7 2.85-2.54.69-.6 1.37-1.19 2-1.8l1.19-1c1.26-1.13 2.46-2.19 3.55-3.35.91-1 1.06-1.38.24-2.86-.11-.21-.23-.4-.35-.6s-.2-.31-.29-.47l-1.8-3c-1.49-2.52-3-5-4.47-7.58-1.14-2-2.26-4-3.35-5.94l-.55-1a1.55 1.55 0 00-1.42-1.05z"/>
  </g>
</svg>