<svg id="bc5ad9db-6061-4882-9fac-bf1e1956e502" data-name="photos" xmlns="http://www.w3.org/2000/svg" viewBox="0 0 77.52 99.6"><defs><style>.b75c5f38-39d9-4943-9e62-90c0c1920c04{fill:#fff;}.e048cac3-b76b-4428-ae87-07155b9222a5{fill:#25aeb4;}.beab990c-74e3-412a-ab89-0644d98ce5fa{fill:none;}</style></defs><g id="beb0fdf1-aa8e-42ce-84dd-cb37fe8d4907" data-name="photos-outlinev3"><rect class="b75c5f38-39d9-4943-9e62-90c0c1920c04" x="2.33" y="1.85" width="72.41" height="95.42"/><path class="e048cac3-b76b-4428-ae87-07155b9222a5" d="M88.74,100.31H11.24V.71h77.5ZM15.9,95.65H84.08V5.37H15.9Z" transform="translate(-11.24 -0.71)"/><polygon class="e048cac3-b76b-4428-ae87-07155b9222a5" points="74.23 69.92 52.63 48.33 36.52 66.62 33.02 63.53 52.41 41.52 77.52 66.63 74.23 69.92"/><polygon class="e048cac3-b76b-4428-ae87-07155b9222a5" points="3.35 74.24 0.05 70.94 17.88 53.11 35.3 68.44 32.23 71.94 18.09 59.5 3.35 74.24"/><path class="e048cac3-b76b-4428-ae87-07155b9222a5" d="M37.88,45A12.16,12.16,0,1,1,50,32.87,12.17,12.17,0,0,1,37.88,45Zm0-22a9.83,9.83,0,1,0,9.82,9.82A9.84,9.84,0,0,0,37.88,23.05Z" transform="translate(-11.24 -0.71)"/><rect class="beab990c-74e3-412a-ab89-0644d98ce5fa" x="4.5" y="4.55" width="68.53" height="90.22"/></g></svg>