<svg id="ab9f496f-ba2e-4c10-bc24-699b705dad76" data-name="photos" xmlns="http://www.w3.org/2000/svg" viewBox="0 0 77.52 99.6"><defs><style>.ee06ec88-215e-4ce0-bf53-ff4c7306b216{fill:#fff;}.f5249c17-f662-4a2e-bad2-2d1f747f2899{fill:#f36;}.e4857e13-cfd1-4df4-ba28-276d4d7aff8b{fill:none;}</style></defs><g id="b349f529-a469-46a9-8b49-955b05aa4b35" data-name="photos-outline"><rect class="ee06ec88-215e-4ce0-bf53-ff4c7306b216" x="2.33" y="1.85" width="72.41" height="95.42"/><path class="f5249c17-f662-4a2e-bad2-2d1f747f2899" d="M88.74,100.31H11.24V.71h77.5ZM15.9,95.65H84.08V5.37H15.9Z" transform="translate(-11.24 -0.71)"/><polygon class="f5249c17-f662-4a2e-bad2-2d1f747f2899" points="74.23 69.92 52.63 48.33 36.52 66.62 33.02 63.53 52.41 41.52 77.52 66.63 74.23 69.92"/><polygon class="f5249c17-f662-4a2e-bad2-2d1f747f2899" points="3.35 74.24 0.05 70.94 17.88 53.11 35.3 68.44 32.23 71.94 18.09 59.5 3.35 74.24"/><path class="f5249c17-f662-4a2e-bad2-2d1f747f2899" d="M37.88,45A12.16,12.16,0,1,1,50,32.87,12.17,12.17,0,0,1,37.88,45Zm0-22a9.83,9.83,0,1,0,9.82,9.82A9.84,9.84,0,0,0,37.88,23.05Z" transform="translate(-11.24 -0.71)"/><rect class="e4857e13-cfd1-4df4-ba28-276d4d7aff8b" x="4.5" y="4.55" width="68.53" height="90.22"/></g></svg>