<svg width="32" height="32" viewBox="0 0 32 32" fill="none" xmlns="http://www.w3.org/2000/svg">
    <path d="M16 31.1525H16.0002C20.0173 31.1476 23.8685 29.5496 26.7091 26.7091C29.5496 23.8685 31.1476 20.0173 31.1525 16.0002V16C31.1525 13.0031 30.2638 10.0736 28.5988 7.58174C26.9338 5.08993 24.5674 3.1478 21.7986 2.00095C19.0299 0.854095 15.9832 0.554026 13.0439 1.13869C10.1046 1.72335 7.4047 3.16648 5.28559 5.28559C3.16648 7.4047 1.72335 10.1046 1.13869 13.0439C0.554026 15.9832 0.854095 19.0299 2.00095 21.7986C3.1478 24.5674 5.08993 26.9338 7.58174 28.5988C10.0736 30.2638 13.0031 31.1525 16 31.1525ZM16 27.8866H16.0002C19.1516 27.8833 22.1731 26.6299 24.4015 24.4015C26.6299 22.1731 27.8833 19.1516 27.8866 16.0002V16C27.8866 13.6491 27.1894 11.3509 25.8833 9.39618C24.5772 7.44145 22.7208 5.91792 20.5488 5.01825C18.3768 4.11859 15.9868 3.8832 13.6811 4.34184C11.3753 4.80049 9.2573 5.93257 7.59494 7.59494C5.93257 9.2573 4.80049 11.3753 4.34184 13.6811C3.8832 15.9868 4.11859 18.3768 5.01825 20.5488C5.91792 22.7208 7.44145 24.5772 9.39618 25.8833C11.3509 27.1894 13.6491 27.8866 16 27.8866ZM8.02222 4.06041C10.3836 2.48257 13.1599 1.64039 16 1.64038C19.8069 1.64521 23.4565 3.15965 26.1484 5.85156C28.8404 8.54351 30.3548 12.1932 30.3596 16.0002C30.3596 18.8402 29.5174 21.6164 27.9396 23.9778C26.3617 26.3392 24.1191 28.1797 21.4952 29.2666C18.8713 30.3534 15.9841 30.6378 13.1986 30.0837C10.4131 29.5296 7.85445 28.162 5.84622 26.1538C3.83799 24.1456 2.47037 21.5869 1.9163 18.8014C1.36223 16.0159 1.6466 13.1287 2.73344 10.5048C3.82029 7.88094 5.6608 5.63827 8.02222 4.06041ZM9.83497 6.77338C11.6598 5.55408 13.8052 4.90327 15.9998 4.90324C18.9419 4.90642 21.7626 6.07658 23.843 8.15697C25.9234 10.2374 27.0936 13.0581 27.0968 16.0002C27.0967 18.1948 26.4459 20.3402 25.2266 22.165C24.0073 23.9899 22.2742 25.4122 20.2466 26.2521C18.2189 27.092 15.9877 27.3117 13.8351 26.8835C11.6826 26.4554 9.70532 25.3985 8.15341 23.8466C6.6015 22.2947 5.54463 20.3174 5.11646 18.1649C4.68829 16.0123 4.90804 13.7811 5.74793 11.7535C6.58782 9.72579 8.01012 7.99271 9.83497 6.77338Z" fill="white" stroke="white" stroke-width="0.30494"/>
    <path d="M12.8169 21.463C13.0132 21.4636 13.2064 21.4143 13.3783 21.3199C13.3785 21.3198 13.3786 21.3198 13.3787 21.3197L21.5162 16.9156C21.5163 16.9155 21.5165 16.9154 21.5166 16.9153C21.697 16.8185 21.8486 16.6759 21.9561 16.502C22.0637 16.3279 22.1232 16.1285 22.1285 15.9241C22.1339 15.7196 22.0849 15.5175 21.9866 15.338C21.8883 15.1586 21.7442 15.0083 21.569 14.9023C21.569 14.9022 21.5689 14.9022 21.5688 14.9021L13.6591 10.0816L13.6587 10.0814C13.4838 9.97541 13.2841 9.91713 13.0795 9.91231C12.8749 9.90749 12.6726 9.9563 12.4928 10.0539C12.3131 10.1515 12.1622 10.2945 12.0554 10.4686C11.9485 10.6427 11.8895 10.8417 11.8843 11.0458L11.8843 11.0458L11.6526 20.2715L11.6526 20.2717C11.6488 20.4266 11.6762 20.5807 11.733 20.7249C11.7899 20.8691 11.8751 21.0005 11.9836 21.1114C12.092 21.2224 12.2217 21.3106 12.3648 21.3709C12.5078 21.4313 12.6616 21.4626 12.8169 21.463ZM12.8169 21.463L12.8174 21.3105L12.817 21.463C12.817 21.463 12.817 21.463 12.8169 21.463ZM12.5307 11.0618L12.2929 20.2875L13.0583 10.5488C12.9699 10.5489 12.883 10.5708 12.8052 10.6125C12.7232 10.656 12.6545 10.7207 12.6062 10.7997C12.5579 10.8788 12.5318 10.9693 12.5307 11.0618ZM13.0578 10.7012C13.1268 10.702 13.1942 10.7215 13.2528 10.7575L13.2528 10.7575L13.2534 10.7579L21.1575 15.5726L21.1574 15.5726L21.1594 15.5738C21.2163 15.6073 21.2632 15.6553 21.2952 15.7127C21.3272 15.7701 21.3432 15.8349 21.3417 15.9004C21.3401 15.966 21.3211 16.03 21.2864 16.0858C21.2518 16.1417 21.2027 16.1874 21.1443 16.2183L21.1443 16.2183L21.1429 16.219L12.9979 20.627L12.9971 20.6274C12.9395 20.659 12.8746 20.6749 12.8088 20.6735C12.743 20.672 12.6788 20.6532 12.6227 20.6191C12.5667 20.5849 12.5208 20.5367 12.4896 20.4793C12.4585 20.4219 12.4432 20.3574 12.4453 20.2923L12.4453 20.2914L12.6832 11.0657L12.6832 11.0657L12.6832 11.0636C12.684 10.9986 12.7023 10.9349 12.7363 10.8792C12.7703 10.8236 12.8188 10.7779 12.8767 10.7472L12.8767 10.7472L12.8772 10.7469C12.9327 10.7172 12.9947 10.7015 13.0578 10.7012Z" fill="white" stroke="white" stroke-width="0.30494"/>
</svg>
