<svg id="Layer_1" data-name="Layer 1" xmlns="http://www.w3.org/2000/svg" viewBox="0 0 158.63 158.63"><defs><style>.cls-1{fill:#fff;}.cls-2{fill:#25afb5;}</style></defs><title>play-icon</title><circle class="cls-1" cx="79.31" cy="79.31" r="70.81"/><path class="cls-2" d="M79.31,158.63a79.32,79.32,0,1,1,79.32-79.32A79.4,79.4,0,0,1,79.31,158.63ZM79.31,17a62.32,62.32,0,1,0,62.32,62.31A62.38,62.38,0,0,0,79.31,17Z"/><path class="cls-2" d="M59,54.81v49a4,4,0,0,0,6.07,3.51l42.45-24.51a4,4,0,0,0,0-7L65.09,51.3A4,4,0,0,0,59,54.81Z"/></svg>