<?xml version="1.0" encoding="UTF-8" standalone="no"?>
<!DOCTYPE svg PUBLIC "-//W3C//DTD SVG 1.1//EN" "http://www.w3.org/Graphics/SVG/1.1/DTD/svg11.dtd">
<svg version="1.1" xmlns="http://www.w3.org/2000/svg" xmlns:xlink="http://www.w3.org/1999/xlink" preserveAspectRatio="xMidYMid meet" viewBox="0 0 640 640" width="640" height="640"><defs><path d="M395.9 545.42C402.79 545.42 408.38 539.84 408.38 532.95C408.38 524.82 408.38 484.19 408.38 411.06C481.51 411.06 522.14 411.06 530.26 411.06C537.15 411.06 542.74 405.48 542.74 398.59C542.74 384.75 542.74 274.09 542.74 260.26C542.74 253.37 537.15 247.78 530.26 247.78C522.14 247.78 481.51 247.78 408.38 247.78C408.38 174.65 408.38 134.03 408.38 125.9C408.38 119.01 402.79 113.42 395.9 113.42C382.07 113.42 271.41 113.42 257.57 113.42C250.68 113.42 245.1 119.01 245.1 125.9C245.1 134.03 245.1 174.65 245.1 247.78C171.97 247.78 131.34 247.78 123.22 247.78C116.32 247.78 110.74 253.37 110.74 260.26C110.74 274.09 110.74 384.75 110.74 398.59C110.74 405.48 116.32 411.06 123.22 411.06C131.34 411.06 171.97 411.06 245.1 411.06C245.1 484.19 245.1 524.82 245.1 532.95C245.1 539.84 250.68 545.42 257.57 545.42C285.24 545.42 382.07 545.42 395.9 545.42ZM135.69 272.74C208.82 272.74 249.45 272.74 257.57 272.74C264.46 272.74 270.05 267.15 270.05 260.26C270.05 252.13 270.05 211.51 270.05 138.38L383.43 138.38C383.43 211.51 383.43 252.13 383.43 260.26C383.43 267.15 389.01 272.74 395.9 272.74C404.03 272.74 444.66 272.74 517.78 272.74L517.78 386.11C444.66 386.11 404.03 386.11 395.9 386.11C389.01 386.11 383.43 391.7 383.43 398.59C383.43 406.71 383.43 447.34 383.43 520.47L270.05 520.47C270.05 447.34 270.05 406.71 270.05 398.59C270.05 391.7 264.46 386.11 257.57 386.11C249.45 386.11 208.82 386.11 135.69 386.11L135.69 272.74Z" id="a9e3gbjhl"></path></defs><g><g><g><use xlink:href="#a9e3gbjhl" opacity="1" fill="#25afb5" fill-opacity="1"></use><g><use xlink:href="#a9e3gbjhl" opacity="1" fill-opacity="0" stroke="#000000" stroke-width="0" stroke-opacity="0"></use></g></g></g></g></svg>