<svg width="23" height="27" viewBox="0 0 23 27" fill="none" xmlns="http://www.w3.org/2000/svg">
  <path fill-rule="evenodd" clip-rule="evenodd" d="M19.8968 27C21.5397 27 23 25.6364 23 23.9091V22.6364C23 18.9091 20.1706 15.8182 16.5198 15.3636L12.3214 21.4545V18.4545L12.9603 17.3636H11.5H9.94841L10.6786 18.4545V21.4545L6.38889 15.3636C2.82937 15.8182 0 18.9091 0 22.6364V23.9091C0 25.6364 1.36905 27 3.10317 27H19.8968ZM4.92857 6.54545C4.92857 4.09091 6.11508 2 8.03175 0.909091L9.49206 5H13.5992L15.1508 1C16.8849 2.18182 17.9802 4.18182 17.9802 6.54545H18.0714C18.5278 6.54545 18.8929 6.90909 18.8929 7.36364V7.54545H17.4325V10.5455C17.4325 17.7273 5.47619 17.7273 5.47619 10.5455V7.54545H4.10714V7.36364C4.10714 6.90909 4.47222 6.54545 4.92857 6.54545ZM8.67064 0.545455C9.58333 0.181818 10.496 0 11.5 0C12.504 0 13.5079 0.272727 14.4206 0.636364L13.0516 4.18182H10.0397L8.67064 0.545455ZM16.1548 7.54545H6.75397V10.5455C6.75397 16 16.1548 16 16.1548 10.5455V7.54545ZM2.55556 20.0909H7.66667V22.8182H2.55556V20.0909Z" fill="#C4C4C4"/>
</svg>

