<svg width="26" height="31" viewBox="0 0 26 31" fill="none" xmlns="http://www.w3.org/2000/svg">
    <path d="M20.265 21.3913C20.265 20.5444 19.5637 19.8579 18.6986 19.8579H8.80225C7.93716 19.8579 7.23584 20.5444 7.23584 21.3913V22.0397C7.23584 22.8866 7.93716 23.5731 8.80225 23.5731H18.6986C19.5637 23.5731 20.265 22.8866 20.265 22.0397V21.3913Z" fill="#C4C4C4"/>
    <path d="M20.2648 26.6264C20.2648 25.836 19.6103 25.1953 18.803 25.1953H15.2162C14.4088 25.1953 13.7544 25.836 13.7544 26.6264C13.7544 27.4165 14.4088 28.0575 15.2162 28.0575H18.803C19.6103 28.0575 20.2648 27.4165 20.2648 26.6264Z" fill="#C4C4C4"/>
    <path d="M13.7464 10.0134C11.6169 9.98979 9.52046 10.527 7.67696 11.5678C7.05823 11.9259 6.57766 12.4734 6.30953 13.1255C6.0414 13.7759 6.00075 14.4956 6.19369 15.1714C6.38679 15.8489 6.80271 16.4436 7.37735 16.866C7.95183 17.2883 8.65299 17.5147 9.37232 17.508H18.1376C18.8567 17.5147 19.5579 17.2883 20.1325 16.866C20.707 16.4436 21.1229 15.8489 21.316 15.1714C21.509 14.4956 21.4683 13.7759 21.2002 13.1255C20.9321 12.4734 20.4516 11.9259 19.8329 11.5678C17.986 10.5287 15.8869 9.99148 13.7549 10.0134H13.7464Z" fill="#C4C4C4"/>
    <path d="M13.5084 11.6757C15.6527 11.6757 17.391 9.9794 17.391 7.88616C17.391 5.79357 15.6527 4.09717 13.5084 4.09717C11.3642 4.09717 9.62598 5.79357 9.62598 7.88616C9.62598 9.9794 11.3642 11.6757 13.5084 11.6757Z" fill="#C4C4C4"/>
    <path d="M23.6014 1.45068H2.39893C1.64196 1.45068 1.02832 2.05138 1.02832 2.79238V28.8414C1.02832 29.5824 1.64196 30.1831 2.39893 30.1831H23.6014C24.3583 30.1831 24.972 29.5824 24.972 28.8414V2.79238C24.972 2.05138 24.3583 1.45068 23.6014 1.45068Z" stroke="#C4C4C4"/>
</svg>
