<svg id="b37228c9-7c7c-431c-836a-46ae43410db8" data-name="schedule" xmlns="http://www.w3.org/2000/svg" viewBox="0 0 99.3 82.03"><defs><style>.ac35ef19-fe87-46bc-b2fb-1a0557247323{fill:#C4C4C4;}.f6015cc4-f5a4-4b38-a023-d817b28beeae{fill:#fff;}</style></defs><g id="ee1a6712-a93c-4947-81a3-ba3c784a535d" data-name="schedule-outline"><path class="ac35ef19-fe87-46bc-b2fb-1a0557247323" d="M77.41,53.15A15.35,15.35,0,1,1,62.06,68.5,15.37,15.37,0,0,1,77.41,53.15m0-4.75a20.1,20.1,0,1,0,20.1,20.1,20.1,20.1,0,0,0-20.1-20.1Z" transform="translate(-0.35 -8.98)"/><rect class="f6015cc4-f5a4-4b38-a023-d817b28beeae" x="1.32" y="11.57" width="83.71" height="57.94" rx="7.84"/><path class="ac35ef19-fe87-46bc-b2fb-1a0557247323" d="M77.55,21.87a6.53,6.53,0,0,1,6.52,6.52V70.64a6.54,6.54,0,0,1-6.52,6.53h-68A6.54,6.54,0,0,1,3,70.64V28.39a6.53,6.53,0,0,1,6.52-6.52h68m0-2.64h-68A9.16,9.16,0,0,0,.35,28.39V70.64a9.17,9.17,0,0,0,9.16,9.17h68a9.17,9.17,0,0,0,9.16-9.17V28.39a9.17,9.17,0,0,0-9.16-9.16Z" transform="translate(-0.35 -8.98)"/><rect class="ac35ef19-fe87-46bc-b2fb-1a0557247323" x="7.62" y="25.86" width="70.9" height="39.23"/><rect class="f6015cc4-f5a4-4b38-a023-d817b28beeae" x="14.32" y="30.22" width="17.05" height="13.58"/><rect class="f6015cc4-f5a4-4b38-a023-d817b28beeae" x="34.51" y="30.22" width="17.05" height="13.58"/><rect class="f6015cc4-f5a4-4b38-a023-d817b28beeae" x="54.7" y="30.22" width="17.05" height="13.58"/><rect class="f6015cc4-f5a4-4b38-a023-d817b28beeae" x="14.32" y="46.93" width="17.05" height="13.58"/><rect class="f6015cc4-f5a4-4b38-a023-d817b28beeae" x="34.51" y="46.93" width="17.05" height="13.58"/><path class="f6015cc4-f5a4-4b38-a023-d817b28beeae" d="M30.22,25a3.59,3.59,0,0,1-3.58-3.59v-8a3.59,3.59,0,0,1,7.17,0v8A3.59,3.59,0,0,1,30.22,25Z" transform="translate(-0.35 -8.98)"/><path class="ac35ef19-fe87-46bc-b2fb-1a0557247323" d="M30.22,10.59A2.78,2.78,0,0,1,33,13.37v8a2.77,2.77,0,0,1-2.78,2.78h0a2.77,2.77,0,0,1-2.77-2.78v-8a2.78,2.78,0,0,1,2.77-2.78h0m0-1.61a4.39,4.39,0,0,0-4.38,4.39v8a4.39,4.39,0,1,0,8.77,0v-8A4.4,4.4,0,0,0,30.22,9Z" transform="translate(-0.35 -8.98)"/><path class="f6015cc4-f5a4-4b38-a023-d817b28beeae" d="M57.16,25a3.58,3.58,0,0,1-3.58-3.59v-8a3.58,3.58,0,0,1,7.16,0v8A3.59,3.59,0,0,1,57.16,25Z" transform="translate(-0.35 -8.98)"/><path class="ac35ef19-fe87-46bc-b2fb-1a0557247323" d="M57.16,10.59a2.78,2.78,0,0,1,2.77,2.78v8a2.77,2.77,0,0,1-2.77,2.78h0a2.77,2.77,0,0,1-2.78-2.78v-8a2.78,2.78,0,0,1,2.78-2.78h0m0-1.61a4.4,4.4,0,0,0-4.39,4.39v8a4.39,4.39,0,0,0,8.78,0v-8A4.4,4.4,0,0,0,57.16,9Z" transform="translate(-0.35 -8.98)"/><path class="f6015cc4-f5a4-4b38-a023-d817b28beeae" d="M77.13,89.81A21.31,21.31,0,1,1,98.44,68.5,21.33,21.33,0,0,1,77.13,89.81Z" transform="translate(-0.35 -8.98)"/><path class="ac35ef19-fe87-46bc-b2fb-1a0557247323" d="M77.13,48.4A20.1,20.1,0,1,1,57,68.5a20.1,20.1,0,0,1,20.1-20.1m0-2.42A22.52,22.52,0,1,0,99.65,68.5,22.54,22.54,0,0,0,77.13,46Z" transform="translate(-0.35 -8.98)"/><circle class="ac35ef19-fe87-46bc-b2fb-1a0557247323" cx="77.06" cy="59.52" r="15.57"/><path class="f6015cc4-f5a4-4b38-a023-d817b28beeae" d="M86.84,70.33H76.61V58.45a2,2,0,0,0-3.91,0V72.79a1.42,1.42,0,0,0,1.41,1.42l12.73,0a2,2,0,1,0,0-3.91Z" transform="translate(-0.35 -8.98)"/></g></svg>