<svg xmlns="http://www.w3.org/2000/svg" viewBox="0 0 27.99 23.13"><defs><style>.a{fill:#26aeb4;}.b{fill:#fff;}.c{fill:#e7ae22;}</style></defs><path class="a" d="M183.14,349.45a4.33,4.33,0,1,1-4.33,4.32,4.34,4.34,0,0,1,4.33-4.32m0-1.34a5.67,5.67,0,1,0,5.67,5.66,5.66,5.66,0,0,0-5.67-5.66Z" transform="translate(-161.42 -336.99)"/><rect class="b" x="0.37" y="3.26" width="23.6" height="16.33" rx="2.21"/><path class="c" d="M183.18,340.63a1.84,1.84,0,0,1,1.84,1.83v11.92a1.85,1.85,0,0,1-1.84,1.84H164a1.84,1.84,0,0,1-1.84-1.84V342.46a1.83,1.83,0,0,1,1.84-1.83h19.18m0-.75H164a2.58,2.58,0,0,0-2.58,2.58v11.92A2.58,2.58,0,0,0,164,357h19.18a2.59,2.59,0,0,0,2.58-2.58V342.46a2.59,2.59,0,0,0-2.58-2.58Z" transform="translate(-161.42 -336.99)"/><rect class="c" x="2.15" y="7.29" width="19.99" height="11.06"/><rect class="b" x="4.04" y="8.52" width="4.81" height="3.83"/><rect class="b" x="9.73" y="8.52" width="4.81" height="3.83"/><rect class="b" x="15.42" y="8.52" width="4.81" height="3.83"/><rect class="b" x="4.04" y="13.23" width="4.81" height="3.83"/><rect class="b" x="9.73" y="13.23" width="4.81" height="3.83"/><path class="b" d="M169.84,341.5a1,1,0,0,1-1-1v-2.26a1,1,0,0,1,2,0v2.26A1,1,0,0,1,169.84,341.5Z" transform="translate(-161.42 -336.99)"/><path class="c" d="M169.84,337.45a.78.78,0,0,1,.78.78v2.26a.78.78,0,0,1-.78.79h0a.79.79,0,0,1-.79-.79v-2.26a.78.78,0,0,1,.79-.78h0m0-.46a1.25,1.25,0,0,0-1.24,1.24v2.26a1.24,1.24,0,1,0,2.47,0v-2.26a1.24,1.24,0,0,0-1.23-1.24Z" transform="translate(-161.42 -336.99)"/><path class="b" d="M177.43,341.5a1,1,0,0,1-1-1v-2.26a1,1,0,0,1,2,0v2.26A1,1,0,0,1,177.43,341.5Z" transform="translate(-161.42 -336.99)"/><path class="c" d="M177.43,337.45a.78.78,0,0,1,.78.78v2.26a.78.78,0,0,1-.78.79h0a.78.78,0,0,1-.78-.79v-2.26a.78.78,0,0,1,.78-.78h0m0-.46a1.25,1.25,0,0,0-1.24,1.24v2.26a1.24,1.24,0,0,0,2.48,0v-2.26a1.25,1.25,0,0,0-1.24-1.24Z" transform="translate(-161.42 -336.99)"/><path class="b" d="M183.06,359.78a6,6,0,1,1,6-6A6,6,0,0,1,183.06,359.78Z" transform="translate(-161.42 -336.99)"/><path class="c" d="M183.06,348.11a5.67,5.67,0,1,1-5.67,5.66,5.66,5.66,0,0,1,5.67-5.66m0-.68a6.35,6.35,0,1,0,6.35,6.34,6.35,6.35,0,0,0-6.35-6.34Z" transform="translate(-161.42 -336.99)"/><circle class="c" cx="21.72" cy="16.78" r="4.39"/><path class="b" d="M185.8,354.29h-2.89v-3.35a.55.55,0,0,0-.55-.55.55.55,0,0,0-.55.55v4a.4.4,0,0,0,.4.4h3.59a.55.55,0,1,0,0-1.1Z" transform="translate(-161.42 -336.99)"/></svg>