<svg width="71" height="73" viewBox="0 0 71 73" fill="none" xmlns="http://www.w3.org/2000/svg">
    <g clip-path="url(#clip0)">
        <path d="M67.7582 69.6736L66.4552 70.9816C66.1296 71.3146 65.7428 71.5788 65.317 71.759C64.8914 71.9392 64.4351 72.0321 63.9743 72.0321C63.5136 72.0321 63.0571 71.9392 62.6315 71.759C62.2059 71.5788 61.8191 71.3146 61.4933 70.9816L40.8657 49.5498C41.5626 49.395 42.7672 48.2728 44.3352 46.5777C45.6761 45.1304 46.767 44.186 46.926 43.4121L67.7885 65.0839C68.0826 65.3865 68.3153 65.7456 68.473 66.1406C68.6308 66.5355 68.7107 66.9585 68.7078 67.3852C68.705 67.8117 68.6197 68.2334 68.4567 68.6263C68.2937 69.019 68.0563 69.375 67.7582 69.6736Z" fill="#25AEB4"/>
        <path d="M64.1313 72.3405C63.6004 72.3374 63.0752 72.2272 62.586 72.0163C62.0968 71.8052 61.6531 71.4977 61.2808 71.1109L40.7775 49.8639C40.7101 49.7916 40.6624 49.7026 40.6392 49.6056C40.6163 49.5086 40.6185 49.4071 40.6459 49.3113C40.6734 49.2156 40.7249 49.1288 40.7956 49.06C40.8663 48.9911 40.9534 48.9423 41.0483 48.9186C41.5371 48.811 42.5977 47.8813 44.2148 46.1369L45.1099 45.1918C45.7175 44.6523 46.2268 44.0071 46.6141 43.2861C46.6335 43.187 46.6798 43.0958 46.7475 43.0223C46.8155 42.949 46.902 42.8965 46.9976 42.8711C47.0925 42.8443 47.1926 42.8438 47.2877 42.8694C47.3828 42.8952 47.4697 42.946 47.5392 43.0171L68.3131 64.5101C68.6607 64.8623 68.9363 65.2812 69.1246 65.7429C69.3128 66.2046 69.4097 66.6997 69.4097 67.1996C69.4097 67.6998 69.3128 68.1949 69.1246 68.6563C68.9363 69.118 68.6607 69.537 68.3131 69.8891L67.0195 71.1955C66.6357 71.5715 66.1829 71.8662 65.6873 72.0628C65.1917 72.2592 64.6628 72.3536 64.1313 72.3405ZM42.1014 49.641L62.0404 70.3194C62.3103 70.6008 62.6319 70.8251 62.9869 70.9794C63.3418 71.1337 63.723 71.2151 64.1087 71.2185C64.4951 71.2227 64.8784 71.1482 65.2361 70.9989C65.5938 70.8499 65.9189 70.6294 66.1922 70.3503L67.4857 69.0517C67.7252 68.8061 67.9148 68.5148 68.0438 68.1945C68.1729 67.8741 68.2389 67.5309 68.2378 67.1843C68.2424 66.4773 67.9719 65.7972 67.4857 65.294L47.3287 44.3618C46.8888 44.937 46.4087 45.4789 45.892 45.9833C45.6213 46.2676 45.3204 46.575 45.012 46.913C44.1397 47.9258 43.164 48.8403 42.1014 49.641Z" fill="#25AEB4"/>
        <path d="M25.6393 4.33127C29.9123 4.33127 34.0893 5.62939 37.6422 8.06148C41.1951 10.4936 43.9644 13.9504 45.5996 17.9948C47.2348 22.0393 47.6627 26.4896 46.829 30.7831C45.9954 35.0768 43.9377 39.0206 40.9161 42.1161C37.8947 45.2115 34.0451 47.3195 29.8541 48.1737C25.6632 49.0277 21.3193 48.5894 17.3715 46.9141C13.4237 45.2388 10.0495 42.4018 7.67554 38.762C5.30156 35.1221 4.03447 30.8428 4.03447 26.465C4.04114 20.5969 6.31951 14.9711 10.3698 10.8217C14.42 6.67226 19.9114 4.33811 25.6393 4.33127ZM25.6393 0.942383C20.7121 0.942383 15.8954 2.43926 11.7985 5.24373C7.70166 8.04821 4.50853 12.0343 2.62294 16.698C0.737357 21.3617 0.244001 26.4934 1.20527 31.4443C2.16653 36.3952 4.53923 40.9428 8.02334 44.5123C11.5074 48.0817 15.9465 50.5126 20.7791 51.4974C25.6116 52.4822 30.6207 51.9766 35.173 50.045C39.7252 48.1132 43.6161 44.8419 46.3535 40.6447C49.0908 36.4475 50.5521 31.5129 50.5521 26.465C50.5507 19.6965 47.9255 13.2055 43.2537 8.41933C38.5821 3.63319 32.2462 0.943755 25.6393 0.942383Z" fill="#25AEB4"/>
        <path d="M25.6393 6.58707C29.4768 6.58707 33.2282 7.7529 36.419 9.93712C39.6097 12.1213 42.0967 15.2259 43.5652 18.858C45.0338 22.4903 45.4181 26.4871 44.6693 30.343C43.9207 34.1991 42.0728 37.741 39.3593 40.5209C36.6456 43.3009 33.1885 45.1941 29.4245 45.9612C25.6607 46.7281 21.7596 46.3345 18.2142 44.8299C14.6687 43.3255 11.6384 40.7776 9.50634 37.5087C7.37432 34.2399 6.23635 30.3967 6.23635 26.465C6.24304 21.1952 8.28941 16.1431 11.9267 12.4168C15.564 8.6904 20.4954 6.59391 25.6393 6.58707ZM25.6393 0.942383C20.7121 0.942383 15.8954 2.43926 11.7985 5.24373C7.70166 8.04821 4.50853 12.0343 2.62294 16.698C0.737357 21.3617 0.244001 26.4934 1.20527 31.4443C2.16653 36.3952 4.53923 40.9428 8.02334 44.5123C11.5074 48.0817 15.9465 50.5126 20.7791 51.4974C25.6116 52.4822 30.6207 51.9766 35.173 50.045C39.7252 48.1132 43.6161 44.8419 46.3535 40.6447C49.0908 36.4475 50.5521 31.5129 50.5521 26.465C50.5507 19.6965 47.9255 13.2055 43.2537 8.41933C38.5821 3.63319 32.2462 0.943755 25.6393 0.942383Z" fill="#25AEB4"/>
        <path d="M25.9773 47.9617C37.0377 47.9617 46.0039 38.6056 46.0039 27.0643C46.0039 15.523 37.0377 6.16699 25.9773 6.16699C14.9169 6.16699 5.95068 15.523 5.95068 27.0643C5.95068 38.6056 14.9169 47.9617 25.9773 47.9617Z" fill="#25AFB5"/>
        <path d="M18.5881 18.4471L18.1418 35.5899C18.1328 35.9188 18.2123 36.2441 18.372 36.5333C18.5318 36.8225 18.7662 37.065 19.0517 37.2369C19.3373 37.4087 19.6638 37.5036 19.9987 37.512C20.3333 37.5203 20.6644 37.442 20.9585 37.2846L36.297 29.0953C36.5922 28.9388 36.8399 28.7084 37.0154 28.4276C37.1909 28.1466 37.2879 27.8253 37.2964 27.4958C37.3049 27.1665 37.2248 26.8406 37.0641 26.5512C36.9035 26.262 36.6681 26.0195 36.3815 25.8481L21.4953 16.8946C21.2096 16.7213 20.8824 16.6249 20.5465 16.616C20.2108 16.6067 19.8787 16.685 19.5835 16.8425C19.2884 17.0001 19.0409 17.2315 18.8662 17.5133C18.6913 17.7951 18.5954 18.1172 18.5881 18.4471Z" fill="white"/>
    </g>
    <defs>
        <clipPath id="clip0">
            <rect width="69.6578" height="71.3992" fill="white" transform="translate(0.726562 0.942383)"/>
        </clipPath>
    </defs>
</svg>
