<svg width="72" height="76" viewBox="0 0 72 76" fill="none" xmlns="http://www.w3.org/2000/svg">
    <path d="M26.8769 54.0126H26.8772C33.8982 54.004 40.6291 51.2112 45.5937 46.2466C50.5583 41.282 53.3512 34.551 53.3597 27.53V27.5297C53.3597 22.2919 51.8065 17.1717 48.8966 12.8166C45.9866 8.46157 41.8505 5.0672 37.0114 3.06277C32.1723 1.05835 26.8475 0.533901 21.7103 1.55575C16.5732 2.57759 11.8544 5.09984 8.1507 8.80353C4.44701 12.5072 1.92476 17.226 0.902915 22.3632C-0.118931 27.5003 0.405517 32.8252 2.40994 37.6643C4.41436 42.5034 7.80873 46.6394 12.1638 49.5494C16.5189 52.4594 21.6391 54.0126 26.8769 54.0126ZM26.8769 48.301H26.8771C32.3842 48.2952 37.6641 46.105 41.5581 42.211C45.4522 38.3169 47.6424 33.037 47.6481 27.53V27.5297C47.6481 23.4216 46.4299 19.4057 44.1475 15.9898C41.8652 12.574 38.6211 9.91173 34.8257 8.3396C31.0303 6.76748 26.8538 6.35614 22.8246 7.1576C18.7954 7.95906 15.0943 9.93733 12.1894 12.8422C9.2845 15.7472 7.30623 19.4482 6.50477 23.4775C5.70331 27.5067 6.11465 31.6831 7.68677 35.4785C9.2589 39.274 11.9212 42.518 15.337 44.8004C18.7528 47.0827 22.7687 48.301 26.8769 48.301ZM12.9157 6.63526C17.0482 3.87401 21.9067 2.40019 26.8768 2.40016C33.539 2.40859 39.9259 5.05888 44.6368 9.76979C49.3478 14.4807 51.9981 20.8678 52.0065 27.53C52.0064 32.5001 50.5326 37.3585 47.7714 41.491C45.0101 45.6235 41.0854 48.8444 36.4936 50.7464C31.9017 52.6484 26.849 53.1461 21.9744 52.1764C17.0997 51.2068 12.622 48.8134 9.10761 45.299C5.59318 41.7846 3.19982 37.3069 2.23019 32.4323C1.26056 27.5576 1.75821 22.5049 3.6602 17.9131C5.5622 13.3212 8.78312 9.39653 12.9157 6.63526ZM16.0859 11.3798C19.28 9.24563 23.0351 8.10648 26.8766 8.10643C32.0264 8.112 36.9636 10.1602 40.605 13.8016C44.2464 17.443 46.2946 22.3803 46.3002 27.53C46.3001 31.3715 45.161 35.1267 43.0268 38.3207C40.8925 41.5149 37.859 44.0044 34.3099 45.4745C30.7607 46.9446 26.8553 47.3293 23.0876 46.5798C19.3198 45.8304 15.8589 43.9805 13.1425 41.2641C10.4262 38.5477 8.57626 35.0868 7.82681 31.319C7.07736 27.5513 7.462 23.6459 8.93211 20.0968C10.4022 16.5476 12.8917 13.5141 16.0859 11.3798Z" fill="#25AEB4" stroke="#25AEB4" stroke-width="0.5"/>
    <path d="M19.2882 35.697L19.2882 35.6972L21.3087 37.5217L21.3079 37.7717C21.3079 37.7717 21.308 37.7717 21.308 37.7717C21.6486 37.7727 21.9838 37.6869 22.282 37.5224C22.2823 37.5222 22.2825 37.5221 22.2828 37.5219L36.5142 29.7851C36.5144 29.785 36.5146 29.7849 36.5148 29.7847C36.8278 29.616 37.0908 29.3676 37.2771 29.0647C37.4635 28.7615 37.5666 28.4145 37.5758 28.0588C37.5851 27.703 37.5002 27.3511 37.3298 27.0387C37.1595 26.7264 36.9098 26.4646 36.6059 26.2798C36.6057 26.2797 36.6056 26.2796 36.6054 26.2795L22.7724 17.8112L22.7719 17.8109C22.4684 17.6262 22.1218 17.5246 21.7666 17.5162C21.4115 17.5078 21.0605 17.5929 20.7486 17.763C20.4368 17.9331 20.1752 18.1822 19.99 18.4853C19.8048 18.7884 19.7025 19.1349 19.6935 19.49L19.6935 19.4901L19.2882 35.697ZM21.405 18.949L21.405 18.949L21.4057 18.9486C21.5052 18.8951 21.6162 18.8669 21.7291 18.8664C21.8526 18.8677 21.9734 18.9027 22.0784 18.9677L22.0784 18.9677L22.0794 18.9683L35.9025 27.4264L35.9025 27.4264L35.9057 27.4283C36.0077 27.4887 36.0919 27.5751 36.1494 27.6788C36.2069 27.7825 36.2358 27.8996 36.233 28.0182C36.2303 28.1367 36.196 28.2524 36.1337 28.3533C36.0713 28.4541 35.9833 28.5366 35.8785 28.5921L35.8762 28.5934L21.6319 36.3368L21.6305 36.3376C21.5274 36.3945 21.411 36.4231 21.2932 36.4204C21.1755 36.4178 21.0605 36.384 20.96 36.3225C20.8595 36.261 20.7771 36.1741 20.7211 36.0704C20.6651 35.9668 20.6376 35.8501 20.6413 35.7324L20.6413 35.731L21.0573 19.5241L21.0573 19.5241L21.0573 19.5206C21.0587 19.4029 21.0917 19.2878 21.1529 19.1872C21.214 19.0866 21.3011 19.0044 21.405 18.949Z" fill="#25AEB4" stroke="#25AFB5" stroke-width="0.5"/>
    <path d="M42.2178 52.7033L42.2178 52.7033C42.1201 52.5995 42.0507 52.4724 42.0161 52.3341C41.9815 52.1958 41.983 52.051 42.0203 51.9135L42.0225 51.9053L42.0227 51.9054C42.0654 51.7666 42.1447 51.6419 42.2521 51.5442C42.3591 51.4469 42.4902 51.38 42.6317 51.3505M42.2178 52.7033L42.684 51.5949M42.2178 52.7033L42.2216 52.7073M42.2178 52.7033L42.2216 52.7073M42.6317 51.3505C42.6323 51.3503 42.6329 51.3502 42.6335 51.3501L42.684 51.5949M42.6317 51.3505C42.6313 51.3506 42.631 51.3506 42.6306 51.3507L42.684 51.5949M42.6317 51.3505C42.708 51.3335 42.8336 51.2765 43.0186 51.1528C43.1997 51.0316 43.4199 50.8588 43.6818 50.6314C44.2051 50.1771 44.8782 49.5195 45.7133 48.6577M42.684 51.5949C43.1756 51.4874 44.2202 50.5581 45.8945 48.8299M45.7133 48.6577C45.7127 48.6583 45.7122 48.6589 45.7116 48.6595L45.8945 48.8299M45.7133 48.6577C45.7139 48.6571 45.7144 48.6565 45.715 48.656L45.8945 48.8299M45.7133 48.6577L45.8945 48.8299M42.2216 52.7073L62.9573 73.7885C62.9577 73.7889 62.958 73.7893 62.9584 73.7897C63.3612 74.2082 63.8447 74.541 64.3795 74.7678C64.9143 74.9946 65.4894 75.1108 66.0703 75.1095C66.6427 75.1164 67.2108 75.0098 67.7418 74.796C68.2734 74.582 68.7574 74.2647 69.1656 73.8624L69.1659 73.8622L70.4792 72.5642L70.4801 72.5633M42.2216 52.7073L70.4801 72.5633M70.4801 72.5633C70.8524 72.1919 71.1478 71.7507 71.3493 71.265C71.5509 70.7793 71.6546 70.2586 71.6546 69.7327C71.6546 69.2068 71.5509 68.6861 71.3493 68.2004C71.1479 67.715 70.8528 67.274 70.4808 66.9028M70.4801 72.5633L70.4808 66.9028M70.4808 66.9028C70.4806 66.9025 70.4803 66.9023 70.4801 66.902L70.4808 66.9028ZM48.1023 45.9034C48.0988 45.9163 48.0956 45.9293 48.0927 45.9425L48.337 45.9958L48.1182 45.8747C48.1129 45.8843 48.1076 45.8938 48.1023 45.9034ZM49.0397 47.4393L69.2958 68.0301L69.297 68.0314C69.7446 68.4799 69.996 69.0876 69.996 69.7212C69.996 70.3544 69.7449 70.9618 69.2978 71.4102C69.2975 71.4105 69.2973 71.4107 69.297 71.411L67.9926 72.7001L67.9906 72.702C67.7378 72.9574 67.4357 73.1588 67.1027 73.294C66.7696 73.4291 66.4126 73.4952 66.0533 73.4882L66.05 73.4881C65.692 73.4859 65.338 73.4126 65.0086 73.2726C64.6791 73.1326 64.3806 72.9286 64.1305 72.6725L64.1297 72.6717L44.092 52.3374C45.0926 51.5743 46.0152 50.7136 46.8461 49.7678L47.7375 48.8536C48.1994 48.4085 48.6343 47.9363 49.0397 47.4393Z" fill="#25AEB4" stroke="#25AEB4" stroke-width="0.5"/>
</svg>
