<svg width="28" height="29" viewBox="0 0 28 29" fill="none" xmlns="http://www.w3.org/2000/svg">
    <path d="M10.6389 20.3758H10.639C13.2204 20.3726 15.6952 19.3458 17.5205 17.5205C19.3458 15.6952 20.3726 13.2204 20.3758 10.639V10.6389C20.3758 8.71314 19.8047 6.83061 18.7348 5.22939C17.6649 3.62817 16.1442 2.38017 14.3651 1.6432C12.5859 0.906243 10.6281 0.71342 8.73934 1.08912C6.85057 1.46482 5.11562 2.39217 3.75389 3.75389C2.39217 5.11562 1.46482 6.85057 1.08912 8.73934C0.71342 10.6281 0.906243 12.5859 1.6432 14.3651C2.38017 16.1442 3.62817 17.6649 5.22939 18.7348C6.83061 19.8047 8.71314 20.3758 10.6389 20.3758ZM10.6389 18.2771H10.639C12.6641 18.275 14.6057 17.4696 16.0377 16.0377C17.4696 14.6057 18.275 12.6641 18.2771 10.639V10.6389C18.2771 9.12821 17.8292 7.65144 16.9899 6.39534C16.1506 5.13924 14.9576 4.16022 13.5619 3.58211C12.1662 3.00399 10.6304 2.85272 9.14876 3.14745C7.66709 3.44217 6.30609 4.16964 5.23786 5.23786C4.16964 6.30609 3.44217 7.66709 3.14745 9.14876C2.85272 10.6304 3.00399 12.1662 3.58211 13.5619C4.16022 14.9576 5.13924 16.1506 6.39534 16.9899C7.65144 17.8292 9.12821 18.2771 10.6389 18.2771ZM5.51244 2.9666C7.02986 1.95269 8.81387 1.41151 10.6389 1.4115C13.0852 1.4146 15.4304 2.38777 17.1602 4.11758C18.8901 5.84741 19.8632 8.19268 19.8663 10.639C19.8663 12.464 19.3251 14.248 18.3112 15.7654C17.2973 17.2828 15.8562 18.4655 14.1701 19.1639C12.484 19.8623 10.6287 20.0451 8.83873 19.689C7.04879 19.333 5.40462 18.4541 4.11415 17.1637C2.82367 15.8732 1.94485 14.229 1.58881 12.4391C1.23277 10.6491 1.4155 8.79382 2.1139 7.10773C2.8123 5.42165 3.995 3.98052 5.51244 2.9666ZM6.6773 4.70994C7.84991 3.92642 9.22852 3.50822 10.6388 3.5082C12.5294 3.51024 14.3419 4.26218 15.6788 5.59903C17.0156 6.93587 17.7676 8.74843 17.7696 10.639C17.7696 12.0493 17.3514 13.4279 16.5679 14.6005C15.7843 15.7732 14.6707 16.6871 13.3677 17.2268C12.0647 17.7665 10.631 17.9077 9.24778 17.6326C7.86455 17.3575 6.59398 16.6783 5.59673 15.6811C4.59949 14.6838 3.92035 13.4133 3.64521 12.03C3.37007 10.6468 3.51128 9.21307 4.05099 7.9101C4.5907 6.60714 5.50466 5.49347 6.6773 4.70994Z" fill="white" stroke="white" stroke-width="0.195953"/>
    <path d="M7.84365 13.6406L7.84365 13.6405L7.99257 7.68548L7.99257 7.68544C7.99592 7.55389 8.0338 7.42554 8.1024 7.31325C8.17101 7.20095 8.26793 7.10868 8.38345 7.04566C8.49897 6.98265 8.62903 6.95112 8.76058 6.95424C8.89214 6.95735 9.02056 6.995 9.13297 7.0634L9.13319 7.06354L9.13319 7.06354L14.2159 10.1751C14.216 10.1751 14.2161 10.1752 14.2161 10.1752C14.3287 10.2437 14.4212 10.3407 14.4843 10.4563C14.5474 10.5721 14.5789 10.7024 14.5754 10.8342C14.572 10.966 14.5338 11.0946 14.4648 11.2069C14.3957 11.3191 14.2983 11.4111 14.1823 11.4737C14.1823 11.4737 14.1822 11.4737 14.1821 11.4738L8.95305 14.3165C8.95294 14.3166 8.95284 14.3167 8.95273 14.3167L7.84365 13.6406ZM7.84365 13.6406C7.84125 13.7404 7.85881 13.8398 7.89531 13.9328C7.93181 14.0258 7.98651 14.1106 8.0562 14.1821C8.12589 14.2537 8.20917 14.3107 8.30116 14.3496C8.39314 14.3886 8.49198 14.4088 8.59187 14.4091L7.84365 13.6406ZM8.40796 7.69577L8.25512 13.6508L8.58432 7.40576C8.53163 7.43385 8.48746 7.4756 8.45643 7.52662C8.42541 7.57764 8.40867 7.63606 8.40796 7.69577ZM8.74664 7.46258C8.79088 7.46306 8.83415 7.47561 8.87179 7.49889L8.87179 7.49889L8.87218 7.49913L13.9513 10.6069L13.9513 10.6069L13.9525 10.6077C13.9891 10.6293 14.0192 10.6603 14.0398 10.6974C14.0605 10.7346 14.0708 10.7766 14.0698 10.819C14.0688 10.8615 14.0565 10.9029 14.0342 10.9391L14.1176 10.9906L14.0342 10.9391C14.0119 10.9752 13.9803 11.0048 13.9428 11.0247L13.9428 11.0247L13.9419 11.0251L8.708 13.8704L8.70747 13.8707C8.67051 13.891 8.62882 13.9013 8.58663 13.9003C8.54443 13.8994 8.50324 13.8873 8.46724 13.8653L8.41611 13.9488L8.46723 13.8653C8.43123 13.8432 8.4017 13.8121 8.38164 13.7749C8.36159 13.7378 8.35172 13.696 8.35305 13.6538L8.35306 13.6533L8.50591 7.69828L8.50591 7.69828L8.50593 7.69692C8.50643 7.65478 8.51825 7.61354 8.54015 7.57752C8.56205 7.54151 8.59323 7.51204 8.63042 7.49221L8.63042 7.49221L8.63073 7.49204C8.66637 7.47287 8.70617 7.46276 8.74664 7.46258Z" fill="white" stroke="white" stroke-width="0.195953"/>
    <path d="M18.523 17.424C18.5309 17.3879 18.5484 17.3546 18.5738 17.3278C18.5992 17.3009 18.6314 17.2815 18.6669 17.2716L18.4311 17.3877M18.523 17.424L18.4373 17.3765C18.4352 17.3802 18.4332 17.384 18.4311 17.3877M18.523 17.424C18.3771 17.6876 18.1861 17.9235 17.9586 18.121L18.523 17.424ZM18.4311 17.3877C18.4441 17.3401 18.4686 17.2964 18.5026 17.2605C18.5402 17.2207 18.5879 17.1919 18.6406 17.1772L18.6409 17.1771C18.6932 17.1627 18.7483 17.1624 18.8008 17.1762C18.8532 17.1901 18.901 17.2175 18.9394 17.2559L18.9399 17.2564L18.9399 17.2564L26.6635 25.1014C26.6636 25.1015 26.6637 25.1016 26.6638 25.1017C26.801 25.2386 26.9099 25.4013 26.9842 25.5804C27.0586 25.7596 27.0969 25.9517 27.0969 26.1458C27.0969 26.3398 27.0586 26.5319 26.9842 26.7111C26.9099 26.8904 26.8009 27.0532 26.6635 27.1902L26.6632 27.1905L26.1806 27.6674L26.1805 27.6675C26.0299 27.8159 25.8514 27.9329 25.6553 28.0119C25.4595 28.0908 25.25 28.13 25.0388 28.1275M18.4311 17.3877C18.2915 17.6367 18.11 17.8598 17.8943 18.047L17.8942 18.0469L17.8893 18.0517C17.7845 18.1566 17.671 18.2729 17.5545 18.3978C17.2478 18.7144 17.0006 18.9559 16.8085 19.1226C16.7124 19.2061 16.6317 19.2694 16.5654 19.3137C16.4977 19.3591 16.4523 19.3795 16.4254 19.3855C16.3723 19.3966 16.3232 19.4216 16.2831 19.4581C16.2428 19.4947 16.2131 19.5415 16.1971 19.5936L16.197 19.5935L16.1961 19.5967C16.1821 19.6483 16.1816 19.7026 16.1946 19.7544C16.2075 19.8062 16.2335 19.8538 16.2701 19.8927L16.2701 19.8928L16.2716 19.8943L23.8906 27.6403C23.8908 27.6404 23.8909 27.6405 23.891 27.6407C24.0396 27.7951 24.218 27.9178 24.4152 28.0015C24.6125 28.0851 24.8246 28.128 25.0388 28.1275M25.0388 28.1275C25.0386 28.1275 25.0383 28.1275 25.0381 28.1275L25.0393 28.0295L25.0396 28.1275C25.0393 28.1275 25.0391 28.1275 25.0388 28.1275ZM18.7816 17.9635L26.2197 25.5245L26.2202 25.525C26.3835 25.6886 26.4752 25.9103 26.4752 26.1415C26.4752 26.3726 26.3836 26.5943 26.2204 26.7579C26.2203 26.758 26.2202 26.758 26.2202 26.7581L25.7409 27.2317L25.7401 27.2325C25.6478 27.3258 25.5375 27.3993 25.4159 27.4486C25.2943 27.498 25.164 27.5221 25.0328 27.5195L25.0315 27.5195C24.9007 27.5187 24.7715 27.492 24.6512 27.4408C24.5308 27.3897 24.4218 27.3152 24.3305 27.2217L24.3302 27.2214L16.9725 19.7548C17.3383 19.4752 17.6757 19.1601 17.9797 18.8141L18.307 18.4784C18.4753 18.3163 18.6338 18.1443 18.7816 17.9635Z" fill="white" stroke="white" stroke-width="0.195953"/>
</svg>
