<?xml version="1.0" encoding="UTF-8" standalone="no"?>
<!DOCTYPE svg PUBLIC "-//W3C//DTD SVG 1.1//EN" "http://www.w3.org/Graphics/SVG/1.1/DTD/svg11.dtd">
<svg version="1.1" xmlns="http://www.w3.org/2000/svg" xmlns:xlink="http://www.w3.org/1999/xlink" preserveAspectRatio="xMidYMid meet" viewBox="0 0 640 640" width="25" height="25"><defs><path d="M112.42 180.52C107.92 180.13 103.47 181.62 100.11 184.62C96.8 187.8 95.27 192.4 96.01 196.93C100.27 234.09 134.4 531.44 138.67 568.61C143.67 609.59 178.62 640.3 219.9 639.99C240.58 639.99 405.99 639.99 426.66 639.99C469.11 640.6 504.86 608.42 508.71 566.15C512.24 529.06 540.46 232.37 543.99 195.28C544.21 191.31 542.72 187.42 539.89 184.62C536.53 181.62 532.08 180.13 527.58 180.52C444.55 180.52 153.93 180.52 112.42 180.52ZM426.66 607.17C405.99 607.17 240.58 607.17 219.9 607.17C195.25 608.17 174.07 589.86 171.49 565.33C168.76 541.86 155.08 424.53 130.47 213.34L509.53 213.34L475.89 564.51C459.81 593.62 443.4 607.84 426.66 607.17Z" id="d1mjAnPU2N"></path><path d="M418.46 73.85C418.46 58.1 418.46 49.35 418.46 47.6C419.37 22.24 399.55 0.94 374.19 0.03C373.36 0 372.52 -0.01 371.69 0.01C361.35 0.01 278.65 0.01 268.31 0.01C242.94 -0.46 221.99 19.73 221.52 45.1C221.5 45.93 221.51 46.76 221.54 47.6C221.54 49.35 221.54 58.1 221.54 73.85C120.13 73.85 63.79 73.85 52.52 73.85C43.46 73.85 36.11 81.2 36.11 90.26C36.11 99.32 43.46 106.67 52.52 106.67C106.02 106.67 533.98 106.67 587.48 106.67C596.54 106.67 603.89 99.32 603.89 90.26C603.89 81.2 596.54 73.85 587.48 73.85C564.94 73.85 508.6 73.85 418.46 73.85ZM385.64 73.85L254.36 73.85C254.36 58.1 254.36 49.35 254.36 47.6C253.43 40.41 258.52 33.83 265.71 32.9C266.57 32.79 267.44 32.77 268.31 32.83C278.65 32.83 361.35 32.83 371.69 32.83C378.92 32.32 385.2 37.76 385.71 45C385.78 45.86 385.75 46.73 385.64 47.6C385.64 51.1 385.64 59.85 385.64 73.85Z" id="bWzelvdYu"></path></defs><g><g><g><use xlink:href="#d1mjAnPU2N" opacity="1" fill="#ff3366" fill-opacity="1"></use><g><use xlink:href="#d1mjAnPU2N" opacity="1" fill-opacity="0" stroke="#000000" stroke-width="1" stroke-opacity="0"></use></g></g><g><use xlink:href="#bWzelvdYu" opacity="1" fill="#ff3366" fill-opacity="1"></use><g><use xlink:href="#bWzelvdYu" opacity="1" fill-opacity="0" stroke="#000000" stroke-width="1" stroke-opacity="0"></use></g></g></g></g></svg>