<svg id="b708bb36-fb8a-421f-b8e0-a030565be304" data-name="video-camera-icon" xmlns="http://www.w3.org/2000/svg" viewBox="0 0 98.95 54.97"><defs><style>.b5b5f738-f155-4f05-ab0a-e570d983eb77{fill:#fff;}.ae63e325-dc2a-4263-b324-96c18b5f23ae{fill:#C4C4C4;}</style></defs><g id="ae51aac0-1bd1-4e28-b27c-fd579a7470b1" data-name="video-camera-outline"><path class="b5b5f738-f155-4f05-ab0a-e570d983eb77" d="M77.61,63a1.57,1.57,0,0,1,.25.16c3.62,2.86,7.24,5.71,10.84,8.6a3.87,3.87,0,0,0,2.66,1c2-.07,4,0,6,0a2,2,0,0,0,2.16-2.24c0-2,0-4.06,0-6.09q0-17.3,0-34.59a2.08,2.08,0,0,0-2.3-2.29c-2,0-4,0-6,0a3.11,3.11,0,0,0-2.1.72q-5.46,4.38-11,8.72c-.12.1-.26.19-.46.34V30a7.42,7.42,0,0,0-7.51-7.46c-5,0-10.08,0-15.12,0H12c-1.67,0-3.34-.05-5,.09A7.35,7.35,0,0,0,.53,29.85c0,2.09,0,4.18,0,6.27q0,17,0,34a7.43,7.43,0,0,0,7.39,7.35H70.18A7.4,7.4,0,0,0,77.61,70V63Z" transform="translate(-0.53 -22.52)"/><path class="ae63e325-dc2a-4263-b324-96c18b5f23ae" d="M77.61,63V70a7.4,7.4,0,0,1-7.43,7.43H7.92A7.43,7.43,0,0,1,.53,70.13q0-17,0-34c0-2.09,0-4.18,0-6.27A7.35,7.35,0,0,1,7,22.61c1.65-.14,3.32-.08,5-.09H55c5,0,10.08,0,15.12,0A7.42,7.42,0,0,1,77.61,30v7.28c.2-.15.34-.24.46-.34q5.5-4.35,11-8.72a3.11,3.11,0,0,1,2.1-.72c2,0,4,0,6,0a2.08,2.08,0,0,1,2.3,2.29q0,17.3,0,34.59c0,2,0,4.06,0,6.09a2,2,0,0,1-2.16,2.24c-2,0-4,0-6,0a3.87,3.87,0,0,1-2.66-1c-3.6-2.89-7.22-5.74-10.84-8.6A1.57,1.57,0,0,0,77.61,63ZM39.09,26.67H22.45c-4.81,0-9.61,0-14.41,0A3.26,3.26,0,0,0,4.65,30c0,1.63,0,3.26,0,4.89V61.06c0,2.87,0,5.74,0,8.61a3.5,3.5,0,0,0,3.66,3.69c8.54-.06,17.09,0,25.64,0H70a3.29,3.29,0,0,0,3.47-3.41V30.05a3.28,3.28,0,0,0-3.4-3.38c-1.65,0-3.29,0-4.94,0H39.09ZM95.32,68.56V31.63c-1.28,0-2.51,0-3.75,0a.7.7,0,0,0-.41.19q-2.86,2.23-5.72,4.48c-2.47,2-4.92,3.93-7.39,5.88a1.1,1.1,0,0,0-.46,1q0,7,0,14a.88.88,0,0,0,.38.79L91.17,68.38a.73.73,0,0,0,.37.17C92.79,68.57,94,68.56,95.32,68.56Z" transform="translate(-0.53 -22.52)"/></g></svg>