<svg width="39" height="42" viewBox="0 0 39 42" fill="none" xmlns="http://www.w3.org/2000/svg">
<path d="M28.6808 31.9996H25.5082H23.893H0C0 26.1989 3.46318 21.2094 8.43541 18.9633C5.70794 17.0884 3.91858 13.952 3.91858 10.3974C3.91858 4.65484 8.58542 0 14.3395 0C20.0976 0 24.7626 4.65484 24.7626 10.3974C24.7626 13.9525 22.9733 17.0889 20.2458 18.9633C22.8904 20.1579 25.1002 22.1328 26.5968 24.5884C26.9545 25.175 27.2702 25.7888 27.542 26.4267C28.2701 28.1399 28.6808 30.021 28.6808 31.9996ZM14.3395 2.74912C10.107 2.74912 6.67382 6.1728 6.67382 10.397C6.67382 14.6212 10.107 18.0449 14.3395 18.0449C18.5746 18.0449 22.0069 14.6212 22.0069 10.397C22.0069 6.1728 18.5746 2.74912 14.3395 2.74912ZM34.2508 6.74549V4.85095C34.2508 4.49759 34.0461 4.21169 33.7927 4.21169H30.1781V3.8905C30.1781 3.58449 29.9301 3.33746 29.6233 3.33746H28.8943C28.5872 3.33746 28.3386 3.58494 28.3386 3.8905V4.21169H27.5523C27.2989 4.21169 27.0947 4.49759 27.0947 4.85095V14.8513C27.0947 15.2042 27.2989 15.4905 27.5523 15.4905H29.914V17.163H26.8995C26.5927 17.163 26.3446 17.3252 26.3446 17.5276V18.4402C26.3446 18.6403 26.5932 18.8038 26.8995 18.8038H29.2656L27.1551 24.588C27.5129 25.1745 27.8286 25.7883 28.1004 26.4263L29.914 21.4534V31.9991H31.432V21.4757L35.2713 32H36.886L32.0714 18.8038H34.4451C34.7536 18.8038 35.0004 18.6403 35.0004 18.4402V17.5276C35.0004 17.3252 34.7536 17.163 34.4451 17.163H31.432V15.4905H33.7927C34.0461 15.4905 34.2508 15.2042 34.2508 14.8513V13.0237H36.8533V6.74549H34.2508ZM38.4582 6.74549H37.4713V13.0237H38.4582C38.7569 13.0237 39 12.8651 39 12.6686V7.10242C39 6.90497 38.7569 6.74549 38.4582 6.74549Z" fill="#25AFB5"/>
<path d="M26 31.5C26 37.299 20.8512 42 14.5 42C8.14872 42 3 37.299 3 31.5C3 25.701 8.14872 21 14.5 21C20.8512 21 26 25.701 26 31.5Z" fill="white"/>
</svg>
