<svg width="45" height="28" viewBox="0 0 45 28" fill="none" xmlns="http://www.w3.org/2000/svg">
<path d="M34.5633 20.8896C34.6028 20.9119 34.6404 20.9382 34.6754 20.9682C36.2986 22.3734 37.9219 23.7737 39.5361 25.1936C39.8625 25.5172 40.2888 25.6928 40.7289 25.6849C41.6257 25.6505 42.5225 25.6849 43.4194 25.6849C43.5526 25.6978 43.6868 25.6778 43.8122 25.6264C43.9375 25.5751 44.0507 25.4937 44.1436 25.3881C44.2364 25.2826 44.3066 25.1556 44.3489 25.0166C44.3911 24.8775 44.4045 24.7298 44.3879 24.5843C44.3879 23.6017 44.3879 22.5896 44.3879 21.5922C44.3879 15.9257 44.3879 10.2608 44.3879 4.59749C44.4029 4.44529 44.3865 4.29135 44.3399 4.14705C44.2933 4.00274 44.2177 3.87174 44.1187 3.76374C44.0197 3.65573 43.8998 3.57347 43.7679 3.52304C43.636 3.47261 43.4954 3.45529 43.3566 3.47236C42.4598 3.47236 41.5629 3.47236 40.6661 3.47236C40.3232 3.45933 39.988 3.58528 39.7245 3.82611C38.0923 5.26077 36.4481 6.68887 34.792 8.11042C34.7382 8.15955 34.6754 8.20377 34.5857 8.27747V4.6761C34.5881 4.19196 34.5025 3.71214 34.3339 3.26465C34.1652 2.81716 33.9169 2.41096 33.6034 2.06976C33.2899 1.72856 32.9175 1.4592 32.508 1.27739C32.0985 1.09558 31.66 1.00498 31.2182 1.01086C28.9761 1.01086 26.6982 1.01086 24.4382 1.01086H5.14324C4.3944 1.01086 3.64556 0.98629 2.9012 1.05507C2.10711 1.15995 1.37493 1.57766 0.841142 2.23032C0.307357 2.88299 0.00839866 3.72607 0 4.6024C0 5.62926 0 6.65611 0 7.68297C0 13.2512 0 18.8195 0 24.3878C0.00940172 25.3458 0.362109 26.2613 0.982033 26.9368C1.60196 27.6124 2.43941 27.9939 3.31374 27.999H31.2316C31.6712 28.001 32.1067 27.9073 32.5129 27.7233C32.9191 27.5393 33.2879 27.2687 33.5979 26.9272C33.9078 26.5858 34.1528 26.1802 34.3185 25.7342C34.4843 25.2881 34.5675 24.8104 34.5633 24.3289V20.8896Z" fill="white"/>
<path d="M34.5633 19.8908V23.33C34.5651 23.81 34.4801 24.2855 34.3133 24.7293C34.1465 25.1731 33.9012 25.5763 33.5914 25.9157C33.2817 26.255 32.9137 26.5238 32.5087 26.7066C32.1037 26.8894 31.6696 26.9825 31.2316 26.9805H3.31374C2.44324 26.9755 1.60909 26.5974 0.989792 25.9271C0.370489 25.2568 0.0152191 24.3476 0 23.3939C0 17.8256 0 12.2573 0 6.68904C0 5.66219 0 4.63533 0 3.60847C0.00514544 2.72959 0.302641 1.88294 0.836729 1.22719C1.37082 0.571443 2.10483 0.151622 2.9012 0.0464117C3.64107 -0.022373 4.38991 0.00710609 5.14324 0.0021929H24.4248C26.6668 0.0021929 28.9447 0.0021929 31.2047 0.0021929C31.6466 -0.0023905 32.0848 0.0895021 32.4939 0.272507C32.903 0.455512 33.2747 0.725963 33.5873 1.06808C33.9 1.41019 34.1473 1.81711 34.3149 2.26509C34.4824 2.71307 34.5669 3.19313 34.5633 3.67726V7.25406C34.653 7.18036 34.7157 7.13614 34.7696 7.08701C36.4137 5.66219 38.0579 4.23409 39.702 2.80271C39.9655 2.56188 40.3008 2.43593 40.6437 2.44896C41.5405 2.44896 42.4373 2.44896 43.3341 2.44896C43.473 2.43189 43.6135 2.44921 43.7455 2.49964C43.8774 2.55007 43.9972 2.63233 44.0962 2.74033C44.1952 2.84834 44.2708 2.97933 44.3174 3.12364C44.364 3.26795 44.3805 3.42189 44.3655 3.57408C44.3655 9.24063 44.3655 14.9055 44.3655 20.5688C44.3655 21.5514 44.3655 22.5636 44.3655 23.5609C44.3821 23.7064 44.3687 23.8541 44.3264 23.9932C44.2842 24.1322 44.214 24.2592 44.1211 24.3647C44.0283 24.4702 43.915 24.5517 43.7897 24.603C43.6644 24.6544 43.5302 24.6743 43.3969 24.6615C42.5001 24.6615 41.6033 24.6615 40.7065 24.6615C40.2664 24.6694 39.84 24.4938 39.5137 24.1702C37.8994 22.7503 36.2762 21.35 34.653 19.9448C34.6243 19.9245 34.5943 19.9064 34.5633 19.8908ZM17.2906 2.04117H9.8291C7.67226 2.04117 5.5199 2.04117 3.36754 2.04117C3.16806 2.03239 2.96904 2.06848 2.78277 2.14721C2.59651 2.22594 2.42693 2.34564 2.2845 2.49894C2.14208 2.65223 2.02982 2.83587 1.95465 3.03852C1.87948 3.24118 1.84299 3.45856 1.84744 3.67726C1.84744 4.47811 1.84744 5.27896 1.84744 6.07981V18.9376C1.84744 20.3477 1.84744 21.7578 1.84744 23.1679C1.83527 23.4082 1.86928 23.6487 1.94727 23.8737C2.02526 24.0987 2.14549 24.3032 2.30018 24.4741C2.45488 24.645 2.64059 24.7784 2.84531 24.8657C3.05003 24.953 3.26919 24.9922 3.48861 24.9809C7.31802 24.9514 11.1519 24.9809 14.9858 24.9809H31.1509C31.3559 24.9933 31.5611 24.9588 31.7532 24.8794C31.9454 24.8 32.1203 24.6775 32.2667 24.5198C32.4132 24.3621 32.528 24.1726 32.6038 23.9635C32.6796 23.7544 32.7147 23.5303 32.7069 23.3055V3.70182C32.7132 3.48104 32.678 3.2612 32.6034 3.05596C32.5289 2.85071 32.4167 2.66444 32.2737 2.50871C32.1308 2.35298 31.9601 2.23111 31.7723 2.15068C31.5846 2.07026 31.3837 2.03298 31.1823 2.04117C30.4424 2.04117 29.707 2.04117 28.9672 2.04117H17.2906ZM42.5046 22.6225V4.47811C41.9306 4.47811 41.3791 4.47811 40.8231 4.47811C40.754 4.4861 40.6894 4.51893 40.6392 4.57146C39.7843 5.30189 38.9293 6.03559 38.0743 6.77257C36.9668 7.75521 35.8682 8.70345 34.7606 9.66152C34.6898 9.71635 34.6335 9.79063 34.5973 9.87688C34.5611 9.96313 34.5463 10.0583 34.5543 10.1528C34.5543 12.4457 34.5543 14.7385 34.5543 17.0313C34.5493 17.1067 34.5624 17.1822 34.5923 17.2503C34.6222 17.3184 34.6678 17.3767 34.7247 17.4195L40.6437 22.5341C40.6907 22.5786 40.7482 22.6076 40.8096 22.6176C41.3701 22.6274 41.9127 22.6225 42.5046 22.6225Z" fill="#25AFB5"/>
</svg>
