<svg width="36" height="36" viewBox="0 0 36 36" fill="none" xmlns="http://www.w3.org/2000/svg">
<path d="M29.9922 23.0441C30.9938 21.4467 31.5991 19.5417 31.5991 17.884C31.5991 15.9761 30.7863 14.2585 29.4942 13.0456V0.718869C29.4942 0.321574 29.1722 0 28.7754 0H0.718869C0.322053 0 0 0.321574 0 0.718869V20.148C0 20.5453 0.322053 20.8669 0.718869 20.8669H9.82167C9.82454 20.8793 9.82502 20.8918 9.82886 20.9042L10.7648 24.061L7.73791 26.3959C7.49397 26.5838 7.39716 26.9058 7.49637 27.1972C7.59557 27.4886 7.86922 27.6841 8.1769 27.6841H15.68C15.1471 28.8319 14.8605 30.0957 14.8605 31.4079V34.9984C14.8605 35.3957 15.1825 35.7172 15.5793 35.7172C15.9761 35.7172 16.2982 35.3957 16.2982 34.9984V31.4079C16.2982 29.3126 17.1695 27.3664 18.6963 25.9665C18.7893 25.9478 18.8809 25.9167 18.9638 25.8592C19.0908 25.771 19.1789 25.6488 19.2278 25.5136C20.5218 24.5307 22.065 24.0093 23.6963 24.0093H27.1641C31.2435 24.0093 34.5623 27.328 34.5623 31.4079V34.9984C34.5623 35.3957 34.8843 35.7172 35.2811 35.7172C35.6779 35.7172 36 35.3957 36 34.9984V31.4079C36 27.525 33.4796 24.2268 29.9922 23.0441ZM1.43774 1.43774H28.0565V12.0128C27.1296 11.5211 26.0748 11.2398 24.9543 11.2398C22.6564 11.2398 20.6277 12.413 19.4339 14.1919V4.10858C19.4339 3.71128 19.1119 3.38971 18.715 3.38971H4.22743C3.83061 3.38971 3.50856 3.71128 3.50856 4.10858V17.1752C3.50856 17.5725 3.83061 17.8941 4.22743 17.8941H18.3106C18.311 18.3858 18.3661 18.9029 18.4706 19.4291H1.43774V1.43774ZM18.7122 24.1181L19.3424 21.9921C19.5667 22.4584 19.8197 22.9104 20.1034 23.3331C19.6199 23.5487 19.1559 23.8133 18.7122 24.1181ZM14.398 15.2923C14.0012 15.2923 13.6791 15.6138 13.6791 16.0111V16.4564H7.15323V16.0111C7.15323 15.6138 6.83117 15.2923 6.43436 15.2923C6.03754 15.2923 5.71549 15.6138 5.71549 16.0111V16.4564H4.94678V16.3126C4.94774 16.2987 4.95109 16.2853 4.95109 16.2709C4.95109 14.433 6.39937 12.931 8.21476 12.8366C8.80087 13.4927 9.55089 13.9465 10.4231 13.9465C11.2934 13.9465 12.0415 13.4946 12.6277 12.8414C14.3985 12.9818 15.7964 14.4646 15.7964 16.2709V16.4564H15.1173V16.0111C15.1169 15.6138 14.7948 15.2923 14.398 15.2923ZM10.4226 12.5088C9.36686 12.5088 8.29431 10.714 8.29431 9.42389C8.29431 8.25022 9.24897 7.29556 10.4226 7.29556C11.5963 7.29556 12.5515 8.25022 12.5515 9.42389C12.5515 10.714 11.4789 12.5088 10.4226 12.5088ZM13.4798 11.5263C13.8071 10.818 13.9892 10.0632 13.9892 9.42389C13.9892 7.45755 12.389 5.85782 10.4226 5.85782C8.4563 5.85782 6.85657 7.45755 6.85657 9.42389C6.85657 10.056 7.03533 10.8012 7.35595 11.5033C6.42765 11.7056 5.59616 12.17 4.94678 12.8189V4.82745H17.9966V16.4564H17.2337V16.2709C17.2337 13.9676 15.6287 12.0372 13.4798 11.5263ZM16.5182 26.2478C16.5124 26.2478 16.5071 26.2464 16.5014 26.2464H10.2856L12.0329 24.8987C12.2682 24.7171 12.3674 24.4099 12.2831 24.1252L11.3174 20.8673H18.1764L17.2107 24.1252C17.1489 24.3347 17.1853 24.5609 17.3099 24.7401L17.539 25.0698C17.1618 25.4345 16.8206 25.829 16.5182 26.2478ZM23.6963 22.5715C22.9525 22.5715 22.2236 22.6626 21.5205 22.8394C20.4403 21.3825 19.7478 19.4708 19.7478 17.8835C19.7478 15.0124 22.0837 12.677 24.9543 12.677C27.825 12.677 30.1609 15.0129 30.1609 17.8835C30.1609 19.4013 29.5129 21.2493 28.5008 22.6832C28.0637 22.6166 27.6194 22.5711 27.1641 22.5711H23.6963V22.5715Z" fill="#25AFB5"/>
<path d="M21.3092 5.44006H26.0418C26.4386 5.44006 26.7606 5.11848 26.7606 4.72119C26.7606 4.32389 26.4386 4.00232 26.0418 4.00232H21.3092C20.9124 4.00232 20.5903 4.32389 20.5903 4.72119C20.5903 5.11848 20.9124 5.44006 21.3092 5.44006Z" fill="#25AFB5"/>
<path d="M21.3092 7.65649H26.0418C26.4386 7.65649 26.7606 7.33491 26.7606 6.93762C26.7606 6.54032 26.4386 6.21875 26.0418 6.21875H21.3092C20.9124 6.21875 20.5903 6.54032 20.5903 6.93762C20.5903 7.33491 20.9124 7.65649 21.3092 7.65649Z" fill="#25AFB5"/>
</svg>
