<svg width="25" height="25" viewBox="0 0 25 25" fill="none" xmlns="http://www.w3.org/2000/svg">
    <path d="M14.3657 9.1472H10.6345C9.99859 9.1472 9.44727 9.65591 9.44727 10.2921V14.0657C9.44727 14.7016 9.95598 15.2106 10.6345 15.2106H14.3657C15.0016 15.2106 15.5529 14.7018 15.5529 14.0657V10.2921C15.5529 9.6559 15.0017 9.1472 14.3657 9.1472Z"
          fill="white"/>
    <path d="M14.3657 0.031189H10.6345C9.99859 0.031189 9.44727 0.539898 9.44727 1.17606V4.94967C9.44727 5.58554 9.95598 6.09454 10.6345 6.09454H14.3657C15.0016 6.09454 15.5529 5.58583 15.5529 4.94967V1.17576C15.5529 0.539883 15.0017 0.031189 14.3657 0.031189Z"
          fill="white"/>
    <path d="M23.4817 9.1472H19.7504C19.1146 9.1472 18.5632 9.65591 18.5632 10.2921V14.0657C18.5632 14.7016 19.0719 15.2106 19.7504 15.2106H23.4817C24.1176 15.2106 24.6689 14.7018 24.6689 14.0657V10.2921C24.6689 9.6559 24.1602 9.1472 23.4817 9.1472Z"
          fill="white"/>
    <path d="M14.3657 18.3056H10.6345C9.99859 18.3056 9.44727 18.8143 9.44727 19.4505V23.2241C9.44727 23.86 9.95598 24.369 10.6345 24.369H14.3657C15.0016 24.369 15.5529 23.8602 15.5529 23.2241V19.4505C15.5529 18.8143 15.0017 18.3056 14.3657 18.3056Z"
          fill="white"/>
    <path d="M23.4817 0.031189H19.7504C19.1146 0.031189 18.5632 0.539898 18.5632 1.17606V4.94967C18.5632 5.58554 19.0719 6.09454 19.7504 6.09454H23.4817C24.1176 6.09454 24.6689 5.58583 24.6689 4.94967V1.17576C24.6689 0.539883 24.1602 0.031189 23.4817 0.031189Z"
          fill="white"/>
    <path d="M23.4817 18.3056H19.7504C19.1146 18.3056 18.5632 18.8143 18.5632 19.4505V23.2241C18.5632 23.86 19.0719 24.369 19.7504 24.369H23.4817C24.1176 24.369 24.6689 23.8602 24.6689 23.2241V19.4505C24.6689 18.8143 24.1602 18.3056 23.4817 18.3056Z"
          fill="white"/>
    <path d="M5.24977 9.1472H1.5185C0.882619 9.1472 0.331299 9.65591 0.331299 10.2921V14.0657C0.331299 14.7016 0.840007 15.2106 1.5185 15.2106H5.24977C5.88565 15.2106 6.43698 14.7018 6.43698 14.0657V10.2921C6.39468 9.6559 5.88598 9.1472 5.24977 9.1472Z"
          fill="white"/>
    <path d="M5.24977 0.0311928H1.5185C0.882619 0.0311928 0.331299 0.539902 0.331299 1.17607V4.94967C0.331299 5.58555 0.840007 6.09454 1.5185 6.09454H5.24977C5.88565 6.09454 6.43698 5.58584 6.43698 4.94967L6.43727 1.17577C6.39468 0.539887 5.88598 0.0311928 5.24977 0.0311928H5.24977Z"
          fill="white"/>
    <path d="M5.24977 18.3056H1.5185C0.882619 18.3056 0.331299 18.8143 0.331299 19.4505L0.331595 23.2241C0.331595 23.86 0.840303 24.369 1.51879 24.369H5.25007C5.88595 24.369 6.43727 23.8602 6.43727 23.2241V19.4505C6.39468 18.8143 5.88598 18.3056 5.24977 18.3056H5.24977Z"
          fill="white"/>
</svg>
