<svg width="17" height="17" viewBox="0 0 17 17" fill="none" xmlns="http://www.w3.org/2000/svg">
<path d="M8.5 16.4963C13.1944 16.4963 17 12.8035 17 8.24815C17 3.69282 13.1944 0 8.5 0C3.80558 0 0 3.69282 0 8.24815C0 12.8035 3.80558 16.4963 8.5 16.4963Z" fill="white"/>
<path d="M8.531 0.824034C9.53375 0.825788 10.5263 1.01924 11.452 1.39333C12.3777 1.76742 13.2184 2.31482 13.926 3.00426C14.6336 3.6937 15.1943 4.51167 15.576 5.41145C15.9578 6.31122 16.1531 7.27516 16.1508 8.2482C16.1447 9.70932 15.6926 11.1359 14.8516 12.3479C14.0106 13.5599 12.8184 14.5029 11.4256 15.058C10.0327 15.613 8.50158 15.7551 7.02552 15.4664C5.54947 15.1777 4.19464 14.4712 3.13208 13.4359C2.06953 12.4006 1.34688 11.0831 1.05537 9.6496C0.763863 8.21612 0.916561 6.73096 1.49419 5.38162C2.07182 4.03228 3.04848 2.87925 4.30088 2.0681C5.55327 1.25695 7.02525 0.824046 8.531 0.824034ZM8.531 5.489e-05C6.84855 -0.00589991 5.20213 0.472779 3.80024 1.37547C2.39835 2.27816 1.30406 3.56425 0.65596 5.07087C0.00785953 6.57749 -0.164898 8.23685 0.159566 9.83881C0.484031 11.4408 1.29112 12.9133 2.47862 14.0698C3.66612 15.2263 5.18061 16.0149 6.83029 16.3356C8.47997 16.6563 10.1906 16.4947 11.7456 15.8713C13.3006 15.2479 14.6299 14.1908 15.5653 12.8337C16.5007 11.4767 17 9.88081 17 8.2482C17.0022 7.16695 16.785 6.09586 16.3605 5.09612C15.9361 4.09638 15.3129 3.18757 14.5264 2.42162C13.7399 1.65566 12.8057 1.04757 11.777 0.632069C10.7483 0.21657 9.64526 0.001809 8.531 5.489e-05Z" fill="#25AEB4"/>
<path d="M13 10.0631C13 8.74324 12.3462 7.66066 9.05338 7.06006C7.50906 6.78228 7.25338 6.57808 7.25338 6.21622C7.25338 5.95045 7.44385 5.61562 8.34128 5.61562C9.55786 5.61562 9.71401 6.11562 9.82898 6.41892H12.7117C12.6414 5.35586 11.6822 4.21471 9.61277 3.9009V3H7.33746V3.88739C5.12908 4.18769 4.23508 5.41141 4.23508 6.72673C4.23508 7.95345 4.99523 9.05105 7.87112 9.57958C9.6265 9.91141 9.89762 10.1096 9.89762 10.4985C9.89762 10.8243 9.60763 11.1246 8.7531 11.1246C7.56568 11.1246 7.14357 10.7102 6.9428 10.2087H4C4.13213 11.4099 5.25091 12.6111 7.41983 12.9114V14H9.69342V12.9219C11.9842 12.6261 13 11.452 13 10.0631Z" fill="#25AEB4"/>
</svg>
