<svg width="17" height="17" viewBox="0 0 17 17" fill="none" xmlns="http://www.w3.org/2000/svg">
<path d="M8.5 17C13.1944 17 17 13.1944 17 8.5C17 3.80558 13.1944 0 8.5 0C3.80558 0 0 3.80558 0 8.5C0 13.1944 3.80558 17 8.5 17Z" fill="#25AFB5"/>
<path d="M8.49997 16.1501C12.725 16.1501 16.15 12.7251 16.15 8.5001C16.15 4.27512 12.725 0.850098 8.49997 0.850098C4.275 0.850098 0.849976 4.27512 0.849976 8.5001C0.849976 12.7251 4.275 16.1501 8.49997 16.1501Z" fill="white"/>
<path d="M12.6496 8.01701C13.2724 8.01701 13.7789 7.36917 13.7789 6.75875C13.7789 6.14835 13.2723 5.65186 12.6496 5.65186C12.027 5.65186 11.5203 6.14849 11.5203 6.75875C11.5203 7.36917 12.027 8.01701 12.6496 8.01701Z" fill="#25AEB4"/>
<path d="M13.4975 8.02832C13.2784 8.19183 13.0052 8.28927 12.7089 8.28927H12.5902C12.2942 8.28927 12.0208 8.19183 11.8017 8.02832C11.5156 8.07359 11.2575 8.19899 11.0496 8.37886C11.0676 8.39805 11.0855 8.41724 11.1031 8.43711C11.4658 8.85089 11.6655 9.37942 11.6655 9.9255C11.6655 9.99402 11.6554 10.0594 11.638 10.1224C11.9383 10.1793 12.283 10.2115 12.6498 10.2115C13.8146 10.2115 14.7591 9.8851 14.7591 9.48252C14.7591 8.74941 14.2128 8.1417 13.4975 8.02832Z" fill="#25AEB4"/>
<path d="M4.45938 8.01701C5.08218 8.01701 5.58874 7.36917 5.58874 6.75875C5.58874 6.14835 5.08218 5.65186 4.45938 5.65186C3.83672 5.65186 3.33002 6.14849 3.33002 6.75875C3.33015 7.36917 3.83672 8.01701 4.45938 8.01701Z" fill="#25AEB4"/>
<path d="M6.00597 8.4371C6.02334 8.41738 6.04127 8.39805 6.05933 8.37886C5.85154 8.19899 5.5933 8.07359 5.3072 8.02832C5.08811 8.19183 4.81483 8.28927 4.51881 8.28927H4.39996C4.10393 8.28927 3.83052 8.19183 3.61157 8.02832C2.89611 8.1417 2.34998 8.74941 2.34998 9.48252C2.34998 9.8851 3.29445 10.2117 4.45938 10.2117C4.826 10.2117 5.1707 10.1794 5.47114 10.1225C5.45376 10.0595 5.44356 9.99415 5.44356 9.92564C5.44356 9.37941 5.64335 8.85089 6.00597 8.4371Z" fill="#25AEB4"/>
<path d="M9.64459 8.05566C9.3629 8.26607 9.01131 8.39107 8.6309 8.39107H8.47799C8.09731 8.39107 7.74586 8.26593 7.46431 8.05566C6.54452 8.20134 5.84216 8.98256 5.84216 9.92514C5.84216 10.4429 7.05646 10.8628 8.55438 10.8628C10.0523 10.8628 11.2665 10.443 11.2665 9.92514C11.2666 8.98256 10.5642 8.20134 9.64459 8.05566Z" fill="#25AEB4"/>
<path d="M8.04673 7.92639C8.20488 7.9995 8.37599 8.04112 8.55454 8.04112C8.73323 8.04112 8.90462 7.99936 9.0629 7.92612C9.61359 7.67139 10.0067 7.033 10.0067 6.4234C10.0067 5.63866 9.35534 5 8.55454 5C7.75388 5 7.10254 5.63866 7.10254 6.4234C7.10254 7.03327 7.49577 7.67193 8.04673 7.92639Z" fill="#25AEB4"/>
</svg>
