<svg width="15" height="22" viewBox="0 0 15 22" fill="none" xmlns="http://www.w3.org/2000/svg">
<path d="M11.4594 12.4927H3.92261V14.6263H11.4594V12.4927Z" fill="#25AEB4"/>
<path d="M11.4593 15.5576H7.69336V17.2018H11.4593V15.5576Z" fill="#25AEB4"/>
<path d="M7.68853 6.83779C6.4567 6.82491 5.24399 7.13348 4.17758 7.73114C3.81969 7.93681 3.54171 8.25102 3.38663 8.62518C3.23155 8.99934 3.20801 9.4126 3.31966 9.80102C3.43131 10.1894 3.67193 10.5314 4.00428 10.774C4.33664 11.0166 4.74223 11.1463 5.1583 11.143H10.2286C10.6446 11.1463 11.0502 11.0166 11.3826 10.774C11.7149 10.5314 11.9556 10.1894 12.0672 9.80102C12.1789 9.4126 12.1553 8.99934 12.0002 8.62518C11.8452 8.25102 11.5672 7.93681 11.2093 7.73114C10.1409 7.13396 8.92675 6.82546 7.69344 6.83779H7.68853Z" fill="#25AEB4"/>
<path d="M7.55125 7.79315C8.79159 7.79315 9.79708 6.81876 9.79708 5.61679C9.79708 4.41482 8.79159 3.44043 7.55125 3.44043C6.31091 3.44043 5.30542 4.41482 5.30542 5.61679C5.30542 6.81876 6.31091 7.79315 7.55125 7.79315Z" fill="#25AEB4" stroke="white" stroke-width="0.56" stroke-miterlimit="10"/>
<rect x="0.5" y="0.5" width="14" height="21" stroke="#25AEB4"/>
</svg>
