<svg width="53" height="40" viewBox="0 0 53 40" fill="none" xmlns="http://www.w3.org/2000/svg">
<g clip-path="url(#clip0)">
<path d="M14.8003 7.76663H41.6215C42.8394 7.76377 44.0465 8.00178 45.1721 8.46638C46.2977 8.93155 47.3206 9.61414 48.1817 10.4757C49.0428 11.3371 49.7249 12.3598 50.189 13.4858C50.6538 14.6117 50.8913 15.8179 50.8878 17.0356V38.2862H24.0666" fill="white"/>
<path d="M51.758 39.1263H24.051V37.3912H50.0174V17.0361C50.0197 15.9337 49.8052 14.8421 49.3852 13.8229C48.9653 12.8036 48.3485 11.8772 47.5701 11.0966C46.7916 10.316 45.8668 9.69655 44.8491 9.27383C43.8308 8.85053 42.739 8.63255 41.6369 8.63198H14.8152V6.91699H41.6369C44.3213 6.91699 46.8954 7.98269 48.7938 9.88066C50.6915 11.7786 51.758 14.3523 51.758 17.0361V39.1263Z" fill="#25AFB5"/>
<path d="M37.4918 33.1456C35.7604 33.1451 34.0686 32.6305 32.6292 31.6681C31.1904 30.7056 30.0688 29.3382 29.4068 27.7391C28.7453 26.1394 28.5727 24.3796 28.911 22.6818C29.249 20.9847 30.0837 19.4251 31.308 18.2017C32.5328 16.9776 34.0927 16.1448 35.7908 15.8076C37.489 15.4702 39.2491 15.6434 40.8485 16.3066C42.448 16.969 43.815 18.091 44.7765 19.5301C45.7386 20.9697 46.2521 22.6618 46.2521 24.3929C46.2492 26.7142 45.325 28.9396 43.6831 30.5812C42.0406 32.2222 39.8141 33.1444 37.4918 33.1456ZM37.4918 17.3803C36.1035 17.3791 34.7455 17.7898 33.5901 18.5607C32.4353 19.3316 31.5351 20.4271 31.0028 21.7097C30.471 22.9922 30.3316 24.4037 30.6024 25.7653C30.8732 27.1277 31.5415 28.378 32.5237 29.36C33.5058 30.3419 34.7565 31.0102 36.119 31.2809C37.4809 31.5516 38.8927 31.4123 40.1755 30.8806C41.4584 30.3483 42.5541 29.4483 43.3251 28.2932C44.0961 27.1385 44.5069 25.7809 44.5058 24.3929C44.5035 22.5339 43.7633 20.7518 42.4485 19.4371C41.1336 18.1225 39.3511 17.3826 37.4918 17.3803Z" fill="#25AFB5"/>
<path d="M36.3129 26.2238V29.8868H34.3899V21.2859C34.3899 20.6733 34.3899 20.0613 34.3899 19.4642H36.2618C36.3031 19.7997 36.3249 20.1376 36.3278 20.476C36.5866 20.078 36.9479 19.7573 37.3736 19.5468C37.7993 19.3368 38.2737 19.2451 38.747 19.2818C40.5588 19.2818 41.9299 20.714 41.9299 23.0313C41.9299 25.6978 40.3815 27.1599 38.4482 27.1599C37.2492 27.1548 36.6364 26.7149 36.3129 26.2238ZM39.9461 23.107C39.9461 21.6546 39.2932 20.7697 38.1343 20.7697C36.7477 20.7697 36.2314 21.6042 36.2314 23.2286C36.2314 24.8524 36.6824 25.6979 38.0385 25.6979C39.3087 25.6876 39.9461 24.7366 39.9461 23.107Z" fill="#25AFB5"/>
<path d="M36.637 1.89209H29.8605H26.637V16.6153C26.637 17.0438 26.8067 17.4544 27.1096 17.7567C27.4126 18.0596 27.8234 18.2293 28.2513 18.2293C28.463 18.2293 28.6724 18.188 28.8681 18.1065C29.0636 18.0257 29.2415 17.9064 29.3913 17.7567C29.5404 17.6064 29.6591 17.4286 29.7395 17.2331C29.8198 17.0369 29.8611 16.8275 29.8605 16.6153V7.71045H36.637V1.89209Z" fill="white"/>
<path d="M28.2513 19.0846C27.5938 19.0834 26.9639 18.8219 26.4993 18.3573C26.0346 17.8926 25.7724 17.2629 25.7712 16.6055V1.02197H37.5021V8.58119H30.7308V16.6055C30.7296 17.2629 30.4675 17.8926 30.0028 18.3573C29.5381 18.8219 28.9082 19.0834 28.2513 19.0846ZM27.5273 2.75247V16.6055C27.5273 16.8028 27.6059 16.9921 27.7454 17.1315C27.8848 17.2709 28.074 17.3495 28.2714 17.3495C28.4688 17.3495 28.6581 17.2709 28.7975 17.1315C28.9369 16.9921 29.0149 16.8028 29.0149 16.6055V6.84039H35.761V2.76225L27.5273 2.75247Z" fill="#25AFB5"/>
<path d="M14.8004 7.76661C13.3581 7.76603 11.9365 8.1027 10.6481 8.75028C9.36012 9.39785 8.24085 10.338 7.38146 11.4954C6.18359 13.0935 5.54049 15.0385 5.54966 17.0356V38.2862H24.0512V17.0356C24.0547 15.8191 23.8177 14.614 23.3542 13.4891C22.8906 12.3644 22.2096 11.3422 21.3503 10.4808C20.4909 9.61984 19.4697 8.93669 18.3458 8.47095C17.222 8.0052 16.0173 7.76546 14.8004 7.76661Z" fill="white"/>
<path d="M14.8001 6.91609C13.1139 6.90977 11.4532 7.32793 9.9713 8.13151C8.48889 8.93567 7.2325 10.0989 6.31861 11.5156H8.48946C9.61275 10.2371 11.0992 9.33088 12.7508 8.91791C14.4019 8.50493 16.1396 8.60412 17.7333 9.20294C19.3265 9.80175 20.7 10.8715 21.6701 12.2699C22.6407 13.6683 23.1622 15.3288 23.165 17.0306V37.3903H6.41959V36.4491H4.68359V39.126H24.9263V17.0357C24.9263 15.7062 24.6641 14.3898 24.1552 13.1618C23.6464 11.9337 22.9006 10.8182 21.9603 9.87804C21.0195 8.93853 19.9031 8.19345 18.6748 7.68526C17.4459 7.17706 16.1293 6.91551 14.8001 6.91609Z" fill="#25AFB5"/>
<path d="M15.9188 35.0229V13.2212H2.1084V35.0229H15.9188Z" fill="white"/>
<path d="M1.27319 35.8529V12.3809H16.7537V35.8529H1.27319ZM2.94321 14.0506V34.1883H15.0889V14.0506H2.94321Z" fill="#25AFB5"/>
<path d="M12.9026 26.5225H5.12451V28.7944H12.9026V26.5225Z" fill="#25AFB5"/>
<path d="M12.9023 29.7856H9.01611V31.5362H12.9023V29.7856Z" fill="#25AFB5"/>
<path d="M6.39464 24.5186C5.96725 24.518 5.55189 24.3774 5.21169 24.1194C4.8715 23.8607 4.62538 23.4976 4.51064 23.0857C4.3959 22.6745 4.41886 22.2362 4.57662 21.8393C4.73381 21.4419 5.01664 21.1074 5.38265 20.886C6.48299 20.2494 7.73478 19.9207 9.00608 19.9345C10.2785 19.9214 11.5314 20.2499 12.6341 20.886C12.9996 21.1074 13.283 21.4419 13.4401 21.8393C13.5979 22.2362 13.6208 22.6745 13.5062 23.0857C13.3914 23.4976 13.1452 23.8607 12.8051 24.1194C12.4649 24.3774 12.0495 24.518 11.6221 24.5186H6.39464Z" fill="white"/>
<path d="M8.89128 21.2493C10.3335 21.2333 11.4896 20.0511 11.4735 18.6091C11.4574 17.1678 10.275 16.0119 8.83276 16.028C7.39107 16.0441 6.23508 17.2257 6.25114 18.6676C6.26721 20.1096 7.44902 21.2654 8.89128 21.2493Z" fill="white"/>
<path d="M8.86424 16.4585C9.29509 16.4573 9.71617 16.584 10.0747 16.8226C10.4333 17.0613 10.7127 17.4008 10.8785 17.7983C11.0437 18.1958 11.0873 18.6334 11.0041 19.0556C10.9209 19.4777 10.7138 19.8661 10.4098 20.1707C10.1057 20.4758 9.7179 20.6834 9.29565 20.7677C8.87342 20.852 8.43569 20.809 8.03755 20.645C7.63998 20.4804 7.29978 20.2016 7.06056 19.8436C6.82075 19.4857 6.6934 19.0648 6.6934 18.6341C6.69453 18.0587 6.92345 17.5063 7.33018 17.0992C7.73693 16.6913 8.28825 16.4613 8.86424 16.4585ZM8.86424 16.0186C8.34677 16.0186 7.84078 16.1716 7.41051 16.459C6.98024 16.7464 6.6452 17.1553 6.44728 17.6331C6.24878 18.1109 6.19715 18.6369 6.29811 19.1445C6.39909 19.6521 6.64807 20.1179 7.01409 20.4838C7.3801 20.8497 7.84652 21.0987 8.35365 21.1996C8.86138 21.3006 9.38744 21.249 9.86532 21.0511C10.3438 20.8532 10.7523 20.5176 11.0397 20.0875C11.3271 19.6573 11.4803 19.1514 11.4803 18.6341C11.4803 18.291 11.4125 17.9509 11.2812 17.6337C11.1498 17.3171 10.9571 17.0286 10.7138 16.7865C10.4712 16.5439 10.1826 16.3517 9.86532 16.221C9.54751 16.0896 9.20731 16.0225 8.86424 16.0237V16.0186Z" stroke="white" stroke-width="0.56" stroke-miterlimit="10"/>
<path d="M9.0107 20.5009C7.73941 20.4877 6.48761 20.8159 5.38727 21.4525C5.01782 21.6716 4.73097 22.006 4.57092 22.404C4.41086 22.8027 4.38618 23.2426 4.5015 23.6562C4.61681 24.0697 4.86522 24.434 5.20829 24.692C5.55136 24.9507 5.96957 25.0884 6.39927 25.085H11.6319C12.0611 25.0884 12.4798 24.9507 12.8229 24.692C13.166 24.434 13.4143 24.0697 13.5296 23.6562C13.6444 23.2426 13.6203 22.8027 13.4602 22.404C13.3002 22.006 13.0133 21.6716 12.6439 21.4525C11.5412 20.8164 10.2883 20.4882 9.0153 20.5009H9.0107Z" fill="#25AFB5"/>
<path d="M8.86923 21.5183C10.1491 21.5183 11.187 20.4807 11.187 19.201C11.187 17.9213 10.1491 16.8838 8.86923 16.8838C7.58875 16.8838 6.55151 17.9213 6.55151 19.201C6.55151 20.4807 7.58875 21.5183 8.86923 21.5183Z" fill="#25AFB5" stroke="white" stroke-width="0.56" stroke-miterlimit="10"/>
</g>
<defs>
<clipPath id="clip0">
<rect width="51.1292" height="39.6512" fill="white" transform="translate(0.928223)"/>
</clipPath>
</defs>
</svg>
