<svg width="17" height="18" viewBox="0 0 17 18" fill="none" xmlns="http://www.w3.org/2000/svg">
<path d="M9.2396 17.0543H7.05129C4.47044 17.0543 0.264404 15.2426 0.264404 12.5223V0.412598H15.9715V12.5223C15.9715 15.2426 11.8223 17.0543 9.2396 17.0543Z" fill="white"/>
<path d="M9.40259 17.4667H7.21428C4.34177 17.4667 0 15.4896 0 12.5222V0H16.56V12.5222C16.56 15.4896 12.2512 17.4667 9.40259 17.4667ZM0.852947 0.826751V12.5222C0.852947 14.8726 4.70496 16.6399 7.21428 16.6399H9.40259C11.8826 16.6399 15.7071 14.8726 15.7071 12.5222V0.826751H0.852947Z" fill="#25AEB4"/>
<path d="M14.8429 2.40897C14.7865 2.40897 14.7324 2.38724 14.6924 2.34856C14.6525 2.30988 14.6301 2.25742 14.6301 2.20272V1.65156C14.6301 1.59686 14.6525 1.5444 14.6924 1.50572C14.7324 1.46704 14.7865 1.44531 14.8429 1.44531C14.8993 1.44531 14.9535 1.46704 14.9934 1.50572C15.0333 1.5444 15.0557 1.59686 15.0557 1.65156V2.20272C15.0557 2.25742 15.0333 2.30988 14.9934 2.34856C14.9535 2.38724 14.8993 2.40897 14.8429 2.40897Z" fill="#25AEB4"/>
<path d="M1.71693 2.40897C1.6605 2.40897 1.60638 2.38724 1.56647 2.34856C1.52657 2.30988 1.50415 2.25742 1.50415 2.20272V1.65156C1.50415 1.59686 1.52657 1.5444 1.56647 1.50572C1.60638 1.46704 1.6605 1.44531 1.71693 1.44531C1.77336 1.44531 1.82748 1.46704 1.86739 1.50572C1.90729 1.5444 1.92971 1.59686 1.92971 1.65156V2.20272C1.92971 2.25742 1.90729 2.30988 1.86739 2.34856C1.82748 2.38724 1.77336 2.40897 1.71693 2.40897Z" fill="#25AEB4"/>
<path d="M9.42464 16.0229H8.85051C8.82256 16.0229 8.79489 16.0176 8.76908 16.0072C8.74326 15.9968 8.71981 15.9816 8.70005 15.9625C8.68029 15.9433 8.66462 15.9206 8.65392 15.8956C8.64323 15.8706 8.63773 15.8437 8.63773 15.8166C8.63773 15.7896 8.64323 15.7627 8.65392 15.7377C8.66462 15.7127 8.68029 15.69 8.70005 15.6708C8.71981 15.6517 8.74326 15.6365 8.76908 15.6261C8.79489 15.6157 8.82256 15.6104 8.85051 15.6104H9.42464C9.60245 15.6098 9.78006 15.5991 9.95658 15.5784C9.98441 15.5753 10.0126 15.5774 10.0395 15.5848C10.0665 15.5923 10.0917 15.6047 10.1136 15.6216C10.1356 15.6384 10.154 15.6593 10.1676 15.683C10.1813 15.7067 10.19 15.7328 10.1932 15.7598C10.1965 15.7867 10.1942 15.814 10.1866 15.8402C10.1789 15.8663 10.166 15.8907 10.1487 15.912C10.1313 15.9333 10.1098 15.9511 10.0853 15.9643C10.0608 15.9775 10.0339 15.986 10.0061 15.9891C9.81312 16.0113 9.61897 16.0225 9.42464 16.0229ZM7.71875 16.0229H7.1923C6.98134 16.0224 6.77062 16.0093 6.56131 15.9838C6.53252 15.9818 6.50445 15.9742 6.47879 15.9614C6.45314 15.9486 6.43044 15.9309 6.41208 15.9093C6.39372 15.8877 6.38007 15.8627 6.37198 15.8359C6.36388 15.809 6.36151 15.7809 6.365 15.7531C6.36848 15.7254 6.37776 15.6986 6.39226 15.6744C6.40677 15.6502 6.42619 15.6291 6.44936 15.6125C6.47253 15.5958 6.49895 15.5839 6.52702 15.5774C6.5551 15.5709 6.58424 15.5701 6.61267 15.5748C6.80501 15.5975 6.99855 15.6094 7.1923 15.6104H7.71875C7.74669 15.6104 7.77436 15.6157 7.80017 15.6261C7.82599 15.6365 7.84944 15.6517 7.8692 15.6708C7.88896 15.69 7.90463 15.7127 7.91533 15.7377C7.92602 15.7627 7.93152 15.7896 7.93152 15.8166C7.93152 15.8437 7.92602 15.8706 7.91533 15.8956C7.90463 15.9206 7.88896 15.9433 7.8692 15.9625C7.84944 15.9816 7.82599 15.9968 7.80017 16.0072C7.77436 16.0176 7.74669 16.0229 7.71875 16.0229ZM11.0902 15.774C11.0437 15.7738 10.9985 15.7589 10.9614 15.7317C10.9244 15.7044 10.8975 15.6662 10.8847 15.6229C10.8695 15.5703 10.8764 15.514 10.9039 15.4663C10.9314 15.4187 10.9773 15.3835 11.0315 15.3686C11.3861 15.2713 11.7341 15.1526 12.0734 15.013C12.1252 14.9917 12.1836 14.9911 12.2359 15.0114C12.2881 15.0317 12.33 15.0713 12.3522 15.1215C12.3743 15.172 12.3749 15.2289 12.354 15.2798C12.333 15.3307 12.2922 15.3716 12.2403 15.3935C11.8822 15.5411 11.5146 15.6659 11.1397 15.7669C11.1235 15.771 11.1069 15.7734 11.0902 15.774ZM5.47907 15.774C5.45961 15.7767 5.43984 15.7767 5.42038 15.774C5.04531 15.6735 4.67762 15.5488 4.3198 15.4006C4.29401 15.3901 4.27061 15.3748 4.25094 15.3555C4.23126 15.3363 4.2157 15.3134 4.20514 15.2883C4.19458 15.2632 4.18922 15.2364 4.18938 15.2093C4.18954 15.1822 4.19521 15.1553 4.20607 15.1304C4.22869 15.0801 4.27074 15.0404 4.3232 15.0198C4.37566 14.9991 4.43436 14.9993 4.48672 15.0201C4.82577 15.1602 5.17378 15.279 5.5286 15.3757C5.57854 15.3888 5.62187 15.419 5.65048 15.4608C5.67909 15.5025 5.69103 15.553 5.68406 15.6026C5.67709 15.6523 5.6517 15.6978 5.61262 15.7307C5.57354 15.7635 5.52346 15.7814 5.47174 15.7811L5.47907 15.774ZM13.1648 14.9152C13.1281 14.9158 13.0918 14.9071 13.0597 14.8899C13.0275 14.8728 13.0005 14.8478 12.9813 14.8174C12.9522 14.7705 12.9433 14.7142 12.9567 14.6609C12.9701 14.6077 13.0047 14.5617 13.0529 14.533C13.3648 14.3488 13.6556 14.1331 13.9205 13.8893C13.9614 13.8514 14.0161 13.8307 14.0727 13.8319C14.1293 13.833 14.1831 13.856 14.2222 13.8956C14.2614 13.9352 14.2827 13.9882 14.2815 14.0431C14.2803 14.0979 14.2567 14.1501 14.2158 14.188C13.9285 14.4481 13.6137 14.6781 13.2767 14.8743C13.2433 14.8952 13.2045 14.9063 13.1648 14.9063V14.9152ZM3.40082 14.9152C3.36204 14.9146 3.32409 14.9042 3.29076 14.885C2.95372 14.6894 2.63839 14.4606 2.34977 14.2023C2.31022 14.1631 2.28807 14.1104 2.28807 14.0556C2.28807 14.0008 2.31022 13.9481 2.34977 13.9089C2.3899 13.8707 2.44392 13.8493 2.50018 13.8493C2.55644 13.8493 2.61046 13.8707 2.65059 13.9089C2.91485 14.1399 3.20316 14.3437 3.51088 14.517C3.55145 14.5401 3.58298 14.5756 3.60053 14.6179C3.61808 14.6602 3.62067 14.707 3.60788 14.7509C3.59509 14.7947 3.56765 14.8333 3.52985 14.8605C3.49205 14.8876 3.44603 14.9019 3.39898 14.901L3.40082 14.9152ZM14.7257 13.3791C14.6975 13.3768 14.67 13.369 14.645 13.356C14.5928 13.3354 14.551 13.2956 14.529 13.2453C14.507 13.1949 14.5065 13.1382 14.5276 13.0875C14.5937 12.9348 14.6286 12.7712 14.6304 12.6057V12.0776C14.6304 12.0229 14.6528 11.9704 14.6927 11.9318C14.7326 11.8931 14.7867 11.8714 14.8431 11.8714C14.8996 11.8714 14.9537 11.8931 14.9936 11.9318C15.0335 11.9704 15.0559 12.0229 15.0559 12.0776V12.5985C15.054 12.8171 15.0085 13.0332 14.922 13.2351C14.9063 13.2732 14.8793 13.3059 14.8443 13.329C14.8094 13.3521 14.7681 13.3646 14.7257 13.3648V13.3791ZM1.83617 13.356C1.7938 13.356 1.75237 13.3438 1.71712 13.321C1.68187 13.2982 1.65436 13.2659 1.63806 13.2279C1.55158 13.0261 1.50611 12.81 1.50416 12.5914V12.0758C1.50416 12.0211 1.52658 11.9687 1.56648 11.93C1.60638 11.8913 1.6605 11.8696 1.71694 11.8696C1.77337 11.8696 1.82749 11.8913 1.86739 11.93C1.9073 11.9687 1.92971 12.0211 1.92971 12.0758V12.5985C1.93163 12.7635 1.96652 12.9265 2.03243 13.0786C2.0444 13.1041 2.0509 13.1316 2.05153 13.1596C2.05216 13.1876 2.04691 13.2154 2.0361 13.2413C2.02529 13.2673 2.00914 13.2908 1.98865 13.3105C1.96815 13.3302 1.94373 13.3457 1.91687 13.356C1.89014 13.36 1.8629 13.36 1.83617 13.356ZM14.8431 11.1868C14.7867 11.1868 14.7326 11.1651 14.6927 11.1264C14.6528 11.0878 14.6304 11.0353 14.6304 10.9806V9.8836C14.6304 9.8289 14.6528 9.77644 14.6927 9.73776C14.7326 9.69909 14.7867 9.67736 14.8431 9.67736C14.8996 9.67736 14.9537 9.69909 14.9936 9.73776C15.0335 9.77644 15.0559 9.8289 15.0559 9.8836V10.9806C15.0559 11.0353 15.0335 11.0878 14.9936 11.1264C14.9537 11.1651 14.8996 11.1868 14.8431 11.1868ZM1.71694 11.1868C1.6605 11.1868 1.60638 11.1651 1.56648 11.1264C1.52658 11.0878 1.50416 11.0353 1.50416 10.9806V9.88182C1.50416 9.82712 1.52658 9.77466 1.56648 9.73599C1.60638 9.69731 1.6605 9.67558 1.71694 9.67558C1.77337 9.67558 1.82749 9.69731 1.86739 9.73599C1.9073 9.77466 1.92971 9.82712 1.92971 9.88182V10.9788C1.92971 11.0335 1.9073 11.086 1.86739 11.1247C1.82749 11.1633 1.77337 11.1851 1.71694 11.1851V11.1868ZM14.8431 8.99284C14.7867 8.99284 14.7326 8.97111 14.6927 8.93244C14.6528 8.89376 14.6304 8.8413 14.6304 8.7866V7.68782C14.6304 7.63312 14.6528 7.58066 14.6927 7.54199C14.7326 7.50331 14.7867 7.48158 14.8431 7.48158C14.8996 7.48158 14.9537 7.50331 14.9936 7.54199C15.0335 7.58066 15.0559 7.63312 15.0559 7.68782V8.7866C15.0559 8.8413 15.0335 8.89376 14.9936 8.93244C14.9537 8.97111 14.8996 8.99284 14.8431 8.99284ZM1.71694 8.99284C1.6605 8.99284 1.60638 8.97111 1.56648 8.93244C1.52658 8.89376 1.50416 8.8413 1.50416 8.7866V7.68782C1.50416 7.63312 1.52658 7.58066 1.56648 7.54199C1.60638 7.50331 1.6605 7.48158 1.71694 7.48158C1.77337 7.48158 1.82749 7.50331 1.86739 7.54199C1.9073 7.58066 1.92971 7.63312 1.92971 7.68782V8.78482C1.92971 8.83952 1.9073 8.89198 1.86739 8.93066C1.82749 8.96934 1.77337 8.99107 1.71694 8.99107V8.99284ZM14.8431 6.79706C14.7883 6.79711 14.7355 6.77661 14.6958 6.73983C14.6562 6.70306 14.6327 6.65285 14.6304 6.59971V5.49382C14.6304 5.43912 14.6528 5.38666 14.6927 5.34798C14.7326 5.30931 14.7867 5.28758 14.8431 5.28758C14.8996 5.28758 14.9537 5.30931 14.9936 5.34798C15.0335 5.38666 15.0559 5.43912 15.0559 5.49382V6.59971C15.0536 6.65285 15.0301 6.70306 14.9904 6.73983C14.9508 6.77661 14.898 6.79711 14.8431 6.79706ZM1.71694 6.79706C1.66206 6.79711 1.60928 6.77661 1.56963 6.73983C1.52998 6.70306 1.50652 6.65285 1.50416 6.59971V5.49382C1.50416 5.43912 1.52658 5.38666 1.56648 5.34798C1.60638 5.30931 1.6605 5.28758 1.71694 5.28758C1.77337 5.28758 1.82749 5.30931 1.86739 5.34798C1.9073 5.38666 1.92971 5.43912 1.92971 5.49382V6.59971C1.92735 6.65285 1.90389 6.70306 1.86424 6.73983C1.82459 6.77661 1.77181 6.79711 1.71694 6.79706ZM14.8431 4.60306C14.7867 4.60306 14.7326 4.58133 14.6927 4.54265C14.6528 4.50398 14.6304 4.45152 14.6304 4.39682V3.29982C14.6304 3.24512 14.6528 3.19266 14.6927 3.15398C14.7326 3.1153 14.7867 3.09357 14.8431 3.09357C14.8996 3.09357 14.9537 3.1153 14.9936 3.15398C15.0335 3.19266 15.0559 3.24512 15.0559 3.29982V4.39682C15.0559 4.45152 15.0335 4.50398 14.9936 4.54265C14.9537 4.58133 14.8996 4.60306 14.8431 4.60306ZM1.71694 4.60306C1.68884 4.60306 1.66102 4.59767 1.63508 4.58719C1.60915 4.57672 1.58561 4.56137 1.56583 4.54203C1.54604 4.52269 1.53041 4.49974 1.51983 4.47451C1.50924 4.44928 1.50392 4.42227 1.50416 4.39504V3.29804C1.50416 3.24334 1.52658 3.19088 1.56648 3.1522C1.60638 3.11353 1.6605 3.0918 1.71694 3.0918C1.77337 3.0918 1.82749 3.11353 1.86739 3.1522C1.9073 3.19088 1.92971 3.24334 1.92971 3.29804V4.39504C1.92996 4.42227 1.92463 4.44928 1.91405 4.47451C1.90346 4.49974 1.88783 4.52269 1.86805 4.54203C1.84826 4.56137 1.82472 4.57672 1.79879 4.58719C1.77285 4.59767 1.74503 4.60306 1.71694 4.60306Z" fill="#25AEB4"/>
<path d="M13.4674 2.37879H12.3301C12.2737 2.37879 12.2196 2.35707 12.1797 2.31839C12.1398 2.27971 12.1174 2.22725 12.1174 2.17255C12.1174 2.11785 12.1398 2.06539 12.1797 2.02672C12.2196 1.98804 12.2737 1.96631 12.3301 1.96631H13.4674C13.5238 1.96631 13.578 1.98804 13.6179 2.02672C13.6578 2.06539 13.6802 2.11785 13.6802 2.17255C13.6802 2.22725 13.6578 2.27971 13.6179 2.31839C13.578 2.35707 13.5238 2.37879 13.4674 2.37879ZM11.1947 2.37879H10.0593C10.0029 2.37879 9.94873 2.35707 9.90883 2.31839C9.86893 2.27971 9.84651 2.22725 9.84651 2.17255C9.84651 2.11785 9.86893 2.06539 9.90883 2.02672C9.94873 1.98804 10.0029 1.96631 10.0593 1.96631H11.1947C11.2511 1.96631 11.3053 1.98804 11.3452 2.02672C11.3851 2.06539 11.4075 2.11785 11.4075 2.17255C11.4075 2.22725 11.3851 2.27971 11.3452 2.31839C11.3053 2.35707 11.2511 2.37879 11.1947 2.37879ZM8.92386 2.37879H7.7866C7.73017 2.37879 7.67604 2.35707 7.63614 2.31839C7.59624 2.27971 7.57382 2.22725 7.57382 2.17255C7.57382 2.11785 7.59624 2.06539 7.63614 2.02672C7.67604 1.98804 7.73017 1.96631 7.7866 1.96631H8.92386C8.98029 1.96631 9.03441 1.98804 9.07432 2.02672C9.11422 2.06539 9.13664 2.11785 9.13664 2.17255C9.13664 2.22725 9.11422 2.27971 9.07432 2.31839C9.03441 2.35707 8.98029 2.37879 8.92386 2.37879ZM6.65117 2.37879H5.51574C5.45931 2.37879 5.40519 2.35707 5.36529 2.31839C5.32538 2.27971 5.30296 2.22725 5.30296 2.17255C5.30296 2.11785 5.32538 2.06539 5.36529 2.02672C5.40519 1.98804 5.45931 1.96631 5.51574 1.96631H6.65117C6.7076 1.96631 6.76172 1.98804 6.80163 2.02672C6.84153 2.06539 6.86395 2.11785 6.86395 2.17255C6.86395 2.22725 6.84153 2.27971 6.80163 2.31839C6.76172 2.35707 6.7076 2.37879 6.65117 2.37879ZM4.38031 2.37879H3.24305C3.18662 2.37879 3.1325 2.35707 3.0926 2.31839C3.05269 2.27971 3.03027 2.22725 3.03027 2.17255C3.03027 2.11785 3.05269 2.06539 3.0926 2.02672C3.1325 1.98804 3.18662 1.96631 3.24305 1.96631H4.38031C4.43675 1.96631 4.49087 1.98804 4.53077 2.02672C4.57067 2.06539 4.59309 2.11785 4.59309 2.17255C4.59309 2.22725 4.57067 2.27971 4.53077 2.31839C4.49087 2.35707 4.43675 2.37879 4.38031 2.37879Z" fill="#25AEB4"/>
<path d="M12.274 6.69439C12.0168 4.66657 9.89457 4.42116 8.29999 6.16244C6.60005 4.30611 4.29999 4.7077 4.29999 7.12003C4.29999 9.53236 8.29999 13 8.29999 13C8.29999 13 12.3 9.53236 12.3 7.12003C12.3 6.96171 12.2909 6.82086 12.274 6.69439Z" fill="#25AFB5"/>
</svg>
