<svg width="22" height="23" viewBox="0 0 22 23" fill="none" xmlns="http://www.w3.org/2000/svg">
<path d="M12.6011 1.59185L14.6973 2.13482L14.8239 3.6603C14.8532 3.91914 14.9365 4.16949 15.0685 4.39617C15.2006 4.62284 15.3788 4.82111 15.5923 4.97894L16.2584 5.47666C16.607 5.74161 17.037 5.88572 17.4798 5.88604C17.5765 5.88601 17.6731 5.87808 17.7685 5.86234L19.3229 5.58439L20.4088 7.40722L19.3851 8.57288C19.2176 8.77595 19.0945 9.01006 19.0235 9.26088C18.9525 9.5117 18.935 9.77395 18.972 10.0316L19.0809 10.8439C19.115 11.1033 19.2036 11.3531 19.3411 11.5781C19.4786 11.803 19.6621 11.9982 19.8803 12.1517L21.1816 13.0136L20.622 15.0476L19.0498 15.1704C18.783 15.1988 18.525 15.2796 18.2914 15.4077C18.0578 15.5359 17.8534 15.7088 17.6907 15.9159L17.1778 16.5623C17.0088 16.7682 16.8855 17.0058 16.8155 17.2601C16.7456 17.5145 16.7306 17.7801 16.7714 18.0404L17.0579 19.5486L15.1814 20.6022L13.9801 19.6089C13.629 19.3336 13.1923 19.1818 12.741 19.178C12.6524 19.1785 12.5641 19.1857 12.4767 19.1995L11.6395 19.3051C11.3718 19.3388 11.1141 19.4254 10.8823 19.5596C10.6504 19.6937 10.4494 19.8726 10.2916 20.0851L9.40337 21.3477L7.3071 20.8048L7.18052 19.2793C7.1512 19.0204 7.06797 18.7701 6.93589 18.5434C6.80381 18.3167 6.62564 18.1185 6.41219 17.9606L5.746 17.4629C5.39741 17.198 4.96746 17.0539 4.52466 17.0535C4.42718 17.0537 4.32989 17.0616 4.23375 17.0772L2.67932 17.3552L1.58233 15.5259L2.60604 14.3602C2.77368 14.1572 2.89679 13.9231 2.96782 13.6723C3.03885 13.4214 3.05629 13.1592 3.01907 12.9015L2.91026 12.0892C2.87662 11.8302 2.78874 11.5805 2.65203 11.3556C2.51532 11.1307 2.33266 10.9353 2.11528 10.7814L0.813991 9.91953L1.37359 7.88555L2.94579 7.76273C3.21255 7.73428 3.47057 7.65352 3.70419 7.52537C3.93781 7.39722 4.14215 7.22434 4.30481 7.01723L4.81778 6.37084C4.98677 6.1649 5.1101 5.92732 5.18003 5.67297C5.24996 5.41862 5.26498 5.153 5.22415 4.89276L4.93769 3.38451L6.81412 2.33089L8.01548 3.32418C8.36652 3.59946 8.80325 3.75135 9.25459 3.75511C9.34312 3.75463 9.43147 3.74742 9.51884 3.73356L10.356 3.62798C10.6237 3.5943 10.8815 3.5077 11.1133 3.37355C11.3451 3.23939 11.5462 3.06052 11.7039 2.848L12.5922 1.58539L12.6011 1.59185ZM10.9978 18.0037C12.3303 18.0037 13.6329 17.6203 14.7409 16.902C15.8488 16.1837 16.7124 15.1627 17.2223 13.9682C17.7322 12.7737 17.8657 11.4593 17.6057 10.1912C17.3457 8.92313 16.7041 7.75832 15.7618 6.84408C14.8196 5.92984 13.6191 5.30723 12.3122 5.05499C11.0053 4.80276 9.65059 4.93221 8.4195 5.427C7.1884 5.92178 6.13617 6.75967 5.39585 7.8347C4.65554 8.90973 4.2604 10.1736 4.2604 11.4666C4.26217 13.1998 4.97256 14.8616 6.23568 16.0871C7.4988 17.3127 9.21146 18.002 10.9978 18.0037ZM12.6011 0.79248C12.4764 0.794177 12.3538 0.823153 12.2423 0.877248C12.1308 0.931343 12.0333 1.00916 11.9571 1.1049L11.0333 2.41708C10.846 2.65254 10.5709 2.80727 10.2672 2.848L9.39671 2.95789C9.34988 2.96666 9.30228 2.97099 9.25459 2.97082C8.99973 2.96293 8.75435 2.87526 8.55509 2.72088L7.3071 1.69958C7.16282 1.59002 6.98397 1.53218 6.8008 1.53583C6.69506 1.53354 6.5902 1.55492 6.49435 1.59831L4.44027 2.74889C4.32402 2.83462 4.23349 2.94894 4.17805 3.08001C4.12261 3.21108 4.10428 3.35414 4.12494 3.4944L4.41807 5.04573C4.45869 5.33911 4.37895 5.63623 4.196 5.87312L3.66083 6.54967C3.47349 6.78514 3.1984 6.93987 2.89472 6.9806L1.27588 7.10772C1.13245 7.12466 0.996162 7.178 0.880759 7.26236C0.765357 7.34672 0.674922 7.45911 0.618576 7.58821L0.00790348 9.80102C-0.0121363 9.93924 0.00609736 10.0801 0.0607325 10.2093C0.115368 10.3384 0.204435 10.4511 0.318791 10.5358L1.65117 11.4321C1.89384 11.6139 2.05331 11.8808 2.09529 12.1754L2.20854 13.02C2.24917 13.3134 2.16942 13.6105 1.98648 13.8474L0.931684 15.0476C0.843858 15.1583 0.787915 15.2896 0.769577 15.4282C0.751239 15.5667 0.771164 15.7075 0.827314 15.8362L2.01313 17.8292C2.08933 17.9263 2.18732 18.0053 2.29967 18.0602C2.41202 18.115 2.53578 18.1444 2.66155 18.1459C2.70142 18.1499 2.7416 18.1499 2.78146 18.1459L4.38032 17.8615C4.42713 17.8526 4.47474 17.8483 4.52244 17.8486C4.77501 17.8486 5.02095 17.9271 5.22415 18.0727L5.92143 18.5919C6.16411 18.7737 6.32358 19.0406 6.36555 19.3353L6.49657 20.906C6.51595 21.045 6.57276 21.1765 6.66127 21.2873C6.74977 21.3982 6.86684 21.4844 7.00065 21.5373L9.29234 22.1299C9.32966 22.1368 9.36758 22.1405 9.40559 22.1406C9.53024 22.1389 9.65289 22.11 9.7644 22.0559C9.8759 22.0018 9.97338 21.9239 10.0496 21.8282L10.9734 20.5354C11.1607 20.3 11.4358 20.1452 11.7395 20.1045L12.61 19.9946C12.6568 19.9858 12.7044 19.9815 12.7521 19.9817C13.009 19.9829 13.2584 20.0654 13.4627 20.2165L14.6996 21.2378C14.8438 21.3474 15.0227 21.4052 15.2059 21.4016C15.3116 21.4036 15.4164 21.3823 15.5123 21.3391L17.5664 20.1885C17.6816 20.1034 17.7714 19.9901 17.8268 19.8603C17.8822 19.7305 17.9011 19.5887 17.8817 19.4495L17.5886 17.8981C17.548 17.6048 17.6277 17.3077 17.8107 17.0708L18.3458 16.3942C18.534 16.1596 18.8086 16.0051 19.1119 15.9633L20.7308 15.8383C20.8735 15.8199 21.0087 15.7654 21.1229 15.6803C21.2371 15.5953 21.3263 15.4826 21.3814 15.3535L21.9921 13.1299C22.0121 12.9917 21.9939 12.8508 21.9393 12.7217C21.8846 12.5926 21.7956 12.4799 21.6812 12.3952L20.3488 11.4989C20.1062 11.3171 19.9467 11.0502 19.9047 10.7555L19.7915 9.91091C19.7508 9.61753 19.8306 9.32041 20.0135 9.08353L21.0661 7.88339C21.1539 7.7727 21.2099 7.64135 21.2282 7.50279C21.2465 7.36423 21.2266 7.22343 21.1705 7.09479L19.9847 5.10176C19.908 5.00477 19.8095 4.92602 19.6968 4.87151C19.584 4.817 19.46 4.78816 19.334 4.78718C19.2978 4.78389 19.2614 4.78389 19.2252 4.78718L17.6263 5.07159C17.5795 5.08046 17.5319 5.08479 17.4842 5.08452C17.2279 5.08685 16.9777 5.0082 16.7714 4.86044L16.0741 4.34117C15.8315 4.1594 15.672 3.89248 15.63 3.59782L15.5056 2.02709C15.4867 1.88861 15.4305 1.7574 15.3428 1.6466C15.2552 1.5358 15.139 1.44931 15.006 1.39578L12.7143 0.803254C12.6767 0.799862 12.6387 0.799862 12.6011 0.803254V0.79248ZM10.9978 17.213C9.82644 17.213 8.6814 16.8759 7.70747 16.2445C6.73353 15.6131 5.97444 14.7156 5.52619 13.6656C5.07793 12.6156 4.96065 11.4602 5.18917 10.3455C5.41769 9.23079 5.98174 8.20687 6.81 7.40322C7.63827 6.59957 8.69354 6.05228 9.84237 5.83055C10.9912 5.60883 12.182 5.72262 13.2642 6.15756C14.3464 6.59249 15.2713 7.32902 15.9221 8.27402C16.5728 9.21901 16.9202 10.33 16.9202 11.4666C16.9202 12.9906 16.2962 14.4522 15.1856 15.5299C14.0749 16.6075 12.5685 17.213 10.9978 17.213Z" fill="#25AFB5"/>
</svg>