<svg width="30" height="30" viewBox="0 0 30 30" fill="none" xmlns="http://www.w3.org/2000/svg">
    <path d="M28.0266 14.9999C28.0266 14.0326 27.9159 13.0954 27.7203 12.1895L28.7862 11.0204C29.1457 12.2999 29.34 13.6313 29.34 15C29.34 22.9355 22.9355 29.34 15 29.34C7.06451 29.34 0.66 22.9355 0.66 15C0.66 7.06451 7.06451 0.66 15 0.66C16.372 0.66 17.7065 0.855299 18.989 1.21642L17.8405 2.27914C16.9279 2.08349 15.9653 1.97326 14.9999 1.97326C7.80216 1.97326 1.97327 7.80215 1.97327 14.9999C1.97327 22.1989 7.83659 28.0266 14.9999 28.0266C22.1633 28.0266 28.0266 22.1989 28.0266 14.9999Z"
          stroke="#167EFA" stroke-width="1.32"/>
    <path d="M23.7498 6.76741V6.01741H22.9998H20.6333C20.4141 6.01741 20.25 5.85331 20.25 5.63414C20.25 5.41491 20.4142 5.25071 20.6333 5.25062H22.9998H23.7498V4.50062V1.86741C23.7498 1.66736 23.9283 1.4843 24.1328 1.48438H24.1331C24.3523 1.48438 24.5164 1.64848 24.5164 1.86765V4.50086V5.25086H25.2664H28.133C28.3522 5.25086 28.5163 5.41498 28.5163 5.63414C28.5163 5.8533 28.3522 6.01741 28.133 6.01741H25.2664H24.5164V6.76741V9.40063C24.5164 9.61978 24.3523 9.7839 24.1331 9.7839C23.9139 9.7839 23.7498 9.61979 23.7498 9.40063V6.76741Z"
          stroke="#167EFA" stroke-width="1.5"/>
    <path d="M7.70316 20.8674C9.4031 23.0007 12.0366 24.3675 15.0032 24.3675C17.9698 24.3675 20.603 23.0007 22.3365 20.8342L22.3032 20.8674C21.4366 18.7341 19.67 17.0674 17.4365 16.3673C19.0031 15.5007 20.0697 13.834 20.0697 11.9007C20.0697 9.10077 17.8031 6.83398 15.0029 6.83398C12.203 6.83398 9.93622 9.10053 9.93622 11.9007C9.93622 13.834 11.003 15.5007 12.5694 16.3673C10.3366 17.0674 8.56997 18.7341 7.70312 20.8674L7.70316 20.8674Z"
          fill="#167EFA"/>
</svg>
