<svg xmlns="http://www.w3.org/2000/svg" xmlns:xlink="http://www.w3.org/1999/xlink" height="26.99999999999909" width="31"> <g opacity="1"> <g opacity="1"> <path fill-opacity="0" stroke="rgb(21,126,251)" stroke-opacity="1" stroke-width="2" stroke-linecap="round" stroke-linejoin="round" opacity="1" fill-rule="evenodd" d="M17.499999999999904 19.965517241379345L9.999999999999947 24.275862068965562L1 19.103448275862103L1 1L9.999999999999947 6.172413793103458L18.999999999999893 1L27.999999999999844 6.172413793103458L27.999999999999844 11.775862068965537"/> </g> <g opacity="1"> <path fill-opacity="0" stroke="rgb(21,126,251)" stroke-opacity="1" stroke-width="2" stroke-linecap="round" stroke-linejoin="round" opacity="1" fill-rule="evenodd" d="M9.999999999999496 24.275862068965438L9.999999999999496 6.172413793103374"/> </g> <g opacity="1"> <path fill-opacity="0" stroke="rgb(21,126,251)" stroke-opacity="1" stroke-width="2" stroke-linecap="round" stroke-linejoin="round" opacity="1" fill-rule="evenodd" d="M18.99999999999936 11.775862068965564L18.99999999999936 1"/> </g> <g opacity="1"> <path fill-opacity="0" stroke="rgb(21,126,251)" stroke-opacity="1" stroke-width="2" stroke-linecap="round" stroke-linejoin="round" opacity="1" fill-rule="evenodd" d="M26.999999999999908 18.241379310344655C26.999999999999908 19.193534482758793 26.10449999999987 19.965517241379185 24.999999999999755 19.965517241379185C23.89549999999964 19.965517241379185 22.999999999999602 19.193534482758793 22.999999999999602 18.241379310344655C22.999999999999602 17.289224137930514 23.89549999999964 16.51724137931012 24.999999999999755 16.51724137931012C26.10449999999987 16.51724137931012 26.999999999999908 17.289224137930514 26.999999999999908 18.241379310344655Z"/> </g> <g opacity="1"> <path fill-opacity="0" stroke="rgb(21,126,251)" stroke-opacity="1" stroke-width="2" stroke-linecap="round" stroke-linejoin="round" opacity="1" fill-rule="evenodd" d="M29.999999999999975 18.241379310344684C29.999999999999975 20.621982758620206 24.9999999999998 25.99999999999983 24.9999999999998 25.99999999999983C24.9999999999998 25.99999999999983 19.99999999999963 20.621982758620206 19.99999999999963 18.241379310344684C19.99999999999963 15.861206896551224 22.238499999999753 13.931034482758491 24.9999999999998 13.931034482758491C27.760999999999864 13.931034482758491 29.999999999999975 15.861206896551224 29.999999999999975 18.241379310344684Z"/> </g> </g> </svg>
