<svg id="a9d78ffc-fe08-464a-b8cf-869b6dbc4dee" data-name="email" xmlns="http://www.w3.org/2000/svg" viewBox="0 0 98.78 59.06"><defs><style>.ab1529dd-a994-4a93-ace3-b3f0a388e135,.baa5ee61-0ee9-40e6-956d-a3c5e6ef45fe{fill:#fff;}.a1814437-d529-4fc7-b5f0-c59dccc56497{fill:#25aeb4;}.ab1529dd-a994-4a93-ace3-b3f0a388e135{stroke:#25aeb4;stroke-miterlimit:10;stroke-width:2.92px;}</style></defs><g id="b506facd-3a68-43ba-8e6f-1ff1419ade96" data-name="email-outline"><rect class="baa5ee61-0ee9-40e6-956d-a3c5e6ef45fe" x="1.46" y="1.46" width="95.86" height="56.14" rx="3.25"/><path class="a1814437-d529-4fc7-b5f0-c59dccc56497" d="M94.68,23.39a1.79,1.79,0,0,1,1.79,1.79V74.82a1.79,1.79,0,0,1-1.79,1.79H5.32a1.79,1.79,0,0,1-1.79-1.79V25.18a1.79,1.79,0,0,1,1.79-1.79H94.68m0-2.92H5.32A4.71,4.71,0,0,0,.61,25.18V74.82a4.71,4.71,0,0,0,4.71,4.71H94.68a4.71,4.71,0,0,0,4.71-4.71V25.18a4.71,4.71,0,0,0-4.71-4.71Z" transform="translate(-0.61 -20.47)"/><path class="ab1529dd-a994-4a93-ace3-b3f0a388e135" d="M2.32,24.52,48,39.88a6.33,6.33,0,0,0,4.08,0l45.4-15.36" transform="translate(-0.61 -20.47)"/><path class="a1814437-d529-4fc7-b5f0-c59dccc56497" d="M55.77,70.73a16.69,16.69,0,0,1-7.16,1.32A11.88,11.88,0,0,1,36.39,59.83,14.38,14.38,0,0,1,51,45.13c6.84,0,11.87,4.68,11.87,11.18,0,5.61-3.13,9.24-7.54,9.24a3.18,3.18,0,0,1-3.48-2.82h-.12A5.51,5.51,0,0,1,47,65.55c-2.63,0-4.41-1.93-4.41-5.14a8.66,8.66,0,0,1,9-8.9,11.51,11.51,0,0,1,4.79,1L55.3,59.71c-.31,2-.11,2.9.89,2.94,1.51.08,3.52-1.82,3.52-6.26,0-4.8-3.17-8.63-9.13-8.63-5.8,0-10.9,4.45-10.9,11.64,0,6.5,4.1,10,9.86,10a13.8,13.8,0,0,0,5.53-1.12Zm-4-15.66a3.19,3.19,0,0,0-.89-.11c-2.16,0-3.82,2.24-3.82,4.83,0,1.39.54,2.16,1.62,2.16s2.36-1.35,2.63-3.51Z" transform="translate(-0.61 -20.47)"/></g></svg>