<svg width="7" height="7" viewBox="0 0 7 7" fill="none" xmlns="http://www.w3.org/2000/svg">
  <path fill-rule="evenodd" clip-rule="evenodd" d="M5.87321 5.05775C5.93402 4.99694 5.92859 4.89711 5.86324 4.84265L4.89935 4.0494C4.84217 4.00221 4.75866 4.00673 4.70602 4.05937L4.26945 4.49958C4.13694 4.63209 3.93181 4.66656 3.7639 4.57489C3.39451 4.37249 3.10956 4.17012 2.86178 3.92052C2.61492 3.67002 2.41069 3.37686 2.19831 2.99657C2.10301 2.82685 2.13567 2.61626 2.26999 2.48102L2.70474 2.04356C2.75647 1.99092 2.76102 1.90652 2.71382 1.84934L1.92604 0.879104C1.87158 0.812848 1.77263 0.807415 1.71182 0.869132L1.17814 1.40642C0.896784 1.6896 0.805112 2.10892 0.958497 2.46742C1.32789 3.32875 1.72452 3.96588 2.24185 4.48504C2.75919 5.00419 3.40358 5.4108 4.27942 5.80289C4.63974 5.96353 5.06362 5.8737 5.34861 5.5869L5.87321 5.05775ZM6.04566 4.61755C6.24442 4.78092 6.25892 5.08134 6.0774 5.26377L5.5528 5.792C5.18885 6.15777 4.63886 6.28213 4.16237 6.06793C3.26747 5.66767 2.58856 5.24291 2.03855 4.69108C1.48763 4.13835 1.07195 3.4658 0.693484 2.58179C0.489273 2.1062 0.615449 1.56164 0.973952 1.20132L1.50764 0.663086C1.68916 0.480656 1.98773 0.495181 2.14928 0.694856L2.93801 1.66509C3.07869 1.83845 3.066 2.09077 2.90898 2.24961L2.47424 2.68616C2.42886 2.73244 2.41974 2.80051 2.4497 2.85406C2.65481 3.22074 2.8445 3.4903 3.06686 3.71539C3.28922 3.94048 3.54884 4.12562 3.9019 4.31985C3.95363 4.34798 4.01988 4.33891 4.06526 4.29353L4.50183 3.85336C4.65975 3.69543 4.91021 3.68271 5.08266 3.8243L6.04566 4.61755Z" fill="#28B256"/>
</svg>
