<svg width="8" height="9" viewBox="0 0 8 9" fill="none" xmlns="http://www.w3.org/2000/svg">
  <path d="M4.67263 8.9678H3.66369C2.3387 8.9678 0.335938 8.05743 0.335938 6.69249V0.929688H7.97457V6.69249C7.97457 8.05743 5.98705 8.9678 4.67263 8.9678ZM0.729394 1.31026V6.69249C0.729394 7.77317 2.5055 8.5872 3.66369 8.5872H4.67263C5.81673 8.5872 7.58104 7.77317 7.58104 6.69249V1.31026H0.729394Z" fill="#28B256"/>
  <path d="M7.18148 2.03854C7.15564 2.03854 7.13095 2.02914 7.11216 2.01035C7.09454 1.9939 7.08398 1.96924 7.08398 1.94457V1.69084C7.08398 1.665 7.09454 1.6415 7.11216 1.62388C7.13095 1.60508 7.15564 1.5957 7.18148 1.5957C7.2085 1.5957 7.23316 1.60508 7.25196 1.62388C7.26958 1.6415 7.28013 1.665 7.28013 1.69084V1.94457C7.28013 1.96924 7.26958 1.9939 7.25196 2.01035C7.23316 2.02914 7.2085 2.03854 7.18148 2.03854Z" fill="#28B256"/>
  <path d="M1.1268 2.03854C1.10096 2.03854 1.07627 2.02914 1.05747 2.01035C1.03868 1.9939 1.0293 1.96924 1.0293 1.94457V1.69084C1.0293 1.665 1.03868 1.6415 1.05747 1.62388C1.07627 1.60508 1.10096 1.5957 1.1268 1.5957C1.15264 1.5957 1.1785 1.60508 1.19612 1.62388C1.21492 1.6415 1.22544 1.665 1.22544 1.69084V1.94457C1.22544 1.96924 1.21492 1.9939 1.19612 2.01035C1.1785 2.02914 1.15264 2.03854 1.1268 2.03854Z" fill="#28B256"/>
  <path d="M4.68359 8.3023H4.41925C4.40633 8.3023 4.39343 8.29995 4.38169 8.29525C4.36994 8.29055 4.35822 8.2835 4.35 8.2741C4.3406 8.26588 4.33357 8.25531 4.3277 8.24356C4.323 8.23299 4.3206 8.22008 4.3206 8.20716C4.3206 8.19541 4.323 8.18366 4.3277 8.17074C4.33357 8.16016 4.3406 8.14959 4.35 8.14019C4.35822 8.13197 4.36994 8.12493 4.38169 8.12023C4.39343 8.11553 4.40633 8.11318 4.41925 8.11318H4.68359C4.76581 8.11318 4.84802 8.10731 4.92907 8.09791C4.94199 8.09674 4.95493 8.09791 4.96785 8.10026C4.9796 8.10378 4.99134 8.10966 5.00191 8.11788C5.01131 8.12493 5.0207 8.1355 5.02657 8.14607C5.03244 8.15664 5.03715 8.16839 5.03833 8.18131C5.0395 8.19423 5.03834 8.20598 5.03482 8.2189C5.03129 8.23064 5.02537 8.24121 5.01833 8.25179C5.0101 8.26118 4.99958 8.26941 4.989 8.27528C4.97726 8.28116 4.96429 8.28585 4.95136 8.28702C4.86327 8.2976 4.77286 8.3023 4.68359 8.3023ZM3.89661 8.3023H3.65342C3.5571 8.3023 3.45959 8.29642 3.36328 8.28468C3.34918 8.2835 3.33631 8.27997 3.32456 8.2741C3.31281 8.26823 3.30224 8.26002 3.29402 8.25062C3.2858 8.24005 3.27869 8.22829 3.27516 8.21655C3.27164 8.20363 3.27052 8.19188 3.27287 8.17778C3.27404 8.16486 3.27875 8.15311 3.28463 8.14254C3.29167 8.1308 3.30101 8.12141 3.31158 8.11318C3.32216 8.10613 3.33394 8.10026 3.34686 8.09791C3.35978 8.09439 3.37387 8.0932 3.38679 8.09673C3.47489 8.10613 3.56415 8.11201 3.65342 8.11318H3.89661C3.90953 8.11318 3.92243 8.11553 3.93417 8.12023C3.94592 8.12493 3.95764 8.13197 3.96586 8.14019C3.97526 8.14959 3.98231 8.16016 3.98701 8.17074C3.99288 8.18366 3.99526 8.19541 3.99526 8.20716C3.99526 8.22008 3.99288 8.23299 3.98701 8.24356C3.98231 8.25531 3.97526 8.26588 3.96586 8.2741C3.95764 8.2835 3.94592 8.29055 3.93417 8.29525C3.92243 8.29995 3.90953 8.3023 3.89661 8.3023ZM5.45179 8.18835C5.43064 8.18835 5.40952 8.18131 5.39307 8.16839C5.37545 8.15547 5.36367 8.13785 5.3578 8.11788C5.35075 8.09439 5.35312 8.06854 5.36604 8.04622C5.37896 8.02508 5.40009 8.00864 5.42476 8.00159C5.58803 7.95695 5.74895 7.90175 5.90518 7.83714C5.92985 7.82774 5.95689 7.82774 5.98039 7.83714C6.00505 7.84654 6.0238 7.86416 6.03437 7.88765C6.04377 7.91114 6.04499 7.93698 6.03559 7.96047C6.02502 7.98397 6.00624 8.00276 5.98275 8.01333C5.81713 8.08146 5.64797 8.13786 5.4753 8.18484C5.46708 8.18602 5.46001 8.18718 5.45179 8.18835ZM2.86407 8.18835C2.85467 8.18953 2.84527 8.18953 2.83704 8.18835C2.6632 8.14137 2.49407 8.08381 2.32845 8.01568C2.3167 8.01098 2.30616 8.00393 2.29676 7.99571C2.28854 7.98631 2.28148 7.97575 2.27561 7.964C2.27091 7.95226 2.26851 7.9405 2.26851 7.92758C2.26851 7.91584 2.27088 7.9041 2.27676 7.89118C2.28733 7.86886 2.30615 7.85005 2.33081 7.84065C2.35431 7.83126 2.38128 7.83126 2.40595 7.84065C2.56217 7.90526 2.72309 7.9593 2.88637 8.00394C2.90986 8.01099 2.92987 8.02508 2.94279 8.04387C2.95571 8.06267 2.96159 8.08617 2.95806 8.10849C2.95454 8.13198 2.94277 8.15311 2.92515 8.1672C2.90753 8.18248 2.88405 8.19189 2.86056 8.19189L2.86407 8.18835ZM6.40911 7.79251C6.39267 7.79251 6.37503 7.78898 6.36094 7.78075C6.34567 7.77371 6.33274 7.76196 6.32452 7.74786C6.31042 7.72555 6.30696 7.6997 6.31283 7.6762C6.3187 7.65154 6.33511 7.6304 6.35742 7.6163C6.50073 7.53173 6.63582 7.43306 6.75798 7.3203C6.77677 7.30268 6.80146 7.29327 6.8273 7.29445C6.85432 7.29445 6.87894 7.30503 6.89656 7.32383C6.91536 7.34145 6.92476 7.36611 6.92359 7.39195C6.92359 7.41662 6.91306 7.44011 6.89427 7.45773C6.76153 7.57755 6.61586 7.68326 6.46081 7.77371C6.44554 7.78428 6.42673 7.78898 6.40911 7.78898V7.79251ZM1.90438 7.79251C1.88676 7.79251 1.86918 7.7878 1.85391 7.77841C1.69885 7.68913 1.55318 7.58342 1.42044 7.46478C1.40165 7.44598 1.39112 7.42249 1.39112 7.39665C1.39112 7.37198 1.40165 7.34731 1.42044 7.32969C1.43806 7.31207 1.46393 7.30149 1.48977 7.30149C1.51561 7.30149 1.54023 7.31207 1.55903 7.32969C1.68119 7.43541 1.81394 7.52938 1.95607 7.60926C1.97486 7.61983 1.989 7.63628 1.99722 7.65507C2.00544 7.67504 2.00661 7.69618 2.00073 7.71732C1.99486 7.73729 1.98193 7.75491 1.96431 7.76783C1.94669 7.77958 1.92552 7.78663 1.90438 7.78663V7.79251ZM7.12914 7.08537C7.11621 7.0842 7.10331 7.08184 7.09157 7.0748C7.06808 7.0654 7.04813 7.04778 7.03873 7.02429C7.02816 7.00079 7.02811 6.97496 7.03751 6.95146C7.06805 6.88216 7.08454 6.8058 7.08454 6.73063V6.48629C7.08454 6.46162 7.09507 6.43814 7.11386 6.41935C7.13266 6.40173 7.15735 6.39234 7.18319 6.39234C7.20903 6.39234 7.23373 6.40173 7.25252 6.41935C7.27132 6.43814 7.28184 6.46162 7.28184 6.48629V6.72593C7.28067 6.82695 7.25955 6.92679 7.21961 7.01959C7.21257 7.03721 7.19961 7.05248 7.18434 7.06306C7.1679 7.07245 7.1491 7.07949 7.12914 7.07949V7.08537ZM1.18321 7.0748C1.16324 7.0748 1.14445 7.06892 1.12801 7.05952C1.11156 7.04895 1.09981 7.03368 1.09159 7.01606C1.05165 6.92326 1.0305 6.82343 1.0305 6.72358V6.48629C1.0305 6.46162 1.03988 6.43578 1.05868 6.41816C1.07747 6.40054 1.10216 6.39115 1.12801 6.39115C1.15385 6.39115 1.17964 6.40054 1.19726 6.41816C1.21606 6.43578 1.22666 6.46162 1.22666 6.48629V6.72593C1.22666 6.80346 1.24308 6.87745 1.27362 6.94793C1.27949 6.95968 1.28183 6.97143 1.28301 6.98435C1.28301 6.99727 1.28068 7.01137 1.27598 7.02194C1.27011 7.03369 1.26308 7.04542 1.25368 7.05365C1.24429 7.06304 1.23252 7.0701 1.22078 7.0748C1.20786 7.07715 1.19613 7.07715 1.18321 7.0748ZM7.18319 6.07753C7.15735 6.07753 7.13266 6.06695 7.11386 6.04933C7.09507 6.03054 7.08454 6.00705 7.08454 5.98239V5.47728C7.08454 5.45144 7.09507 5.42796 7.11386 5.41034C7.13266 5.39154 7.15735 5.38214 7.18319 5.38214C7.20903 5.38214 7.23373 5.39154 7.25252 5.41034C7.27132 5.42796 7.28184 5.45144 7.28184 5.47728V5.98239C7.28184 6.00705 7.27132 6.03054 7.25252 6.04933C7.23373 6.06695 7.20903 6.07753 7.18319 6.07753ZM1.12801 6.07753C1.10216 6.07753 1.07747 6.06695 1.05868 6.04933C1.03988 6.03054 1.0305 6.00705 1.0305 5.98239V5.47728C1.0305 5.45144 1.03988 5.42677 1.05868 5.40915C1.07747 5.39153 1.10216 5.38214 1.12801 5.38214C1.15385 5.38214 1.17964 5.39153 1.19726 5.40915C1.21606 5.42677 1.22666 5.45144 1.22666 5.47728V5.9812C1.22666 6.00587 1.21606 6.03055 1.19726 6.04817C1.17964 6.06579 1.15385 6.07634 1.12801 6.07634V6.07753ZM7.18319 5.06733C7.15735 5.06733 7.13266 5.05793 7.11386 5.03914C7.09507 5.02152 7.08454 4.99686 7.08454 4.97219V4.46709C7.08454 4.44125 7.09507 4.41658 7.11386 4.39896C7.13266 4.38134 7.15735 4.37195 7.18319 4.37195C7.20903 4.37195 7.23373 4.38134 7.25252 4.39896C7.27132 4.41658 7.28184 4.44125 7.28184 4.46709V4.97219C7.28184 4.99686 7.27132 5.02152 7.25252 5.03914C7.23373 5.05793 7.20903 5.06733 7.18319 5.06733ZM1.12801 5.06733C1.10216 5.06733 1.07747 5.05793 1.05868 5.03914C1.03988 5.02152 1.0305 4.99686 1.0305 4.97219V4.46709C1.0305 4.44125 1.03988 4.41658 1.05868 4.39896C1.07747 4.38134 1.10216 4.37195 1.12801 4.37195C1.15385 4.37195 1.17964 4.38134 1.19726 4.39896C1.21606 4.41658 1.22666 4.44125 1.22666 4.46709V4.97101C1.22666 4.99685 1.21606 5.02153 1.19726 5.03797C1.17964 5.05559 1.15385 5.06615 1.12801 5.06615V5.06733ZM7.18319 4.05714C7.15853 4.05714 7.13388 4.04775 7.11508 4.03013C7.09746 4.01368 7.08572 3.99018 7.08454 3.96551V3.45689C7.08454 3.43223 7.09507 3.40757 7.11386 3.38995C7.13266 3.37233 7.15735 3.36292 7.18319 3.36292C7.20903 3.36292 7.23373 3.37233 7.25252 3.38995C7.27132 3.40757 7.28184 3.43223 7.28184 3.45689V3.96551C7.28067 3.99018 7.26892 4.01368 7.2513 4.03013C7.23251 4.04775 7.20903 4.05714 7.18319 4.05714ZM1.12801 4.05714C1.10334 4.05714 1.07862 4.04775 1.05982 4.03013C1.04221 4.01368 1.03168 3.99018 1.0305 3.96551V3.45689C1.0305 3.43223 1.03988 3.40757 1.05868 3.38995C1.07747 3.37233 1.10216 3.36292 1.12801 3.36292C1.15385 3.36292 1.17964 3.37233 1.19726 3.38995C1.21606 3.40757 1.22666 3.43223 1.22666 3.45689V3.96551C1.22548 3.99018 1.21491 4.01368 1.19611 4.03013C1.17732 4.04775 1.15385 4.05714 1.12801 4.05714ZM7.18319 3.04695C7.15735 3.04695 7.13266 3.03637 7.11386 3.01875C7.09507 3.00113 7.08454 2.97765 7.08454 2.95181V2.44788C7.08454 2.42204 7.09507 2.39738 7.11386 2.37976C7.13266 2.36214 7.15735 2.35273 7.18319 2.35273C7.20903 2.35273 7.23373 2.36214 7.25252 2.37976C7.27132 2.39738 7.28184 2.42204 7.28184 2.44788V2.95181C7.28184 2.97765 7.27132 3.00113 7.25252 3.01875C7.23373 3.03637 7.20903 3.04695 7.18319 3.04695ZM1.12801 3.04695C1.11508 3.04695 1.10211 3.0446 1.09037 3.0399C1.07862 3.0352 1.06807 3.02815 1.05868 3.01875C1.04928 3.01053 1.04223 2.99996 1.03753 2.98821C1.03283 2.97646 1.02933 2.96354 1.0305 2.95062V2.4467C1.0305 2.42203 1.03988 2.39738 1.05868 2.37976C1.07747 2.36214 1.10216 2.35156 1.12801 2.35156C1.15385 2.35156 1.17964 2.36214 1.19726 2.37976C1.21606 2.39738 1.22666 2.42203 1.22666 2.4467V2.95062C1.22666 2.96354 1.22426 2.97646 1.21956 2.98821C1.21369 2.99996 1.2067 3.01053 1.19848 3.01875C1.18908 3.02815 1.17849 3.0352 1.16557 3.0399C1.15383 3.0446 1.14093 3.04695 1.12801 3.04695Z" fill="#28B256"/>
  <path d="M6.54825 2.02428H6.02324C5.99739 2.02428 5.9727 2.01253 5.95391 1.99609C5.93629 1.97729 5.92573 1.95381 5.92573 1.92914C5.92573 1.9033 5.93629 1.87981 5.95391 1.86101C5.9727 1.84339 5.99739 1.83398 6.02324 1.83398H6.54825C6.5741 1.83398 6.59879 1.84339 6.61758 1.86101C6.63638 1.87981 6.64698 1.9033 6.64698 1.92914C6.64698 1.95381 6.63638 1.97729 6.61758 1.99609C6.59879 2.01253 6.5741 2.02428 6.54825 2.02428ZM5.50051 2.02428H4.97664C4.9508 2.02428 4.92489 2.01253 4.90609 1.99609C4.88847 1.97729 4.87792 1.95381 4.87792 1.92914C4.87792 1.9033 4.88847 1.87981 4.90609 1.86101C4.92489 1.84339 4.9508 1.83398 4.97664 1.83398H5.50051C5.52635 1.83398 5.55097 1.84339 5.56977 1.86101C5.58739 1.87981 5.59802 1.9033 5.59802 1.92914C5.59802 1.95381 5.58739 1.97729 5.56977 1.99609C5.55097 2.01253 5.52635 2.02428 5.50051 2.02428ZM4.4527 2.02428H3.92768C3.90184 2.02428 3.87714 2.01253 3.85835 1.99609C3.83956 1.97729 3.83017 1.95381 3.83017 1.92914C3.83017 1.9033 3.83956 1.87981 3.85835 1.86101C3.87714 1.84339 3.90184 1.83398 3.92768 1.83398H4.4527C4.47854 1.83398 4.50323 1.84339 4.52203 1.86101C4.53964 1.87981 4.5502 1.9033 4.5502 1.92914C4.5502 1.95381 4.53964 1.97729 4.52203 1.99609C4.50323 2.01253 4.47854 2.02428 4.4527 2.02428ZM3.40374 2.02428H2.87986C2.85402 2.02428 2.82933 2.01253 2.81054 1.99609C2.79292 1.97729 2.78236 1.95381 2.78236 1.92914C2.78236 1.9033 2.79292 1.87981 2.81054 1.86101C2.82933 1.84339 2.85402 1.83398 2.87986 1.83398H3.40374C3.42958 1.83398 3.45544 1.84339 3.47306 1.86101C3.49186 1.87981 3.50246 1.9033 3.50246 1.92914C3.50246 1.95381 3.49186 1.97729 3.47306 1.99609C3.45544 2.01253 3.42958 2.02428 3.40374 2.02428ZM2.35599 2.02428H1.83212C1.80628 2.02428 1.78041 2.01253 1.76279 1.99609C1.744 1.97729 1.7334 1.95381 1.7334 1.92914C1.7334 1.9033 1.744 1.87981 1.76279 1.86101C1.78041 1.84339 1.80628 1.83398 1.83212 1.83398H2.35599C2.38301 1.83398 2.40763 1.84339 2.42525 1.86101C2.44404 1.87981 2.45464 1.9033 2.45464 1.92914C2.45464 1.95381 2.44404 1.97729 2.42525 1.99609C2.40763 2.01253 2.38301 2.02428 2.35599 2.02428Z" fill="#28B256"/>
  <path d="M5.769 4.0079V4.00909C5.77605 4.0596 5.77954 4.11596 5.77954 4.18174C5.77954 4.4155 5.68085 4.69154 5.51406 4.98637C5.34843 5.27885 5.12527 5.57252 4.89856 5.83799C4.67303 6.10111 4.44637 6.33134 4.27605 6.49579C4.21027 6.55922 4.1527 6.61209 4.10807 6.65437C4.06226 6.61209 4.00587 6.55922 3.94009 6.49579C3.76977 6.33134 3.54306 6.10111 3.31635 5.83799C3.08965 5.57252 2.86763 5.27885 2.70201 4.98637C2.53521 4.69154 2.43652 4.4155 2.43652 4.18174C2.43652 3.93272 2.49643 3.74948 2.58335 3.62497C2.6691 3.50163 2.78777 3.42646 2.92756 3.39592C3.21182 3.33484 3.61471 3.46169 3.98002 3.85989L4.10807 3.99851L4.23611 3.85989C4.57793 3.48753 4.95378 3.3501 5.23452 3.38651C5.37195 3.40413 5.49057 3.46288 5.58102 3.56037C5.67264 3.65787 5.74316 3.80469 5.769 4.0079Z" fill="#28B256"/>
</svg>
