<svg width="26" height="34" viewBox="0 0 26 34" fill="none" xmlns="http://www.w3.org/2000/svg">
    <path d="M25.627 33.057H0.922974V0.544006H25.627V33.057ZM2.40802 31.536H24.141V2.06598H2.40802V31.536Z" fill="#F7CE37"/>
    <path d="M24.584 23.368L17.699 16.321L12.564 22.292L11.448 21.282L17.629 14.098L25.633 22.294L24.584 23.368Z" fill="#F7CE37"/>
    <path d="M1.99097 24.78L0.938965 23.701L6.62195 17.882L12.1749 22.886L11.1959 24.028L6.68896 19.968L1.99097 24.78Z" fill="#F7CE37"/>
    <path d="M9.41505 15.002C8.64705 15.005 7.89609 14.773 7.25709 14.339C6.61709 13.903 6.11905 13.284 5.82405 12.558C5.52805 11.833 5.45007 11.034 5.59907 10.263C5.74807 9.49201 6.11704 8.78302 6.66004 8.22602C7.20204 7.67102 7.89404 7.29198 8.64704 7.13898C9.40004 6.98598 10.18 7.06501 10.889 7.36701C11.598 7.66801 12.2031 8.17798 12.6281 8.83198C13.0541 9.48798 13.2801 10.256 13.2781 11.042C13.2751 12.091 12.8671 13.095 12.1431 13.837C11.4191 14.579 10.438 14.998 9.41505 15.002ZM9.41505 7.82001C8.79505 7.81901 8.18804 8.00799 7.67304 8.35999C7.15704 8.71299 6.7551 9.21299 6.5171 9.79999C6.2801 10.386 6.21708 11.032 6.33808 11.655C6.45908 12.277 6.75705 12.85 7.19605 13.298C7.63405 13.747 8.1931 14.053 8.8011 14.176C9.4091 14.3 10.0391 14.236 10.6121 13.993C11.1851 13.75 11.6741 13.339 12.0181 12.809C12.3621 12.281 12.5451 11.661 12.5451 11.026C12.5391 10.18 12.207 9.369 11.621 8.771C11.034 8.174 10.241 7.839 9.41505 7.836V7.82001Z" fill="#F7CE37"/>
</svg>
