<svg width="20" height="21" viewBox="0 0 20 21" fill="none" xmlns="http://www.w3.org/2000/svg">
<g clip-path="url(#clip0)">
<path d="M11.4819 20.3806H9.03616C5.82571 20.3806 0.973145 18.1838 0.973145 14.8867V0.973145H19.4814V14.8867C19.4814 18.1838 14.6657 20.3806 11.4819 20.3806ZM1.92644 1.89176V14.8867C1.92644 17.4983 6.23163 19.4619 9.03616 19.4619H11.4819C14.2537 19.4619 18.5281 17.4983 18.5281 14.8867V1.89176H1.92644Z" fill="#F7CE37"/>
<path d="M17.5623 3.6499C17.4993 3.6499 17.4388 3.62575 17.3941 3.58277C17.3495 3.5398 17.3245 3.48151 17.3245 3.42074V2.80833C17.3245 2.74755 17.3495 2.68926 17.3941 2.64628C17.4388 2.60331 17.4993 2.57916 17.5623 2.57916C17.6253 2.57916 17.6859 2.60331 17.7305 2.64628C17.7751 2.68926 17.8001 2.74755 17.8001 2.80833V3.42074C17.8001 3.48151 17.7751 3.5398 17.7305 3.58277C17.6859 3.62575 17.6253 3.6499 17.5623 3.6499Z" fill="#F7CE37"/>
<path d="M2.89211 3.6499C2.82904 3.6499 2.76855 3.62575 2.72395 3.58277C2.67935 3.5398 2.6543 3.48151 2.6543 3.42074V2.80833C2.6543 2.74755 2.67935 2.68926 2.72395 2.64628C2.76855 2.60331 2.82904 2.57916 2.89211 2.57916C2.95518 2.57916 3.01567 2.60331 3.06027 2.64628C3.10487 2.68926 3.12992 2.74755 3.12992 2.80833V3.42074C3.12992 3.48151 3.10487 3.5398 3.06027 3.58277C3.01567 3.62575 2.95518 3.6499 2.89211 3.6499Z" fill="#F7CE37"/>
<path d="M11.5066 18.7765H10.8649C10.8337 18.7765 10.8028 18.7706 10.7739 18.7591C10.7451 18.7476 10.7189 18.7307 10.6968 18.7094C10.6747 18.6882 10.6572 18.6628 10.6452 18.6351C10.6333 18.6073 10.6271 18.5775 10.6271 18.5474C10.6271 18.5173 10.6333 18.4875 10.6452 18.4596C10.6572 18.4318 10.6747 18.4066 10.6968 18.3853C10.7189 18.3641 10.7451 18.3472 10.7739 18.3356C10.8028 18.3242 10.8337 18.3182 10.8649 18.3182H11.5066C11.7053 18.3175 11.9038 18.3056 12.1011 18.2826C12.1322 18.2792 12.1637 18.2816 12.1938 18.2898C12.224 18.2981 12.2521 18.3119 12.2766 18.3306C12.3012 18.3493 12.3218 18.3725 12.337 18.3988C12.3523 18.4252 12.362 18.4542 12.3656 18.4842C12.3693 18.5141 12.3667 18.5445 12.3582 18.5735C12.3496 18.6025 12.3352 18.6296 12.3158 18.6533C12.2964 18.6769 12.2724 18.6967 12.245 18.7114C12.2176 18.7262 12.1875 18.7355 12.1565 18.7389C11.9408 18.7636 11.7238 18.7762 11.5066 18.7765ZM9.60002 18.7765H9.01164C8.77586 18.7759 8.54035 18.7614 8.30641 18.7331C8.27424 18.7308 8.24286 18.7224 8.21419 18.7082C8.18552 18.6939 8.16015 18.6743 8.13963 18.6503C8.11911 18.6263 8.10385 18.5986 8.09481 18.5687C8.08576 18.5389 8.08311 18.5076 8.08701 18.4767C8.0909 18.4459 8.10127 18.4162 8.11748 18.3893C8.13369 18.3624 8.1554 18.3391 8.18129 18.3205C8.20719 18.3019 8.23672 18.2887 8.26809 18.2815C8.29947 18.2743 8.33204 18.2734 8.36382 18.2787C8.57878 18.3038 8.79509 18.3171 9.01164 18.3182H9.60002C9.63125 18.3182 9.66218 18.3242 9.69102 18.3356C9.71988 18.3472 9.74609 18.3641 9.76817 18.3853C9.79026 18.4066 9.80777 18.4318 9.81973 18.4596C9.83168 18.4875 9.83782 18.5173 9.83782 18.5474C9.83782 18.5775 9.83168 18.6073 9.81973 18.6351C9.80777 18.6628 9.79026 18.6882 9.76817 18.7094C9.74609 18.7307 9.71988 18.7476 9.69102 18.7591C9.66218 18.7706 9.63125 18.7765 9.60002 18.7765ZM13.3681 18.4999C13.3161 18.4997 13.2656 18.4832 13.2242 18.4529C13.1828 18.4226 13.1527 18.3802 13.1384 18.3321C13.1214 18.2736 13.1292 18.2111 13.1599 18.1581C13.1906 18.1052 13.2419 18.0661 13.3025 18.0495C13.6988 17.9415 14.0878 17.8095 14.467 17.6544C14.5249 17.6307 14.5901 17.6301 14.6486 17.6526C14.7069 17.6753 14.7538 17.7192 14.7786 17.7749C14.8033 17.8311 14.804 17.8943 14.7806 17.9508C14.7571 18.0075 14.7115 18.0528 14.6535 18.0772C14.2533 18.2413 13.8424 18.3798 13.4234 18.4921C13.4053 18.4966 13.3868 18.4993 13.3681 18.4999ZM7.09685 18.4999C7.0751 18.5029 7.05301 18.5029 7.03126 18.4999C6.61206 18.3884 6.20111 18.2497 5.8012 18.0851C5.77237 18.0734 5.74622 18.0564 5.72424 18.0351C5.70224 18.0136 5.68485 17.9883 5.67305 17.9604C5.66125 17.9325 5.65525 17.9026 5.65543 17.8725C5.65561 17.8424 5.66195 17.8126 5.67409 17.7848C5.69937 17.7289 5.74637 17.6848 5.805 17.6619C5.86363 17.6391 5.92923 17.6392 5.98775 17.6623C6.36669 17.8181 6.75565 17.9499 7.15221 18.0574C7.20802 18.0719 7.25645 18.1055 7.28843 18.1519C7.3204 18.1983 7.33375 18.2544 7.32596 18.3096C7.31817 18.3647 7.28979 18.4154 7.24611 18.4518C7.20244 18.4883 7.14646 18.5083 7.08866 18.5078L7.09685 18.4999ZM15.6868 17.5457C15.6458 17.5464 15.6052 17.5367 15.5693 17.5177C15.5333 17.4986 15.5032 17.4708 15.4817 17.4372C15.4492 17.3849 15.4392 17.3224 15.4542 17.2633C15.4692 17.2041 15.5078 17.1529 15.5617 17.1211C15.9103 16.9164 16.2353 16.6767 16.5314 16.4059C16.5771 16.3637 16.6382 16.3407 16.7015 16.3421C16.7648 16.3434 16.8249 16.3688 16.8686 16.4128C16.9124 16.4568 16.9362 16.5158 16.9349 16.5767C16.9335 16.6377 16.9071 16.6956 16.8614 16.7378C16.5403 17.0267 16.1885 17.2823 15.8118 17.5004C15.7745 17.5235 15.7312 17.5358 15.6868 17.5359V17.5457ZM4.7741 17.5457C4.73076 17.5452 4.68834 17.5335 4.65109 17.5122C4.2744 17.2948 3.92197 17.0406 3.5994 16.7536C3.5552 16.7101 3.53044 16.6515 3.53044 16.5906C3.53044 16.5297 3.5552 16.4712 3.5994 16.4276C3.64425 16.3852 3.70463 16.3614 3.7675 16.3614C3.83038 16.3614 3.89076 16.3852 3.93561 16.4276C4.23096 16.6844 4.55319 16.9107 4.89711 17.1033C4.94245 17.1289 4.97769 17.1684 4.99731 17.2154C5.01692 17.2624 5.01982 17.3144 5.00552 17.3632C4.99123 17.4119 4.96056 17.4547 4.91831 17.4849C4.87606 17.5151 4.82463 17.5309 4.77205 17.5299L4.7741 17.5457ZM17.4313 15.8389C17.3998 15.8365 17.3691 15.8277 17.3411 15.8133C17.2828 15.7905 17.2361 15.7462 17.2115 15.6903C17.1869 15.6344 17.1863 15.5713 17.2099 15.5149C17.2838 15.3454 17.3228 15.1635 17.3248 14.9796V14.3928C17.3248 14.3321 17.3498 14.2738 17.3944 14.2308C17.439 14.1878 17.4995 14.1637 17.5625 14.1637C17.6257 14.1637 17.6861 14.1878 17.7307 14.2308C17.7753 14.2738 17.8004 14.3321 17.8004 14.3928V14.9717C17.7982 15.2145 17.7474 15.4546 17.6507 15.6789C17.6332 15.7213 17.603 15.7576 17.5639 15.7833C17.5249 15.8089 17.4787 15.8228 17.4313 15.8232V15.8389ZM3.02538 15.8133C2.97802 15.8133 2.93172 15.7997 2.89232 15.7744C2.85292 15.7492 2.82218 15.7132 2.80396 15.6711C2.7073 15.4467 2.65648 15.2066 2.65431 14.9638V14.3908C2.65431 14.3301 2.67936 14.2718 2.72396 14.2288C2.76855 14.1858 2.82904 14.1617 2.89212 14.1617C2.95519 14.1617 3.01567 14.1858 3.06027 14.2288C3.10487 14.2718 3.12992 14.3301 3.12992 14.3908V14.9717C3.13207 15.1549 3.17106 15.3361 3.24472 15.5051C3.2581 15.5334 3.26537 15.5639 3.26607 15.5951C3.26678 15.6262 3.26091 15.6571 3.24883 15.6858C3.23674 15.7147 3.21869 15.7408 3.19579 15.7627C3.17288 15.7847 3.14559 15.8018 3.11557 15.8133C3.08569 15.8178 3.05525 15.8178 3.02538 15.8133ZM17.5625 13.4032C17.4995 13.4032 17.439 13.3789 17.3944 13.3361C17.3498 13.2931 17.3248 13.2347 17.3248 13.1739V11.9551C17.3248 11.8943 17.3498 11.836 17.3944 11.793C17.439 11.7501 17.4995 11.7259 17.5625 11.7259C17.6257 11.7259 17.6861 11.7501 17.7307 11.793C17.7753 11.836 17.8004 11.8943 17.8004 11.9551V13.1739C17.8004 13.2347 17.7753 13.2931 17.7307 13.3361C17.6861 13.3789 17.6257 13.4032 17.5625 13.4032ZM2.89212 13.4032C2.82904 13.4032 2.76855 13.3789 2.72396 13.3361C2.67936 13.2931 2.65431 13.2347 2.65431 13.1739V11.9531C2.65431 11.8923 2.67936 11.834 2.72396 11.7911C2.76855 11.7481 2.82904 11.7239 2.89212 11.7239C2.95519 11.7239 3.01567 11.7481 3.06027 11.7911C3.10487 11.834 3.12992 11.8923 3.12992 11.9531V13.1719C3.12992 13.2327 3.10487 13.2911 3.06027 13.3341C3.01567 13.3771 2.95519 13.4012 2.89212 13.4012V13.4032ZM17.5625 10.9654C17.4995 10.9654 17.439 10.9412 17.3944 10.8982C17.3498 10.8553 17.3248 10.797 17.3248 10.7362V9.51532C17.3248 9.45454 17.3498 9.39626 17.3944 9.35329C17.439 9.31031 17.4995 9.28616 17.5625 9.28616C17.6257 9.28616 17.6861 9.31031 17.7307 9.35329C17.7753 9.39626 17.8004 9.45454 17.8004 9.51532V10.7362C17.8004 10.797 17.7753 10.8553 17.7307 10.8982C17.6861 10.9412 17.6257 10.9654 17.5625 10.9654ZM2.89212 10.9654C2.82904 10.9654 2.76855 10.9412 2.72396 10.8982C2.67936 10.8553 2.65431 10.797 2.65431 10.7362V9.51532C2.65431 9.45454 2.67936 9.39626 2.72396 9.35329C2.76855 9.31031 2.82904 9.28616 2.89212 9.28616C2.95519 9.28616 3.01567 9.31031 3.06027 9.35329C3.10487 9.39626 3.12992 9.45454 3.12992 9.51532V10.7342C3.12992 10.795 3.10487 10.8533 3.06027 10.8963C3.01567 10.9392 2.95519 10.9634 2.89212 10.9634V10.9654ZM17.5625 8.5256C17.5013 8.52565 17.4423 8.50286 17.3979 8.462C17.3536 8.42114 17.3274 8.36536 17.3248 8.30631V7.07754C17.3248 7.01676 17.3498 6.95848 17.3944 6.91551C17.439 6.87253 17.4995 6.84839 17.5625 6.84839C17.6257 6.84839 17.6861 6.87253 17.7307 6.91551C17.7753 6.95848 17.8004 7.01676 17.8004 7.07754V8.30631C17.7978 8.36536 17.7715 8.42114 17.7272 8.462C17.6829 8.50286 17.6239 8.52565 17.5625 8.5256ZM2.89212 8.5256C2.83078 8.52565 2.77179 8.50286 2.72748 8.462C2.68316 8.42114 2.65694 8.36536 2.65431 8.30631V7.07754C2.65431 7.01676 2.67936 6.95848 2.72396 6.91551C2.76855 6.87253 2.82904 6.84839 2.89212 6.84839C2.95519 6.84839 3.01567 6.87253 3.06027 6.91551C3.10487 6.95848 3.12992 7.01676 3.12992 7.07754V8.30631C3.12728 8.36536 3.10106 8.42114 3.05675 8.462C3.01243 8.50286 2.95344 8.52565 2.89212 8.5256ZM17.5625 6.08781C17.4995 6.08781 17.439 6.06367 17.3944 6.0207C17.3498 5.97772 17.3248 5.91943 17.3248 5.85865V4.63976C17.3248 4.57899 17.3498 4.5207 17.3944 4.47772C17.439 4.43475 17.4995 4.41061 17.5625 4.41061C17.6257 4.41061 17.6861 4.43475 17.7307 4.47772C17.7753 4.5207 17.8004 4.57899 17.8004 4.63976V5.85865C17.8004 5.91943 17.7753 5.97772 17.7307 6.0207C17.6861 6.06367 17.6257 6.08781 17.5625 6.08781ZM2.89212 6.08781C2.86071 6.08782 2.82962 6.08182 2.80063 6.07019C2.77165 6.05854 2.74534 6.04149 2.72323 6.02C2.70111 5.99851 2.68364 5.97301 2.67182 5.94497C2.65998 5.91695 2.65404 5.88694 2.65431 5.85668V4.63779C2.65431 4.57701 2.67936 4.51872 2.72396 4.47575C2.76855 4.43277 2.82904 4.40863 2.89212 4.40863C2.95519 4.40863 3.01567 4.43277 3.06027 4.47575C3.10487 4.51872 3.12992 4.57701 3.12992 4.63779V5.85668C3.1302 5.88694 3.12424 5.91695 3.11242 5.94497C3.10058 5.97301 3.08311 5.99851 3.06101 6.02C3.03889 6.04149 3.01258 6.05854 2.9836 6.07019C2.95461 6.08182 2.92351 6.08782 2.89212 6.08781Z" fill="#F7CE37"/>
<path d="M16.0249 3.6164H14.7538C14.6908 3.6164 14.6303 3.59226 14.5857 3.54928C14.5411 3.5063 14.5161 3.44801 14.5161 3.38724C14.5161 3.32646 14.5411 3.26818 14.5857 3.2252C14.6303 3.18223 14.6908 3.15808 14.7538 3.15808H16.0249C16.0879 3.15808 16.1485 3.18223 16.1931 3.2252C16.2377 3.26818 16.2627 3.32646 16.2627 3.38724C16.2627 3.44801 16.2377 3.5063 16.1931 3.54928C16.1485 3.59226 16.0879 3.6164 16.0249 3.6164ZM13.4848 3.6164H12.2158C12.1528 3.6164 12.0923 3.59226 12.0477 3.54928C12.0031 3.5063 11.978 3.44801 11.978 3.38724C11.978 3.32646 12.0031 3.26818 12.0477 3.2252C12.0923 3.18223 12.1528 3.15808 12.2158 3.15808H13.4848C13.5478 3.15808 13.6084 3.18223 13.653 3.2252C13.6976 3.26818 13.7226 3.32646 13.7226 3.38724C13.7226 3.44801 13.6976 3.5063 13.653 3.54928C13.6084 3.59226 13.5478 3.6164 13.4848 3.6164ZM10.9468 3.6164H9.67576C9.61269 3.6164 9.55219 3.59226 9.5076 3.54928C9.46301 3.5063 9.43795 3.44801 9.43795 3.38724C9.43795 3.32646 9.46301 3.26818 9.5076 3.2252C9.55219 3.18223 9.61269 3.15808 9.67576 3.15808H10.9468C11.0099 3.15808 11.0704 3.18223 11.115 3.2252C11.1596 3.26818 11.1846 3.32646 11.1846 3.38724C11.1846 3.44801 11.1596 3.5063 11.115 3.54928C11.0704 3.59226 11.0099 3.6164 10.9468 3.6164ZM8.40675 3.6164H7.13774C7.07467 3.6164 7.01419 3.59226 6.96959 3.54928C6.92499 3.5063 6.89993 3.44801 6.89993 3.38724C6.89993 3.32646 6.92499 3.26818 6.96959 3.2252C7.01419 3.18223 7.07467 3.15808 7.13774 3.15808H8.40675C8.46982 3.15808 8.53031 3.18223 8.57491 3.2252C8.61951 3.26818 8.64456 3.32646 8.64456 3.38724C8.64456 3.44801 8.61951 3.5063 8.57491 3.54928C8.53031 3.59226 8.46982 3.6164 8.40675 3.6164ZM5.86873 3.6164H4.59768C4.53461 3.6164 4.47412 3.59226 4.42953 3.54928C4.38492 3.5063 4.35986 3.44801 4.35986 3.38724C4.35986 3.32646 4.38492 3.26818 4.42953 3.2252C4.47412 3.18223 4.53461 3.15808 4.59768 3.15808H5.86873C5.93181 3.15808 5.9923 3.18223 6.03689 3.2252C6.08149 3.26818 6.10654 3.32646 6.10654 3.38724C6.10654 3.44801 6.08149 3.5063 6.03689 3.54928C5.9923 3.59226 5.93181 3.6164 5.86873 3.6164Z" fill="#F7CE37"/>
<path d="M14.356 8.27963C14.0685 6.0265 11.6966 5.75382 9.91444 7.68857C8.0145 5.62598 5.44385 6.0722 5.44385 8.75256C5.44385 11.4329 9.91444 15.2859 9.91444 15.2859C9.91444 15.2859 14.385 11.4329 14.385 8.75256C14.385 8.57665 14.3749 8.42015 14.356 8.27963Z" fill="#F7CE37"/>
</g>
<defs>
<clipPath id="clip0">
<rect width="19" height="20" fill="transparent" transform="translate(0.973145 0.973145)"/>
</clipPath>
</defs>
</svg>
