<svg xmlns="http://www.w3.org/2000/svg" xmlns:xlink="http://www.w3.org/1999/xlink" height="23.995550980707776" width="28"> <g opacity="1"> <path fill-opacity="0" stroke="rgb(21,126,251)" stroke-opacity="1" stroke-width="2" stroke-linecap="round" stroke-linejoin="round" opacity="1" fill-rule="evenodd" d="M10.555366928580822 7.400526475592613C11.622758571012342 6.497458806482813 11.622758571012342 5.033460023198787 10.555366928580822 4.130392354088988L7.655441657320589 1.677300751832528C6.588514300074989 0.7742330827227288 4.8576591269628935 0.7742330827227288 3.7893389141595315 1.677300751832528L2.1996264375673062 3.022278437360983C0.820235150197125 4.189706498514992 0.6066639646736365 6.010768575066446 1.6824127404517282 7.387563781777861C6.302514625547883 13.296980925789368 12.465436183458278 18.510733501730666 19.450142520448182 22.4191820913956C21.074212100798537 23.328141894057435 23.23313821532945 23.147056989550915 24.608815221212268 21.981592972914722L26.199456268176334 20.63622247848199C27.26684791060785 19.733154809372905 27.26684791060785 18.269156026088165 26.199456268176334 17.365302739171952L23.299995282102017 14.912996754721904C22.233067924856417 14.009929085612105 20.5017484665584 14.009929085612105 19.43389253894096 14.912996754721904L18.467715067040135 15.730432082871918C15.288290113855687 13.525988516519972 12.193829349694713 10.908309983703816 9.589189456679998 8.217961803742627L10.555366928580822 7.400526475592613Z"/> </g> </svg>
