<svg width="262" height="46" viewBox="0 0 262 46" fill="none" xmlns="http://www.w3.org/2000/svg">
<path d="M90.52 8.45697H75.1801C75.0401 8.45697 74.9 8.484 74.77 8.539C74.64 8.593 74.52 8.67301 74.42 8.77301L68.41 14.782C68.31 14.881 68.23 15.001 68.17 15.131C68.12 15.262 68.09 15.402 68.09 15.544V35.512C68.09 36.026 68.3 36.518 68.66 36.882C69.02 37.245 69.52 37.449 70.03 37.451H90.52C91.04 37.449 91.53 37.245 91.89 36.882C92.26 36.518 92.46 36.026 92.46 35.512V10.395C92.46 9.88202 92.26 9.389 91.89 9.026C91.53 8.662 91.04 8.45797 90.52 8.45697ZM90.3 28.659V35.296H70.25V16.621H74.3199C74.8299 16.621 75.3199 16.416 75.6899 16.052C76.0499 15.69 76.26 15.197 76.26 14.683V10.612H90.3V28.659Z" fill="#D52C2C"/>
<path d="M80.47 32.213H74.04C73.91 32.213 73.7799 32.267 73.6899 32.36C73.5899 32.455 73.54 32.584 73.54 32.718C73.54 32.852 73.5899 32.979 73.6899 33.074C73.7799 33.169 73.91 33.222 74.04 33.222H80.47C80.6 33.222 80.7299 33.169 80.8199 33.074C80.9199 32.979 80.97 32.852 80.97 32.718C80.97 32.584 80.9199 32.455 80.8199 32.36C80.7299 32.267 80.6 32.213 80.47 32.213Z" fill="#D52C2C"/>
<path d="M73.54 30.017C73.54 30.151 73.5899 30.279 73.6899 30.374C73.7799 30.467 73.91 30.521 74.04 30.522H86.51C86.64 30.522 86.77 30.469 86.87 30.374C86.96 30.279 87.01 30.151 87.01 30.017C87.01 29.883 86.96 29.755 86.87 29.661C86.77 29.566 86.64 29.513 86.51 29.513H74.04C73.98 29.513 73.91 29.526 73.85 29.551C73.79 29.577 73.7299 29.613 73.6899 29.66C73.6399 29.707 73.6 29.763 73.58 29.824C73.55 29.885 73.54 29.951 73.54 30.017Z" fill="#D52C2C"/>
<path d="M75.91 20.577L76.15 21.816C76.22 22.175 76.4199 22.497 76.6999 22.73C76.9799 22.963 77.3299 23.09 77.6999 23.09C78.0699 23.09 78.4199 22.963 78.6999 22.73C78.9799 22.497 79.18 22.175 79.25 21.816L79.49 20.577C79.52 20.343 79.5 20.104 79.43 19.877C79.36 19.65 79.2499 19.441 79.0899 19.263C78.9399 19.084 78.74 18.941 78.53 18.844C78.31 18.745 78.0799 18.694 77.8399 18.694H77.56C77.32 18.694 77.09 18.745 76.87 18.844C76.66 18.941 76.46 19.084 76.31 19.263C76.15 19.441 76.0399 19.65 75.9699 19.877C75.8999 20.104 75.88 20.343 75.91 20.577Z" fill="#D52C2C"/>
<path d="M77.7 25.181L76.09 23.57L74.41 24.167C74.34 24.193 74.27 24.239 74.22 24.299C74.16 24.359 74.13 24.432 74.11 24.51L73.54 27.208H81.86L81.29 24.51C81.27 24.432 81.2401 24.359 81.1801 24.299C81.1301 24.239 81.06 24.193 80.99 24.167L79.3101 23.57L77.7 25.181Z" fill="#D52C2C"/>
<path d="M107.32 21.328C107.94 21.328 108.49 21.254 108.96 21.106C109.43 20.95 109.82 20.736 110.13 20.463C110.44 20.189 110.67 19.866 110.83 19.491C110.99 19.109 111.07 18.688 111.07 18.227C111.07 17.307 110.76 16.605 110.15 16.121C109.54 15.638 108.62 15.396 107.39 15.396H105.17V21.328H107.32ZM115.25 30.105H112.81C112.32 30.105 111.97 29.917 111.76 29.543L107.82 23.868C107.69 23.673 107.55 23.532 107.39 23.446C107.23 23.361 107 23.318 106.69 23.318H105.17V30.105H102.43V13.254H107.39C108.5 13.254 109.45 13.367 110.25 13.594C111.05 13.82 111.71 14.144 112.22 14.565C112.74 14.978 113.12 15.478 113.36 16.063C113.61 16.648 113.73 17.299 113.73 18.017C113.73 18.602 113.64 19.148 113.46 19.655C113.29 20.162 113.04 20.622 112.7 21.036C112.38 21.449 111.97 21.808 111.49 22.112C111 22.417 110.45 22.655 109.84 22.826C110.17 23.029 110.46 23.314 110.7 23.68L115.25 30.105ZM127.8 27.893L127.79 30.105H117.29V13.254H127.79V15.466H120.03V20.544H126.24V22.686H120.03V27.893H127.8ZM139.58 16.133C139.49 16.273 139.4 16.379 139.31 16.449C139.22 16.511 139.1 16.542 138.96 16.542C138.81 16.542 138.64 16.48 138.46 16.355C138.28 16.23 138.05 16.094 137.78 15.946C137.51 15.79 137.2 15.649 136.83 15.524C136.46 15.392 136.03 15.326 135.52 15.326C135.05 15.326 134.64 15.384 134.28 15.501C133.93 15.618 133.63 15.782 133.39 15.993C133.15 16.203 132.97 16.453 132.84 16.741C132.72 17.022 132.66 17.33 132.66 17.666C132.66 18.095 132.78 18.454 133 18.742C133.23 19.023 133.53 19.265 133.89 19.468C134.27 19.671 134.69 19.85 135.17 20.006C135.64 20.154 136.13 20.314 136.62 20.486C137.12 20.658 137.61 20.853 138.08 21.071C138.56 21.289 138.98 21.566 139.35 21.902C139.72 22.237 140.02 22.647 140.25 23.13C140.47 23.614 140.59 24.203 140.59 24.897C140.59 25.646 140.46 26.348 140.2 27.004C139.94 27.659 139.57 28.232 139.08 28.724C138.59 29.207 137.99 29.59 137.28 29.871C136.57 30.151 135.75 30.292 134.84 30.292C134.3 30.292 133.78 30.237 133.26 30.128C132.75 30.027 132.27 29.882 131.8 29.695C131.34 29.5 130.91 29.266 130.5 28.993C130.09 28.72 129.73 28.416 129.41 28.08L130.21 26.77C130.28 26.66 130.37 26.575 130.48 26.512C130.59 26.45 130.71 26.419 130.84 26.419C131.02 26.419 131.22 26.504 131.44 26.676C131.65 26.84 131.92 27.023 132.22 27.226C132.53 27.421 132.91 27.604 133.34 27.776C133.78 27.94 134.3 28.022 134.91 28.022C135.9 28.022 136.67 27.78 137.2 27.296C137.75 26.813 138.02 26.146 138.02 25.295C138.02 24.819 137.91 24.433 137.68 24.137C137.46 23.833 137.16 23.579 136.78 23.376C136.42 23.173 136 23.002 135.52 22.861C135.04 22.721 134.56 22.573 134.07 22.417C133.58 22.253 133.09 22.066 132.62 21.855C132.14 21.637 131.72 21.356 131.34 21.012C130.98 20.661 130.68 20.232 130.45 19.725C130.23 19.21 130.11 18.571 130.11 17.806C130.11 17.198 130.23 16.609 130.46 16.039C130.71 15.47 131.05 14.967 131.51 14.53C131.97 14.085 132.53 13.73 133.2 13.465C133.87 13.2 134.64 13.067 135.5 13.067C136.46 13.067 137.35 13.219 138.15 13.524C138.96 13.828 139.66 14.261 140.25 14.822L139.58 16.133ZM150.19 27.893C150.84 27.893 151.42 27.784 151.92 27.565C152.44 27.347 152.87 27.043 153.22 26.653C153.58 26.263 153.85 25.795 154.04 25.248C154.23 24.695 154.32 24.082 154.32 23.411V13.254H157.05V23.411C157.05 24.402 156.89 25.319 156.57 26.161C156.26 27.004 155.8 27.733 155.21 28.349C154.62 28.958 153.9 29.438 153.05 29.789C152.2 30.132 151.25 30.303 150.19 30.303C149.13 30.303 148.17 30.132 147.32 29.789C146.48 29.438 145.76 28.958 145.17 28.349C144.58 27.733 144.12 27.004 143.8 26.161C143.49 25.319 143.33 24.402 143.33 23.411V13.254H146.07V23.4C146.07 24.07 146.17 24.683 146.35 25.237C146.54 25.783 146.81 26.255 147.16 26.653C147.51 27.043 147.94 27.347 148.45 27.565C148.96 27.784 149.54 27.893 150.19 27.893ZM178.77 13.254V30.105H176.36V18.555C176.36 18.368 176.37 18.165 176.37 17.947C176.39 17.72 176.41 17.494 176.43 17.268L171.01 27.273C170.8 27.686 170.48 27.893 170.04 27.893H169.66C169.21 27.893 168.89 27.686 168.69 27.273L163.19 17.245C163.21 17.471 163.23 17.697 163.23 17.923C163.25 18.15 163.26 18.36 163.26 18.555V30.105H160.85V13.254H162.89C163.14 13.254 163.32 13.278 163.46 13.325C163.59 13.364 163.71 13.492 163.82 13.711L169.22 23.505C169.34 23.731 169.45 23.965 169.55 24.207C169.66 24.441 169.76 24.683 169.84 24.932C169.94 24.683 170.04 24.437 170.14 24.195C170.25 23.946 170.36 23.708 170.48 23.482L175.8 13.711C175.91 13.492 176.03 13.364 176.16 13.325C176.3 13.278 176.48 13.254 176.72 13.254H178.77ZM193.28 27.893L193.27 30.105H182.76V13.254H193.27V15.466H185.51V20.544H191.71V22.686H185.51V27.893H193.28Z" fill="#D52C2C"/>
<path d="M253.85 1.50098H8.12C4.53 1.50098 1.62 4.41101 1.62 8.00201V37.905C1.62 41.496 4.53 44.406 8.12 44.406H253.85C257.44 44.406 260.35 41.496 260.35 37.905V8.00201C260.35 4.41101 257.44 1.50098 253.85 1.50098Z" stroke="#C74D3C" stroke-width="2"/>
</svg>
