<svg width="30" height="33" viewBox="0 0 30 33" fill="none" xmlns="http://www.w3.org/2000/svg">
    <path d="M16.5699 31.409H12.79C8.33004 31.409 1.06006 28.173 1.06006 23.313V1.67999H28.1899V23.313C28.1899 28.173 21.0299 31.409 16.5699 31.409Z" fill="white"/>
    <path d="M16.85 32.147H13.0699C8.10995 32.147 0.609985 28.614 0.609985 23.313V0.942993H29.21V23.313C29.21 28.614 21.77 32.147 16.85 32.147ZM2.07996 2.41998V23.313C2.07996 27.513 8.72995 30.67 13.0699 30.67H16.85C21.13 30.67 27.74 27.513 27.74 23.313V2.41998H2.07996Z" fill="#D52C2C"/>
    <path d="M26.25 5.24597C26.15 5.24597 26.05 5.207 25.99 5.138C25.92 5.069 25.88 4.97599 25.88 4.87799V3.89398C25.88 3.79498 25.92 3.701 25.99 3.633C26.05 3.564 26.15 3.52502 26.25 3.52502C26.34 3.52502 26.44 3.564 26.51 3.633C26.57 3.701 26.61 3.79498 26.61 3.89398V4.87799C26.61 4.97599 26.57 5.069 26.51 5.138C26.44 5.207 26.34 5.24597 26.25 5.24597Z" fill="#D52C2C"/>
    <path d="M16.89 29.567H15.89C15.85 29.567 15.8 29.558 15.75 29.54C15.71 29.522 15.67 29.494 15.63 29.459C15.6 29.425 15.5701 29.385 15.5501 29.34C15.5401 29.295 15.53 29.247 15.53 29.199C15.53 29.151 15.5401 29.103 15.5501 29.058C15.5701 29.013 15.6 28.973 15.63 28.939C15.67 28.904 15.71 28.877 15.75 28.859C15.8 28.84 15.85 28.831 15.89 28.831H16.89C17.19 28.83 17.5001 28.811 17.8001 28.774C17.8501 28.768 17.9 28.772 17.95 28.785C17.99 28.799 18.04 28.821 18.08 28.851C18.11 28.881 18.1501 28.918 18.1701 28.96C18.1901 29.003 18.21 29.05 18.21 29.098C18.22 29.146 18.22 29.194 18.2 29.241C18.19 29.288 18.17 29.332 18.14 29.37C18.11 29.407 18.07 29.44 18.03 29.463C17.98 29.487 17.94 29.502 17.89 29.507C17.56 29.546 17.22 29.567 16.89 29.567ZM13.94 29.567H13.03C12.67 29.567 12.3 29.544 11.94 29.498C11.89 29.494 11.8401 29.48 11.8001 29.458C11.7501 29.435 11.7101 29.403 11.6801 29.364C11.6501 29.327 11.63 29.281 11.61 29.233C11.6 29.185 11.6 29.136 11.6 29.086C11.61 29.035 11.62 28.989 11.65 28.944C11.67 28.902 11.71 28.864 11.75 28.834C11.79 28.804 11.83 28.783 11.88 28.771C11.93 28.76 11.98 28.759 12.03 28.768C12.36 28.808 12.7 28.829 13.03 28.831H13.94C13.99 28.831 14.04 28.84 14.08 28.859C14.12 28.877 14.17 28.904 14.2 28.939C14.23 28.973 14.26 29.013 14.28 29.058C14.3 29.103 14.3101 29.151 14.3101 29.199C14.3101 29.247 14.3 29.295 14.28 29.34C14.26 29.385 14.23 29.425 14.2 29.459C14.17 29.494 14.12 29.522 14.08 29.54C14.04 29.558 13.99 29.567 13.94 29.567ZM19.76 29.123C19.68 29.123 19.6001 29.097 19.5401 29.047C19.4801 28.999 19.43 28.93 19.41 28.853C19.38 28.758 19.39 28.658 19.44 28.574C19.49 28.488 19.57 28.426 19.66 28.398C20.27 28.225 20.88 28.012 21.46 27.764C21.55 27.725 21.65 27.725 21.74 27.76C21.83 27.796 21.9 27.868 21.94 27.958C21.98 28.047 21.98 28.149 21.95 28.24C21.91 28.331 21.84 28.404 21.75 28.444C21.13 28.706 20.5 28.93 19.85 29.111C19.82 29.117 19.79 29.121 19.76 29.123ZM10.07 29.123C10.04 29.128 9.99998 29.128 9.96998 29.123C9.31998 28.943 8.68996 28.721 8.06996 28.456C8.01996 28.437 7.97996 28.41 7.94996 28.375C7.91996 28.341 7.89001 28.3 7.87001 28.255C7.85001 28.211 7.83998 28.163 7.83998 28.114C7.83998 28.066 7.85001 28.017 7.87001 27.973C7.91001 27.883 7.97996 27.812 8.06996 27.776C8.15996 27.739 8.27 27.739 8.36 27.776C8.94 28.027 9.54005 28.238 10.16 28.411C10.24 28.435 10.32 28.489 10.37 28.564C10.42 28.638 10.4401 28.729 10.4301 28.817C10.4101 28.905 10.3701 28.987 10.3001 29.046C10.2301 29.104 10.1501 29.137 10.0601 29.136L10.07 29.123ZM23.35 27.588C23.28 27.59 23.22 27.574 23.16 27.544C23.11 27.513 23.06 27.469 23.03 27.414C22.98 27.33 22.96 27.23 22.99 27.135C23.01 27.04 23.07 26.958 23.15 26.906C23.69 26.577 24.19 26.192 24.65 25.756C24.72 25.689 24.82 25.651 24.91 25.654C25.01 25.655 25.1101 25.697 25.1701 25.767C25.2401 25.838 25.28 25.933 25.28 26.031C25.27 26.128 25.23 26.222 25.16 26.289C24.67 26.754 24.1201 27.166 23.5401 27.516C23.4801 27.553 23.41 27.573 23.35 27.573V27.588ZM6.47999 27.588C6.40999 27.588 6.35005 27.569 6.29005 27.535C5.71005 27.185 5.16006 26.777 4.67006 26.316C4.60006 26.245 4.56007 26.15 4.56007 26.053C4.56007 25.955 4.60006 25.86 4.67006 25.792C4.74006 25.723 4.83007 25.685 4.93007 25.685C5.02007 25.685 5.11995 25.723 5.18995 25.792C5.63995 26.204 6.14006 26.568 6.67006 26.877C6.74006 26.919 6.79997 26.982 6.82997 27.058C6.85997 27.133 6.85998 27.217 6.83998 27.295C6.81998 27.374 6.76996 27.443 6.69996 27.491C6.63996 27.539 6.55999 27.565 6.47999 27.564V27.588ZM26.0401 24.845C25.9901 24.841 25.95 24.827 25.9 24.803C25.81 24.767 25.74 24.696 25.7 24.606C25.66 24.516 25.66 24.415 25.7 24.324C25.81 24.051 25.87 23.758 25.88 23.463V22.519C25.88 22.421 25.92 22.328 25.99 22.259C26.05 22.19 26.15 22.151 26.25 22.151C26.34 22.151 26.44 22.19 26.51 22.259C26.57 22.328 26.61 22.421 26.61 22.519V23.45C26.61 23.84 26.53 24.226 26.38 24.588C26.35 24.655 26.31 24.714 26.25 24.755C26.19 24.797 26.1201 24.819 26.0401 24.819V24.845ZM3.78004 24.803C3.71004 24.803 3.62996 24.781 3.56996 24.741C3.50996 24.701 3.45995 24.642 3.43995 24.575C3.28995 24.214 3.20997 23.828 3.20997 23.437V22.516C3.20997 22.419 3.24007 22.325 3.31007 22.255C3.38007 22.186 3.47996 22.147 3.56996 22.147C3.66996 22.147 3.75997 22.186 3.82997 22.255C3.89997 22.325 3.93995 22.419 3.93995 22.516V23.45C3.93995 23.745 4.00001 24.036 4.12001 24.308C4.14001 24.354 4.15004 24.403 4.15004 24.452C4.15004 24.502 4.14001 24.552 4.12001 24.598C4.11001 24.645 4.08005 24.686 4.04005 24.721C4.01005 24.757 3.96006 24.785 3.92006 24.803C3.87006 24.81 3.82004 24.81 3.78004 24.803ZM26.25 20.928C26.15 20.928 26.05 20.89 25.99 20.82C25.92 20.751 25.88 20.657 25.88 20.56V18.6C25.88 18.503 25.92 18.408 25.99 18.339C26.05 18.27 26.15 18.231 26.25 18.231C26.34 18.231 26.44 18.27 26.51 18.339C26.57 18.408 26.61 18.503 26.61 18.6V20.56C26.61 20.657 26.57 20.751 26.51 20.82C26.44 20.89 26.34 20.928 26.25 20.928ZM3.56996 20.928C3.47996 20.928 3.38007 20.89 3.31007 20.82C3.24007 20.751 3.20997 20.657 3.20997 20.56V18.596C3.20997 18.499 3.24007 18.405 3.31007 18.336C3.38007 18.267 3.47996 18.228 3.56996 18.228C3.66996 18.228 3.75997 18.267 3.82997 18.336C3.89997 18.405 3.93995 18.499 3.93995 18.596V20.557C3.93995 20.655 3.89997 20.748 3.82997 20.817C3.75997 20.886 3.66996 20.925 3.56996 20.925V20.928ZM26.25 17.009C26.15 17.009 26.05 16.97 25.99 16.901C25.92 16.832 25.88 16.737 25.88 16.64V14.678C25.88 14.579 25.92 14.485 25.99 14.416C26.05 14.347 26.15 14.308 26.25 14.308C26.34 14.308 26.44 14.347 26.51 14.416C26.57 14.485 26.61 14.579 26.61 14.678V16.64C26.61 16.737 26.57 16.832 26.51 16.901C26.44 16.97 26.34 17.009 26.25 17.009ZM3.56996 17.009C3.47996 17.009 3.38007 16.97 3.31007 16.901C3.24007 16.832 3.20997 16.737 3.20997 16.64V14.678C3.20997 14.579 3.24007 14.485 3.31007 14.416C3.38007 14.347 3.47996 14.308 3.56996 14.308C3.66996 14.308 3.75997 14.347 3.82997 14.416C3.89997 14.485 3.93995 14.579 3.93995 14.678V16.637C3.93995 16.735 3.89997 16.828 3.82997 16.897C3.75997 16.966 3.66996 17.005 3.56996 17.005V17.009ZM26.25 13.086C26.15 13.086 26.06 13.05 25.99 12.984C25.92 12.917 25.88 12.828 25.88 12.733V10.758C25.88 10.66 25.92 10.567 25.99 10.498C26.05 10.427 26.15 10.39 26.25 10.39C26.34 10.39 26.44 10.427 26.51 10.498C26.57 10.567 26.61 10.66 26.61 10.758V12.733C26.61 12.828 26.57 12.917 26.5 12.984C26.43 13.05 26.34 13.086 26.25 13.086ZM3.56996 13.086C3.47996 13.086 3.38996 13.05 3.31996 12.984C3.24996 12.917 3.20997 12.828 3.20997 12.733V10.758C3.20997 10.66 3.24007 10.567 3.31007 10.498C3.38007 10.427 3.47996 10.39 3.56996 10.39C3.66996 10.39 3.75997 10.427 3.82997 10.498C3.89997 10.567 3.93995 10.66 3.93995 10.758V12.733C3.93995 12.828 3.89997 12.917 3.82997 12.984C3.75997 13.05 3.66996 13.086 3.56996 13.086ZM26.25 9.16602C26.15 9.16602 26.05 9.12698 25.99 9.05798C25.92 8.98898 25.88 8.89597 25.88 8.79797V6.83801C25.88 6.74001 25.92 6.647 25.99 6.578C26.05 6.509 26.15 6.46997 26.25 6.46997C26.34 6.46997 26.44 6.509 26.51 6.578C26.57 6.647 26.61 6.74001 26.61 6.83801V8.79797C26.61 8.89597 26.57 8.98898 26.51 9.05798C26.44 9.12698 26.34 9.16602 26.25 9.16602ZM3.56996 9.16602C3.51996 9.16602 3.48007 9.157 3.43007 9.138C3.39007 9.119 3.35007 9.09201 3.31007 9.05701C3.28007 9.02301 3.24999 8.98197 3.22999 8.93597C3.20999 8.89197 3.19997 8.84401 3.20997 8.79401V6.83502C3.20997 6.73802 3.24007 6.64397 3.31007 6.57397C3.38007 6.50497 3.47996 6.466 3.56996 6.466C3.66996 6.466 3.75997 6.50497 3.82997 6.57397C3.89997 6.64397 3.93995 6.73802 3.93995 6.83502V8.79401C3.93995 8.84401 3.93005 8.89197 3.91005 8.93597C3.89005 8.98197 3.86997 9.02301 3.82997 9.05701C3.79997 9.09201 3.75997 9.119 3.70997 9.138C3.66997 9.157 3.61996 9.16602 3.56996 9.16602Z" fill="#D52C2C"/>
    <path d="M3.56995 5.24597C3.47995 5.24597 3.38006 5.207 3.31006 5.138C3.24006 5.069 3.20996 4.97599 3.20996 4.87799V3.89398C3.20996 3.79498 3.24006 3.701 3.31006 3.633C3.38006 3.564 3.47995 3.52502 3.56995 3.52502C3.66995 3.52502 3.75996 3.564 3.82996 3.633C3.89996 3.701 3.93994 3.79498 3.93994 3.89398V4.87799C3.93994 4.97599 3.89996 5.069 3.82996 5.138C3.75996 5.207 3.66995 5.24597 3.56995 5.24597Z" fill="#D52C2C"/>
    <path d="M23.87 5.19299H21.9C21.81 5.19299 21.71 5.15402 21.64 5.08502C21.58 5.01602 21.54 4.92097 21.54 4.82397C21.54 4.72597 21.58 4.63203 21.64 4.56403C21.71 4.49503 21.81 4.45599 21.9 4.45599H23.87C23.97 4.45599 24.06 4.49503 24.13 4.56403C24.2 4.63203 24.24 4.72597 24.24 4.82397C24.24 4.92097 24.2 5.01602 24.13 5.08502C24.06 5.15402 23.97 5.19299 23.87 5.19299ZM19.9399 5.19299H17.98C17.88 5.19299 17.79 5.15402 17.72 5.08502C17.65 5.01602 17.61 4.92097 17.61 4.82397C17.61 4.72597 17.65 4.63203 17.72 4.56403C17.79 4.49503 17.88 4.45599 17.98 4.45599H19.9399C20.0399 4.45599 20.13 4.49503 20.2 4.56403C20.27 4.63203 20.3101 4.72597 20.3101 4.82397C20.3101 4.92097 20.27 5.01602 20.2 5.08502C20.13 5.15402 20.0399 5.19299 19.9399 5.19299ZM16.02 5.19299H14.0601C13.9601 5.19299 13.87 5.15402 13.8 5.08502C13.73 5.01602 13.6899 4.92097 13.6899 4.82397C13.6899 4.72597 13.73 4.63203 13.8 4.56403C13.87 4.49503 13.9601 4.45599 14.0601 4.45599H16.02C16.12 4.45599 16.21 4.49503 16.28 4.56403C16.35 4.63203 16.39 4.72597 16.39 4.82397C16.39 4.92097 16.35 5.01602 16.28 5.08502C16.21 5.15402 16.12 5.19299 16.02 5.19299ZM12.1 5.19299H10.13C10.04 5.19299 9.94 5.15402 9.87 5.08502C9.81 5.01602 9.77002 4.92097 9.77002 4.82397C9.77002 4.72597 9.81 4.63203 9.87 4.56403C9.94 4.49503 10.04 4.45599 10.13 4.45599H12.1C12.19 4.45599 12.29 4.49503 12.36 4.56403C12.42 4.63203 12.46 4.72597 12.46 4.82397C12.46 4.92097 12.42 5.01602 12.36 5.08502C12.29 5.15402 12.19 5.19299 12.1 5.19299ZM8.17004 5.19299H6.20996C6.10996 5.19299 6.01995 5.15402 5.94995 5.08502C5.87995 5.01602 5.83997 4.92097 5.83997 4.82397C5.83997 4.72597 5.87995 4.63203 5.94995 4.56403C6.01995 4.49503 6.10996 4.45599 6.20996 4.45599H8.17004C8.27004 4.45599 8.36005 4.49503 8.43005 4.56403C8.50005 4.63203 8.54004 4.72597 8.54004 4.82397C8.54004 4.92097 8.50005 5.01602 8.43005 5.08502C8.36005 5.15402 8.27004 5.19299 8.17004 5.19299Z" fill="#D52C2C"/>
</svg>
