<svg width="26" height="33" viewBox="0 0 26 33" fill="none" xmlns="http://www.w3.org/2000/svg">
    <path d="M25.6 32.853H0.910034V0.348999H25.6V32.853ZM2.39001 31.332H24.12V1.87H2.39001V31.332Z" fill="#D52C2C"/>
    <path d="M24.5601 23.167L17.6801 16.121L12.55 22.09L11.4301 21.082L17.61 13.899L25.61 22.093L24.5601 23.167Z" fill="#D52C2C"/>
    <path d="M1.96997 24.578L0.920044 23.5L6.60999 17.682L12.16 22.685L11.1801 23.826L6.67004 19.767L1.96997 24.578Z" fill="#D52C2C"/>
    <path d="M9.39999 14.803C8.62999 14.805 7.87995 14.574 7.23995 14.14C6.59995 13.704 6.10002 13.085 5.81002 12.36C5.51002 11.634 5.42992 10.836 5.57992 10.065C5.72992 9.29399 6.09998 8.58498 6.63998 8.02898C7.17998 7.47398 7.87997 7.09501 8.62997 6.94201C9.37997 6.78901 10.16 6.868 10.87 7.169C11.58 7.471 12.1799 7.981 12.6099 8.635C13.0299 9.29 13.26 10.058 13.26 10.844C13.26 11.893 12.85 12.897 12.12 13.638C11.4 14.38 10.42 14.799 9.39999 14.803ZM9.39999 7.62298C8.77999 7.62198 8.17 7.81002 7.66 8.16302C7.14 8.51502 6.73996 9.01598 6.49996 9.60198C6.25996 10.188 6.19991 10.833 6.31991 11.456C6.43991 12.079 6.74002 12.651 7.18002 13.1C7.62002 13.548 8.17999 13.854 8.77999 13.977C9.38999 14.101 10.0199 14.037 10.5899 13.794C11.1699 13.551 11.66 13.14 12 12.611C12.34 12.083 12.53 11.463 12.53 10.828C12.52 9.98199 12.1899 9.17197 11.5999 8.57397C11.0199 7.97697 10.22 7.64097 9.39999 7.63897V7.62298Z" fill="#D52C2C"/>
</svg>
