<svg id="bf153ace-76b2-4bca-ade4-577b64b7749e" data-name="review" xmlns="http://www.w3.org/2000/svg" viewBox="0 0 99.5 91.95"><defs><style>.abdbc7d0-2f4b-4382-85c7-3846ac10d9f8{fill:#fff;}.b331b768-6051-4bf9-9f3f-c5df3765471a{fill:#25aeb4;}</style></defs><g id="eb737885-520b-41e5-8d2e-f3ec3c2f1585" data-name="review-outline"><path class="abdbc7d0-2f4b-4382-85c7-3846ac10d9f8" d="M97.79,14.72V68.59a8.74,8.74,0,0,1-8.74,8.74H72.63a1.09,1.09,0,0,0-1.09,1.09v15a.55.55,0,0,1-.91.42c-2.93-2.51-12.4-10.6-19.33-16.56H11a8.74,8.74,0,0,1-8.74-8.74V14.72A8.74,8.74,0,0,1,11,6h78.1A8.74,8.74,0,0,1,97.79,14.72Z" transform="translate(-0.25 -4.02)"/><path class="b331b768-6051-4bf9-9f3f-c5df3765471a" d="M71,96a2.54,2.54,0,0,1-1.63-.6L50.57,79.29H11A10.71,10.71,0,0,1,.25,68.59V14.72A10.71,10.71,0,0,1,11,4h78.1a10.71,10.71,0,0,1,10.7,10.7V68.59a10.71,10.71,0,0,1-10.7,10.7H73.5V93.47A2.53,2.53,0,0,1,72,95.75,2.58,2.58,0,0,1,71,96ZM11,7.93a6.8,6.8,0,0,0-6.79,6.79V68.59A6.79,6.79,0,0,0,11,75.37H52l.55.48c5.62,4.82,12.89,11.05,17,14.57v-12a3,3,0,0,1,3-3H89.05a6.79,6.79,0,0,0,6.79-6.78V14.72a6.8,6.8,0,0,0-6.79-6.79Z" transform="translate(-0.25 -4.02)"/><path class="b331b768-6051-4bf9-9f3f-c5df3765471a" d="M30.22,42.31H18.87V33.57a12.81,12.81,0,0,1,2-7.62c1.34-1.86,3.63-3.51,6.89-4.94l2.45,4.65a12,12,0,0,0-4.15,2.8,5.71,5.71,0,0,0-1.28,3.31h5.43Zm13.23,0H32.1V33.57a12.81,12.81,0,0,1,2-7.62C35.45,24.09,37.74,22.44,41,21l2.45,4.65a12,12,0,0,0-4.15,2.8A5.71,5.71,0,0,0,38,31.77h5.43Z" transform="translate(-0.25 -4.02)"/><path class="b331b768-6051-4bf9-9f3f-c5df3765471a" d="M69.84,39.52H81.19v8.74a12.81,12.81,0,0,1-2,7.62c-1.34,1.87-3.63,3.51-6.89,4.94l-2.45-4.65A12.14,12.14,0,0,0,74,53.37a5.75,5.75,0,0,0,1.28-3.31H69.84Zm-13.23,0H68v8.74a12.81,12.81,0,0,1-2,7.62c-1.34,1.87-3.63,3.51-6.89,4.94l-2.45-4.65a12.14,12.14,0,0,0,4.15-2.8A5.75,5.75,0,0,0,62,50.06H56.61Z" transform="translate(-0.25 -4.02)"/></g></svg>