<svg id="ef913416-a024-4471-b8f6-5cc90eba13e8" data-name="Layer 1" xmlns="http://www.w3.org/2000/svg" viewBox="0 0 20 19.02"><defs><style>.a145abf6-05cc-4a5c-876f-a89851a67601{fill:#e8ad01;}</style></defs><title>star</title><polygon class="a145abf6-05cc-4a5c-876f-a89851a67601" points="5.46 11.99 0.93 7.57 7.2 6.66 10 0.97 12.8 6.66 19.07 7.57 14.54 11.99 15.61 18.23 10 15.29 4.39 18.23 5.46 11.99"/><path class="a145abf6-05cc-4a5c-876f-a89851a67601" d="M10,2l2.32,4.69.2.41.45.06,5.18.76L14.4,11.52l-.33.32.08.44L15,17.45,10.4,15,10,14.8,9.6,15,5,17.45l.89-5.17.08-.44-.33-.32L1.85,7.87,7,7.11l.45-.06.2-.41L10,2M10,0,6.91,6.26,0,7.27l5,4.87L3.82,19,10,15.77,16.18,19,15,12.14l5-4.87-6.91-1L10,0Z" transform="translate(0 0)"/></svg>