<svg width="140" height="15" viewBox="0 0 140 15" fill="none" xmlns="http://www.w3.org/2000/svg">
<path d="M2.24549 12.0004H0.640488V1.23037H2.24549V12.0004ZM5.8585 5.43787C6.0235 5.26287 6.196 5.10287 6.376 4.95787C6.556 4.81287 6.746 4.69037 6.946 4.59037C7.151 4.48537 7.3685 4.40537 7.5985 4.35037C7.8335 4.29037 8.0835 4.26037 8.3485 4.26037C8.7685 4.26037 9.136 4.33037 9.451 4.47037C9.771 4.61037 10.0385 4.80787 10.2535 5.06287C10.4685 5.31287 10.631 5.61537 10.741 5.97037C10.851 6.32537 10.906 6.71787 10.906 7.14787V12.0004H9.436V7.14787C9.436 6.60287 9.311 6.18037 9.061 5.88037C8.811 5.57537 8.4285 5.42287 7.9135 5.42287C7.5385 5.42287 7.186 5.51287 6.856 5.69287C6.531 5.86787 6.2285 6.10787 5.9485 6.41287V12.0004H4.486V4.38037H5.3635C5.5685 4.38037 5.696 4.47787 5.746 4.67287L5.8585 5.43787ZM14.2521 5.43787C14.4171 5.26287 14.5896 5.10287 14.7696 4.95787C14.9496 4.81287 15.1396 4.69037 15.3396 4.59037C15.5446 4.48537 15.7621 4.40537 15.9921 4.35037C16.2271 4.29037 16.4771 4.26037 16.7421 4.26037C17.1621 4.26037 17.5296 4.33037 17.8446 4.47037C18.1646 4.61037 18.4321 4.80787 18.6471 5.06287C18.8621 5.31287 19.0246 5.61537 19.1346 5.97037C19.2446 6.32537 19.2996 6.71787 19.2996 7.14787V12.0004H17.8296V7.14787C17.8296 6.60287 17.7046 6.18037 17.4546 5.88037C17.2046 5.57537 16.8221 5.42287 16.3071 5.42287C15.9321 5.42287 15.5796 5.51287 15.2496 5.69287C14.9246 5.86787 14.6221 6.10787 14.3421 6.41287V12.0004H12.8796V4.38037H13.7571C13.9621 4.38037 14.0896 4.47787 14.1396 4.67287L14.2521 5.43787ZM24.5206 4.26037C25.0806 4.26037 25.5856 4.35287 26.0356 4.53787C26.4906 4.71787 26.8756 4.98037 27.1906 5.32537C27.5106 5.66537 27.7556 6.07787 27.9256 6.56287C28.0956 7.04287 28.1806 7.58287 28.1806 8.18287C28.1806 8.78287 28.0956 9.32537 27.9256 9.81037C27.7556 10.2954 27.5106 10.7079 27.1906 11.0479C26.8756 11.3879 26.4906 11.6504 26.0356 11.8354C25.5856 12.0154 25.0806 12.1054 24.5206 12.1054C23.9556 12.1054 23.4456 12.0154 22.9906 11.8354C22.5406 11.6504 22.1556 11.3879 21.8356 11.0479C21.5156 10.7079 21.2681 10.2954 21.0931 9.81037C20.9231 9.32537 20.8381 8.78287 20.8381 8.18287C20.8381 7.58287 20.9231 7.04287 21.0931 6.56287C21.2681 6.07787 21.5156 5.66537 21.8356 5.32537C22.1556 4.98037 22.5406 4.71787 22.9906 4.53787C23.4456 4.35287 23.9556 4.26037 24.5206 4.26037ZM24.5206 10.9654C25.2406 10.9654 25.7781 10.7229 26.1331 10.2379C26.4881 9.75287 26.6656 9.07037 26.6656 8.19037C26.6656 7.31037 26.4881 6.62787 26.1331 6.14287C25.7781 5.65287 25.2406 5.40787 24.5206 5.40787C23.7906 5.40787 23.2456 5.65287 22.8856 6.14287C22.5306 6.62787 22.3531 7.31037 22.3531 8.19037C22.3531 9.07037 22.5306 9.75287 22.8856 10.2379C23.2456 10.7229 23.7906 10.9654 24.5206 10.9654ZM36.2084 4.38037L33.1184 12.0004H31.7984L28.7084 4.38037H29.9159C30.0309 4.38037 30.1259 4.40787 30.2009 4.46287C30.2759 4.51787 30.3259 4.58787 30.3509 4.67287L32.1734 9.35287C32.2384 9.54787 32.2934 9.74287 32.3384 9.93787C32.3884 10.1279 32.4334 10.3179 32.4734 10.5079C32.5134 10.3179 32.5584 10.1279 32.6084 9.93787C32.6584 9.74787 32.7184 9.55287 32.7884 9.35287L34.6334 4.67287C34.6634 4.58787 34.7159 4.51787 34.7909 4.46287C34.8659 4.40787 34.9559 4.38037 35.0609 4.38037H36.2084ZM41.291 8.61787C40.696 8.63787 40.191 8.68537 39.776 8.76037C39.361 8.83037 39.0235 8.92537 38.7635 9.04537C38.5035 9.16537 38.316 9.30787 38.201 9.47287C38.086 9.63287 38.0285 9.81287 38.0285 10.0129C38.0285 10.2029 38.0585 10.3679 38.1185 10.5079C38.1835 10.6429 38.2685 10.7554 38.3735 10.8454C38.4835 10.9304 38.611 10.9929 38.756 11.0329C38.901 11.0729 39.0585 11.0929 39.2285 11.0929C39.4535 11.0929 39.6585 11.0704 39.8435 11.0254C40.0335 10.9804 40.211 10.9179 40.376 10.8379C40.541 10.7529 40.6985 10.6504 40.8485 10.5304C40.9985 10.4104 41.146 10.2729 41.291 10.1179V8.61787ZM37.001 5.44537C37.426 5.04037 37.886 4.73787 38.381 4.53787C38.881 4.33787 39.4285 4.23787 40.0235 4.23787C40.4585 4.23787 40.8435 4.31037 41.1785 4.45537C41.5135 4.59537 41.796 4.79287 42.026 5.04787C42.256 5.30287 42.4285 5.60787 42.5435 5.96287C42.6635 6.31787 42.7235 6.71037 42.7235 7.14037V12.0004H42.071C41.926 12.0004 41.816 11.9779 41.741 11.9329C41.666 11.8829 41.606 11.7929 41.561 11.6629L41.4035 10.9954C41.2085 11.1754 41.016 11.3354 40.826 11.4754C40.636 11.6104 40.436 11.7279 40.226 11.8279C40.021 11.9229 39.801 11.9954 39.566 12.0454C39.331 12.0954 39.071 12.1204 38.786 12.1204C38.486 12.1204 38.2035 12.0804 37.9385 12.0004C37.6785 11.9154 37.451 11.7879 37.256 11.6179C37.061 11.4479 36.906 11.2354 36.791 10.9804C36.681 10.7254 36.626 10.4279 36.626 10.0879C36.626 9.78787 36.706 9.50037 36.866 9.22537C37.031 8.94537 37.296 8.69537 37.661 8.47537C38.031 8.25537 38.511 8.07537 39.101 7.93537C39.696 7.79537 40.426 7.71537 41.291 7.69537V7.14037C41.291 6.56537 41.1685 6.13537 40.9235 5.85037C40.6785 5.56537 40.3185 5.42287 39.8435 5.42287C39.5235 5.42287 39.2535 5.46287 39.0335 5.54287C38.8185 5.62287 38.631 5.71287 38.471 5.81287C38.316 5.90787 38.1785 5.99537 38.0585 6.07537C37.9435 6.15537 37.8235 6.19537 37.6985 6.19537C37.5985 6.19537 37.511 6.16787 37.436 6.11287C37.366 6.05787 37.3085 5.99287 37.2635 5.91787L37.001 5.44537ZM51.8013 12.0004H50.3313V5.56537H46.5063V10.0279C46.5063 10.3279 46.5788 10.5529 46.7238 10.7029C46.8738 10.8479 47.0638 10.9204 47.2938 10.9204C47.4288 10.9204 47.5438 10.9029 47.6388 10.8679C47.7388 10.8329 47.8238 10.7954 47.8938 10.7554C47.9638 10.7104 48.0238 10.6704 48.0738 10.6354C48.1238 10.6004 48.1688 10.5829 48.2088 10.5829C48.2588 10.5829 48.2963 10.5954 48.3213 10.6204C48.3513 10.6404 48.3813 10.6754 48.4113 10.7254L48.8463 11.4304C48.6063 11.6504 48.3213 11.8204 47.9913 11.9404C47.6613 12.0604 47.3188 12.1204 46.9638 12.1204C46.3488 12.1204 45.8738 11.9479 45.5388 11.6029C45.2088 11.2579 45.0438 10.7654 45.0438 10.1254V5.56537H44.1588C44.0738 5.56537 44.0013 5.54037 43.9413 5.49037C43.8863 5.43537 43.8588 5.35537 43.8588 5.25037V4.65787L45.1038 4.48537L45.4263 2.21287C45.4463 2.12787 45.4838 2.06287 45.5388 2.01787C45.5988 1.96787 45.6738 1.94287 45.7638 1.94287H46.5063V4.50037H51.8013V12.0004ZM52.1313 1.98037C52.1313 2.11537 52.1038 2.24537 52.0488 2.37037C51.9938 2.49037 51.9188 2.59787 51.8238 2.69287C51.7338 2.78287 51.6263 2.85537 51.5013 2.91037C51.3763 2.96037 51.2463 2.98537 51.1113 2.98537C50.9763 2.98537 50.8488 2.96037 50.7288 2.91037C50.6088 2.85537 50.5013 2.78287 50.4063 2.69287C50.3163 2.59787 50.2438 2.49037 50.1888 2.37037C50.1388 2.24537 50.1138 2.11537 50.1138 1.98037C50.1138 1.84037 50.1388 1.70787 50.1888 1.58287C50.2438 1.45787 50.3163 1.35037 50.4063 1.26037C50.5013 1.16537 50.6088 1.09287 50.7288 1.04287C50.8488 0.987865 50.9763 0.960365 51.1113 0.960365C51.2463 0.960365 51.3763 0.987865 51.5013 1.04287C51.6263 1.09287 51.7338 1.16537 51.8238 1.26037C51.9188 1.35037 51.9938 1.45787 52.0488 1.58287C52.1038 1.70787 52.1313 1.84037 52.1313 1.98037ZM60.5395 4.38037L57.4495 12.0004H56.1295L53.0395 4.38037H54.247C54.362 4.38037 54.457 4.40787 54.532 4.46287C54.607 4.51787 54.657 4.58787 54.682 4.67287L56.5045 9.35287C56.5695 9.54787 56.6245 9.74287 56.6695 9.93787C56.7195 10.1279 56.7645 10.3179 56.8045 10.5079C56.8445 10.3179 56.8895 10.1279 56.9395 9.93787C56.9895 9.74787 57.0495 9.55287 57.1195 9.35287L58.9645 4.67287C58.9945 4.58787 59.047 4.51787 59.122 4.46287C59.197 4.40787 59.287 4.38037 59.392 4.38037H60.5395ZM66.5306 7.34287C66.5306 7.05287 66.4881 6.78537 66.4031 6.54037C66.3231 6.29537 66.2031 6.08287 66.0431 5.90287C65.8831 5.72287 65.6881 5.58287 65.4581 5.48287C65.2281 5.38287 64.9631 5.33287 64.6631 5.33287C64.0481 5.33287 63.5631 5.51037 63.2081 5.86537C62.8581 6.22037 62.6356 6.71287 62.5406 7.34287H66.5306ZM67.7381 10.9129C67.5581 11.1229 67.3506 11.3054 67.1156 11.4604C66.8806 11.6104 66.6306 11.7329 66.3656 11.8279C66.1006 11.9229 65.8256 11.9929 65.5406 12.0379C65.2606 12.0829 64.9831 12.1054 64.7081 12.1054C64.1831 12.1054 63.6956 12.0179 63.2456 11.8429C62.8006 11.6629 62.4131 11.4029 62.0831 11.0629C61.7581 10.7179 61.5031 10.2929 61.3181 9.78787C61.1381 9.27787 61.0481 8.69287 61.0481 8.03287C61.0481 7.50287 61.1306 7.01037 61.2956 6.55537C61.4606 6.09537 61.6956 5.69537 62.0006 5.35537C62.3106 5.01537 62.6881 4.74787 63.1331 4.55287C63.5781 4.35787 64.0781 4.26037 64.6331 4.26037C65.0981 4.26037 65.5256 4.33787 65.9156 4.49287C66.3106 4.64287 66.6506 4.86287 66.9356 5.15287C67.2206 5.44287 67.4431 5.80037 67.6031 6.22537C67.7681 6.65037 67.8506 7.13537 67.8506 7.68037C67.8506 7.90537 67.8256 8.05787 67.7756 8.13787C67.7256 8.21287 67.6331 8.25037 67.4981 8.25037H62.5031C62.5181 8.70537 62.5831 9.10287 62.6981 9.44287C62.8131 9.77787 62.9706 10.0579 63.1706 10.2829C63.3756 10.5079 63.6181 10.6754 63.8981 10.7854C64.1781 10.8954 64.4906 10.9504 64.8356 10.9504C65.1606 10.9504 65.4406 10.9129 65.6756 10.8379C65.9156 10.7629 66.1206 10.6829 66.2906 10.5979C66.4656 10.5079 66.6106 10.4254 66.7256 10.3504C66.8456 10.2754 66.9506 10.2379 67.0406 10.2379C67.1606 10.2379 67.2531 10.2829 67.3181 10.3729L67.7381 10.9129ZM84.8415 1.23037V12.0004H83.4465V4.33537C83.4465 4.22037 83.449 4.09787 83.454 3.96787C83.464 3.83787 83.474 3.70537 83.484 3.57037L79.899 10.1479C79.774 10.3929 79.5815 10.5154 79.3215 10.5154H79.0965C78.8365 10.5154 78.6465 10.3929 78.5265 10.1479L74.874 3.54787C74.904 3.82787 74.919 4.09037 74.919 4.33537V12.0004H73.5165V1.23037H74.7015C74.8415 1.23037 74.949 1.24537 75.024 1.27537C75.104 1.30037 75.179 1.37537 75.249 1.50037L78.849 7.95037C78.919 8.08037 78.984 8.21787 79.044 8.36287C79.104 8.50787 79.1615 8.65287 79.2165 8.79787C79.3215 8.50287 79.444 8.21787 79.584 7.94287L83.1165 1.50037C83.1815 1.37537 83.2515 1.30037 83.3265 1.27537C83.4065 1.24537 83.5165 1.23037 83.6565 1.23037H84.8415ZM91.081 8.61787C90.486 8.63787 89.981 8.68537 89.566 8.76037C89.151 8.83037 88.8135 8.92537 88.5535 9.04537C88.2935 9.16537 88.106 9.30787 87.991 9.47287C87.876 9.63287 87.8185 9.81287 87.8185 10.0129C87.8185 10.2029 87.8485 10.3679 87.9085 10.5079C87.9735 10.6429 88.0585 10.7554 88.1635 10.8454C88.2735 10.9304 88.401 10.9929 88.546 11.0329C88.691 11.0729 88.8485 11.0929 89.0185 11.0929C89.2435 11.0929 89.4485 11.0704 89.6335 11.0254C89.8235 10.9804 90.001 10.9179 90.166 10.8379C90.331 10.7529 90.4885 10.6504 90.6385 10.5304C90.7885 10.4104 90.936 10.2729 91.081 10.1179V8.61787ZM86.791 5.44537C87.216 5.04037 87.676 4.73787 88.171 4.53787C88.671 4.33787 89.2185 4.23787 89.8135 4.23787C90.2485 4.23787 90.6335 4.31037 90.9685 4.45537C91.3035 4.59537 91.586 4.79287 91.816 5.04787C92.046 5.30287 92.2185 5.60787 92.3335 5.96287C92.4535 6.31787 92.5135 6.71037 92.5135 7.14037V12.0004H91.861C91.716 12.0004 91.606 11.9779 91.531 11.9329C91.456 11.8829 91.396 11.7929 91.351 11.6629L91.1935 10.9954C90.9985 11.1754 90.806 11.3354 90.616 11.4754C90.426 11.6104 90.226 11.7279 90.016 11.8279C89.811 11.9229 89.591 11.9954 89.356 12.0454C89.121 12.0954 88.861 12.1204 88.576 12.1204C88.276 12.1204 87.9935 12.0804 87.7285 12.0004C87.4685 11.9154 87.241 11.7879 87.046 11.6179C86.851 11.4479 86.696 11.2354 86.581 10.9804C86.471 10.7254 86.416 10.4279 86.416 10.0879C86.416 9.78787 86.496 9.50037 86.656 9.22537C86.821 8.94537 87.086 8.69537 87.451 8.47537C87.821 8.25537 88.301 8.07537 88.891 7.93537C89.486 7.79537 90.216 7.71537 91.081 7.69537V7.14037C91.081 6.56537 90.9585 6.13537 90.7135 5.85037C90.4685 5.56537 90.1085 5.42287 89.6335 5.42287C89.3135 5.42287 89.0435 5.46287 88.8235 5.54287C88.6085 5.62287 88.421 5.71287 88.261 5.81287C88.106 5.90787 87.9685 5.99537 87.8485 6.07537C87.7335 6.15537 87.6135 6.19537 87.4885 6.19537C87.3885 6.19537 87.301 6.16787 87.226 6.11287C87.156 6.05787 87.0985 5.99287 87.0535 5.91787L86.791 5.44537ZM95.8513 5.84287C96.0963 5.34287 96.3913 4.95037 96.7363 4.66537C97.0813 4.38037 97.4963 4.23787 97.9813 4.23787C98.1463 4.23787 98.3013 4.25787 98.4463 4.29787C98.5963 4.33287 98.7263 4.38787 98.8363 4.46287L98.7388 5.56537C98.7038 5.70037 98.6213 5.76787 98.4913 5.76787C98.4213 5.76787 98.3163 5.75537 98.1763 5.73037C98.0363 5.70037 97.8863 5.68537 97.7263 5.68537C97.4913 5.68537 97.2838 5.72037 97.1038 5.79037C96.9238 5.85537 96.7613 5.95537 96.6163 6.09037C96.4763 6.22037 96.3513 6.38287 96.2413 6.57787C96.1313 6.76787 96.0288 6.98537 95.9338 7.23037V12.0004H94.4713V4.38037H95.3113C95.4713 4.38037 95.5788 4.41037 95.6338 4.47037C95.6938 4.52537 95.7363 4.62537 95.7613 4.77037L95.8513 5.84287ZM101.427 0.930366V7.40287H101.772C101.877 7.40287 101.965 7.38787 102.035 7.35787C102.105 7.32787 102.177 7.26787 102.252 7.17787L104.532 4.66537C104.602 4.57037 104.68 4.50037 104.765 4.45537C104.85 4.40537 104.957 4.38037 105.087 4.38037H106.422L103.73 7.32787C103.585 7.51287 103.43 7.65537 103.265 7.75537C103.36 7.82037 103.442 7.89537 103.512 7.98037C103.587 8.06537 103.66 8.15787 103.73 8.25787L106.595 12.0004H105.282C105.162 12.0004 105.057 11.9804 104.967 11.9404C104.882 11.9004 104.805 11.8279 104.735 11.7229L102.38 8.66287C102.305 8.54787 102.23 8.47537 102.155 8.44537C102.08 8.41037 101.967 8.39287 101.817 8.39287H101.427V12.0004H99.9645V0.930366H101.427ZM112.307 7.34287C112.307 7.05287 112.264 6.78537 112.179 6.54037C112.099 6.29537 111.979 6.08287 111.819 5.90287C111.659 5.72287 111.464 5.58287 111.234 5.48287C111.004 5.38287 110.739 5.33287 110.439 5.33287C109.824 5.33287 109.339 5.51037 108.984 5.86537C108.634 6.22037 108.412 6.71287 108.317 7.34287H112.307ZM113.514 10.9129C113.334 11.1229 113.127 11.3054 112.892 11.4604C112.657 11.6104 112.407 11.7329 112.142 11.8279C111.877 11.9229 111.602 11.9929 111.317 12.0379C111.037 12.0829 110.759 12.1054 110.484 12.1054C109.959 12.1054 109.472 12.0179 109.022 11.8429C108.577 11.6629 108.189 11.4029 107.859 11.0629C107.534 10.7179 107.279 10.2929 107.094 9.78787C106.914 9.27787 106.824 8.69287 106.824 8.03287C106.824 7.50287 106.907 7.01037 107.072 6.55537C107.237 6.09537 107.472 5.69537 107.777 5.35537C108.087 5.01537 108.464 4.74787 108.909 4.55287C109.354 4.35787 109.854 4.26037 110.409 4.26037C110.874 4.26037 111.302 4.33787 111.692 4.49287C112.087 4.64287 112.427 4.86287 112.712 5.15287C112.997 5.44287 113.219 5.80037 113.379 6.22537C113.544 6.65037 113.627 7.13537 113.627 7.68037C113.627 7.90537 113.602 8.05787 113.552 8.13787C113.502 8.21287 113.409 8.25037 113.274 8.25037H108.279C108.294 8.70537 108.359 9.10287 108.474 9.44287C108.589 9.77787 108.747 10.0579 108.947 10.2829C109.152 10.5079 109.394 10.6754 109.674 10.7854C109.954 10.8954 110.267 10.9504 110.612 10.9504C110.937 10.9504 111.217 10.9129 111.452 10.8379C111.692 10.7629 111.897 10.6829 112.067 10.5979C112.242 10.5079 112.387 10.4254 112.502 10.3504C112.622 10.2754 112.727 10.2379 112.817 10.2379C112.937 10.2379 113.029 10.2829 113.094 10.3729L113.514 10.9129ZM122.363 12.0004H120.893V5.56537H117.068V10.0279C117.068 10.3279 117.14 10.5529 117.285 10.7029C117.435 10.8479 117.625 10.9204 117.855 10.9204C117.99 10.9204 118.105 10.9029 118.2 10.8679C118.3 10.8329 118.385 10.7954 118.455 10.7554C118.525 10.7104 118.585 10.6704 118.635 10.6354C118.685 10.6004 118.73 10.5829 118.77 10.5829C118.82 10.5829 118.858 10.5954 118.883 10.6204C118.913 10.6404 118.943 10.6754 118.973 10.7254L119.408 11.4304C119.168 11.6504 118.883 11.8204 118.553 11.9404C118.223 12.0604 117.88 12.1204 117.525 12.1204C116.91 12.1204 116.435 11.9479 116.1 11.6029C115.77 11.2579 115.605 10.7654 115.605 10.1254V5.56537H114.72C114.635 5.56537 114.563 5.54037 114.503 5.49037C114.448 5.43537 114.42 5.35537 114.42 5.25037V4.65787L115.665 4.48537L115.988 2.21287C116.008 2.12787 116.045 2.06287 116.1 2.01787C116.16 1.96787 116.235 1.94287 116.325 1.94287H117.068V4.50037H122.363V12.0004ZM122.693 1.98037C122.693 2.11537 122.665 2.24537 122.61 2.37037C122.555 2.49037 122.48 2.59787 122.385 2.69287C122.295 2.78287 122.188 2.85537 122.063 2.91037C121.938 2.96037 121.808 2.98537 121.673 2.98537C121.538 2.98537 121.41 2.96037 121.29 2.91037C121.17 2.85537 121.063 2.78287 120.968 2.69287C120.878 2.59787 120.805 2.49037 120.75 2.37037C120.7 2.24537 120.675 2.11537 120.675 1.98037C120.675 1.84037 120.7 1.70787 120.75 1.58287C120.805 1.45787 120.878 1.35037 120.968 1.26037C121.063 1.16537 121.17 1.09287 121.29 1.04287C121.41 0.987865 121.538 0.960365 121.673 0.960365C121.808 0.960365 121.938 0.987865 122.063 1.04287C122.188 1.09287 122.295 1.16537 122.385 1.26037C122.48 1.35037 122.555 1.45787 122.61 1.58287C122.665 1.70787 122.693 1.84037 122.693 1.98037ZM125.858 5.43787C126.023 5.26287 126.196 5.10287 126.376 4.95787C126.556 4.81287 126.746 4.69037 126.946 4.59037C127.151 4.48537 127.368 4.40537 127.598 4.35037C127.833 4.29037 128.083 4.26037 128.348 4.26037C128.768 4.26037 129.136 4.33037 129.451 4.47037C129.771 4.61037 130.038 4.80787 130.253 5.06287C130.468 5.31287 130.631 5.61537 130.741 5.97037C130.851 6.32537 130.906 6.71787 130.906 7.14787V12.0004H129.436V7.14787C129.436 6.60287 129.311 6.18037 129.061 5.88037C128.811 5.57537 128.428 5.42287 127.913 5.42287C127.538 5.42287 127.186 5.51287 126.856 5.69287C126.531 5.86787 126.228 6.10787 125.948 6.41287V12.0004H124.486V4.38037H125.363C125.568 4.38037 125.696 4.47787 125.746 4.67287L125.858 5.43787ZM135.557 8.19787C135.817 8.19787 136.045 8.16287 136.24 8.09287C136.44 8.02287 136.605 7.92537 136.735 7.80037C136.87 7.67037 136.97 7.51537 137.035 7.33537C137.105 7.15537 137.14 6.95787 137.14 6.74287C137.14 6.30287 137.005 5.95287 136.735 5.69287C136.47 5.42787 136.077 5.29537 135.557 5.29537C135.042 5.29537 134.65 5.42787 134.38 5.69287C134.115 5.95287 133.982 6.30287 133.982 6.74287C133.982 6.95787 134.015 7.15537 134.08 7.33537C134.15 7.51037 134.25 7.66287 134.38 7.79287C134.515 7.91787 134.68 8.01787 134.875 8.09287C135.075 8.16287 135.302 8.19787 135.557 8.19787ZM137.89 12.3979C137.89 12.2179 137.84 12.0754 137.74 11.9704C137.64 11.8604 137.502 11.7754 137.327 11.7154C137.157 11.6504 136.957 11.6054 136.727 11.5804C136.497 11.5504 136.255 11.5279 136 11.5129C135.75 11.4979 135.492 11.4854 135.227 11.4754C134.962 11.4604 134.707 11.4354 134.462 11.4004C134.202 11.5304 133.987 11.6879 133.817 11.8729C133.652 12.0579 133.57 12.2754 133.57 12.5254C133.57 12.6854 133.61 12.8354 133.69 12.9754C133.775 13.1154 133.902 13.2354 134.072 13.3354C134.247 13.4404 134.465 13.5204 134.725 13.5754C134.99 13.6354 135.305 13.6654 135.67 13.6654C136.03 13.6654 136.347 13.6329 136.622 13.5679C136.897 13.5079 137.127 13.4204 137.312 13.3054C137.502 13.1954 137.645 13.0629 137.74 12.9079C137.84 12.7529 137.89 12.5829 137.89 12.3979ZM139.375 4.66537V5.21287C139.375 5.39287 139.262 5.50537 139.037 5.55037L138.22 5.67037C138.29 5.82537 138.345 5.99037 138.385 6.16537C138.425 6.33537 138.445 6.51537 138.445 6.70537C138.445 7.08037 138.372 7.42037 138.227 7.72537C138.082 8.02537 137.882 8.28287 137.627 8.49787C137.372 8.71287 137.067 8.87787 136.712 8.99287C136.362 9.10787 135.977 9.16537 135.557 9.16537C135.212 9.16537 134.89 9.12787 134.59 9.05287C134.44 9.14287 134.325 9.24287 134.245 9.35287C134.17 9.45787 134.132 9.56287 134.132 9.66787C134.132 9.84287 134.205 9.97287 134.35 10.0579C134.5 10.1429 134.692 10.2054 134.927 10.2454C135.167 10.2804 135.44 10.3029 135.745 10.3129C136.055 10.3229 136.367 10.3404 136.682 10.3654C137.002 10.3854 137.315 10.4254 137.62 10.4854C137.93 10.5404 138.202 10.6329 138.437 10.7629C138.677 10.8879 138.87 11.0629 139.015 11.2879C139.165 11.5079 139.24 11.7954 139.24 12.1504C139.24 12.4804 139.157 12.8004 138.992 13.1104C138.832 13.4204 138.597 13.6954 138.287 13.9354C137.977 14.1754 137.6 14.3679 137.155 14.5129C136.71 14.6579 136.205 14.7304 135.64 14.7304C135.075 14.7304 134.582 14.6754 134.162 14.5654C133.747 14.4554 133.4 14.3079 133.12 14.1229C132.845 13.9379 132.637 13.7229 132.497 13.4779C132.362 13.2329 132.295 12.9779 132.295 12.7129C132.295 12.3429 132.41 12.0304 132.64 11.7754C132.87 11.5154 133.187 11.3129 133.592 11.1679C133.372 11.0679 133.197 10.9329 133.067 10.7629C132.937 10.5879 132.872 10.3579 132.872 10.0729C132.872 9.96287 132.892 9.85037 132.932 9.73537C132.972 9.61537 133.032 9.49787 133.112 9.38287C133.197 9.26287 133.3 9.15037 133.42 9.04537C133.545 8.94037 133.687 8.84537 133.847 8.76037C133.472 8.55037 133.177 8.27287 132.962 7.92787C132.747 7.57787 132.64 7.17037 132.64 6.70537C132.64 6.33037 132.712 5.99287 132.857 5.69287C133.002 5.39287 133.202 5.13537 133.457 4.92037C133.717 4.70537 134.025 4.54037 134.38 4.42537C134.74 4.31037 135.132 4.25287 135.557 4.25287C136.217 4.25287 136.785 4.39037 137.26 4.66537H139.375Z" fill="white"/>
</svg>
