<svg width="5911" height="1996" viewBox="0 0 5911 1996" fill="none" xmlns="http://www.w3.org/2000/svg">
<path d="M2318.8 1217.46V1534.55H2203.13V818.291C2203.13 767.377 2203.13 715.038 2201.91 666.364H2314.73C2317.69 697.637 2319.05 729.041 2318.8 760.453C2350.17 700.782 2409.84 651.497 2511.67 651.497C2650.36 651.497 2752.18 771.858 2752.18 962.479C2752.18 1184.67 2635.9 1305.03 2489.88 1305.03C2394.77 1305.03 2345.08 1264.5 2318.8 1217.46ZM2632.84 967.163C2632.84 838.249 2577.45 752.714 2478.88 752.714C2359.94 752.714 2313.51 830.918 2313.51 976.735C2313.51 1119.29 2352.2 1204.42 2471.14 1204.42C2577.24 1205.24 2632.84 1115.63 2632.84 967.163Z" fill="#4d4d4d"/>
<path d="M2871.74 391.429H2988.03V529.507H2871.74V391.429ZM2871.74 666.364H2988.03V1290.37H2871.74V666.364Z" fill="#4d4d4d"/>
<path d="M3078.03 666.369H3179.86V485.115H3295.94V666.369H3426.28V762.291H3295.94V1116.86C3295.94 1174.9 3310.2 1203.41 3363.96 1203.41C3380.64 1203.74 3397.3 1202.24 3413.65 1198.93V1287.32C3383.02 1296.43 3351.08 1300.36 3319.16 1298.92C3220.79 1298.92 3179.86 1245.77 3179.86 1141.09V762.291H3078.03V666.369Z" fill="#4d4d4d"/>
<path d="M3999.98 1097.3C3975.34 1204.22 3905.08 1305.03 3746.63 1305.03C3576.58 1305.03 3474.96 1179.37 3474.96 981.827C3474.96 804.035 3573.73 651.497 3754.37 651.497C3935.02 651.497 3993.26 784.281 3999.98 862.688H3885.32C3871.27 801.591 3835.02 750.474 3751.93 750.474C3651.32 750.474 3594.1 840.082 3594.1 977.754C3594.1 1115.42 3650.3 1206.87 3748.87 1206.87C3820.76 1206.87 3862.11 1166.14 3884.71 1097.3H3999.98Z" fill="#4d4d4d"/>
<path d="M4222.58 391.429V754.751C4240.61 721.896 4267.55 694.798 4300.3 676.569C4333.05 658.34 4370.27 649.72 4407.7 651.701C4507.49 651.701 4611.36 709.335 4611.36 891.811V1290.37H4494.87V911.158C4494.87 809.33 4454.14 753.936 4370.23 753.936C4264.74 753.936 4222.58 827.659 4222.58 951.075V1290.37H4106.29V391.429H4222.58Z" fill="#4d4d4d"/>
<path d="M5242.5 586.728H4919.09C4912.58 647.825 4894.25 761.058 4886.91 802.4C4919.09 766.964 4968.38 741.303 5045.77 741.303C5190.36 741.303 5281.6 846.186 5281.6 1009.11C5281.6 1166.13 5201.16 1304.61 5008.29 1304.61C4865.73 1304.61 4763.91 1224.58 4743.54 1086.09H4861.25C4878.56 1156.35 4927.24 1206.86 5012.16 1206.86C5113.99 1206.86 5162.87 1131.91 5162.87 1018.27C5162.87 917.873 5123.36 841.909 5018.68 841.909C4928.66 841.909 4891.8 881.215 4865.94 943.737L4758.41 924.797C4781.01 819.711 4811.56 587.543 4823.17 484.086H5258.99L5242.5 586.728Z" fill="url(#paint0_linear)"/>
<path d="M5501.53 1109.11C5521.9 1171.43 5559.98 1205.44 5634.52 1205.44C5777.08 1205.44 5790.31 1007.29 5794.39 908.107C5758.54 971.851 5691.54 998.937 5612.32 998.937C5463.24 998.937 5371.39 888.963 5371.39 741.72C5371.39 594.477 5468.74 469.636 5637.98 469.636C5837.16 469.636 5910.27 631.135 5910.27 841.919C5910.27 1056.37 5865.46 1303.4 5629.43 1303.4C5468.13 1303.4 5400.72 1204.43 5382.6 1108.71L5501.53 1109.11ZM5490.74 736.425C5490.74 835.809 5545.52 899.349 5633.3 899.349C5735.12 899.349 5782.37 844.362 5782.37 740.498C5782.37 689.991 5763.84 568.205 5635.54 568.205C5535.74 568.612 5490.74 642.54 5490.74 736.425Z" fill="url(#paint1_linear)"/>
<path d="M998.086 199.786C1156.04 199.988 1310.4 247.019 1441.63 334.935C1572.86 422.851 1675.07 547.703 1735.35 693.707C1795.64 839.71 1811.27 1000.31 1780.29 1155.2C1749.3 1310.09 1673.09 1452.31 1561.28 1563.89C1449.48 1675.47 1307.1 1751.39 1152.14 1782.06C997.192 1812.73 836.625 1796.77 690.745 1736.19C544.865 1675.61 420.222 1573.14 332.574 1441.73C244.926 1310.32 198.209 1155.87 198.329 997.913C198.707 786.07 283.14 583.036 433.088 433.394C583.037 283.751 786.243 199.732 998.086 199.786ZM998.086 0C800.717 0 607.781 58.5266 443.675 168.179C279.569 277.831 151.664 433.684 76.1339 616.028C0.604255 798.373 -19.1578 999.02 19.3469 1192.6C57.8516 1386.17 152.894 1563.98 292.454 1703.54C432.015 1843.11 609.826 1938.15 803.402 1976.65C996.979 2015.16 1197.63 1995.39 1379.97 1919.86C1562.32 1844.34 1718.17 1716.43 1827.82 1552.32C1937.47 1388.22 1996 1195.28 1996 997.913C1996 733.25 1890.86 479.427 1703.72 292.282C1516.57 105.137 1262.75 0 998.086 0Z" fill="url(#paint2_linear)"/>
<path d="M1336.57 974.084C1340.98 976.593 1344.64 980.223 1347.18 984.605C1349.73 988.986 1351.07 993.964 1351.07 999.031C1351.07 1004.1 1349.73 1009.08 1347.18 1013.46C1344.64 1017.84 1340.98 1021.47 1336.57 1023.98L1064.08 1181.2L791.59 1338.83C787.193 1341.37 782.206 1342.71 777.129 1342.71C772.052 1342.71 767.065 1341.37 762.668 1338.83C758.272 1336.29 754.621 1332.64 752.083 1328.24C749.546 1323.85 748.21 1318.86 748.211 1313.78V684.281C748.21 679.205 749.546 674.217 752.083 669.82C754.621 665.423 758.272 661.772 762.668 659.233C767.065 656.694 772.052 655.358 777.129 655.357C782.206 655.357 787.193 656.693 791.59 659.232L1064.08 816.658L1336.57 974.084Z" fill="url(#paint3_linear)"/>
<defs>
<linearGradient id="paint0_linear" x1="5012.57" y1="484.086" x2="5012.57" y2="1304.61" gradientUnits="userSpaceOnUse">
<stop offset="0.015625" stop-color="#88E3E8"/>
<stop offset="1" stop-color="#159197"/>
</linearGradient>
<linearGradient id="paint1_linear" x1="5640.83" y1="469.636" x2="5640.83" y2="1303.4" gradientUnits="userSpaceOnUse">
<stop offset="0.015625" stop-color="#88E3E8"/>
<stop offset="1" stop-color="#159197"/>
</linearGradient>
<linearGradient id="paint2_linear" x1="998.085" y1="0" x2="998.085" y2="1995.83" gradientUnits="userSpaceOnUse">
<stop offset="0.015625" stop-color="#88E3E8"/>
<stop offset="1" stop-color="#159197"/>
</linearGradient>
<linearGradient id="paint3_linear" x1="1049.64" y1="655.357" x2="1049.64" y2="1342.71" gradientUnits="userSpaceOnUse">
<stop offset="0.015625" stop-color="#88E3E8"/>
<stop offset="1" stop-color="#159197"/>
</linearGradient>
</defs>
</svg>
