<svg 
    id="af5cf3a3-ef4e-4bef-ba22-3101ae54cb40" 
    data-name="Layer 1" 
    xmlns="http://www.w3.org/2000/svg" 
    viewBox="0 0 100 100"
>
    <defs>
        <style>
            .a1ea13ce-c048-4c38-b540-8bb6de3ccd32{fill:#25afb5;}.a1ea13ce-c048-4c38-b540-8bb6de3ccd31{fill:#fff;}.f08ac068-5a45-4f6b-b9a1-e2f4fb656dd6{fill:#fff;}
        </style>
    </defs>
    <g 
        id="e0dbf52b-360a-4223-b6d1-1b6f9f6f2680" 
        data-name="gray"
    >
        <circle fill='#25afb5' class="e7088057-e5be-4975-ba95-c81f5c43011d" cx="49.02" cy="49.02" r="49.02"/>
        <path class="a1ea13ce-c048-4c38-b540-8bb6de3ccd32" d="M53,10.81A39.22,39.22,0,1,1,13.73,50,39.26,39.26,0,0,1,53,10.81M53,1a49,49,0,1,0,49,49A49,49,0,0,0,53,1Z" transform="translate(-3.93 -1.01)"/>
        <path class="a1ea13ce-c048-4c38-b540-8bb6de3ccd31" d="M69.62,48.83a1.41,1.41,0,0,1,0,2.45L56.24,59,42.86,66.74a1.42,1.42,0,0,1-2.13-1.23V34.6a1.42,1.42,0,0,1,2.13-1.23L56.24,41.1Z" transform="translate(-3.93 -1.01)"/>
    </g>
</svg>