<svg width="21" height="20" viewBox="0 0 21 20" fill="none" xmlns="http://www.w3.org/2000/svg">
  <path
      d="M17.9663 18.1121C15.4508 20.2266 11.6958 19.8985 9.58137 17.383L1.01417 7.17526C-0.516984 5.316 -0.298247 2.58179 1.56102 1.01417C3.42028 -0.516984 6.15449 -0.298247 7.7221 1.56102L14.5759 9.76365C15.4873 10.8573 15.3414 12.4979 14.2478 13.4093C13.1541 14.3207 11.5135 14.1748 10.6021 13.0812L5.42537 6.92007C5.09726 6.51905 5.17017 5.97221 5.53474 5.6441C5.8993 5.316 6.48259 5.38891 6.8107 5.75347L11.9875 11.9146C12.2791 12.2427 12.7531 12.2791 13.0812 12.0239C13.4093 11.7323 13.4457 11.2584 13.1905 10.9302L6.30032 2.76407C5.38891 1.70684 3.78484 1.56102 2.72761 2.43596C1.67038 3.34737 1.52456 4.95144 2.39951 6.00867L10.9667 16.2164C12.4249 17.9663 15.0498 18.185 16.7997 16.7268C18.5496 15.2685 18.7683 12.6437 17.3101 10.8938L10.4563 2.69116C10.1282 2.29014 10.2011 1.7433 10.5657 1.41519C10.9667 1.08709 11.5135 1.16 11.8416 1.52456L18.7319 9.72719C20.8099 12.2427 20.4818 15.9977 17.9663 18.1121Z"
      fill="#E6C63B"/>
</svg>
