<svg width="35" height="35" viewBox="0 0 35 35" fill="none" xmlns="http://www.w3.org/2000/svg">
  <path d="M28.7604 29.1167C34.9968 22.8803 34.9968 12.7679 28.7604 6.53143C22.5226 0.294212 12.4102 0.294212 6.17386 6.53143C-0.06251 12.7679 -0.06251 22.8803 6.17386 29.1167C12.4102 35.3545 22.5226 35.3545 28.7604 29.1167Z" fill="white"/>
  <path d="M17.4654 4.49847C20.0997 4.49847 22.6762 5.27976 24.8671 6.744C27.0579 8.2081 28.7657 10.2889 29.7742 12.7239C30.7828 15.1582 31.047 17.8377 30.5328 20.4226C30.0186 23.0076 28.7502 25.3806 26.8856 27.2438C25.0225 29.1069 22.648 30.3768 20.063 30.891C17.4795 31.4051 14.7999 31.141 12.3661 30.1324C9.93086 29.1253 7.85019 27.4161 6.38539 25.2253C4.922 23.0344 4.14085 20.4579 4.14085 17.8221C4.14509 14.2906 5.55058 10.9041 8.04795 8.40627C10.5453 5.90848 13.9326 4.50285 17.4654 4.49847ZM17.4654 0.714844C14.0809 0.714844 10.7727 1.71845 7.96036 3.59826C5.14658 5.47793 2.95431 8.14961 1.65901 11.2761C0.363713 14.4019 0.0247095 17.8419 0.685779 21.16C1.34544 24.4794 2.9755 27.5277 5.36693 29.9206C7.75978 32.312 10.808 33.9421 14.1275 34.6017C17.4456 35.2628 20.8851 34.9238 24.0111 33.6285C27.1384 32.3332 29.8096 30.1409 31.6897 27.3271C33.5683 24.5148 34.5727 21.2066 34.5727 17.8221C34.5712 13.2856 32.7688 8.93443 29.561 5.72683C26.3517 2.51838 22.0024 0.71555 17.4654 0.714844Z" fill="url(#paint0_linear)"/>
  <path d="M13.1526 12.674L12.8955 22.7076C12.8898 22.8997 12.9364 23.0904 13.0282 23.2585C13.1201 23.428 13.2543 23.5707 13.4181 23.671C13.5834 23.7712 13.7698 23.8263 13.9634 23.832C14.1555 23.8376 14.3462 23.791 14.5157 23.6992L23.3342 18.9065C23.5037 18.8146 23.6464 18.679 23.7466 18.5152C23.8483 18.3513 23.9034 18.1635 23.9091 17.9699C23.9147 17.7778 23.8681 17.5857 23.7763 17.4176C23.6831 17.2481 23.5475 17.1055 23.3836 17.0052L14.8236 11.7652C14.6598 11.6639 14.4719 11.6076 14.2784 11.6019C14.0848 11.597 13.8942 11.6426 13.7246 11.7346C13.5551 11.8272 13.4125 11.9627 13.3122 12.1272C13.2119 12.2919 13.1554 12.4808 13.1526 12.674Z" fill="url(#paint1_linear)"/>
  <defs>
    <linearGradient id="paint0_linear" x1="17.4646" y1="0.714844" x2="17.4646" y2="34.9311" gradientUnits="userSpaceOnUse">
      <stop stop-color="#FADD5B"/>
      <stop offset="1" stop-color="#F5C827"/>
    </linearGradient>
    <linearGradient id="paint1_linear" x1="18.4023" y1="11.6016" x2="18.4023" y2="23.8324" gradientUnits="userSpaceOnUse">
      <stop stop-color="#FADD5B"/>
      <stop offset="1" stop-color="#F5C827"/>
    </linearGradient>
  </defs>
</svg>
