<svg width="16" height="18" viewBox="0 0 16 18" fill="none" xmlns="http://www.w3.org/2000/svg">
    <path d="M4.17157 6.82737H2.94464C2.82367 6.82737 2.70766 6.87543 2.62212 6.96096C2.53658 7.0465 2.48853 7.16251 2.48853 7.28348V10.5419C2.48853 10.6629 2.53658 10.7789 2.62212 10.8644C2.70766 10.95 2.82367 10.998 2.94464 10.998C3.0656 10.998 3.18162 10.95 3.26715 10.8644C3.35269 10.7789 3.40074 10.6629 3.40074 10.5419V9.37154H4.17157C4.50917 9.36985 4.83236 9.23456 5.07049 8.99524C5.30861 8.75592 5.44229 8.43204 5.44228 8.09444C5.44363 7.92736 5.41165 7.76169 5.34822 7.60712C5.28479 7.45255 5.19118 7.31217 5.07287 7.1942C4.95455 7.07622 4.81391 6.98302 4.65915 6.92003C4.5044 6.85705 4.33864 6.82555 4.17157 6.82737ZM4.17157 8.45659H3.40074V7.73959H4.17157C4.21895 7.73846 4.26607 7.74697 4.31008 7.76459C4.35408 7.7822 4.39405 7.80857 4.42757 7.84209C4.46108 7.8756 4.48745 7.91557 4.50507 7.95958C4.52269 8.00358 4.53119 8.0507 4.53007 8.09809C4.53043 8.1454 4.52142 8.19231 4.50357 8.23612C4.48571 8.27993 4.45936 8.31978 4.42604 8.35336C4.39271 8.38694 4.35307 8.41359 4.30939 8.43178C4.26572 8.44996 4.21888 8.45933 4.17157 8.45933V8.45659ZM7.76934 6.8219H6.53785C6.41689 6.8219 6.30087 6.86995 6.21534 6.95549C6.1298 7.04103 6.08175 7.15704 6.08175 7.27801V10.5465C6.08175 10.6674 6.1298 10.7835 6.21534 10.869C6.30087 10.9545 6.41689 11.0026 6.53785 11.0026H7.76934C7.93706 11.0026 8.10312 10.9696 8.25807 10.9054C8.41301 10.8412 8.5538 10.7471 8.67239 10.6285C8.79098 10.5099 8.88505 10.3692 8.94923 10.2142C9.01341 10.0593 9.04645 9.89319 9.04645 9.72548V8.09444C9.04524 7.75652 8.91016 7.43286 8.67078 7.19434C8.43141 6.95582 8.10726 6.8219 7.76934 6.8219ZM8.13423 9.72913C8.13423 9.8259 8.09579 9.91871 8.02736 9.98714C7.95893 10.0556 7.86612 10.094 7.76934 10.094H6.99396V7.73411H7.76934C7.86612 7.73411 7.95893 7.77256 8.02736 7.84099C8.09579 7.90942 8.13423 8.00223 8.13423 8.099V9.72913ZM12.6616 7.27801C12.6616 7.39897 12.6135 7.51499 12.528 7.60052C12.4424 7.68606 12.3264 7.73411 12.2055 7.73411H10.61V8.45933H11.6672C11.7882 8.45933 11.9042 8.50738 11.9898 8.59292C12.0753 8.67845 12.1234 8.79447 12.1234 8.91543C12.1234 9.0364 12.0753 9.15241 11.9898 9.23795C11.9042 9.32349 11.7882 9.37154 11.6672 9.37154H10.61V10.5492C10.61 10.6702 10.5619 10.7862 10.4764 10.8717C10.3909 10.9573 10.2748 11.0053 10.1539 11.0053C10.0329 11.0053 9.9169 10.9573 9.83136 10.8717C9.74582 10.7862 9.69777 10.6702 9.69777 10.5492V7.27801C9.69777 7.15704 9.74582 7.04103 9.83136 6.95549C9.9169 6.86995 10.0329 6.8219 10.1539 6.8219H12.2018C12.3228 6.8219 12.4388 6.86995 12.5243 6.95549C12.6099 7.04103 12.6579 7.15704 12.6579 7.27801H12.6616ZM12.9297 0.600586H2.19844C1.90939 0.600705 1.62319 0.657802 1.35622 0.768612C1.08925 0.879422 0.846744 1.04177 0.642564 1.24637C0.438385 1.45098 0.276539 1.69382 0.166283 1.96102C0.0560271 2.22822 -0.000476555 2.51453 3.02744e-06 2.80359V15.0273C-1.95776e-06 15.6112 0.231327 16.1713 0.643354 16.585C1.05538 16.9988 1.61454 17.2324 2.19844 17.2348H10.3993C10.4744 17.2341 10.5484 17.2155 10.615 17.1806C10.6816 17.1457 10.739 17.0955 10.7824 17.0342L14.9877 12.8288L15.0151 12.8015C15.0478 12.7677 15.0727 12.7273 15.0881 12.6829C15.1132 12.6286 15.1257 12.5694 15.1245 12.5096V2.80359C15.125 2.51453 15.0685 2.22822 14.9583 1.96102C14.848 1.69382 14.6862 1.45098 14.482 1.24637C14.2778 1.04177 14.0353 0.879422 13.7683 0.768612C13.5013 0.657802 13.2152 0.600705 12.9261 0.600586H12.9297ZM9.9468 14.2473V16.3181H2.19844C1.85704 16.3164 1.53018 16.1797 1.2892 15.9379C1.04822 15.696 0.912697 15.3687 0.912219 15.0273V2.80359C0.911979 2.63461 0.945084 2.46725 1.00964 2.31109C1.07419 2.15493 1.16892 2.01304 1.28841 1.89355C1.40789 1.77407 1.54978 1.67934 1.70594 1.61478C1.8621 1.55023 2.02947 1.51712 2.19844 1.51736H12.9261C13.0951 1.51712 13.2624 1.55023 13.4186 1.61478C13.5748 1.67934 13.7166 1.77407 13.8361 1.89355C13.9556 2.01304 14.0504 2.15493 14.1149 2.31109C14.1795 2.46725 14.2126 2.63461 14.2123 2.80359V12.0535H12.1507C11.5671 12.0518 11.0067 12.2819 10.5927 12.6933C10.1787 13.1047 9.94509 13.6637 9.94315 14.2473H9.9468Z" fill="#25AFB5"/>
</svg>
