<svg width="16" height="17" viewBox="0 0 16 17" fill="none" xmlns="http://www.w3.org/2000/svg">
    <path d="M4.17157 6.22679H2.94464C2.82367 6.22679 2.70766 6.27484 2.62212 6.36038C2.53658 6.44591 2.48853 6.56193 2.48853 6.68289V9.94133C2.48853 10.0623 2.53658 10.1783 2.62212 10.2638C2.70766 10.3494 2.82367 10.3974 2.94464 10.3974C3.0656 10.3974 3.18162 10.3494 3.26715 10.2638C3.35269 10.1783 3.40074 10.0623 3.40074 9.94133V8.77096H4.17157C4.50917 8.76927 4.83236 8.63397 5.07049 8.39465C5.30861 8.15533 5.44229 7.83146 5.44228 7.49385C5.44363 7.32678 5.41165 7.16111 5.34822 7.00654C5.28479 6.85196 5.19118 6.71158 5.07287 6.59361C4.95455 6.47564 4.81391 6.38243 4.65915 6.31945C4.5044 6.25646 4.33864 6.22496 4.17157 6.22679ZM4.17157 7.856H3.40074V7.139H4.17157C4.21895 7.13788 4.26607 7.14638 4.31008 7.164C4.35408 7.18162 4.39405 7.20798 4.42757 7.2415C4.46108 7.27502 4.48745 7.31499 4.50507 7.35899C4.52269 7.40299 4.53119 7.45012 4.53007 7.4975C4.53043 7.54481 4.52142 7.59172 4.50357 7.63553C4.48571 7.67935 4.45936 7.71919 4.42604 7.75277C4.39271 7.78635 4.35307 7.813 4.30939 7.83119C4.26572 7.84938 4.21888 7.85874 4.17157 7.85874V7.856ZM7.76934 6.22131H6.53785C6.41689 6.22131 6.30087 6.26937 6.21534 6.3549C6.1298 6.44044 6.08175 6.55645 6.08175 6.67742V9.94589C6.08175 10.0669 6.1298 10.1829 6.21534 10.2684C6.30087 10.3539 6.41689 10.402 6.53785 10.402H7.76934C7.93706 10.402 8.10312 10.369 8.25807 10.3048C8.41301 10.2406 8.5538 10.1465 8.67239 10.0279C8.79098 9.90935 8.88505 9.76857 8.94923 9.61362C9.01341 9.45868 9.04645 9.29261 9.04645 9.12489V7.49385C9.04524 7.15594 8.91016 6.83227 8.67078 6.59375C8.43141 6.35523 8.10726 6.22131 7.76934 6.22131ZM8.13423 9.12854C8.13423 9.22532 8.09579 9.31813 8.02736 9.38656C7.95893 9.45499 7.86612 9.49343 7.76934 9.49343H6.99396V7.13353H7.76934C7.86612 7.13353 7.95893 7.17197 8.02736 7.2404C8.09579 7.30883 8.13423 7.40164 8.13423 7.49841V9.12854ZM12.6616 6.67742C12.6616 6.79839 12.6135 6.9144 12.528 6.99994C12.4424 7.08547 12.3264 7.13353 12.2055 7.13353H10.61V7.85874H11.6672C11.7882 7.85874 11.9042 7.90679 11.9898 7.99233C12.0753 8.07787 12.1234 8.19388 12.1234 8.31485C12.1234 8.43581 12.0753 8.55183 11.9898 8.63736C11.9042 8.7229 11.7882 8.77096 11.6672 8.77096H10.61V9.94863C10.61 10.0696 10.5619 10.1856 10.4764 10.2711C10.3909 10.3567 10.2748 10.4047 10.1539 10.4047C10.0329 10.4047 9.9169 10.3567 9.83136 10.2711C9.74582 10.1856 9.69777 10.0696 9.69777 9.94863V6.67742C9.69777 6.55645 9.74582 6.44044 9.83136 6.3549C9.9169 6.26937 10.0329 6.22131 10.1539 6.22131H12.2018C12.3228 6.22131 12.4388 6.26937 12.5243 6.3549C12.6099 6.44044 12.6579 6.55645 12.6579 6.67742H12.6616ZM12.9297 0H2.19844C1.90939 0.000119492 1.62319 0.0572165 1.35622 0.168026C1.08925 0.278836 0.846744 0.441184 0.642564 0.645787C0.438385 0.850391 0.276539 1.09324 0.166283 1.36044C0.0560271 1.62764 -0.000476555 1.91395 3.02744e-06 2.203V14.4267C-1.95776e-06 15.0106 0.231327 15.5707 0.643354 15.9845C1.05538 16.3982 1.61454 16.6318 2.19844 16.6343H10.3993C10.4744 16.6335 10.5484 16.6149 10.615 16.58C10.6816 16.5451 10.739 16.4949 10.7824 16.4336L14.9877 12.2283L15.0151 12.2009C15.0478 12.1672 15.0727 12.1267 15.0881 12.0823C15.1132 12.028 15.1257 11.9688 15.1245 11.909V2.203C15.125 1.91395 15.0685 1.62764 14.9583 1.36044C14.848 1.09324 14.6862 0.850391 14.482 0.645787C14.2778 0.441184 14.0353 0.278836 13.7683 0.168026C13.5013 0.0572165 13.2152 0.000119492 12.9261 0H12.9297ZM9.9468 13.6467V15.7175H2.19844C1.85704 15.7158 1.53018 15.5791 1.2892 15.3373C1.04822 15.0954 0.912697 14.7681 0.912219 14.4267V2.203C0.911979 2.03402 0.945084 1.86666 1.00964 1.7105C1.07419 1.55434 1.16892 1.41245 1.28841 1.29297C1.40789 1.17348 1.54978 1.07875 1.70594 1.0142C1.8621 0.949642 2.02947 0.916537 2.19844 0.916777H12.9261C13.0951 0.916537 13.2624 0.949642 13.4186 1.0142C13.5748 1.07875 13.7166 1.17348 13.8361 1.29297C13.9556 1.41245 14.0504 1.55434 14.1149 1.7105C14.1795 1.86666 14.2126 2.03402 14.2123 2.203V11.4529H12.1507C11.5671 11.4512 11.0067 11.6813 10.5927 12.0927C10.1787 12.5041 9.94509 13.0631 9.94315 13.6467H9.9468Z" fill="#4D4D4D"/>
</svg>
