<svg aria-hidden="true" data-prefix="far" data-icon="file-image" xmlns="http://www.w3.org/2000/svg" viewBox="0 0 384 512" class="svg-inline--fa fa-file-image fa-w-12 fa-9x">
  <path fill="#e8ad01" d="M369.9 97.9L286 14A48 48 0 00252.1-.1H48C21.5 0 0 21.5 0 48v416a48 48 0 0048 48h288a48 48 0 0048-48V131.9c0-12.7-5.1-25-14.1-34zM332.1 128H256V51.9l76.1 76.1zM48 464V48h160v104a24 24 0 0024 24h104v288H48zm32-48h224V288l-23.5-23.5a12 12 0 00-17 0L176 352l-39.5-39.5a12 12 0 00-17 0L80 352v64zm48-240a48 48 0 100 96 48 48 0 000-96z"/>
</svg>