<svg width="62" height="62" viewBox="0 0 62 62" fill="none" xmlns="http://www.w3.org/2000/svg">
  <circle cx="31" cy="31" r="27" fill="white"/>
  <path d="M31 0C39.5576 0 47.3218 3.45704 52.9324 9.06764C58.543 14.6782 62 22.4424 62 31C62 39.5576 58.543 47.3218 52.9324 52.9324C47.3218 58.543 39.5576 62 31 62C22.4424 62 14.6782 58.543 9.06764 52.9324C3.45704 47.3218 0 39.5576 0 31C0 22.4424 3.45704 14.6782 9.06764 9.06764C14.6782 3.45704 22.4424 0 31 0V0ZM31 38.7642C33.3236 38.7642 35.1938 40.6344 35.1938 42.958C35.1938 45.2815 33.3236 47.2084 31 47.2084C28.6764 47.2084 26.7495 45.2815 26.7495 42.958C26.7495 40.6344 28.6764 38.7642 31 38.7642ZM31 34.5137C29.4132 34.5137 28.3364 33.2102 28.1664 31.6801L26.7495 19.042C26.5229 16.8318 28.8464 14.7916 31 14.7916C33.1536 14.7916 35.4771 16.8318 35.1938 19.042L33.8336 31.6801C33.6636 33.2102 32.5868 34.5137 31 34.5137ZM48.9086 13.0347C44.3181 8.50091 37.9707 5.6106 31 5.6106C23.9726 5.6106 17.6252 8.50091 13.0347 13.0347C8.50091 17.6252 5.6106 23.9726 5.6106 31C5.6106 37.9707 8.50091 44.3181 13.0347 48.9086C17.6252 53.4991 23.9726 56.3327 31 56.3327C37.9707 56.3327 44.3181 53.4991 48.9086 48.9086C53.4991 44.3181 56.3327 37.9707 56.3327 31C56.3327 23.9726 53.4991 17.6252 48.9086 13.0347Z" fill="#FF3366"/>
</svg>
