<svg id="fd5fd746-1d86-46a5-80af-96f534c2ec04" data-name="business" xmlns="http://www.w3.org/2000/svg" viewBox="0 0 99.39 85.56"><defs><style>.abbd85ea-95aa-4c42-a354-cdd6cac397ac{fill:#25aeb4;}.fa4739d1-95e2-46e2-9a25-084e6efa29c8{fill:#fff;}</style></defs><g id="e0cd16b6-1ec2-4243-ab30-b794605ce0ec" data-name="business-solidv3"><path class="abbd85ea-95aa-4c42-a354-cdd6cac397ac" d="M58.47,11.25a6.05,6.05,0,0,1,6,6.05v3.42H34.85V17.3a6.06,6.06,0,0,1,6.06-6.05H58.47m0-4H40.91A10.08,10.08,0,0,0,30.82,17.3v7.45H68.55V17.3A10.08,10.08,0,0,0,58.47,7.22Z" transform="translate(0 -7.22)"/><path class="abbd85ea-95aa-4c42-a354-cdd6cac397ac" d="M56.85,15.13a3.38,3.38,0,0,1,3.38,3.39v5.24H39.14V18.52a3.39,3.39,0,0,1,3.38-3.39H56.85m0-1.34H42.52a4.72,4.72,0,0,0-4.72,4.73V25.1H61.58V18.52a4.73,4.73,0,0,0-4.73-4.73Z" transform="translate(0 -7.22)"/><path class="abbd85ea-95aa-4c42-a354-cdd6cac397ac" d="M3.61,40.43H95.77a0,0,0,0,1,0,0V77a6.58,6.58,0,0,1-6.58,6.58h-79A6.58,6.58,0,0,1,3.61,77V40.43a0,0,0,0,1,0,0Z"/><path class="abbd85ea-95aa-4c42-a354-cdd6cac397ac" d="M91.35,92.78H8a6.45,6.45,0,0,1-6.44-6.43V45.63H97.78V86.35A6.44,6.44,0,0,1,91.35,92.78ZM5.62,49.66V86.35A2.41,2.41,0,0,0,8,88.75H91.35a2.41,2.41,0,0,0,2.4-2.4V49.66Z" transform="translate(0 -7.22)"/><path class="abbd85ea-95aa-4c42-a354-cdd6cac397ac" d="M2.59,51.39A.77.77,0,0,1,2,50.65V26.07A3.59,3.59,0,0,1,5.6,22.49H93.77a3.58,3.58,0,0,1,3.58,3.58V50.65a.76.76,0,0,1-.57.74" transform="translate(0 -7.22)"/><path class="abbd85ea-95aa-4c42-a354-cdd6cac397ac" d="M2.07,53.34A2.79,2.79,0,0,1,0,50.65V26.07A5.6,5.6,0,0,1,5.6,20.48H93.77a5.6,5.6,0,0,1,5.6,5.59V50.65a2.79,2.79,0,0,1-2.07,2.69l-1-3.89a1.24,1.24,0,0,0-.92,1.2V26.07a1.56,1.56,0,0,0-1.57-1.56H5.6A1.56,1.56,0,0,0,4,26.07V50.65a1.24,1.24,0,0,0-.92-1.2Z" transform="translate(0 -7.22)"/><line class="abbd85ea-95aa-4c42-a354-cdd6cac397ac" x1="46.83" y1="51.54" x2="52.55" y2="51.54"/><rect class="fa4739d1-95e2-46e2-9a25-084e6efa29c8" x="46.83" y="49.53" width="5.72" height="4.03"/><path class="abbd85ea-95aa-4c42-a354-cdd6cac397ac" d="M66.49,19.93S66.28,9,58.08,9H40s-7.48.72-7.48,12h6.1l.71-5.21a28.71,28.71,0,0,1,3.08-1.87l9.45.25,5.14.43a13.35,13.35,0,0,1,2.61.49c.21.21,2.18,6,2.18,6s-1,.79.71.79,3.3.22,3.52,0A8.41,8.41,0,0,0,66.49,19.93Z" transform="translate(0 -7.22)"/><path class="fa4739d1-95e2-46e2-9a25-084e6efa29c8" d="M97.79,53.14l1.6-4.68L49.5,62,0,48.49v2.15a2.83,2.83,0,0,0,1.58,2.53,2.8,2.8,0,0,0,.73.2L49.5,66.13Z" transform="translate(0 -7.22)"/><path class="fa4739d1-95e2-46e2-9a25-084e6efa29c8" d="M99.33,48.49" transform="translate(0 -7.22)"/><path class="fa4739d1-95e2-46e2-9a25-084e6efa29c8" d="M99.39,48.46v2.17a2.67,2.67,0,0,1-1.58,2.53l-.37.08,0-1L98,50.75l.55-1.43.17-.66Z" transform="translate(0 -7.22)"/><rect class="abbd85ea-95aa-4c42-a354-cdd6cac397ac" x="44.32" y="51.54" width="10.34" height="11.95" rx="3.44"/><path class="fa4739d1-95e2-46e2-9a25-084e6efa29c8" d="M52.35,72.73H46.63A4.34,4.34,0,0,1,42.3,68.4V61.08a4.34,4.34,0,0,1,4.33-4.33h5.72a4.33,4.33,0,0,1,4.33,4.33V68.4A4.33,4.33,0,0,1,52.35,72.73Zm-5.72-12a.3.3,0,0,0-.3.3V68.4a.31.31,0,0,0,.3.3h5.72a.3.3,0,0,0,.3-.3V61.08a.29.29,0,0,0-.3-.3Z" transform="translate(0 -7.22)"/></g></svg>