<svg width="97" height="69" viewBox="0 0 97 69" fill="none" xmlns="http://www.w3.org/2000/svg">
    <path d="M89.5419 28.7585C86.2622 25.3864 82.0081 23.1274 77.3776 22.2977V10.452C77.3852 4.978 73.0022 0.537109 67.6193 0.537109H10.2564C4.86736 0.537109 0.484375 4.978 0.484375 10.452V48.465C0.484375 53.9335 4.86736 58.382 10.2564 58.382L54.9407 58.3813C55.6868 59.457 56.5226 60.4672 57.439 61.4016C61.6559 65.7459 67.4497 68.2017 73.5036 68.2112C79.5582 68.2202 85.3596 65.7825 89.5895 61.4512C98.4176 52.452 98.3969 37.7865 89.5419 28.7585ZM74.2883 10.452V21.9694C73.9986 21.9577 73.709 21.9501 73.4139 21.9501C67.3773 21.9404 61.5951 24.3788 57.3879 28.708C55.0033 31.1374 53.1898 34.0674 52.0782 37.285L47.751 34.1088L73.4649 7.15565C74.0124 8.16797 74.2979 9.30089 74.2965 10.4519L74.2883 10.452ZM10.2559 3.62645H67.6188C68.9773 3.62714 70.3027 4.04985 71.4108 4.8353L42.0849 35.5699C41.0423 36.6628 39.6866 37.1724 38.368 36.9677C38.3025 36.958 38.2384 36.9463 38.1749 36.9332C37.2964 36.7311 36.5034 36.2581 35.9082 35.5816L7.0061 4.49574C7.99498 3.92751 9.1153 3.62714 10.2559 3.62645ZM3.57319 48.4643V10.4513C3.57043 9.07898 3.97798 7.73775 4.74341 6.59928L30.212 33.9956L5.14944 52.8618C4.12816 51.624 3.57044 50.069 3.57319 48.4643ZM10.2559 55.2919C9.38977 55.2961 8.53192 55.1257 7.73198 54.7934L32.3249 36.2802L33.6434 37.6994C34.6778 38.8476 36.0473 39.642 37.5575 39.9695C37.6713 39.9929 37.7851 40.0136 37.8996 40.0315C38.2375 40.0832 38.5774 40.1095 38.9188 40.1088C40.9724 40.0805 42.9252 39.2151 44.3251 37.7125L45.605 36.3706L51.2258 40.497C50.2514 45.5055 50.9224 50.6947 53.1373 55.2907L10.2559 55.2919ZM87.3853 59.2867C83.7353 63.0257 78.729 65.1296 73.5039 65.1192C68.2789 65.1096 63.2801 62.987 59.6446 59.2343C51.9599 51.3992 51.9385 38.6751 59.5963 30.8688C63.2456 27.1291 68.252 25.0247 73.477 25.0342C78.7021 25.0437 83.7015 27.1664 87.337 30.9191C95.0198 38.7563 95.0369 51.48 87.3853 59.2881V59.2867Z"
          fill="black"/>
    <path d="M85.1412 37.2195C84.5047 36.6519 83.5289 36.7085 82.9613 37.345L70.2715 51.5987L64.9328 45.9745C64.3384 45.3973 63.395 45.3911 62.7944 45.9614C62.1931 46.531 62.149 47.4736 62.6931 48.0978L68.1187 53.8131L68.2097 53.9C68.771 54.4054 69.5006 54.6847 70.2564 54.684H70.4343C71.2508 54.6406 72.0149 54.2716 72.5575 53.6607L85.2762 39.4015C85.548 39.0939 85.6866 38.6912 85.661 38.2823C85.6355 37.8727 85.4487 37.4904 85.1412 37.2195Z"
          fill="black"/>
</svg>
