<svg id="b49c4583-38f4-4158-9b30-c2a236832b36" data-name="directions" xmlns="http://www.w3.org/2000/svg" viewBox="0 0 60.61 98.7"><defs><style>.a5ba9253-c061-42d9-a632-9a2913319e62{fill:#fff;}.baf4e853-b6ac-4c27-97cf-0ca9375f4a57{fill:#25aeb4;}</style></defs><g id="f45e3bc1-2819-485c-a7c9-71b33a34666b" data-name="directionpin-outline"><path class="a5ba9253-c061-42d9-a632-9a2913319e62" d="M50,92.67C40.45,75.81,23,42.63,23,31A27,27,0,0,1,77,31C77,42.63,59.55,75.81,50,92.67Z" transform="translate(-19.69 -0.65)"/><path class="baf4e853-b6ac-4c27-97cf-0ca9375f4a57" d="M50,7.32A23.66,23.66,0,0,1,73.64,31c0,9.16-12.81,35.31-23.64,54.91C39.17,66.26,26.36,40.11,26.36,31A23.66,23.66,0,0,1,50,7.32M50,.65A30.31,30.31,0,0,0,19.69,31C19.69,47.69,50,99.35,50,99.35S80.31,47.69,80.31,31A30.31,30.31,0,0,0,50,.65Z" transform="translate(-19.69 -0.65)"/><path class="baf4e853-b6ac-4c27-97cf-0ca9375f4a57" d="M50,35.75a7.17,7.17,0,1,1,7.16-7.16A7.17,7.17,0,0,1,50,35.75Z" transform="translate(-19.69 -0.65)"/><path class="baf4e853-b6ac-4c27-97cf-0ca9375f4a57" d="M50,22.81a5.77,5.77,0,1,1-4.08,1.69A5.78,5.78,0,0,1,50,22.81M50,20a8.56,8.56,0,1,0,8.55,8.56A8.55,8.55,0,0,0,50,20Z" transform="translate(-19.69 -0.65)"/></g></svg>