<svg id="be30d8c5-d027-4733-9e5e-2920a0cc89d9" data-name="directions" xmlns="http://www.w3.org/2000/svg" viewBox="0 0 99.28 91.3"><defs><style>.bfcedd95-e9d5-4b10-85f4-7a29d6e6c719{fill:#fff;}.b62233f0-5a70-4034-9c12-412987bbe046{fill:#25aeb4;}</style></defs><g id="b897c91d-f03d-49c1-aacb-64163faac8a9" data-name="direction-outline"><path class="bfcedd95-e9d5-4b10-85f4-7a29d6e6c719" d="M74.61,34.58H18.7a1.45,1.45,0,0,1-1.45-1.45v-19a1.45,1.45,0,0,1,1.45-1.46H74.61L95.89,23.16a.53.53,0,0,1,0,.95Z" transform="translate(-0.36 -4.35)"/><path class="b62233f0-5a70-4034-9c12-412987bbe046" d="M75.41,38H18.7a4.91,4.91,0,0,1-4.91-4.91v-19A4.92,4.92,0,0,1,18.7,9.22H75.41l22,10.83a4,4,0,0,1,0,7.16Zm-54.7-6.92H73.8L89,23.63,73.8,16.15H20.71Z" transform="translate(-0.36 -4.35)"/><path class="bfcedd95-e9d5-4b10-85f4-7a29d6e6c719" d="M25.56,45.55H82.33a.48.48,0,0,1,.48.48V67a.48.48,0,0,1-.48.48H25.56a.41.41,0,0,1-.21,0L4.09,56.93a.49.49,0,0,1,0-.87L25.35,45.6A.41.41,0,0,1,25.56,45.55Z" transform="translate(-0.36 -4.35)"/><path class="b62233f0-5a70-4034-9c12-412987bbe046" d="M82.33,70.9H25.56a4,4,0,0,1-1.74-.4L2.56,60a3.94,3.94,0,0,1,0-7.07L23.82,42.49a4,4,0,0,1,1.74-.4H82.33A4,4,0,0,1,86.27,46V67A3.94,3.94,0,0,1,82.33,70.9ZM26.26,64H79.35V49H26.26L11.05,56.5Z" transform="translate(-0.36 -4.35)"/><rect class="b62233f0-5a70-4034-9c12-412987bbe046" x="46.22" width="7.43" height="8.64"/><rect class="b62233f0-5a70-4034-9c12-412987bbe046" x="46.22" y="32.01" width="7.43" height="12.53"/><rect class="b62233f0-5a70-4034-9c12-412987bbe046" x="46.22" y="60.25" width="7.43" height="31.04"/></g></svg>