<svg id="ec6589d2-8009-4dd3-a3b1-dcd1032b8c06" data-name="directions" xmlns="http://www.w3.org/2000/svg" viewBox="0 0 98.97 93.37"><defs><style>.b321aea4-bc39-44bf-a9fc-65f707f58109{fill:#25aeb4;}.a84d52c1-90cc-44e0-a804-122232fee2fe{fill:#fff;}</style></defs><g id="fde9a76b-ed6e-480d-9592-38df482c9c86" data-name="direction-solid"><rect class="b321aea4-bc39-44bf-a9fc-65f707f58109" x="45.91" width="7.54" height="93.37"/><path class="b321aea4-bc39-44bf-a9fc-65f707f58109" d="M74.75,34.66H17.26a.61.61,0,0,1-.62-.61V13a.61.61,0,0,1,.62-.61H74.75a.63.63,0,0,1,.27.06l20.36,10a1.15,1.15,0,0,1,0,2.07L75,34.6A.63.63,0,0,1,74.75,34.66Z" transform="translate(-0.51 -3.31)"/><path class="b321aea4-bc39-44bf-a9fc-65f707f58109" d="M74.75,38.13H17.26a4.08,4.08,0,0,1-4.08-4.08V13A4.08,4.08,0,0,1,17.26,9H74.75a4.17,4.17,0,0,1,1.8.42l20.36,10a4.61,4.61,0,0,1,0,8.28l-20.36,10A4.17,4.17,0,0,1,74.75,38.13ZM20.1,31.2h54l15.55-7.65L74.09,15.89h-54Z" transform="translate(-0.51 -3.31)"/><path class="b321aea4-bc39-44bf-a9fc-65f707f58109" d="M25.26,45.8H82a1.26,1.26,0,0,1,1.26,1.26V66.78A1.25,1.25,0,0,1,82,68H25.26a1.24,1.24,0,0,1-.56-.13l-20-9.86a1.26,1.26,0,0,1,0-2.26l20-9.86A1.39,1.39,0,0,1,25.26,45.8Z" transform="translate(-0.51 -3.31)"/><path class="b321aea4-bc39-44bf-a9fc-65f707f58109" d="M82,71.5H25.26A4.88,4.88,0,0,1,23.17,71l-20-9.86a4.72,4.72,0,0,1,0-8.48l20-9.85a4.75,4.75,0,0,1,2.09-.49H82a4.73,4.73,0,0,1,4.72,4.72V66.78A4.73,4.73,0,0,1,82,71.5ZM26.23,64.8Zm-.46-.22h54V49.27h-54L10.22,56.92Z" transform="translate(-0.51 -3.31)"/><path class="b321aea4-bc39-44bf-a9fc-65f707f58109" d="M74.75,34.66H17.26a.61.61,0,0,1-.62-.61V13a.61.61,0,0,1,.62-.61H74.75a.63.63,0,0,1,.27.06l20.36,10a1.15,1.15,0,0,1,0,2.07L75,34.6A.63.63,0,0,1,74.75,34.66Z" transform="translate(-0.51 -3.31)"/><path class="b321aea4-bc39-44bf-a9fc-65f707f58109" d="M74.75,38.13H17.26a4.08,4.08,0,0,1-4.08-4.08V13A4.08,4.08,0,0,1,17.26,9H74.75a4.17,4.17,0,0,1,1.8.42l20.36,10a4.61,4.61,0,0,1,0,8.28l-20.36,10A4.17,4.17,0,0,1,74.75,38.13ZM20.1,31.2h54l15.55-7.65L74.09,15.89h-54Z" transform="translate(-0.51 -3.31)"/><polygon class="b321aea4-bc39-44bf-a9fc-65f707f58109" points="19.59 27.89 19.59 12.58 73.57 12.58 89.12 20.23 73.57 27.89 19.59 27.89"/><path class="a84d52c1-90cc-44e0-a804-122232fee2fe" d="M73.65,17.76l11.76,5.79L73.65,29.34H22V17.76H73.65M74.52,14H18.24v19H74.52l.78-.38,11.76-5.79,6.8-3.34-6.8-3.35L75.3,14.41,74.52,14Z" transform="translate(-0.51 -3.31)"/><path class="b321aea4-bc39-44bf-a9fc-65f707f58109" d="M25.26,45.8H82a1.26,1.26,0,0,1,1.26,1.26V66.78A1.25,1.25,0,0,1,82,68H25.26a1.24,1.24,0,0,1-.56-.13l-20-9.86a1.26,1.26,0,0,1,0-2.26l20-9.86A1.39,1.39,0,0,1,25.26,45.8Z" transform="translate(-0.51 -3.31)"/><path class="b321aea4-bc39-44bf-a9fc-65f707f58109" d="M82,71.5H25.26A4.88,4.88,0,0,1,23.17,71l-20-9.86a4.72,4.72,0,0,1,0-8.48l20-9.85a4.75,4.75,0,0,1,2.09-.49H82a4.73,4.73,0,0,1,4.72,4.72V66.78A4.73,4.73,0,0,1,82,71.5ZM26.23,64.8Zm-.46-.22h54V49.27h-54L10.22,56.92Z" transform="translate(-0.51 -3.31)"/><polygon class="b321aea4-bc39-44bf-a9fc-65f707f58109" points="25.26 61.26 9.71 53.61 25.26 45.95 79.24 45.95 79.24 61.26 25.26 61.26"/><path class="a84d52c1-90cc-44e0-a804-122232fee2fe" d="M77.89,51.13V62.71H26.21L14.45,56.92l11.76-5.79H77.89m3.73-3.73H25.34l-.78.39L12.8,53.58,6,56.92l6.8,3.35,11.76,5.79.78.38H81.62v-19Z" transform="translate(-0.51 -3.31)"/></g></svg>