<svg id="b34bb47e-39b2-4d42-a430-c1a50a18cfb8" data-name="email" xmlns="http://www.w3.org/2000/svg" viewBox="0 0 98.83 59.09"><defs><style>.b37c46df-a5a6-4794-b77b-0733104fa998,.b881dd31-47c6-48f6-8716-4932b6670a71{fill:#25aeb4;}.b37c46df-a5a6-4794-b77b-0733104fa998{stroke:#fff;stroke-linecap:round;stroke-miterlimit:10;stroke-width:2.92px;}.a93c0376-ffea-4379-aaaa-6bc84d225c94{fill:#fff;}</style></defs><g id="a62eb617-0fc0-4a40-8de3-4b20d4b74fd2" data-name="email-solid"><rect class="b881dd31-47c6-48f6-8716-4932b6670a71" x="1.46" y="1.46" width="95.91" height="56.17" rx="3.25"/><path class="b881dd31-47c6-48f6-8716-4932b6670a71" d="M94.7,23.38a1.79,1.79,0,0,1,1.79,1.78V74.84a1.79,1.79,0,0,1-1.79,1.78H5.3a1.79,1.79,0,0,1-1.79-1.78V25.16A1.79,1.79,0,0,1,5.3,23.38H94.7m0-2.93H5.3A4.71,4.71,0,0,0,.59,25.16V74.84A4.71,4.71,0,0,0,5.3,79.55H94.7a4.71,4.71,0,0,0,4.71-4.71V25.16a4.71,4.71,0,0,0-4.71-4.71Z" transform="translate(-0.59 -20.45)"/><path class="b37c46df-a5a6-4794-b77b-0733104fa998" d="M2.3,24.51,48,39.88a6.43,6.43,0,0,0,4.09,0L97.47,24.51" transform="translate(-0.59 -20.45)"/><path class="a93c0376-ffea-4379-aaaa-6bc84d225c94" d="M55.77,70.74a16.69,16.69,0,0,1-7.16,1.32A11.89,11.89,0,0,1,36.39,59.83,14.38,14.38,0,0,1,51,45.13c6.85,0,11.88,4.68,11.88,11.18,0,5.61-3.14,9.25-7.55,9.25a3.18,3.18,0,0,1-3.48-2.83h-.11A5.55,5.55,0,0,1,47,65.56c-2.63,0-4.41-1.94-4.41-5.15a8.66,8.66,0,0,1,9-8.9,11.59,11.59,0,0,1,4.8,1L55.3,59.72c-.3,2-.11,2.9.89,2.94,1.51.07,3.53-1.82,3.53-6.27,0-4.8-3.18-8.63-9.14-8.63-5.8,0-10.91,4.45-10.91,11.65,0,6.5,4.11,10,9.87,10a13.76,13.76,0,0,0,5.53-1.12Zm-4-15.67a3.62,3.62,0,0,0-.89-.11c-2.16,0-3.83,2.24-3.83,4.83,0,1.4.55,2.17,1.63,2.17s2.36-1.35,2.63-3.52Z" transform="translate(-0.59 -20.45)"/></g></svg>