<svg id="b8e576a5-e443-4139-94c0-8d606c16057a" data-name="photos" xmlns="http://www.w3.org/2000/svg" viewBox="0 0 77.47 99.56"><defs><style>.f62dde4a-ed8f-4610-8fdf-31f71de790ed{fill:#25aeb4;}.aa736f09-9c9a-4a84-9d66-71bfd29a132c{fill:#fff;}</style></defs><g id="b3b80462-970d-445c-9c8c-a281e5ca11fa" data-name="photos-solidv3"><rect class="f62dde4a-ed8f-4610-8fdf-31f71de790ed" x="2.33" y="2.33" width="72.81" height="94.9"/><path class="f62dde4a-ed8f-4610-8fdf-31f71de790ed" d="M88.74,100.27H11.26V.71H88.74ZM15.92,95.61H84.08V5.36H15.92Z" transform="translate(-11.26 -0.71)"/><polygon class="aa736f09-9c9a-4a84-9d66-71bfd29a132c" points="72.98 69.25 52.61 48.31 36.51 66.59 33.01 63.51 52.39 41.5 72.98 63 72.98 69.25"/><polygon class="aa736f09-9c9a-4a84-9d66-71bfd29a132c" points="4.76 72.97 4.68 66.47 17.88 53.09 35.29 68.41 32.21 71.91 18.08 59.47 4.76 72.97"/><path class="aa736f09-9c9a-4a84-9d66-71bfd29a132c" d="M37.89,45A12.15,12.15,0,1,1,50,32.86,12.16,12.16,0,0,1,37.89,45Zm0-22a9.82,9.82,0,1,0,9.82,9.82A9.83,9.83,0,0,0,37.89,23Z" transform="translate(-11.26 -0.71)"/><path class="aa736f09-9c9a-4a84-9d66-71bfd29a132c" d="M82.7,6.8V93.88H17.3V6.8H82.7m1.55-1.55H15.75V95.43h68.5V5.25Z" transform="translate(-11.26 -0.71)"/></g></svg>