<svg id="bc5ad9db-6061-4882-9fac-bf1e1956e502" data-name="photos" xmlns="http://www.w3.org/2000/svg" viewBox="0 0 77.5 99.6">
  <defs>
    <style>
      .e048cac3-b76b-4428-ae87-07155b9222a5{fill:#47b5b7}
    </style>
  </defs>
  <g id="beb0fdf1-aa8e-42ce-84dd-cb37fe8d4907" data-name="photos-outlinev3">
    <path class="e048cac3-b76b-4428-ae87-07155b9222a5" d="M88.7 100.3H11.2V.7h77.5ZM16 95.7h68.2V5.4H15.9Z" transform="translate(-11.2 -.7)"/>
    <path class="e048cac3-b76b-4428-ae87-07155b9222a5" d="M74.2 69.9 52.6 48.3 36.5 66.6 33 63.5l19.4-22 25.1 25.1-3.3 3.3zM3.4 74.2.1 70.9l17.8-17.8 17.4 15.3-3.1 3.5-14.1-12.4L3.4 74.2z"/>
    <path class="e048cac3-b76b-4428-ae87-07155b9222a5" d="M37.9 45A12.2 12.2 0 1 1 50 32.9 12.2 12.2 0 0 1 37.9 45Zm0-22a9.8 9.8 0 1 0 9.8 9.8 9.8 9.8 0 0 0-9.8-9.7Z" transform="translate(-11.2 -.7)"/>
    <path style="fill:none" d="M4.5 4.5H73v90.2H4.5z"/>
  </g>
</svg>