<svg id="f3d253df-1cd0-4338-a256-261d5c563710" data-name="pitchbox" xmlns="http://www.w3.org/2000/svg" viewBox="0 0 99.76 75.33"><defs><style>.ad14ef00-1ec4-4f7f-b81b-3cb5020f9f4a{fill:#fff;}.ad414cbf-39f5-495a-816c-7e712a8076fb,.aea0856b-eccc-4578-be9f-cb997795a587{fill:#25aeb4;}.a42808ad-22b3-480d-91ae-330f500b32eb{fill:none;}.a42808ad-22b3-480d-91ae-330f500b32eb,.ad414cbf-39f5-495a-816c-7e712a8076fb{stroke:#fff;stroke-miterlimit:10;stroke-width:0.56px;}</style></defs><g id="aaeac92f-aa5e-4fc7-b331-2ec638086f3e" data-name="pitchbox-outlinev3"><path class="ad14ef00-1ec4-4f7f-b81b-3cb5020f9f4a" d="M26.85,25.68h53A18.27,18.27,0,0,1,98.16,44V86h-53" transform="translate(-0.12 -12.34)"/><path class="aea0856b-eccc-4578-be9f-cb997795a587" d="M99.88,87.66H45.13V84.23H96.44V44A16.57,16.57,0,0,0,79.88,27.39h-53V24h53a20,20,0,0,1,20,20Z" transform="translate(-0.12 -12.34)"/><path class="aea0856b-eccc-4578-be9f-cb997795a587" d="M71.69,75.84A17.3,17.3,0,1,1,89,58.54,17.32,17.32,0,0,1,71.69,75.84Zm0-31.16A13.87,13.87,0,1,0,85.55,58.54,13.88,13.88,0,0,0,71.69,44.68Z" transform="translate(-0.12 -12.34)"/><path class="aea0856b-eccc-4578-be9f-cb997795a587" d="M69.36,62.16V69.4h-3.8v-17c0-1.21,0-2.42,0-3.6h3.7a17.82,17.82,0,0,1,.13,2,5.22,5.22,0,0,1,4.78-2.36c3.58,0,6.29,2.83,6.29,7.41,0,5.27-3.06,8.16-6.88,8.16C71.21,64,70,63.13,69.36,62.16ZM76.54,56c0-2.87-1.29-4.62-3.58-4.62-2.74,0-3.76,1.65-3.76,4.86s.89,4.88,3.57,4.88C75.28,61.1,76.54,59.22,76.54,56Z" transform="translate(-0.12 -12.34)"/><path class="ad14ef00-1ec4-4f7f-b81b-3cb5020f9f4a" d="M70,14.07H56.61v0H50.24v29.1a3.19,3.19,0,0,0,3.19,3.19h0a3.18,3.18,0,0,0,3.18-3.19V25.57H70Z" transform="translate(-0.12 -12.34)"/><path class="aea0856b-eccc-4578-be9f-cb997795a587" d="M53.43,48.05a4.91,4.91,0,0,1-4.9-4.9V12.35H71.71V27.29H58.33V43.15A4.91,4.91,0,0,1,53.43,48.05ZM52,15.77V43.15a1.47,1.47,0,0,0,2.94,0V23.85H68.27V15.79Z" transform="translate(-0.12 -12.34)"/><path class="ad14ef00-1ec4-4f7f-b81b-3cb5020f9f4a" d="M26.85,25.68h0a18.25,18.25,0,0,0-14.66,7.37h0A18.12,18.12,0,0,0,8.57,44V86H45.13V44A18.27,18.27,0,0,0,26.85,25.68Z" transform="translate(-0.12 -12.34)"/><path class="aea0856b-eccc-4578-be9f-cb997795a587" d="M26.85,24a19.86,19.86,0,0,0-16.76,9.09h4.29a16.56,16.56,0,0,1,29,10.9V84.23H10.29V82.37H6.86v5.29h40V44A20,20,0,0,0,26.85,24Z" transform="translate(-0.12 -12.34)"/><rect class="ad14ef00-1ec4-4f7f-b81b-3cb5020f9f4a" x="-6.13" y="44.35" width="43.09" height="27.29" transform="translate(73.29 30.25) rotate(90)"/><path class="aea0856b-eccc-4578-be9f-cb997795a587" d="M.12,81.19V34.8H30.71V81.19ZM3.42,38.1V77.9h24V38.1Z" transform="translate(-0.12 -12.34)"/><rect class="aea0856b-eccc-4578-be9f-cb997795a587" x="7.61" y="50.41" width="15.37" height="4.49"/><rect class="aea0856b-eccc-4578-be9f-cb997795a587" x="15.3" y="56.86" width="7.68" height="3.46"/><path class="ad14ef00-1ec4-4f7f-b81b-3cb5020f9f4a" d="M10.24,58.79a3.87,3.87,0,0,1-2-7.18,14,14,0,0,1,7.16-1.88,14.06,14.06,0,0,1,7.17,1.88,3.87,3.87,0,0,1-2,7.18Z" transform="translate(-0.12 -12.34)"/><circle class="ad14ef00-1ec4-4f7f-b81b-3cb5020f9f4a" cx="15.12" cy="47.16" r="5.16" transform="translate(-0.65 -12.16) rotate(-0.64)"/><path class="a42808ad-22b3-480d-91ae-330f500b32eb" d="M15.12,42.86a4.3,4.3,0,1,1-4.29,4.3,4.31,4.31,0,0,1,4.29-4.3m0-.87a5.17,5.17,0,1,0,5.17,5.17A5.16,5.16,0,0,0,15.12,42Z" transform="translate(-0.12 -12.34)"/><path class="aea0856b-eccc-4578-be9f-cb997795a587" d="M15.41,50.85a14,14,0,0,0-7.16,1.88,3.86,3.86,0,0,0,2,7.18H20.59a3.86,3.86,0,0,0,2-7.18,14.06,14.06,0,0,0-7.17-1.88Z" transform="translate(-0.12 -12.34)"/><circle class="ad414cbf-39f5-495a-816c-7e712a8076fb" cx="15.01" cy="35.94" r="4.58"/></g></svg>