<svg id="b4ffba3c-dbab-4f21-ad8c-0ac656b6e3d5" data-name="pitchbox" xmlns="http://www.w3.org/2000/svg" viewBox="0 0 99.91 75.22"><defs><style>.a816c044-922e-4dd1-a52c-ed358df841b4{fill:#4ba5ac;}.b65df86f-7a6a-47e3-9f97-8b59174a7916,.e8f7c124-307e-467f-8158-86413aba4351{fill:#25aeb4;}.e31484f2-f02b-4568-8dff-b6d7d6d9d572{fill:#fff;}.e8f7c124-307e-467f-8158-86413aba4351,.fe692f02-e43c-4564-ae1e-42afd4773697{stroke:#25aeb4;stroke-width:0.58px;}.e0562fe6-298a-41fc-b305-550fa58f6b6b,.e8f7c124-307e-467f-8158-86413aba4351,.fe692f02-e43c-4564-ae1e-42afd4773697{stroke-miterlimit:10;}.e0562fe6-298a-41fc-b305-550fa58f6b6b,.fe692f02-e43c-4564-ae1e-42afd4773697{fill:none;}.e0562fe6-298a-41fc-b305-550fa58f6b6b{stroke:#fff;stroke-width:0.56px;}</style></defs><g id="a7ee9f15-940c-4a37-bc4c-f2d8c13df536" data-name="pitchbox-solidv3"><path class="a816c044-922e-4dd1-a52c-ed358df841b4" d="M26.34,25.36h53A18.25,18.25,0,0,1,97.54,43.61V85.54H44.59" transform="translate(0.1 -12.39)"/><rect class="b65df86f-7a6a-47e3-9f97-8b59174a7916" x="3.07" y="25.15" width="24.47" height="40.31"/><path class="b65df86f-7a6a-47e3-9f97-8b59174a7916" d="M26.89,25.71h53A18.25,18.25,0,0,1,98.09,44V85.89H45.14" transform="translate(0.1 -12.39)"/><path class="b65df86f-7a6a-47e3-9f97-8b59174a7916" d="M99.81,87.61H45.14V84.18H96.37V44A16.55,16.55,0,0,0,79.84,27.43H26.89V24h53a20,20,0,0,1,20,20Z" transform="translate(0.1 -12.39)"/><path class="e31484f2-f02b-4568-8dff-b6d7d6d9d572" d="M70,14.12H50.24v29a3.18,3.18,0,0,0,3.18,3.18h0a3.18,3.18,0,0,0,3.18-3.18V25.6H70Z" transform="translate(0.1 -12.39)"/><path class="b65df86f-7a6a-47e3-9f97-8b59174a7916" d="M53.42,48.06a4.9,4.9,0,0,1-4.89-4.9V12.41l1.71,0,21.43,0V27.32H58.32V43.16A4.91,4.91,0,0,1,53.42,48.06ZM52,15.82V43.16a1.47,1.47,0,0,0,2.93,0V23.89H68.24v-8Z" transform="translate(0.1 -12.39)"/><path class="e31484f2-f02b-4568-8dff-b6d7d6d9d572" d="M26.89,25.71h0a18.2,18.2,0,0,0-14.64,7.37h0a17.43,17.43,0,0,0-1.76,2.86,18.12,18.12,0,0,0-1.86,8V85.89H45.14V44A18.25,18.25,0,0,0,26.89,25.71Z" transform="translate(0.1 -12.39)"/><path class="b65df86f-7a6a-47e3-9f97-8b59174a7916" d="M26.89,24a19.83,19.83,0,0,0-16.74,9.08h4.28A16.54,16.54,0,0,1,43.42,44V84.18H10.35V82.32H6.92v5.29H46.85V44A20,20,0,0,0,26.89,24Z" transform="translate(0.1 -12.39)"/><path class="e8f7c124-307e-467f-8158-86413aba4351" d="M.19,81.15V34.82H30.74V81.15Z" transform="translate(0.1 -12.39)"/><path class="b65df86f-7a6a-47e3-9f97-8b59174a7916" d="M71.65,44.68A13.85,13.85,0,1,0,85.5,58.53,13.86,13.86,0,0,0,71.65,44.68Z" transform="translate(0.1 -12.39)"/><rect class="e31484f2-f02b-4568-8dff-b6d7d6d9d572" x="7.89" y="50.33" width="15.35" height="4.48"/><rect class="e31484f2-f02b-4568-8dff-b6d7d6d9d572" x="15.32" y="56.77" width="7.92" height="3.46"/><path class="e31484f2-f02b-4568-8dff-b6d7d6d9d572" d="M3.59,38.22H27.34V77.75H3.59V38.22M1.84,36.47v43H29.09v-43Z" transform="translate(0.1 -12.39)"/><path class="e31484f2-f02b-4568-8dff-b6d7d6d9d572" d="M10.05,58.78a3.86,3.86,0,0,1-2-7.17,14,14,0,0,1,7.16-1.88,14,14,0,0,1,7.16,1.88,3.86,3.86,0,0,1-2,7.17Z" transform="translate(0.1 -12.39)"/><path class="e31484f2-f02b-4568-8dff-b6d7d6d9d572" d="M14.92,42a5.16,5.16,0,1,0,5.16,5.16A5.15,5.15,0,0,0,14.92,42Z" transform="translate(0.1 -12.39)"/><circle class="fe692f02-e43c-4564-ae1e-42afd4773697" cx="14.92" cy="47.16" r="5.16" transform="translate(-0.43 -12.22) rotate(-0.64)"/><path class="e0562fe6-298a-41fc-b305-550fa58f6b6b" d="M14.92,42.87a4.29,4.29,0,1,1-4.29,4.29,4.29,4.29,0,0,1,4.29-4.29" transform="translate(0.1 -12.39)"/><path class="e31484f2-f02b-4568-8dff-b6d7d6d9d572" d="M71.65,75.48A17.31,17.31,0,1,1,89,58.17,17.32,17.32,0,0,1,71.65,75.48Zm0-31.12A13.81,13.81,0,1,0,85.46,58.17,13.83,13.83,0,0,0,71.65,44.36Z" transform="translate(0.1 -12.39)"/><path class="e31484f2-f02b-4568-8dff-b6d7d6d9d572" d="M69.32,61.78V69H65.53V52c0-1.21,0-2.42,0-3.6h3.69a17.85,17.85,0,0,1,.13,2,5.19,5.19,0,0,1,4.77-2.36c3.58,0,6.29,2.82,6.29,7.39,0,5.26-3,8.15-6.87,8.15C71.17,63.62,70,62.76,69.32,61.78Zm7.17-6.17c0-2.86-1.28-4.61-3.57-4.61-2.74,0-3.76,1.65-3.76,4.85s.9,4.87,3.57,4.87C75.23,60.72,76.49,58.85,76.49,55.61Z" transform="translate(0.1 -12.39)"/></g></svg>