<svg id="a40b7628-acb6-4937-960c-e03446360e63" data-name="pocket" xmlns="http://www.w3.org/2000/svg" viewBox="0 0 89.8 98.14"><defs><style>.aafdfe42-7b6a-44e7-bedf-1e8c25175974{fill:#25aeb4;}.a0cb0ee0-5166-4e94-a844-605f8e44eab9{fill:#fff;}</style></defs><g id="ef1766be-b302-44ec-a4d6-1fdc721be5e9" data-name="pocket-solid"><path class="aafdfe42-7b6a-44e7-bedf-1e8c25175974" d="M56.41,99.07H43.91C29.15,99.07,5.1,88.39,5.1,72.34V.93H94.9V72.34C94.9,88.39,71.18,99.07,56.41,99.07Z" transform="translate(-5.1 -0.93)"/><path class="a0cb0ee0-5166-4e94-a844-605f8e44eab9" d="M87.52,12.7a1.22,1.22,0,0,1-1.22-1.22V8.23a1.22,1.22,0,0,1,2.43,0v3.25A1.22,1.22,0,0,1,87.52,12.7Z" transform="translate(-5.1 -0.93)"/><path class="a0cb0ee0-5166-4e94-a844-605f8e44eab9" d="M56.54,93H53.26a1.22,1.22,0,1,1,0-2.44h3.28a27.29,27.29,0,0,0,3-.18,1.22,1.22,0,0,1,.28,2.42A29.94,29.94,0,0,1,56.54,93Zm-9.75,0h-3a31,31,0,0,1-3.62-.23,1.23,1.23,0,0,1-1.06-1.36,1.22,1.22,0,0,1,1.36-1.06,28,28,0,0,0,3.32.21h3a1.22,1.22,0,0,1,0,2.44Zm19.28-1.48a1.22,1.22,0,0,1-.33-2.39,47.8,47.8,0,0,0,6-2.1,1.22,1.22,0,1,1,1,2.24,52.77,52.77,0,0,1-6.25,2.21A1.24,1.24,0,0,1,66.07,91.52ZM34,91.47a1.24,1.24,0,0,1-.33,0,52.14,52.14,0,0,1-6.25-2.21,1.22,1.22,0,0,1,1-2.24,49.63,49.63,0,0,0,6,2.1A1.22,1.22,0,0,1,34,91.47Zm44-5.06a1.21,1.21,0,0,1-.64-2.25,29.32,29.32,0,0,0,5-3.74,1.22,1.22,0,0,1,1.68,1.76,31.26,31.26,0,0,1-5.37,4A1.12,1.12,0,0,1,77.93,86.41Zm-55.82,0a1.21,1.21,0,0,1-.63-.18,32.36,32.36,0,0,1-5.38-4,1.22,1.22,0,0,1,1.67-1.77,30.34,30.34,0,0,0,5,3.72,1.22,1.22,0,0,1-.63,2.26Zm64.74-9.07a1.21,1.21,0,0,1-.46-.08,1.22,1.22,0,0,1-.67-1.59,7.71,7.71,0,0,0,.58-2.84V69.72a1.22,1.22,0,0,1,2.43,0V72.8A9.89,9.89,0,0,1,88,76.55,1.2,1.2,0,0,1,86.85,77.31Zm-73.69,0A1.22,1.22,0,0,1,12,76.55a9.7,9.7,0,0,1-.76-3.75V69.72a1.22,1.22,0,1,1,2.43,0V72.8a7.48,7.48,0,0,0,.59,2.83,1.23,1.23,0,0,1-.67,1.59A1.25,1.25,0,0,1,13.16,77.31ZM87.52,64.47a1.22,1.22,0,0,1-1.22-1.22V56.78a1.22,1.22,0,1,1,2.43,0v6.47A1.21,1.21,0,0,1,87.52,64.47Zm-75,0a1.21,1.21,0,0,1-1.21-1.21V56.78a1.22,1.22,0,1,1,2.43,0v6.47A1.22,1.22,0,0,1,12.48,64.46Zm75-12.93a1.22,1.22,0,0,1-1.22-1.22V43.84a1.22,1.22,0,1,1,2.43,0v6.47A1.22,1.22,0,0,1,87.52,51.53Zm-75,0a1.21,1.21,0,0,1-1.21-1.22V43.83a1.22,1.22,0,0,1,2.43,0V50.3A1.22,1.22,0,0,1,12.48,51.52Zm75-12.93a1.22,1.22,0,0,1-1.22-1.22V30.9a1.22,1.22,0,1,1,2.43,0v6.47A1.22,1.22,0,0,1,87.52,38.59Zm-75,0a1.22,1.22,0,0,1-1.21-1.22V30.89a1.22,1.22,0,1,1,2.43,0v6.47A1.22,1.22,0,0,1,12.48,38.58Zm75-12.94a1.22,1.22,0,0,1-1.22-1.22V18a1.22,1.22,0,0,1,2.43,0v6.47A1.21,1.21,0,0,1,87.52,25.64Zm-75,0a1.22,1.22,0,0,1-1.21-1.22V18a1.22,1.22,0,1,1,2.43,0v6.47A1.22,1.22,0,0,1,12.48,25.64Z" transform="translate(-5.1 -0.93)"/><path class="a0cb0ee0-5166-4e94-a844-605f8e44eab9" d="M12.48,12.7a1.22,1.22,0,0,1-1.21-1.22V8.23a1.22,1.22,0,0,1,2.43,0v3.25A1.22,1.22,0,0,1,12.48,12.7Z" transform="translate(-5.1 -0.93)"/><path class="a0cb0ee0-5166-4e94-a844-605f8e44eab9" d="M79.65,12.52H73.16a1.22,1.22,0,1,1,0-2.43h6.49a1.22,1.22,0,1,1,0,2.43Zm-13,0H60.17a1.22,1.22,0,1,1,0-2.43h6.49a1.22,1.22,0,1,1,0,2.43Zm-13,0h-6.5a1.22,1.22,0,1,1,0-2.43h6.5a1.22,1.22,0,0,1,0,2.43Zm-13,0H34.2a1.22,1.22,0,1,1,0-2.43h6.49a1.22,1.22,0,1,1,0,2.43Zm-13,0H21.21a1.22,1.22,0,1,1,0-2.43H27.7a1.22,1.22,0,1,1,0,2.43Z" transform="translate(-5.1 -0.93)"/></g></svg>