<svg width="18" height="19" viewBox="0 0 18 19" fill="none" xmlns="http://www.w3.org/2000/svg">
<path d="M9.95568 18.4371H7.63865C4.59717 18.4371 0 16.3501 0 13.2179V0H17.5341V13.2179C17.5341 16.3501 12.9719 18.4371 9.95568 18.4371ZM0.90312 0.872682V13.2179C0.90312 15.6989 4.98172 17.5643 7.63865 17.5643H9.95568C12.5816 17.5643 16.631 15.6989 16.631 13.2179V0.872682H0.90312Z" fill="#47B5B7"/>
<path d="M15.716 2.54295C15.6563 2.54295 15.599 2.52002 15.5567 2.47919C15.5144 2.43836 15.4907 2.38298 15.4907 2.32526V1.74347C15.4907 1.68573 15.5144 1.63035 15.5567 1.58952C15.599 1.54869 15.6563 1.52576 15.716 1.52576C15.7758 1.52576 15.8331 1.54869 15.8754 1.58952C15.9176 1.63035 15.9414 1.68573 15.9414 1.74347V2.32526C15.9414 2.38298 15.9176 2.43836 15.8754 2.47919C15.8331 2.52002 15.7758 2.54295 15.716 2.54295Z" fill="#47B5B7"/>
<path d="M1.81783 2.54295C1.75808 2.54295 1.70077 2.52002 1.65852 2.47919C1.61627 2.43836 1.59253 2.38298 1.59253 2.32526V1.74347C1.59253 1.68573 1.61627 1.63035 1.65852 1.58952C1.70077 1.54869 1.75808 1.52576 1.81783 1.52576C1.87758 1.52576 1.93488 1.54869 1.97714 1.58952C2.01938 1.63035 2.04312 1.68573 2.04312 1.74347V2.32526C2.04312 2.38298 2.01938 2.43836 1.97714 2.47919C1.93488 2.52002 1.87758 2.54295 1.81783 2.54295Z" fill="#47B5B7"/>
<path d="M9.97893 16.9131H9.37103C9.34143 16.9131 9.31214 16.9076 9.28481 16.8966C9.25747 16.8857 9.23264 16.8697 9.21172 16.8494C9.19079 16.8292 9.1742 16.8052 9.16287 16.7788C9.15155 16.7524 9.14573 16.7241 9.14573 16.6955C9.14573 16.6669 9.15155 16.6386 9.16287 16.6121C9.1742 16.5857 9.19079 16.5618 9.21172 16.5415C9.23264 16.5213 9.25747 16.5053 9.28481 16.4943C9.31214 16.4834 9.34143 16.4777 9.37103 16.4777H9.97893C10.1672 16.4771 10.3553 16.4658 10.5422 16.444C10.5716 16.4407 10.6015 16.443 10.63 16.4508C10.6585 16.4586 10.6852 16.4718 10.7084 16.4896C10.7317 16.5073 10.7512 16.5293 10.7656 16.5544C10.7801 16.5794 10.7893 16.6069 10.7927 16.6354C10.7962 16.6638 10.7938 16.6927 10.7857 16.7203C10.7776 16.7478 10.7639 16.7736 10.7456 16.7961C10.7272 16.8186 10.7044 16.8374 10.6785 16.8513C10.6525 16.8653 10.624 16.8742 10.5946 16.8775C10.3903 16.9009 10.1847 16.9128 9.97893 16.9131ZM8.17269 16.9131H7.61527C7.39191 16.9126 7.16879 16.8988 6.94717 16.8719C6.91668 16.8698 6.88696 16.8617 6.85979 16.8482C6.83263 16.8347 6.8086 16.816 6.78916 16.7932C6.76972 16.7704 6.75527 16.7442 6.7467 16.7158C6.73812 16.6875 6.73561 16.6577 6.73931 16.6284C6.74299 16.5991 6.75282 16.5708 6.76817 16.5453C6.78354 16.5197 6.8041 16.4976 6.82863 16.4799C6.85317 16.4623 6.88114 16.4498 6.91086 16.4429C6.94059 16.436 6.97145 16.4352 7.00155 16.4403C7.2052 16.4641 7.41013 16.4767 7.61527 16.4777H8.17269C8.20228 16.4777 8.23157 16.4834 8.2589 16.4943C8.28624 16.5053 8.31107 16.5213 8.33199 16.5415C8.35292 16.5618 8.36951 16.5857 8.38084 16.6121C8.39216 16.6386 8.39798 16.6669 8.39798 16.6955C8.39798 16.7241 8.39216 16.7524 8.38084 16.7788C8.36951 16.8052 8.35292 16.8292 8.33199 16.8494C8.31107 16.8697 8.28624 16.8857 8.2589 16.8966C8.23157 16.9076 8.20228 16.9131 8.17269 16.9131ZM11.7425 16.6504C11.6932 16.6502 11.6454 16.6345 11.6061 16.6058C11.5669 16.577 11.5384 16.5366 11.5249 16.4909C11.5088 16.4354 11.5161 16.376 11.5452 16.3256C11.5743 16.2754 11.6229 16.2382 11.6803 16.2225C12.0558 16.1199 12.4242 15.9945 12.7835 15.8471C12.8383 15.8247 12.9002 15.824 12.9556 15.8455C13.0108 15.867 13.0552 15.9087 13.0787 15.9617C13.1021 16.015 13.1027 16.075 13.0806 16.1288C13.0584 16.1826 13.0152 16.2257 12.9602 16.2488C12.5811 16.4047 12.1918 16.5363 11.7949 16.6429C11.7777 16.6473 11.7601 16.6498 11.7425 16.6504ZM5.80127 16.6504C5.78066 16.6533 5.75973 16.6533 5.73912 16.6504C5.34199 16.5444 4.95267 16.4127 4.5738 16.2563C4.5465 16.2452 4.52172 16.229 4.50089 16.2088C4.48006 16.1884 4.46358 16.1643 4.4524 16.1378C4.44122 16.1113 4.43554 16.083 4.43571 16.0543C4.43588 16.0257 4.44188 15.9975 4.45338 15.9711C4.47733 15.918 4.52186 15.8761 4.5774 15.8543C4.63295 15.8326 4.6951 15.8327 4.75054 15.8546C5.10954 16.0026 5.47802 16.1279 5.85371 16.23C5.90659 16.2438 5.95247 16.2757 5.98276 16.3198C6.01305 16.3638 6.02569 16.4171 6.01831 16.4696C6.01093 16.522 5.98405 16.5701 5.94267 16.6047C5.90129 16.6393 5.84827 16.6583 5.79351 16.6579L5.80127 16.6504ZM13.9391 15.7439C13.9002 15.7445 13.8618 15.7354 13.8278 15.7173C13.7937 15.6992 13.7651 15.6728 13.7448 15.6408C13.714 15.5912 13.7046 15.5317 13.7188 15.4756C13.7329 15.4193 13.7696 15.3708 13.8206 15.3405C14.1509 15.146 14.4588 14.9184 14.7393 14.6611C14.7826 14.621 14.8405 14.5992 14.9004 14.6004C14.9603 14.6017 15.0173 14.6259 15.0587 14.6677C15.1002 14.7095 15.1228 14.7655 15.1215 14.8234C15.1202 14.8813 15.0952 14.9363 15.0519 14.9764C14.7477 15.2509 14.4144 15.4936 14.0576 15.7008C14.0222 15.7228 13.9811 15.7345 13.9391 15.7346V15.7439ZM3.60077 15.7439C3.5597 15.7434 3.51952 15.7323 3.48423 15.712C3.12737 15.5056 2.79349 15.2641 2.48789 14.9914C2.44601 14.95 2.42256 14.8944 2.42256 14.8366C2.42256 14.7787 2.44601 14.7231 2.48789 14.6817C2.53038 14.6414 2.58758 14.6188 2.64715 14.6188C2.70672 14.6188 2.76391 14.6414 2.8064 14.6817C3.08621 14.9256 3.39148 15.1407 3.7173 15.3236C3.76026 15.348 3.79364 15.3854 3.81222 15.4301C3.83081 15.4747 3.83355 15.5241 3.82001 15.5705C3.80646 15.6168 3.77741 15.6575 3.73739 15.6862C3.69736 15.7148 3.64864 15.7299 3.59882 15.7289L3.60077 15.7439ZM15.5918 14.1225C15.562 14.1201 15.5328 14.1118 15.5064 14.0981C15.4511 14.0764 15.4068 14.0343 15.3835 13.9812C15.3603 13.9281 15.3597 13.8682 15.3821 13.8147C15.4521 13.6536 15.489 13.4808 15.4909 13.3061V12.7487C15.4909 12.6909 15.5146 12.6356 15.5569 12.5948C15.5991 12.5539 15.6564 12.531 15.7161 12.531C15.7759 12.531 15.8332 12.5539 15.8755 12.5948C15.9177 12.6356 15.9414 12.6909 15.9414 12.7487V13.2986C15.9394 13.5292 15.8913 13.7574 15.7997 13.9705C15.783 14.0107 15.7545 14.0452 15.7174 14.0696C15.6804 14.094 15.6367 14.1072 15.5918 14.1075V14.1225ZM1.94408 14.0981C1.89922 14.0981 1.85535 14.0852 1.81802 14.0611C1.7807 14.0372 1.75157 14.003 1.73431 13.963C1.64275 13.7499 1.5946 13.5218 1.59254 13.2911V12.7468C1.59254 12.689 1.61628 12.6337 1.65852 12.5929C1.70077 12.552 1.75807 12.5291 1.81783 12.5291C1.87758 12.5291 1.93489 12.552 1.97713 12.5929C2.01939 12.6337 2.04312 12.689 2.04312 12.7468V13.2986C2.04515 13.4727 2.0821 13.6447 2.15188 13.8053C2.16456 13.8322 2.17144 13.8612 2.17211 13.8908C2.17277 13.9203 2.16721 13.9497 2.15577 13.977C2.14432 14.0045 2.12722 14.0293 2.10553 14.0501C2.08382 14.071 2.05796 14.0872 2.02952 14.0981C2.00122 14.1024 1.97238 14.1024 1.94408 14.0981ZM15.7161 11.8085C15.6564 11.8085 15.5991 11.7855 15.5569 11.7447C15.5146 11.7039 15.4909 11.6485 15.4909 11.5907V10.4328C15.4909 10.3751 15.5146 10.3197 15.5569 10.2789C15.5991 10.238 15.6564 10.2151 15.7161 10.2151C15.7759 10.2151 15.8332 10.238 15.8755 10.2789C15.9177 10.3197 15.9414 10.3751 15.9414 10.4328V11.5907C15.9414 11.6485 15.9177 11.7039 15.8755 11.7447C15.8332 11.7855 15.7759 11.8085 15.7161 11.8085ZM1.81783 11.8085C1.75807 11.8085 1.70077 11.7855 1.65852 11.7447C1.61628 11.7039 1.59254 11.6485 1.59254 11.5907V10.4309C1.59254 10.3732 1.61628 10.3178 1.65852 10.277C1.70077 10.2362 1.75807 10.2132 1.81783 10.2132C1.87758 10.2132 1.93489 10.2362 1.97713 10.277C2.01939 10.3178 2.04312 10.3732 2.04312 10.4309V11.5888C2.04312 11.6466 2.01939 11.702 1.97713 11.7428C1.93489 11.7837 1.87758 11.8066 1.81783 11.8066V11.8085ZM15.7161 9.49256C15.6564 9.49256 15.5991 9.46962 15.5569 9.42879C15.5146 9.38796 15.4909 9.33259 15.4909 9.27485V8.11503C15.4909 8.05729 15.5146 8.00192 15.5569 7.96109C15.5991 7.92027 15.6564 7.89733 15.7161 7.89733C15.7759 7.89733 15.8332 7.92027 15.8755 7.96109C15.9177 8.00192 15.9414 8.05729 15.9414 8.11503V9.27485C15.9414 9.33259 15.9177 9.38796 15.8755 9.42879C15.8332 9.46962 15.7759 9.49256 15.7161 9.49256ZM1.81783 9.49256C1.75807 9.49256 1.70077 9.46962 1.65852 9.42879C1.61628 9.38796 1.59254 9.33259 1.59254 9.27485V8.11503C1.59254 8.05729 1.61628 8.00192 1.65852 7.96109C1.70077 7.92027 1.75807 7.89733 1.81783 7.89733C1.87758 7.89733 1.93489 7.92027 1.97713 7.96109C2.01939 8.00192 2.04312 8.05729 2.04312 8.11503V9.27297C2.04312 9.33071 2.01939 9.38608 1.97713 9.42691C1.93489 9.46774 1.87758 9.49068 1.81783 9.49068V9.49256ZM15.7161 7.17479C15.6581 7.17484 15.6022 7.15319 15.5602 7.11437C15.5182 7.07556 15.4933 7.02257 15.4909 6.96647V5.79914C15.4909 5.7414 15.5146 5.68602 15.5569 5.64521C15.5991 5.60438 15.6564 5.58144 15.7161 5.58144C15.7759 5.58144 15.8332 5.60438 15.8755 5.64521C15.9177 5.68602 15.9414 5.7414 15.9414 5.79914V6.96647C15.939 7.02257 15.9141 7.07556 15.8721 7.11437C15.8302 7.15319 15.7743 7.17484 15.7161 7.17479ZM1.81783 7.17479C1.75973 7.17484 1.70384 7.15319 1.66186 7.11437C1.61988 7.07556 1.59504 7.02257 1.59254 6.96647V5.79914C1.59254 5.7414 1.61628 5.68602 1.65852 5.64521C1.70077 5.60438 1.75807 5.58144 1.81783 5.58144C1.87758 5.58144 1.93489 5.60438 1.97713 5.64521C2.01939 5.68602 2.04312 5.7414 2.04312 5.79914V6.96647C2.04062 7.02257 2.01578 7.07556 1.9738 7.11437C1.93182 7.15319 1.87593 7.17484 1.81783 7.17479ZM15.7161 4.85889C15.6564 4.85889 15.5991 4.83596 15.5569 4.79514C15.5146 4.75431 15.4909 4.69893 15.4909 4.64119V3.48325C15.4909 3.42551 15.5146 3.37014 15.5569 3.32931C15.5991 3.28849 15.6564 3.26555 15.7161 3.26555C15.7759 3.26555 15.8332 3.28849 15.8755 3.32931C15.9177 3.37014 15.9414 3.42551 15.9414 3.48325V4.64119C15.9414 4.69893 15.9177 4.75431 15.8755 4.79514C15.8332 4.83596 15.7759 4.85889 15.7161 4.85889ZM1.81783 4.85889C1.78808 4.8589 1.75862 4.8532 1.73116 4.84215C1.7037 4.83109 1.67878 4.81488 1.65784 4.79447C1.63688 4.77406 1.62033 4.74983 1.60913 4.7232C1.59792 4.69658 1.59228 4.66807 1.59254 4.63931V3.48137C1.59254 3.42363 1.61628 3.36826 1.65852 3.32744C1.70077 3.28661 1.75807 3.26367 1.81783 3.26367C1.87758 3.26367 1.93489 3.28661 1.97713 3.32744C2.01939 3.36826 2.04312 3.42363 2.04312 3.48137V4.63931C2.04338 4.66807 2.03774 4.69658 2.02654 4.7232C2.01533 4.74983 1.99878 4.77406 1.97783 4.79447C1.95688 4.81488 1.93195 4.83109 1.9045 4.84215C1.87703 4.8532 1.84758 4.8589 1.81783 4.85889Z" fill="#47B5B7"/>
<path d="M14.2596 2.51109H13.0554C12.9957 2.51109 12.9384 2.48815 12.8961 2.44732C12.8539 2.4065 12.8302 2.35112 12.8302 2.29338C12.8302 2.23564 12.8539 2.18028 12.8961 2.13945C12.9384 2.09862 12.9957 2.07568 13.0554 2.07568H14.2596C14.3193 2.07568 14.3767 2.09862 14.4189 2.13945C14.4612 2.18028 14.4849 2.23564 14.4849 2.29338C14.4849 2.35112 14.4612 2.4065 14.4189 2.44732C14.3767 2.48815 14.3193 2.51109 14.2596 2.51109ZM11.8532 2.51109H10.651C10.5913 2.51109 10.5339 2.48815 10.4917 2.44732C10.4494 2.4065 10.4257 2.35112 10.4257 2.29338C10.4257 2.23564 10.4494 2.18028 10.4917 2.13945C10.5339 2.09862 10.5913 2.07568 10.651 2.07568H11.8532C11.9129 2.07568 11.9703 2.09862 12.0125 2.13945C12.0548 2.18028 12.0785 2.23564 12.0785 2.29338C12.0785 2.35112 12.0548 2.4065 12.0125 2.44732C11.9703 2.48815 11.9129 2.51109 11.8532 2.51109ZM9.44877 2.51109H8.24461C8.18486 2.51109 8.12754 2.48815 8.0853 2.44732C8.04305 2.4065 8.01931 2.35112 8.01931 2.29338C8.01931 2.23564 8.04305 2.18028 8.0853 2.13945C8.12754 2.09862 8.18486 2.07568 8.24461 2.07568H9.44877C9.50851 2.07568 9.56582 2.09862 9.60808 2.13945C9.65032 2.18028 9.67406 2.23564 9.67406 2.29338C9.67406 2.35112 9.65032 2.4065 9.60808 2.44732C9.56582 2.48815 9.50851 2.51109 9.44877 2.51109ZM7.04239 2.51109H5.84017C5.78042 2.51109 5.72312 2.48815 5.68087 2.44732C5.63861 2.4065 5.61487 2.35112 5.61487 2.29338C5.61487 2.23564 5.63861 2.18028 5.68087 2.13945C5.72312 2.09862 5.78042 2.07568 5.84017 2.07568H7.04239C7.10214 2.07568 7.15944 2.09862 7.2017 2.13945C7.24395 2.18028 7.26769 2.23564 7.26769 2.29338C7.26769 2.35112 7.24395 2.4065 7.2017 2.44732C7.15944 2.48815 7.10214 2.51109 7.04239 2.51109ZM4.63795 2.51109H3.43379C3.37404 2.51109 3.31674 2.48815 3.27449 2.44732C3.23223 2.4065 3.2085 2.35112 3.2085 2.29338C3.2085 2.23564 3.23223 2.18028 3.27449 2.13945C3.31674 2.09862 3.37404 2.07568 3.43379 2.07568H4.63795C4.69771 2.07568 4.75501 2.09862 4.79726 2.13945C4.83951 2.18028 4.86325 2.23564 4.86325 2.29338C4.86325 2.35112 4.83951 2.4065 4.79726 2.44732C4.75501 2.48815 4.69771 2.51109 4.63795 2.51109Z" fill="#47B5B7"/>
<path d="M12.6782 6.94117C12.4058 4.8007 10.1588 4.54165 8.4704 6.37967C6.67047 4.42021 4.23511 4.84411 4.23511 7.39046C4.23511 9.93681 8.4704 13.5971 8.4704 13.5971C8.4704 13.5971 12.7057 9.93681 12.7057 7.39046C12.7057 7.22334 12.6961 7.07467 12.6782 6.94117Z" fill="#25AFB5"/>
</svg>
