<svg data-name="pricing" xmlns="http://www.w3.org/2000/svg" viewBox="0 0 98.34 98.7">
    <defs>
        <style>
        .fbeb3661-73c1-4d30-9e3c-2b808b8d53a7 {
          fill: #fff;
        }

        .e15d6ea6-46a0-430f-8cad-874e9b65806f {
          fill: #F36;
        }
      </style>
    </defs>
    <g id="e2a3d169-565d-4ea2-ab49-0a5d22318678" data-name="pricing-outline">
        <ellipse class="fbeb3661-73c1-4d30-9e3c-2b808b8d53a7" cx="49.17" cy="49.35" rx="49.17" ry="49.35" />
        <path class="e15d6ea6-46a0-430f-8cad-874e9b65806f" d="M50,5.58A44.32,44.32,0,0,1,94.24,50,44.24,44.24,0,1,1,50,5.58M50,.65A49.35,49.35,0,1,0,99.17,50,49.25,49.25,0,0,0,50,.65Z" transform="translate(-0.83 -0.65)" />
        <path class="e15d6ea6-46a0-430f-8cad-874e9b65806f" d="M76,60.75c0-8.79-3.81-16-23-20C44,38.9,42.51,37.54,42.51,35.13c0-1.77,1.11-4,6.34-4,7.09,0,8,3.33,8.67,5.35h16.8c-.41-7.08-6-14.68-18.06-16.77v-6H43v5.91c-12.87,2-18.08,10.15-18.08,18.91,0,8.17,4.43,15.48,21.19,19,10.23,2.21,11.81,3.53,11.81,6.12,0,2.17-1.69,4.17-6.67,4.17-6.92,0-9.38-2.76-10.55-6.1H23.55c.77,8,7.29,16,19.93,18v7.25H56.73V79.79C70.08,77.82,76,70,76,60.75Z" transform="translate(-0.83 -0.65)" />
    </g>
</svg>