<svg id="bea0161c-3783-4282-bb74-9ccbe73326aa" data-name="pricing" xmlns="http://www.w3.org/2000/svg" viewBox="0 0 99 99.37"><defs><style>.f2766734-42c2-4eaf-95f3-e543ed45b065{fill:#25aeb4;}.a8730ed7-ed33-42bc-8ae3-d9306191ca46{fill:#fff;}</style></defs><g id="eae7da0e-07fa-4f13-85f0-d2e0b0e28821" data-name="pricing-solid"><ellipse class="f2766734-42c2-4eaf-95f3-e543ed45b065" cx="49.5" cy="49.68" rx="49.5" ry="49.68"/><path class="a8730ed7-ed33-42bc-8ae3-d9306191ca46" d="M40.66,61.85C41.83,65.21,44.31,68,51.28,68c5,0,6.71-2,6.71-4.2,0-2.6-1.59-3.94-11.89-6.16C29.23,54.07,24.78,46.71,24.78,38.48c0-10.15,7-19.51,24.65-19.51C66.31,19,74,28.06,74.48,36.41H57.57C56.92,34.39,56,31,48.85,31c-5.27,0-6.39,2.21-6.39,4,0,2.43,1.51,3.79,10.65,5.67,19.27,4,23.1,11.27,23.1,20.12,0,10.8-8,19.61-26.3,19.67-17,.06-25.64-9.37-26.54-18.64ZM43,24.11V13.5H56.31V24.11Zm.47,63.19V75.54H56.78V87.3Z" transform="translate(-0.5 -0.32)"/></g></svg>