<svg id="ecec9721-ad5d-45ed-84e6-44b3d7823ec3" data-name="referral" xmlns="http://www.w3.org/2000/svg" viewBox="0 0 99.22 88.51"><defs><style>.f17dd6f3-aa8e-4f1d-97a6-c521e0dfe6ef{fill:#fff;}.ae48d4be-39a4-4977-ac5c-1332b5e94441{fill:#25aeb4;}</style></defs><g id="ef4c258a-d5ff-4d13-a65d-36a7a26acd33" data-name="referral-outline"><path class="f17dd6f3-aa8e-4f1d-97a6-c521e0dfe6ef" d="M53.52,58.3c-11.86,0-16.23-15.67-6-21.74a42.59,42.59,0,0,1,21.7-5.7,42.55,42.55,0,0,1,21.69,5.7c10.2,6.07,5.83,21.74-6,21.74Z" transform="translate(-0.39 -5.75)"/><path class="ae48d4be-39a4-4977-ac5c-1332b5e94441" d="M69.18,34.25a38.94,38.94,0,0,1,20,5.23,8,8,0,0,1,3.72,9.29,8.07,8.07,0,0,1-8,6.13H53.52a8.08,8.08,0,0,1-8-6.13,8,8,0,0,1,3.73-9.29,38.94,38.94,0,0,1,20-5.23m0-3.39a42.59,42.59,0,0,0-21.7,5.7c-10.19,6.07-5.82,21.74,6,21.74H84.83c11.87,0,16.24-15.67,6-21.74a42.55,42.55,0,0,0-21.69-5.7Z" transform="translate(-0.39 -5.75)"/><circle class="f17dd6f3-aa8e-4f1d-97a6-c521e0dfe6ef" cx="67.91" cy="17.33" r="15.63"/><path class="ae48d4be-39a4-4977-ac5c-1332b5e94441" d="M68.3,40.4A17.33,17.33,0,1,1,85.63,23.08,17.34,17.34,0,0,1,68.3,40.4Zm0-31.26A13.94,13.94,0,1,0,82.23,23.08,13.95,13.95,0,0,0,68.3,9.14Z" transform="translate(-0.39 -5.75)"/><path class="f17dd6f3-aa8e-4f1d-97a6-c521e0dfe6ef" d="M15.55,93.36c-15.32,0-21-20.23-7.8-28.06a54.89,54.89,0,0,1,28-7.36,54.86,54.86,0,0,1,28,7.36C76.94,73.13,71.29,93.36,56,93.36Z" transform="translate(-0.39 -5.75)"/><path class="ae48d4be-39a4-4977-ac5c-1332b5e94441" d="M35.76,61.33A51.32,51.32,0,0,1,62,68.21,11.3,11.3,0,0,1,67.3,81.32,11.53,11.53,0,0,1,56,90H15.55A11.53,11.53,0,0,1,4.23,81.32,11.29,11.29,0,0,1,9.48,68.21a51.35,51.35,0,0,1,26.28-6.88m0-3.39a54.89,54.89,0,0,0-28,7.36C-5.41,73.13.23,93.36,15.55,93.36H56c15.31,0,21-20.23,7.79-28.06a54.86,54.86,0,0,0-28-7.36Z" transform="translate(-0.39 -5.75)"/><circle class="f17dd6f3-aa8e-4f1d-97a6-c521e0dfe6ef" cx="34.24" cy="42.14" r="20.18"/><path class="ae48d4be-39a4-4977-ac5c-1332b5e94441" d="M34.63,31.1A16.79,16.79,0,1,1,17.84,47.89,16.81,16.81,0,0,1,34.63,31.1m0-3.39A20.18,20.18,0,1,0,54.81,47.89,20.17,20.17,0,0,0,34.63,27.71Z" transform="translate(-0.39 -5.75)"/><path class="f17dd6f3-aa8e-4f1d-97a6-c521e0dfe6ef" d="M87.56,44.58,62.16,61l9.3,3.08C63.23,85.59,47.61,91.74,47.61,91.74c30.14,6.2,40.65-18.6,41.83-21.68l7.74,2.56Z" transform="translate(-0.39 -5.75)"/><path class="ae48d4be-39a4-4977-ac5c-1332b5e94441" d="M56.91,94.25a47.54,47.54,0,0,1-9.61-1l-5-1,4.75-1.88c.15,0,14.4-5.92,22.4-25.28L58.67,61.47l29.7-19.22L99.61,75,90.3,71.94C87.88,77.32,78.56,94.25,56.91,94.25ZM52.31,91c10.25,1.15,19-1.43,26.07-7.71A37.59,37.59,0,0,0,88,69.51l.52-1.35,6.21,2-8-23.3L65.65,60.58l7.8,2.58-.57,1.48C67.05,79.86,57.69,87.58,52.31,91Z" transform="translate(-0.39 -5.75)"/></g></svg>