<svg id="b236ddbc-8882-412c-8876-29b0fc0a66a2" data-name="referral" xmlns="http://www.w3.org/2000/svg" viewBox="0 0 99.57 90.35"><defs><style>.a129b72e-5075-40ac-adf7-eaa970fd667b{fill:#25aeb4;}.eb13b03a-3ad9-42fc-b1de-41f74f892a20{fill:none;}</style></defs><g id="f9be2cdd-62ce-4421-98a4-e3344e25b9e9" data-name="referral-solid"><path class="a129b72e-5075-40ac-adf7-eaa970fd667b" d="M58.7,94.52a43.42,43.42,0,0,1-4.89-.29C59.34,90.79,69.13,82.8,75.2,66.94l.57-1.48-8.13-2.69,22-14.25L98,72.82,91.5,70.67,91,72C90.1,74.33,81.7,94.52,58.7,94.52Z" transform="translate(-0.22 -4.83)"/><circle class="a129b72e-5075-40ac-adf7-eaa970fd667b" cx="70.3" cy="16.18" r="16.18"/><path class="a129b72e-5075-40ac-adf7-eaa970fd667b" d="M59.13,32.1a14.91,14.91,0,0,0,23.08-.38,47.17,47.17,0,0,0-23.08.38Z" transform="translate(-0.22 -4.83)"/><circle class="a129b72e-5075-40ac-adf7-eaa970fd667b" cx="35.44" cy="43.27" r="19.85"/><path class="eb13b03a-3ad9-42fc-b1de-41f74f892a20" d="M35.66,28.78A19.3,19.3,0,0,0,21,60.61a60.05,60.05,0,0,1,15.87-2.1,60.7,60.7,0,0,1,13.94,1.6A19,19,0,0,0,52,58.46c-9.73-2.56-12.54-16.4-3-22.09.45-.27.92-.52,1.39-.78A19.27,19.27,0,0,0,35.66,28.78Z" transform="translate(-0.22 -4.83)"/><path class="a129b72e-5075-40ac-adf7-eaa970fd667b" d="M52,58.46a19.24,19.24,0,0,0-1.59-22.87c-.47.26-.94.51-1.39.78C39.41,42.06,42.22,55.9,52,58.46Z" transform="translate(-0.22 -4.83)"/><path class="a129b72e-5075-40ac-adf7-eaa970fd667b" d="M21,60.61a19.27,19.27,0,0,0,29.81-.5,60.7,60.7,0,0,0-13.94-1.6A60.05,60.05,0,0,0,21,60.61Z" transform="translate(-0.22 -4.83)"/><path class="eb13b03a-3ad9-42fc-b1de-41f74f892a20" d="M70.39,70.16c.45-1,.9-1.93,1.32-3L61.53,63.84c1.49.7,2.93,1.46,4.3,2.28A15.92,15.92,0,0,1,70.39,70.16Z" transform="translate(-0.22 -4.83)"/><path class="a129b72e-5075-40ac-adf7-eaa970fd667b" d="M55.37,58.87H67.73L91.29,43.62,95.54,56c5.7-4.95,6.14-15-1.65-19.64a40.86,40.86,0,0,0-9.13-4,17.39,17.39,0,0,1-28.14.47c-1.15.39-2.26.83-3.35,1.31a22.38,22.38,0,0,1,2.1,24.69Z" transform="translate(-0.22 -4.83)"/><path class="a129b72e-5075-40ac-adf7-eaa970fd667b" d="M70.39,70.16a15.92,15.92,0,0,0-4.56-4c-1.37-.82-2.81-1.58-4.3-2.28l-1-.32.11-.07A53.7,53.7,0,0,0,54,61a22.43,22.43,0,0,1-36.33.61,51.68,51.68,0,0,0-9.87,4.52C-5.79,74.23.05,95.17,15.91,95.17H44l4.52-1.78C48.67,93.33,62,87.85,70.39,70.16Z" transform="translate(-0.22 -4.83)"/></g></svg>