<svg id="a9a76267-f946-4af0-9de5-9c3098c7f1c0" data-name="review" xmlns="http://www.w3.org/2000/svg" viewBox="0 0 98.79 91.3"><defs><style>.ab858f1d-9029-41b3-959b-f1f035661642{fill:#25aeb4;}.bee6b309-eeb8-4336-87c7-c5aeb0ebed9e{fill:#fff;}</style></defs><g id="b97047cf-c3c1-438a-8b17-0aa0f866be97" data-name="review-solid"><path class="ab858f1d-9029-41b3-959b-f1f035661642" d="M97.45,15V68.46a8.67,8.67,0,0,1-8.68,8.67H72.47a1.08,1.08,0,0,0-1.08,1.09V93.16a.55.55,0,0,1-.9.42c-2.92-2.5-12.31-10.53-19.2-16.45H11.23a8.67,8.67,0,0,1-8.68-8.67V15a8.68,8.68,0,0,1,8.68-8.68H88.77A8.68,8.68,0,0,1,97.45,15Z" transform="translate(-0.61 -4.35)"/><path class="ab858f1d-9029-41b3-959b-f1f035661642" d="M70.84,95.65a2.52,2.52,0,0,1-1.62-.6c-2.83-2.43-11.82-10.11-18.65-16H11.23A10.63,10.63,0,0,1,.61,68.46V15A10.63,10.63,0,0,1,11.23,4.35H88.77A10.63,10.63,0,0,1,99.39,15V68.46A10.63,10.63,0,0,1,88.77,79.08H73.33V93.16a2.49,2.49,0,0,1-1.45,2.26A2.54,2.54,0,0,1,70.84,95.65ZM11.23,8.23A6.75,6.75,0,0,0,4.49,15V68.46a6.74,6.74,0,0,0,6.74,6.73H52l.54.47L69.44,90.13V78.22a3,3,0,0,1,3-3h16.3a6.74,6.74,0,0,0,6.74-6.73V15a6.75,6.75,0,0,0-6.74-6.74Z" transform="translate(-0.61 -4.35)"/><path class="bee6b309-eeb8-4336-87c7-c5aeb0ebed9e" d="M30.36,42.36H19.09V33.68a12.72,12.72,0,0,1,2-7.56q2-2.78,6.84-4.9l2.44,4.61a12.1,12.1,0,0,0-4.12,2.79A5.66,5.66,0,0,0,25,31.9h5.39Zm13.14,0H32.23V33.68a12.72,12.72,0,0,1,2-7.56q2-2.78,6.84-4.9l2.44,4.61a12.1,12.1,0,0,0-4.12,2.79,5.59,5.59,0,0,0-1.27,3.28H43.5Z" transform="translate(-0.61 -4.35)"/><path class="bee6b309-eeb8-4336-87c7-c5aeb0ebed9e" d="M69.7,39.6H81v8.68a12.72,12.72,0,0,1-2,7.56q-2,2.77-6.84,4.9L69.7,56.13a12.06,12.06,0,0,0,4.12-2.79,5.63,5.63,0,0,0,1.27-3.28H69.7Zm-13.14,0H67.83v8.68a12.72,12.72,0,0,1-2,7.56q-2,2.77-6.84,4.9l-2.44-4.61a12,12,0,0,0,4.12-2.79A5.63,5.63,0,0,0,62,50.06H56.56Z" transform="translate(-0.61 -4.35)"/></g></svg>