<svg id="b4999731-3279-4e1d-877d-3e7825ffbcec" data-name="schedule" xmlns="http://www.w3.org/2000/svg" viewBox="0 0 99.3 82.03"><defs><style>.ad811191-2fb2-4219-ba17-3e74f0e9a743{fill:#25aeb4;}.af7bd292-8d80-4382-86b7-898b7af67a99{fill:#fff;}</style></defs><g id="befdac1f-2f67-492d-bcb2-edd7c4f2a489" data-name="schedule-solid"><rect class="ad811191-2fb2-4219-ba17-3e74f0e9a743" y="10.25" width="86.35" height="60.58" rx="9.16"/><rect class="af7bd292-8d80-4382-86b7-898b7af67a99" x="7.62" y="25.86" width="70.9" height="39.23"/><rect class="ad811191-2fb2-4219-ba17-3e74f0e9a743" x="14.32" y="30.22" width="17.05" height="13.58"/><rect class="ad811191-2fb2-4219-ba17-3e74f0e9a743" x="34.51" y="30.22" width="17.05" height="13.58"/><rect class="ad811191-2fb2-4219-ba17-3e74f0e9a743" x="54.7" y="30.22" width="17.05" height="13.58"/><rect class="ad811191-2fb2-4219-ba17-3e74f0e9a743" x="14.32" y="46.93" width="17.05" height="13.58"/><rect class="ad811191-2fb2-4219-ba17-3e74f0e9a743" x="34.51" y="46.93" width="17.05" height="13.58"/><path class="ad811191-2fb2-4219-ba17-3e74f0e9a743" d="M30.22,25a3.59,3.59,0,0,1-3.58-3.59v-8a3.59,3.59,0,0,1,7.17,0v8A3.59,3.59,0,0,1,30.22,25Z" transform="translate(-0.35 -8.98)"/><path class="af7bd292-8d80-4382-86b7-898b7af67a99" d="M30.22,10.59A2.78,2.78,0,0,1,33,13.37v8a2.77,2.77,0,0,1-2.78,2.78h0a2.77,2.77,0,0,1-2.77-2.78v-8a2.78,2.78,0,0,1,2.77-2.78h0m0-1.61a4.39,4.39,0,0,0-4.38,4.39v8a4.39,4.39,0,1,0,8.77,0v-8A4.4,4.4,0,0,0,30.22,9Z" transform="translate(-0.35 -8.98)"/><path class="ad811191-2fb2-4219-ba17-3e74f0e9a743" d="M57.16,25a3.58,3.58,0,0,1-3.58-3.59v-8a3.58,3.58,0,0,1,7.16,0v8A3.59,3.59,0,0,1,57.16,25Z" transform="translate(-0.35 -8.98)"/><path class="af7bd292-8d80-4382-86b7-898b7af67a99" d="M57.16,10.59a2.78,2.78,0,0,1,2.77,2.78v8a2.77,2.77,0,0,1-2.77,2.78h0a2.77,2.77,0,0,1-2.78-2.78v-8a2.78,2.78,0,0,1,2.78-2.78h0m0-1.61a4.4,4.4,0,0,0-4.39,4.39v8a4.39,4.39,0,0,0,8.78,0v-8A4.4,4.4,0,0,0,57.16,9Z" transform="translate(-0.35 -8.98)"/><path class="af7bd292-8d80-4382-86b7-898b7af67a99" d="M77.13,89.81A21.31,21.31,0,1,1,98.44,68.5,21.33,21.33,0,0,1,77.13,89.81Z" transform="translate(-0.35 -8.98)"/><path class="af7bd292-8d80-4382-86b7-898b7af67a99" d="M77.13,48.4A20.1,20.1,0,1,1,57,68.5a20.1,20.1,0,0,1,20.1-20.1m0-2.42A22.52,22.52,0,1,0,99.65,68.5,22.54,22.54,0,0,0,77.13,46Z" transform="translate(-0.35 -8.98)"/><path class="ad811191-2fb2-4219-ba17-3e74f0e9a743" d="M77.13,53.15A15.35,15.35,0,1,1,61.78,68.5,15.37,15.37,0,0,1,77.13,53.15m0-4.75a20.1,20.1,0,1,0,20.1,20.1,20.1,20.1,0,0,0-20.1-20.1Z" transform="translate(-0.35 -8.98)"/><path class="ad811191-2fb2-4219-ba17-3e74f0e9a743" d="M86.84,70.33H76.61V58.45a2,2,0,0,0-3.91,0V72.79a1.42,1.42,0,0,0,1.41,1.42l12.73,0a2,2,0,1,0,0-3.91Z" transform="translate(-0.35 -8.98)"/></g></svg>