<svg id="a6b0d69a-eb89-4c85-8f61-2c3969593ba4" data-name="Layer 1" xmlns="http://www.w3.org/2000/svg" viewBox="0 0 20 19.02"><defs><style>.adb93693-3015-4846-94d1-44ac4bc2af36{fill:#fff;}.b8ce352d-7cda-4376-b330-e6ae8a42462e{fill:#e8ad01;}</style></defs><title>star-half</title><polygon class="adb93693-3015-4846-94d1-44ac4bc2af36" points="5.46 11.99 0.93 7.57 7.2 6.66 10 0.97 12.8 6.66 19.07 7.57 14.54 11.99 15.61 18.23 10 15.29 4.39 18.23 5.46 11.99"/><path class="b8ce352d-7cda-4376-b330-e6ae8a42462e" d="M10,2l2.32,4.69.2.41.45.06,5.18.76L14.4,11.52l-.33.32.08.44L15,17.45,10.4,15,10,14.8,9.6,15,5,17.45l.89-5.17.08-.44-.33-.32L1.85,7.87,7,7.11l.45-.06.2-.41L10,2M10,0,6.91,6.26,0,7.27l5,4.87L3.82,19,10,15.77,16.18,19,15,12.14l5-4.87-6.91-1L10,0Z" transform="translate(0 0)"/><polygon class="b8ce352d-7cda-4376-b330-e6ae8a42462e" points="5.46 11.99 0.93 7.57 7.2 6.66 9.57 1.85 9.57 15.51 4.39 18.23 5.46 11.99"/><path class="b8ce352d-7cda-4376-b330-e6ae8a42462e" d="M9.14,3.69V15.25L5,17.45l.89-5.17.08-.44-.33-.32L1.85,7.87,7,7.11l.45-.06.2-.41L9.14,3.69M10,0,6.91,6.26,0,7.27l5,4.87L3.82,19,10,15.77V0Z" transform="translate(0 0)"/></svg>