<svg width="16" height="13" viewBox="0 0 16 13" fill="none" xmlns="http://www.w3.org/2000/svg">
  <g clip-path="url(#clip0)">
    <path d="M2.80313 10.6145C2.80313 11.1415 2.79511 11.6684 2.80313 12.1953C2.80782 12.2677 2.79779 12.3403 2.77238 12.4082C2.74696 12.4761 2.7075 12.5378 2.65666 12.589C2.60583 12.6401 2.54497 12.6795 2.47742 12.7047C2.41053 12.7298 2.3383 12.74 2.26674 12.7345C1.68218 12.7208 1.09762 12.7345 0.51173 12.7345C0.44284 12.7417 0.372608 12.7329 0.307731 12.7092C0.242186 12.6854 0.182664 12.6472 0.133839 12.5973C0.085683 12.5473 0.0482271 12.4869 0.0254868 12.4205C0.00274662 12.3542 -0.00460821 12.2835 0.00274892 12.2137C0.00274892 11.6608 0.00274892 11.1078 0.00274892 10.5548V9.00318C-0.00527704 8.90031 0.019466 8.79753 0.0743101 8.71043C0.129154 8.62333 0.210088 8.55663 0.305731 8.52063C0.36927 8.49813 0.435478 8.48781 0.502361 8.49C1.10832 8.49 1.71429 8.49 2.32024 8.49C2.38578 8.48423 2.452 8.49301 2.51421 8.51584C2.57641 8.53851 2.63259 8.57474 2.67941 8.62179C2.72622 8.66899 2.76235 8.72579 2.78508 8.78843C2.8085 8.85124 2.81718 8.91811 2.81184 8.98473C2.80447 9.527 2.80313 10.0708 2.80313 10.6145Z" fill="#F7CE37"/>
    <path d="M10.8854 9.90734C10.8854 10.6733 10.8767 11.4391 10.8854 12.205C10.8888 12.2748 10.8775 12.3444 10.8527 12.4096C10.828 12.4747 10.7905 12.534 10.7417 12.5836C10.6935 12.6333 10.6353 12.6722 10.5712 12.698C10.5069 12.7238 10.438 12.7359 10.3692 12.7335C9.77385 12.7213 9.18064 12.7335 8.58533 12.7335C8.51781 12.738 8.45029 12.7279 8.3874 12.7039C8.32386 12.6798 8.26699 12.6424 8.21954 12.594C8.17136 12.5458 8.13455 12.4876 8.11116 12.4237C8.08775 12.3598 8.07772 12.2915 8.0824 12.2235V7.58821C8.07704 7.51927 8.08641 7.44994 8.10982 7.38489C8.13325 7.31992 8.17071 7.26084 8.21881 7.21175C8.26699 7.1626 8.32516 7.12451 8.3887 7.1001C8.45289 7.07576 8.52179 7.06564 8.59004 7.07054C9.18861 7.07054 9.78588 7.07054 10.3825 7.07054C10.4494 7.06604 10.5163 7.0759 10.5785 7.09957C10.6407 7.12317 10.6975 7.15999 10.745 7.20753C10.7918 7.25507 10.8286 7.31221 10.8527 7.37524C10.8761 7.43821 10.8868 7.50566 10.8828 7.57292L10.8854 9.90734Z" fill="#F7CE37"/>
    <path d="M4.04648 9.78727C4.04648 8.98615 4.04648 8.18348 4.04648 7.38234C4.04648 6.96418 4.05384 6.54756 4.06187 6.13087C4.05652 6.0667 4.06588 6.00212 4.08795 5.94184C4.11069 5.88149 4.14546 5.82684 4.19095 5.78178C4.23643 5.73665 4.29127 5.70211 4.35147 5.68066C4.411 5.6592 4.4752 5.65135 4.53875 5.65758C5.12799 5.65758 5.71656 5.66831 6.30446 5.65758C6.37804 5.65048 6.45228 5.6598 6.52117 5.68514C6.59073 5.71043 6.65426 5.75093 6.70643 5.80384C6.75793 5.85668 6.79806 5.92058 6.82281 5.99092C6.84756 6.06126 6.85692 6.13623 6.84956 6.21054C6.8402 6.33459 6.84956 6.46179 6.84956 6.58585C6.84956 8.46891 6.84956 10.3504 6.84956 12.2305C6.85291 12.2969 6.84287 12.3635 6.81879 12.4256C6.79538 12.4878 6.75861 12.5442 6.71179 12.591C6.66564 12.6379 6.60945 12.6742 6.54792 12.6976C6.48572 12.721 6.42017 12.731 6.35463 12.7267H4.54744C4.47989 12.734 4.41166 12.7258 4.34813 12.7029C4.28391 12.68 4.22573 12.6429 4.17757 12.5942C4.13009 12.5456 4.0933 12.4866 4.07056 12.4219C4.04849 12.357 4.04046 12.288 4.04783 12.2197C4.04715 11.4099 4.04648 10.5991 4.04648 9.78727Z" fill="#F7CE37"/>
    <path d="M1.43757 7.06821C1.10382 7.07552 0.778759 6.96192 0.521258 6.74808C0.263088 6.53417 0.0892001 6.23409 0.0310118 5.90196C-0.0271767 5.56976 0.0336795 5.2275 0.202894 4.93688C0.372109 4.64619 0.63898 4.42639 0.954669 4.31715C1.16936 4.23836 1.40011 4.21609 1.62618 4.25257C1.85157 4.28898 2.06493 4.38287 2.24485 4.52543C2.26692 4.54735 2.29702 4.55956 2.32778 4.55956C2.35921 4.55956 2.38864 4.54735 2.41138 4.52543C2.95916 4.13636 3.50894 3.74831 4.06006 3.36133C4.07209 3.3557 4.0828 3.34778 4.09216 3.33792C4.10086 3.32813 4.10754 3.3166 4.11223 3.30406C4.11691 3.29158 4.11892 3.27824 4.11825 3.26497C4.11758 3.25163 4.11424 3.23854 4.10889 3.22648C4.05939 3.04777 4.04468 2.86089 4.06608 2.67655C4.08815 2.49214 4.14567 2.3139 4.2353 2.15196C4.32492 1.99002 4.44531 1.84759 4.58978 1.73273C4.73357 1.61786 4.89878 1.53283 5.07603 1.4826C5.2526 1.43224 5.43718 1.4177 5.61978 1.43963C5.8017 1.46155 5.97828 1.51963 6.13813 1.61042C6.29798 1.70121 6.4391 1.82306 6.5528 1.96896C6.66584 2.11482 6.75011 2.28185 6.79961 2.46062C6.8297 2.58502 6.84442 2.71256 6.84374 2.8405C6.8404 2.86866 6.84776 2.89716 6.86381 2.92036C6.87986 2.94357 6.90394 2.95986 6.93136 2.9661C7.31795 3.09934 7.70855 3.22493 8.08845 3.37508C8.15267 3.40967 8.22693 3.4188 8.29778 3.40069C8.36807 3.38252 8.42892 3.33846 8.46898 3.27704C8.69778 3.01645 9.01547 2.85324 9.35858 2.82025C9.7017 2.78732 10.0448 2.88704 10.3177 3.09934C10.3411 3.12247 10.3725 3.13541 10.4046 3.13541C10.4374 3.13541 10.4689 3.12247 10.4923 3.09934C11.0313 2.72255 11.5724 2.34622 12.1155 1.97044C12.1476 1.95253 12.1724 1.92343 12.185 1.88843C12.1971 1.85349 12.1971 1.81513 12.1837 1.78047C12.1115 1.5103 12.1202 1.22451 12.2092 0.959368C12.2974 0.694224 12.4627 0.461805 12.682 0.291482C12.9014 0.121158 13.1662 0.02071 13.4425 0.00287294C13.7187 -0.0149641 13.9936 0.0505494 14.233 0.191234C14.4725 0.331851 14.6651 0.541198 14.7862 0.792727C14.9079 1.04426 14.9526 1.32656 14.9145 1.60391C14.8771 1.88125 14.7594 2.14104 14.5755 2.35025C14.3915 2.55953 14.1508 2.70887 13.8826 2.7792C13.6812 2.83634 13.4699 2.84506 13.2645 2.80463C13.0599 2.76419 12.8666 2.67574 12.7014 2.54639C12.6773 2.52205 12.6446 2.50837 12.6105 2.50837C12.5763 2.50837 12.5436 2.52205 12.5195 2.54639C11.9791 2.93083 11.434 3.31224 10.8888 3.68756C10.8594 3.70177 10.8367 3.72718 10.826 3.75824C10.8153 3.78928 10.8173 3.82335 10.8313 3.85299C10.8868 4.04866 10.8996 4.25412 10.8694 4.45535C10.8394 4.65666 10.7671 4.84898 10.6568 5.01923C10.5464 5.18949 10.4013 5.33366 10.2307 5.44195C10.0602 5.55025 9.86892 5.62005 9.66888 5.64667C9.46957 5.6733 9.26693 5.65606 9.07429 5.59618C8.88238 5.5363 8.70509 5.43511 8.55462 5.29966C8.40479 5.16414 8.28511 4.99744 8.20418 4.81095C8.12389 4.62454 8.08377 4.42263 8.08711 4.21904C8.09247 4.18921 8.08577 4.15849 8.06905 4.13348C8.05166 4.10854 8.02558 4.09137 7.99615 4.0858C7.55539 3.93265 7.11463 3.77942 6.67587 3.62627C6.6197 3.60635 6.59561 3.62626 6.56484 3.66764C6.41971 3.8684 6.22307 4.02592 5.99701 4.12376C5.77028 4.22153 5.52213 4.25606 5.27801 4.22367C5.03455 4.2 4.80314 4.10585 4.61185 3.95256C4.59045 3.93372 4.5637 3.92333 4.53561 3.92333C4.50819 3.92333 4.48076 3.93372 4.46002 3.95256C3.91693 4.34062 3.37182 4.72512 2.82472 5.106C2.79262 5.12276 2.76854 5.151 2.75651 5.18499C2.74447 5.21906 2.7458 5.25648 2.75918 5.28981C2.84346 5.58814 2.82607 5.90645 2.70902 6.19326C2.59264 6.48012 2.3833 6.71877 2.11576 6.87059C1.91444 7.0037 1.67835 7.07257 1.43757 7.06821ZM0.707193 5.6574C0.705856 5.75001 0.723254 5.84201 0.757364 5.92791C0.791475 6.01381 0.842301 6.09193 0.906513 6.15771C0.971383 6.22356 1.04763 6.2756 1.13257 6.31094C1.21751 6.34634 1.30781 6.36418 1.39944 6.36357C1.49241 6.36794 1.58538 6.35312 1.67233 6.32013C1.75927 6.28713 1.83886 6.23657 1.90575 6.17152C1.9733 6.10648 2.02614 6.02836 2.06293 5.94179C2.09904 5.85529 2.11776 5.76214 2.1171 5.66813C2.11108 5.47977 2.03416 5.30086 1.90308 5.16729C1.77131 5.03371 1.59474 4.95546 1.40881 4.94822C1.31651 4.94802 1.22554 4.96625 1.13993 5.00179C1.05499 5.03734 0.977403 5.08957 0.912533 5.15549C0.846981 5.2214 0.795481 5.29966 0.760701 5.38576C0.725254 5.47193 0.707193 5.56419 0.707193 5.6574ZM9.49102 3.53286C9.35322 3.53346 9.21875 3.57524 9.10443 3.65282C8.99068 3.73047 8.90172 3.84051 8.8489 3.96913C8.79609 4.09774 8.78268 4.2393 8.80942 4.37582C8.83558 4.51242 8.90172 4.63795 8.99873 4.73666C9.09574 4.83542 9.2194 4.90296 9.35452 4.93085C9.48899 4.95868 9.62874 4.94567 9.75655 4.8933C9.88427 4.84092 9.99331 4.75161 10.0709 4.63654C10.1484 4.52146 10.1906 4.38582 10.192 4.24667C10.1926 4.15306 10.1746 4.06032 10.1398 3.97375C10.1043 3.88719 10.0528 3.80846 9.9873 3.74214C9.92238 3.67575 9.84478 3.62318 9.75923 3.58724C9.67359 3.5513 9.58194 3.53286 9.48964 3.53286H9.49102ZM5.45057 2.12051C5.31279 2.11991 5.17769 2.16075 5.06265 2.2378C4.9476 2.31485 4.85798 2.42468 4.80515 2.55336C4.75164 2.68211 4.73759 2.82387 4.76367 2.96073C4.79043 3.09759 4.85665 3.22346 4.95363 3.3223C5.05128 3.42114 5.17501 3.48853 5.31078 3.51603C5.44589 3.54345 5.58567 3.5297 5.71342 3.47639C5.84116 3.42322 5.94951 3.33289 6.02643 3.21696C6.10334 3.10101 6.14416 2.96469 6.14416 2.82514C6.14282 2.63919 6.06991 2.46116 5.94015 2.32933C5.8104 2.1975 5.6345 2.12253 5.45057 2.12051ZM14.2337 1.41286C14.2344 1.27339 14.1935 1.13693 14.1173 1.02086C14.0411 0.904711 13.9321 0.81419 13.805 0.760675C13.6772 0.707164 13.5368 0.693081 13.4017 0.720172C13.2665 0.74733 13.1422 0.814458 13.0445 0.913096C12.9476 1.01173 12.8806 1.13747 12.8539 1.27426C12.8271 1.41105 12.8412 1.55288 12.894 1.6817C12.9468 1.81052 13.0364 1.92055 13.1515 1.99786C13.2659 2.07518 13.401 2.11622 13.5388 2.11595C13.7214 2.112 13.8953 2.03643 14.0237 1.9052C14.1514 1.77396 14.2243 1.59741 14.2264 1.41286H14.2337Z" fill="#F7CE37"/>
    <path d="M14.9305 8.49329C14.9305 9.71862 14.9305 10.9441 14.9305 12.1694C14.9332 12.2565 14.9219 12.3434 14.8971 12.4268C14.8656 12.518 14.8062 12.5967 14.7272 12.6516C14.6489 12.7066 14.5553 12.7352 14.4597 12.7332H12.6151C12.5549 12.7361 12.4947 12.7268 12.4378 12.7058C12.3809 12.6849 12.3288 12.6527 12.2846 12.6113C12.2405 12.5698 12.205 12.5197 12.1797 12.4641C12.1549 12.4086 12.1415 12.3484 12.1395 12.2874C12.1395 12.2553 12.1395 12.2231 12.1395 12.191C12.1395 10.5244 12.1395 8.85834 12.1395 7.19276V6.50348C12.1395 5.92955 12.1395 5.35514 12.1395 4.7802C12.1395 4.42024 12.3214 4.23952 12.6786 4.23952C13.2571 4.23952 13.8356 4.23952 14.4155 4.23952C14.4864 4.23121 14.5574 4.23919 14.6249 4.26265C14.6918 4.28619 14.7526 4.32468 14.8028 4.37532C14.8536 4.42594 14.8917 4.48742 14.9152 4.55509C14.9392 4.62281 14.9473 4.69503 14.9399 4.76645L14.9305 8.49329Z" fill="#F7CE37"/>
  </g>
  <defs>
    <clipPath id="clip0">
      <rect width="15.4375" height="13" fill="white"/>
    </clipPath>
  </defs>
</svg>
