<svg width="17" height="16" viewBox="0 0 17 16" fill="none" xmlns="http://www.w3.org/2000/svg">
  <path d="M8.3305 7.19754C8.79194 7.66337 9.05081 8.29254 9.05081 8.94822C9.05081 9.60391 8.79194 10.2331 8.3305 10.6989L5.33789 13.6915C4.8703 14.1397 4.24572 14.3869 3.59805 14.3801C2.95038 14.3732 2.33117 14.1129 1.87317 13.6549C1.41517 13.1969 1.15484 12.5777 1.14799 11.93C1.14114 11.2823 1.38832 10.6577 1.83653 10.1902L4.82914 7.19754C4.92826 7.09118 4.98222 6.95049 4.97965 6.80512C4.97709 6.65976 4.9182 6.52106 4.81539 6.41825C4.71259 6.31545 4.57389 6.25656 4.42852 6.25399C4.28316 6.25143 4.14247 6.30539 4.0361 6.4045L1.04349 9.39712C-1.20097 11.6116 0.41878 15.5694 3.58721 15.5395C4.05997 15.5411 4.52833 15.4486 4.96504 15.2675C5.40174 15.0864 5.79806 14.8203 6.13093 14.4846L9.12354 11.4919C9.79696 10.8167 10.1751 9.9019 10.1751 8.94822C10.1751 7.99455 9.79696 7.07979 9.12354 6.4045C9.01717 6.30539 8.87648 6.25143 8.73112 6.25399C8.58575 6.25656 8.44705 6.31545 8.34425 6.41825C8.24144 6.52106 8.18255 6.65976 8.17999 6.80512C8.17742 6.95049 8.23138 7.09118 8.3305 7.19754Z" fill="#A9A9A9"/>
  <path d="M9.92798 1.07287L6.93537 4.06548C6.26195 4.74077 5.88379 5.65553 5.88379 6.6092C5.88379 7.56288 6.26195 8.47764 6.93537 9.15292C7.04174 9.25204 7.18243 9.306 7.32779 9.30343C7.47316 9.30087 7.61186 9.24198 7.71466 9.13917C7.81747 9.03637 7.87636 8.89767 7.87892 8.7523C7.88149 8.60694 7.82753 8.46625 7.72841 8.35988C7.26697 7.89406 7.0081 7.26489 7.0081 6.6092C7.0081 5.95352 7.26697 5.32435 7.72841 4.85852L10.721 1.86591C12.2173 0.306012 14.9818 1.44695 14.9481 3.61659C14.949 3.94191 14.8853 4.26417 14.7608 4.56469C14.6362 4.86521 14.4532 5.13801 14.2224 5.36727L11.2298 8.35988C11.1532 8.43902 11.1014 8.53882 11.0808 8.64702C11.0601 8.75521 11.0716 8.86707 11.1137 8.96883C11.1559 9.07059 11.2268 9.15781 11.3179 9.21976C11.409 9.28172 11.5162 9.31569 11.6263 9.31752C11.7 9.31808 11.7732 9.30379 11.8413 9.27551C11.9094 9.24724 11.9711 9.20555 12.0228 9.15292L15.0154 6.16031C18.2661 2.67018 13.4181 -2.17786 9.92798 1.07287Z" fill="#A9A9A9"/>
</svg>
