<svg width="16" height="16" viewBox="0 0 16 16" fill="none" xmlns="http://www.w3.org/2000/svg">
  <path fill-rule="evenodd" clip-rule="evenodd" d="M1.36991 0.183235L0.183238 1.3699C-0.0610763 1.61422 -0.0610763 2.03304 0.183238 2.27735L1.61422 3.70834L3.70834 1.61422L2.27736 0.183235C2.03304 -0.0610785 1.61422 -0.0610785 1.36991 0.183235ZM2.10285 4.19696L8.87383 10.9679L10.968 8.87383L4.19697 2.10284L2.10285 4.19696ZM9.43226 11.3868L11.8754 12.1546C12.0499 12.1895 12.1895 12.0499 12.1546 11.8754L11.3868 9.43226L9.43226 11.3868Z" fill="#28B256"/>
  <path d="M2.21164 7.43728C2.21164 7.18649 1.99668 6.97153 1.74589 6.97153C1.4951 6.97153 1.28014 7.18649 1.28014 7.43728V13.5637C1.28014 14.8893 2.39077 15.9999 3.71637 15.9999H12.9239C14.2853 15.9999 15.3601 14.8893 15.3601 13.5637V4.35616C15.3601 2.99473 14.2853 1.91992 12.9239 1.91992H7.83647C7.58569 1.91992 7.40655 2.13488 7.40655 2.38567C7.40655 2.63646 7.58569 2.8156 7.83647 2.8156H12.9239C13.7838 2.8156 14.4645 3.49631 14.4645 4.35616V13.5637C14.4645 14.3877 13.7838 15.0684 12.9239 15.0684H3.71637C2.89235 15.0684 2.21164 14.3877 2.21164 13.5637V7.43728Z" fill="#28B256"/>
</svg>
