<svg width="16" height="19" viewBox="0 0 16 19" fill="none" xmlns="http://www.w3.org/2000/svg">
  <path d="M12.3817 12.7979C12.3817 12.2968 11.9667 11.8906 11.4549 11.8906H5.59952C5.08768 11.8906 4.67273 12.2968 4.67273 12.7979V13.1815C4.67273 13.6826 5.08768 14.0888 5.59952 14.0888H11.4549C11.9667 14.0888 12.3817 13.6826 12.3817 13.1815V12.7979Z" fill="#28B256"/>
  <path d="M12.3817 15.8956C12.3817 15.4279 11.9944 15.0488 11.5168 15.0488H9.39457C8.91688 15.0488 8.52966 15.4279 8.52966 15.8956C8.52966 16.363 8.91688 16.7423 9.39457 16.7423H11.5168C11.9944 16.7423 12.3817 16.363 12.3817 15.8956Z" fill="#28B256"/>
  <path d="M8.52477 6.06587C7.26482 6.05188 6.02442 6.36975 4.93368 6.98552C4.5676 7.19743 4.28326 7.52132 4.12462 7.90715C3.96598 8.292 3.94193 8.71784 4.05608 9.11768C4.17033 9.51852 4.41642 9.87037 4.75641 10.1203C5.09631 10.3702 5.51117 10.5041 5.93677 10.5001H11.1229C11.5484 10.5041 11.9632 10.3702 12.3032 10.1203C12.6431 9.87037 12.8892 9.51852 13.0035 9.11768C13.1176 8.71784 13.0936 8.292 12.9349 7.90715C12.7763 7.52132 12.492 7.19743 12.126 6.98552C11.0332 6.37075 9.79125 6.05288 8.52977 6.06587H8.52477Z" fill="#28B256"/>
  <path d="M8.38435 7.05034C9.65308 7.05034 10.6816 6.04673 10.6816 4.80823C10.6816 3.57011 9.65308 2.56641 8.38435 2.56641C7.11574 2.56641 6.08728 3.57011 6.08728 4.80823C6.08728 6.04673 7.11574 7.05034 8.38435 7.05034Z" fill="#28B256"/>
  <path d="M14.3557 1H1.81094C1.36307 1 1 1.35541 1 1.79384V17.2062C1 17.6446 1.36307 18 1.81094 18H14.3557C14.8036 18 15.1667 17.6446 15.1667 17.2062V1.79384C15.1667 1.35541 14.8036 1 14.3557 1Z" stroke="#28B256"/>
</svg>
