<svg width="16" height="20" viewBox="0 0 16 20" fill="none" xmlns="http://www.w3.org/2000/svg">
  <path d="M12.2478 13.2009C12.2478 12.6828 11.8377 12.2627 11.3319 12.2627H5.5454C5.03958 12.2627 4.62952 12.6828 4.62952 13.2009V13.5977C4.62952 14.1159 5.03958 14.5359 5.5454 14.5359H11.3319C11.8377 14.5359 12.2478 14.1159 12.2478 13.5977V13.2009Z" fill="#7A7A7A"/>
  <path d="M12.2478 16.404C12.2478 15.9203 11.8652 15.5283 11.3931 15.5283H9.29589C8.82382 15.5283 8.44116 15.9203 8.44116 16.404C8.44116 16.8874 8.82382 17.2796 9.29589 17.2796H11.3931C11.8652 17.2796 12.2478 16.8874 12.2478 16.404Z" fill="#7A7A7A"/>
  <path d="M8.43633 6.23972C7.1912 6.22524 5.9654 6.55397 4.88749 7.19077C4.52572 7.40992 4.24472 7.74487 4.08794 8.14387C3.93117 8.54187 3.9074 8.98225 4.02021 9.39575C4.13312 9.81028 4.37631 10.1741 4.7123 10.4326C5.04821 10.691 5.45818 10.8295 5.87878 10.8254H11.0039C11.4244 10.8295 11.8343 10.691 12.1703 10.4326C12.5062 10.1741 12.7494 9.81028 12.8623 9.39575C12.9751 8.98225 12.9514 8.54187 12.7946 8.14387C12.6378 7.74487 12.3569 7.40992 11.9952 7.19077C10.9152 6.55501 9.68791 6.22628 8.44127 6.23972H8.43633Z" fill="#7A7A7A"/>
  <path d="M8.29739 7.25621C9.5512 7.25621 10.5676 6.21832 10.5676 4.93752C10.5676 3.65712 9.5512 2.61914 8.29739 2.61914C7.0437 2.61914 6.02734 3.65712 6.02734 4.93752C6.02734 6.21832 7.0437 7.25621 8.29739 7.25621Z" fill="#7A7A7A"/>
  <path d="M14.1986 1H1.8014C1.3588 1 1 1.36755 1 1.82095V17.7596C1 18.213 1.3588 18.5806 1.8014 18.5806H14.1986C14.6412 18.5806 15 18.213 15 17.7596V1.82095C15 1.36755 14.6412 1 14.1986 1Z" stroke="#7A7A7A"/>
</svg>
