<svg width="30" height="30" viewBox="0 0 30 30" fill="none" xmlns="http://www.w3.org/2000/svg">
<path d="M27.3269 15.4678C27.3269 14.486 27.2047 13.5356 26.99 12.6171L28.707 10.7339C29.2146 12.2393 29.4946 13.8259 29.4946 15.4679C29.4946 23.3992 23.0926 29.8012 15.1612 29.8012C7.22987 29.8012 0.827831 23.3992 0.827831 15.4679C0.827831 7.53651 7.22987 1.13447 15.1612 1.13447C16.804 1.13447 18.3915 1.41466 19.8977 1.92285L18.0434 3.63873C17.1224 3.42407 16.1422 3.30203 15.1612 3.30203C8.43895 3.30203 2.9954 8.74558 2.9954 15.4678C2.9954 22.1903 8.4715 27.6335 15.1612 27.6335C21.8508 27.6335 27.3269 22.1904 27.3269 15.4678Z" fill="#D52C2C" stroke="white" stroke-width="0.382224"/>
<path d="M19.5195 6.40655C19.5195 7.01986 20.0036 7.5039 20.6169 7.5039H22.9084V10.0536C22.9084 10.667 23.3925 11.151 24.0058 11.151C24.619 11.151 25.1031 10.6669 25.1031 10.0536V7.5039H27.8789C28.4922 7.5039 28.9762 7.01984 28.9762 6.40655C28.9762 5.79326 28.4922 5.3092 27.8789 5.3092H25.1031V2.75946C25.1031 2.14614 24.619 1.66211 24.0058 1.66211C23.3927 1.66188 22.9084 2.17836 22.9084 2.75923V5.30897H20.6166C20.0036 5.30919 19.5195 5.79325 19.5195 6.40655Z" fill="#D52C2C"/>
<path d="M8.09183 21.155C9.73788 23.2207 12.2879 24.5441 15.1604 24.5441C18.033 24.5441 20.5828 23.2207 22.2613 21.1228L22.2291 21.155C21.39 19.0893 19.6793 17.4755 17.5166 16.7975C19.0336 15.9584 20.0663 14.3446 20.0663 12.4725C20.0663 9.76133 17.8716 7.56641 15.1602 7.56641C12.449 7.56641 10.2541 9.7611 10.2541 12.4725C10.2541 14.3446 11.2871 15.9584 12.8038 16.7975C10.6418 17.4755 8.93116 19.0893 8.0918 21.155L8.09183 21.155Z" fill="#D52C2C"/>
</svg>
