<svg width="80" height="82" viewBox="0 0 80 82" fill="none" xmlns="http://www.w3.org/2000/svg">
<path d="M79 40.5773C79 62.4349 61.5392 80.1543 40 80.1543C18.4609 80.1543 1 62.4349 1 40.5773C1 18.7193 18.4609 1 40 1C61.5392 1 79 18.7193 79 40.5773Z" stroke="#D52C2C" stroke-width="2"/>
<path d="M37.4893 30.3948H44.3861V69.0347H37.4893V30.3948ZM40.9377 22.9585C39.5964 22.9585 38.4708 22.5211 37.5609 21.6462C36.6988 20.7714 36.2678 19.7022 36.2678 18.4384C36.2678 17.1747 36.6988 16.1054 37.5609 15.2306C38.4708 14.3071 39.5964 13.8453 40.9377 13.8453C42.2786 13.8453 43.3803 14.2828 44.2424 15.1576C45.1523 15.9839 45.6072 17.0289 45.6072 18.2926C45.6072 19.6049 45.1523 20.7228 44.2424 21.6462C43.3803 22.5211 42.2786 22.9585 40.9377 22.9585Z" fill="#D52C2C"/>
</svg>
