<svg width="19" height="20" viewBox="0 0 19 20" fill="none" xmlns="http://www.w3.org/2000/svg">
<g clip-path="url(#clip0)">
<path d="M10.5088 19.4074H8.06302C4.85257 19.4074 0 17.2107 0 13.9136V0H18.5082V13.9136C18.5082 17.2107 13.6925 19.4074 10.5088 19.4074ZM0.953294 0.918612V13.9136C0.953294 16.5251 5.25849 18.4888 8.06302 18.4888H10.5088C13.2806 18.4888 17.555 16.5251 17.555 13.9136V0.918612H0.953294Z" fill="#D52C2C"/>
<path d="M16.5892 2.67675C16.5261 2.67675 16.4657 2.65261 16.4209 2.60963C16.3764 2.56665 16.3513 2.50836 16.3513 2.4476V1.83518C16.3513 1.77441 16.3764 1.71612 16.4209 1.67314C16.4657 1.63016 16.5261 1.60602 16.5892 1.60602C16.6522 1.60602 16.7128 1.63016 16.7574 1.67314C16.802 1.71612 16.827 1.77441 16.827 1.83518V2.4476C16.827 2.50836 16.802 2.56665 16.7574 2.60963C16.7128 2.65261 16.6522 2.67675 16.5892 2.67675Z" fill="#D52C2C"/>
<path d="M1.91897 2.67675C1.8559 2.67675 1.79541 2.65261 1.7508 2.60963C1.70621 2.56665 1.68115 2.50836 1.68115 2.4476V1.83518C1.68115 1.77441 1.70621 1.71612 1.7508 1.67314C1.79541 1.63016 1.8559 1.60602 1.91897 1.60602C1.98203 1.60602 2.04252 1.63016 2.08713 1.67314C2.13172 1.71612 2.15678 1.77441 2.15678 1.83518V2.4476C2.15678 2.50836 2.13172 2.56665 2.08713 2.60963C2.04252 2.65261 1.98203 2.67675 1.91897 2.67675Z" fill="#D52C2C"/>
<path d="M10.5335 17.8034H9.89179C9.86055 17.8034 9.82962 17.7975 9.80078 17.7859C9.77192 17.7745 9.74571 17.7576 9.72363 17.7362C9.70154 17.715 9.68403 17.6897 9.67207 17.6619C9.66012 17.6341 9.65397 17.6044 9.65397 17.5742C9.65397 17.5441 9.66012 17.5144 9.67207 17.4865C9.68403 17.4587 9.70154 17.4335 9.72363 17.4121C9.74571 17.3909 9.77192 17.374 9.80078 17.3625C9.82962 17.351 9.86055 17.345 9.89179 17.345H10.5335C10.7322 17.3444 10.9307 17.3325 11.128 17.3095C11.1591 17.306 11.1906 17.3085 11.2207 17.3167C11.2508 17.3249 11.279 17.3388 11.3035 17.3575C11.3281 17.3761 11.3486 17.3994 11.3638 17.4257C11.3791 17.452 11.3889 17.481 11.3924 17.511C11.3961 17.5409 11.3936 17.5714 11.3851 17.6004C11.3765 17.6294 11.362 17.6565 11.3427 17.6801C11.3233 17.7038 11.2992 17.7236 11.2718 17.7382C11.2445 17.753 11.2144 17.7624 11.1833 17.7658C10.9676 17.7905 10.7507 17.803 10.5335 17.8034ZM8.62688 17.8034H8.03849C7.80271 17.8028 7.5672 17.7882 7.33327 17.7599C7.30109 17.7577 7.26972 17.7492 7.24104 17.735C7.21237 17.7208 7.187 17.7011 7.16648 17.6771C7.14596 17.6531 7.13071 17.6255 7.12167 17.5956C7.11261 17.5658 7.10996 17.5345 7.11386 17.5036C7.11775 17.4728 7.12813 17.443 7.14433 17.4161C7.16055 17.3892 7.18225 17.3659 7.20815 17.3474C7.23404 17.3288 7.26357 17.3156 7.29494 17.3084C7.32633 17.3011 7.3589 17.3002 7.39067 17.3056C7.60564 17.3307 7.82195 17.3439 8.03849 17.345H8.62688C8.65811 17.345 8.68903 17.351 8.71788 17.3625C8.74673 17.374 8.77294 17.3909 8.79503 17.4121C8.81711 17.4335 8.83463 17.4587 8.84659 17.4865C8.85853 17.5144 8.86468 17.5441 8.86468 17.5742C8.86468 17.6044 8.85853 17.6341 8.84659 17.6619C8.83463 17.6897 8.81711 17.715 8.79503 17.7362C8.77294 17.7576 8.74673 17.7745 8.71788 17.7859C8.68903 17.7975 8.65811 17.8034 8.62688 17.8034ZM12.395 17.5268C12.343 17.5266 12.2925 17.51 12.251 17.4798C12.2097 17.4495 12.1796 17.407 12.1653 17.3589C12.1483 17.3005 12.156 17.2379 12.1868 17.1849C12.2175 17.132 12.2688 17.0929 12.3294 17.0764C12.7257 16.9684 13.1146 16.8364 13.4938 16.6812C13.5517 16.6576 13.617 16.6569 13.6755 16.6795C13.7338 16.7021 13.7806 16.746 13.8054 16.8018C13.8301 16.8579 13.8308 16.9211 13.8075 16.9777C13.784 17.0344 13.7384 17.0797 13.6804 17.104C13.2801 17.2681 12.8693 17.4067 12.4503 17.5189C12.4322 17.5235 12.4136 17.5261 12.395 17.5268ZM6.12371 17.5268C6.10196 17.5298 6.07986 17.5298 6.05811 17.5268C5.63892 17.4152 5.22797 17.2766 4.82805 17.1119C4.79923 17.1002 4.77308 17.0832 4.75109 17.0619C4.7291 17.0405 4.71171 17.0151 4.6999 16.9872C4.6881 16.9594 4.68211 16.9295 4.68229 16.8994C4.68247 16.8692 4.6888 16.8395 4.70094 16.8117C4.72622 16.7558 4.77322 16.7117 4.83185 16.6888C4.89048 16.6659 4.95609 16.666 5.01461 16.6891C5.39355 16.8449 5.7825 16.9768 6.17906 17.0842C6.23488 17.0988 6.28331 17.1324 6.31528 17.1788C6.34726 17.2251 6.3606 17.2812 6.35281 17.3365C6.34502 17.3916 6.31665 17.4422 6.27297 17.4787C6.22929 17.5151 6.17332 17.5351 6.11551 17.5347L6.12371 17.5268ZM14.7136 16.5726C14.6726 16.5732 14.6321 16.5636 14.5962 16.5446C14.5602 16.5255 14.53 16.4977 14.5086 16.464C14.476 16.4118 14.4661 16.3492 14.4811 16.2901C14.496 16.2309 14.5347 16.1798 14.5886 16.1479C14.9372 15.9432 15.2622 15.7036 15.5582 15.4328C15.604 15.3906 15.6651 15.3676 15.7284 15.3689C15.7916 15.3702 15.8517 15.3957 15.8954 15.4397C15.9393 15.4837 15.9631 15.5427 15.9617 15.6036C15.9604 15.6646 15.934 15.7225 15.8883 15.7647C15.5672 16.0536 15.2154 16.3091 14.8387 16.5272C14.8014 16.5504 14.758 16.5627 14.7136 16.5628V16.5726ZM3.80096 16.5726C3.75761 16.572 3.7152 16.5604 3.67795 16.539C3.30126 16.3217 2.94883 16.0675 2.62625 15.7805C2.58205 15.7369 2.5573 15.6784 2.5573 15.6175C2.5573 15.5566 2.58205 15.498 2.62625 15.4545C2.67111 15.412 2.73148 15.3882 2.79436 15.3882C2.85724 15.3882 2.91761 15.412 2.96246 15.4545C3.25781 15.7112 3.58004 15.9376 3.92397 16.1301C3.96931 16.1558 4.00455 16.1952 4.02416 16.2422C4.04378 16.2892 4.04667 16.3412 4.03238 16.39C4.01808 16.4388 3.98741 16.4816 3.94517 16.5118C3.90292 16.5419 3.85149 16.5578 3.7989 16.5568L3.80096 16.5726ZM16.4582 14.8658C16.4267 14.8634 16.3959 14.8546 16.368 14.8401C16.3096 14.8174 16.2629 14.773 16.2383 14.7171C16.2137 14.6612 16.2132 14.5981 16.2368 14.5418C16.3106 14.3722 16.3497 14.1904 16.3517 14.0065V13.4197C16.3517 13.3589 16.3767 13.3007 16.4213 13.2577C16.4659 13.2147 16.5264 13.1906 16.5894 13.1906C16.6525 13.1906 16.713 13.2147 16.7576 13.2577C16.8022 13.3007 16.8272 13.3589 16.8272 13.4197V13.9986C16.8251 14.2414 16.7742 14.4815 16.6776 14.7058C16.66 14.7481 16.6298 14.7845 16.5907 14.8101C16.5517 14.8358 16.5056 14.8497 16.4582 14.85V14.8658ZM2.05223 14.8401C2.00488 14.8401 1.95857 14.8266 1.91918 14.8012C1.87978 14.776 1.84903 14.74 1.83081 14.6979C1.73416 14.4736 1.68334 14.2335 1.68116 13.9907V13.4177C1.68116 13.3569 1.70622 13.2987 1.75081 13.2557C1.79541 13.2127 1.85589 13.1886 1.91897 13.1886C1.98204 13.1886 2.04253 13.2127 2.08712 13.2557C2.13173 13.2987 2.15678 13.3569 2.15678 13.4177V13.9986C2.15892 14.1818 2.19792 14.3629 2.27158 14.5319C2.28496 14.5602 2.29222 14.5908 2.29293 14.6219C2.29363 14.653 2.28776 14.6839 2.27568 14.7127C2.2636 14.7416 2.24555 14.7677 2.22265 14.7896C2.19974 14.8116 2.17245 14.8287 2.14243 14.8401C2.11255 14.8447 2.08211 14.8447 2.05223 14.8401ZM16.5894 12.43C16.5264 12.43 16.4659 12.4058 16.4213 12.3629C16.3767 12.3199 16.3517 12.2616 16.3517 12.2008V10.9819C16.3517 10.9212 16.3767 10.8629 16.4213 10.8199C16.4659 10.7769 16.5264 10.7528 16.5894 10.7528C16.6525 10.7528 16.713 10.7769 16.7576 10.8199C16.8022 10.8629 16.8272 10.9212 16.8272 10.9819V12.2008C16.8272 12.2616 16.8022 12.3199 16.7576 12.3629C16.713 12.4058 16.6525 12.43 16.5894 12.43ZM1.91897 12.43C1.85589 12.43 1.79541 12.4058 1.75081 12.3629C1.70622 12.3199 1.68116 12.2616 1.68116 12.2008V10.98C1.68116 10.9192 1.70622 10.8609 1.75081 10.8179C1.79541 10.7749 1.85589 10.7508 1.91897 10.7508C1.98204 10.7508 2.04253 10.7749 2.08712 10.8179C2.13173 10.8609 2.15678 10.9192 2.15678 10.98V12.1988C2.15678 12.2596 2.13173 12.3179 2.08712 12.3609C2.04253 12.4039 1.98204 12.428 1.91897 12.428V12.43ZM16.5894 9.99221C16.5264 9.99221 16.4659 9.96806 16.4213 9.92509C16.3767 9.88211 16.3517 9.82382 16.3517 9.76304V8.54217C16.3517 8.4814 16.3767 8.42312 16.4213 8.38014C16.4659 8.33716 16.5264 8.31302 16.5894 8.31302C16.6525 8.31302 16.713 8.33716 16.7576 8.38014C16.8022 8.42312 16.8272 8.4814 16.8272 8.54217V9.76304C16.8272 9.82382 16.8022 9.88211 16.7576 9.92509C16.713 9.96806 16.6525 9.99221 16.5894 9.99221ZM1.91897 9.99221C1.85589 9.99221 1.79541 9.96806 1.75081 9.92509C1.70622 9.88211 1.68116 9.82382 1.68116 9.76304V8.54217C1.68116 8.4814 1.70622 8.42312 1.75081 8.38014C1.79541 8.33716 1.85589 8.31302 1.91897 8.31302C1.98204 8.31302 2.04253 8.33716 2.08712 8.38014C2.13173 8.42312 2.15678 8.4814 2.15678 8.54217V9.76106C2.15678 9.82184 2.13173 9.88013 2.08712 9.92311C2.04253 9.96609 1.98204 9.99023 1.91897 9.99023V9.99221ZM16.5894 7.55245C16.5281 7.55251 16.4691 7.52972 16.4248 7.48885C16.3805 7.448 16.3542 7.39222 16.3517 7.33316V6.1044C16.3517 6.04362 16.3767 5.98533 16.4213 5.94236C16.4659 5.89939 16.5264 5.87524 16.5894 5.87524C16.6525 5.87524 16.713 5.89939 16.7576 5.94236C16.8022 5.98533 16.8272 6.04362 16.8272 6.1044V7.33316C16.8247 7.39222 16.7984 7.448 16.754 7.48885C16.7098 7.52972 16.6507 7.55251 16.5894 7.55245ZM1.91897 7.55245C1.85764 7.55251 1.79865 7.52972 1.75433 7.48885C1.71002 7.448 1.6838 7.39222 1.68116 7.33316V6.1044C1.68116 6.04362 1.70622 5.98533 1.75081 5.94236C1.79541 5.89939 1.85589 5.87524 1.91897 5.87524C1.98204 5.87524 2.04253 5.89939 2.08712 5.94236C2.13173 5.98533 2.15678 6.04362 2.15678 6.1044V7.33316C2.15414 7.39222 2.12792 7.448 2.0836 7.48885C2.03929 7.52972 1.9803 7.55251 1.91897 7.55245ZM16.5894 5.11466C16.5264 5.11466 16.4659 5.09053 16.4213 5.04755C16.3767 5.00457 16.3517 4.94629 16.3517 4.88551V3.66662C16.3517 3.60584 16.3767 3.54755 16.4213 3.50457C16.4659 3.46161 16.5264 3.43746 16.5894 3.43746C16.6525 3.43746 16.713 3.46161 16.7576 3.50457C16.8022 3.54755 16.8272 3.60584 16.8272 3.66662V4.88551C16.8272 4.94629 16.8022 5.00457 16.7576 5.04755C16.713 5.09053 16.6525 5.11466 16.5894 5.11466ZM1.91897 5.11466C1.88757 5.11467 1.85648 5.10867 1.82748 5.09704C1.7985 5.0854 1.77219 5.06834 1.75009 5.04685C1.72797 5.02536 1.7105 4.99986 1.69867 4.97183C1.68684 4.94381 1.68089 4.9138 1.68116 4.88353V3.66464C1.68116 3.60386 1.70622 3.54557 1.75081 3.50261C1.79541 3.45963 1.85589 3.43549 1.91897 3.43549C1.98204 3.43549 2.04253 3.45963 2.08712 3.50261C2.13173 3.54557 2.15678 3.60386 2.15678 3.66464V4.88353C2.15706 4.9138 2.1511 4.94381 2.13927 4.97183C2.12744 4.99986 2.10997 5.02536 2.08786 5.04685C2.06574 5.06834 2.03943 5.0854 2.01045 5.09704C1.98146 5.10867 1.95037 5.11467 1.91897 5.11466Z" fill="#D52C2C"/>
<path d="M15.0517 2.64326H13.7806C13.7176 2.64326 13.6571 2.61911 13.6125 2.57614C13.568 2.53316 13.5429 2.47487 13.5429 2.41409C13.5429 2.35331 13.568 2.29504 13.6125 2.25206C13.6571 2.20908 13.7176 2.18494 13.7806 2.18494H15.0517C15.1148 2.18494 15.1754 2.20908 15.2199 2.25206C15.2645 2.29504 15.2896 2.35331 15.2896 2.41409C15.2896 2.47487 15.2645 2.53316 15.2199 2.57614C15.1754 2.61911 15.1148 2.64326 15.0517 2.64326ZM12.5117 2.64326H11.2427C11.1797 2.64326 11.1191 2.61911 11.0745 2.57614C11.0299 2.53316 11.0049 2.47487 11.0049 2.41409C11.0049 2.35331 11.0299 2.29504 11.0745 2.25206C11.1191 2.20908 11.1797 2.18494 11.2427 2.18494H12.5117C12.5747 2.18494 12.6353 2.20908 12.6799 2.25206C12.7245 2.29504 12.7495 2.35331 12.7495 2.41409C12.7495 2.47487 12.7245 2.53316 12.6799 2.57614C12.6353 2.61911 12.5747 2.64326 12.5117 2.64326ZM9.97367 2.64326H8.70262C8.63955 2.64326 8.57905 2.61911 8.53445 2.57614C8.48986 2.53316 8.4648 2.47487 8.4648 2.41409C8.4648 2.35331 8.48986 2.29504 8.53445 2.25206C8.57905 2.20908 8.63955 2.18494 8.70262 2.18494H9.97367C10.0367 2.18494 10.0972 2.20908 10.1418 2.25206C10.1864 2.29504 10.2115 2.35331 10.2115 2.41409C10.2115 2.47487 10.1864 2.53316 10.1418 2.57614C10.0972 2.61911 10.0367 2.64326 9.97367 2.64326ZM7.43361 2.64326H6.1646C6.10153 2.64326 6.04104 2.61911 5.99645 2.57614C5.95184 2.53316 5.92678 2.47487 5.92678 2.41409C5.92678 2.35331 5.95184 2.29504 5.99645 2.25206C6.04104 2.20908 6.10153 2.18494 6.1646 2.18494H7.43361C7.49667 2.18494 7.55716 2.20908 7.60177 2.25206C7.64636 2.29504 7.67142 2.35331 7.67142 2.41409C7.67142 2.47487 7.64636 2.53316 7.60177 2.57614C7.55716 2.61911 7.49667 2.64326 7.43361 2.64326ZM4.89559 2.64326H3.62453C3.56146 2.64326 3.50098 2.61911 3.45638 2.57614C3.41178 2.53316 3.38672 2.47487 3.38672 2.41409C3.38672 2.35331 3.41178 2.29504 3.45638 2.25206C3.50098 2.20908 3.56146 2.18494 3.62453 2.18494H4.89559C4.95867 2.18494 5.01915 2.20908 5.06375 2.25206C5.10834 2.29504 5.1334 2.35331 5.1334 2.41409C5.1334 2.47487 5.10834 2.53316 5.06375 2.57614C5.01915 2.61911 4.95867 2.64326 4.89559 2.64326Z" fill="#D52C2C"/>
<path d="M13.3828 7.30648C13.0954 5.05335 10.7235 4.78067 8.94129 6.71543C7.04136 4.65284 4.4707 5.09905 4.4707 7.77942C4.4707 10.4598 8.94129 14.3128 8.94129 14.3128C8.94129 14.3128 13.4119 10.4598 13.4119 7.77942C13.4119 7.60351 13.4017 7.44701 13.3828 7.30648Z" fill="#D52C2C"/>
</g>
<defs>
<clipPath id="clip0">
<rect width="19" height="20"/>
</clipPath>
</defs>
</svg>
