<svg width="50" height="50" viewBox="0 0 50 50" fill="none" xmlns="http://www.w3.org/2000/svg">
<path d="M25 0C20.0555 0 15.222 1.46622 11.1108 4.21326C6.99953 6.96029 3.79521 10.8648 1.90302 15.4329C0.0108322 20.0011 -0.484251 25.0277 0.480379 29.8773C1.44501 34.7268 3.82603 39.1813 7.32234 42.6777C10.8187 46.174 15.2732 48.555 20.1227 49.5196C24.9723 50.4842 29.9989 49.9892 34.5671 48.097C39.1352 46.2048 43.0397 43.0005 45.7867 38.8892C48.5338 34.778 50 29.9445 50 25C49.9926 18.3719 47.3563 12.0173 42.6695 7.33052C37.9827 2.64372 31.6281 0.00741984 25 0ZM18.1992 3.95829L17.7394 4.45728C17.5095 4.70958 17.2853 4.97309 17.0666 5.2366L16.9377 5.38798C16.7246 5.64588 16.5172 5.90753 16.3153 6.17291L16.2032 6.32429C16.0014 6.58967 15.8051 6.85879 15.6145 7.13164L15.5865 7.1765C15.3902 7.45683 15.1996 7.73716 15.0258 8.03431L14.9137 8.20812C14.7305 8.49219 14.553 8.77999 14.381 9.07154L14.2913 9.22853C14.1269 9.51633 13.9643 9.80601 13.8036 10.0976L13.7643 10.1704C13.6017 10.4788 13.4447 10.7872 13.2933 11.1011L13.198 11.2918C13.0485 11.602 12.9046 11.9141 12.7663 12.2281L12.699 12.3907C12.5682 12.6934 12.4411 12.9999 12.3178 13.3102L12.2729 13.4167V13.4671H6.09443C8.86144 8.95112 13.1564 5.57725 18.1992 3.95829ZM4.50214 16.59H11.2301L11.1965 16.7302C11.1441 16.9283 11.0937 17.1283 11.0451 17.3301L10.989 17.5544C10.9273 17.8123 10.8713 18.0702 10.8152 18.3337C10.7591 18.5972 10.7087 18.8607 10.6582 19.1298L10.619 19.3541C10.5816 19.556 10.548 19.7597 10.5181 19.9652L10.4844 20.1839C10.4452 20.453 10.4059 20.7446 10.3723 20.9856V21.0753C10.3424 21.3146 10.3162 21.5557 10.2938 21.7986V22.0397C10.2751 22.249 10.2583 22.4583 10.2433 22.6676C10.2433 22.7349 10.2433 22.8022 10.2433 22.8695C10.2433 23.1423 10.2284 23.4152 10.1985 23.688V23.7217H2.90986C3.03758 21.2721 3.57582 18.8613 4.50214 16.59ZM2.89304 26.8502H10.1817C10.1817 26.9006 10.1817 26.9511 10.1817 27.0016C10.1817 27.1772 10.1929 27.3529 10.2153 27.5286C10.2153 27.6127 10.2153 27.6968 10.2153 27.7809C10.2153 27.9902 10.2359 28.1976 10.277 28.4032V28.5322C10.3031 28.7826 10.333 29.0312 10.3667 29.2779L10.4228 29.4853C10.4489 29.6647 10.4751 29.8516 10.5012 30.046L10.5405 30.2983C10.5704 30.4777 10.6022 30.6646 10.6358 30.8589L10.675 31.0776C10.7199 31.3205 10.7685 31.5654 10.8208 31.8121V31.9242C10.8657 32.1298 10.9124 32.3353 10.961 32.5409L11.0171 32.7764C11.0582 32.9446 11.1012 33.1147 11.146 33.2866L11.1853 33.4324H4.44047C3.58701 31.3356 3.06495 29.1187 2.89304 26.8614V26.8502ZM5.99911 36.516H12.2281V36.5777L12.2785 36.7067C12.4019 37.0169 12.529 37.3252 12.6598 37.6317L12.7271 37.7943C12.8691 38.1158 13.0168 38.4335 13.17 38.7475L13.2709 38.9493C13.4279 39.2689 13.5905 39.5829 13.7531 39.8968L13.7923 39.9641C13.9531 40.2631 14.1194 40.5565 14.2913 40.8444L14.3922 41.0182C14.5679 41.3134 14.7548 41.605 14.9529 41.8928L15.065 42.0666C15.2557 42.3581 15.4463 42.6273 15.6257 42.93C15.8275 43.216 16.0406 43.4907 16.248 43.7766L16.377 43.9448C16.5863 44.2139 16.7994 44.4774 17.0162 44.7354L17.1339 44.8755C17.3432 45.1222 17.5563 45.3652 17.7731 45.6044L17.8403 45.6829L18.3561 46.2435C13.1845 44.6334 8.78728 41.1744 6.00472 36.5272L5.99911 36.516ZM23.4358 46.5295L23.2619 46.4005L23.0265 46.2155L22.4994 45.795L22.3032 45.6324C22.0677 45.4343 21.8379 45.2325 21.6136 45.0269L21.5183 44.9372C21.3239 44.7578 21.137 44.5709 20.9576 44.3765L20.7502 44.1691L20.2904 43.6869L20.0942 43.4739C19.9073 43.2645 19.7204 43.0534 19.5335 42.8403L19.4719 42.7674C19.27 42.5263 19.0738 42.2853 18.9112 42.033L18.743 41.8087L18.272 41.2592L18.0926 41.0069C17.9655 40.8014 17.8385 40.5977 17.7114 40.3958L17.588 40.2052C17.4161 39.9398 17.2498 39.6688 17.089 39.3922L16.9713 39.1848C16.848 38.9717 16.7283 38.7587 16.6125 38.5456L16.4611 38.2653C16.3527 38.0597 16.2462 37.8504 16.1415 37.6374L16.0294 37.3851C15.8911 37.101 15.7584 36.8132 15.6313 36.5216H23.4806L23.4358 46.5295ZM23.4358 33.4043H14.4651V33.3763L14.4315 33.2642C14.3455 32.9689 14.2633 32.6717 14.1848 32.3727L14.1119 32.0868C14.0409 31.8102 13.9755 31.5299 13.9157 31.2458L13.8764 31.0608C13.8054 30.7244 13.74 30.3861 13.6802 30.046L13.641 29.7881C13.5961 29.5189 13.555 29.248 13.5176 28.9751C13.5176 28.8798 13.5176 28.7901 13.4784 28.6948C13.4335 28.3528 13.3943 28.0052 13.3662 27.6575C13.3662 27.6183 13.3662 27.579 13.3662 27.5398C13.3662 27.3099 13.3326 27.0857 13.3214 26.8558H23.4358V33.4043ZM23.4358 23.7385H13.2597C13.2597 23.3853 13.299 23.0265 13.327 22.6732C13.327 22.5667 13.327 22.4658 13.327 22.3593C13.3494 22.0939 13.3774 21.8285 13.4111 21.5631C13.4111 21.451 13.4111 21.3389 13.4503 21.2267C13.4914 20.9202 13.5363 20.6156 13.5849 20.3128V20.1503C13.6466 19.797 13.7082 19.4438 13.7811 19.0962L13.8428 18.7991C13.8989 18.5374 13.9587 18.2776 14.0222 18.0197L14.1063 17.6945C14.1811 17.4067 14.2596 17.1189 14.3418 16.8311L14.3922 16.6517V16.6013H23.3629L23.4358 23.7385ZM23.4358 13.4784H15.5865C15.7098 13.198 15.8369 12.9214 15.9677 12.6486L16.0798 12.4187C16.1845 12.2056 16.291 11.9945 16.3994 11.7852L16.5564 11.4936C16.6611 11.2992 16.7695 11.1124 16.8816 10.9329L17.033 10.6694C17.19 10.4003 17.3526 10.1349 17.5208 9.87329V9.83404C17.6815 9.57987 17.8478 9.33131 18.0197 9.08836L18.1935 8.84167L18.5748 8.31464L18.771 8.05674L19.1971 7.49607L19.3597 7.29984C19.5541 7.06436 19.7541 6.83262 19.9596 6.60462L20.0998 6.45324L20.6268 5.93743L20.8455 5.71877L21.2996 5.27585L21.5183 5.0684C21.7089 4.89272 21.8958 4.72079 22.0789 4.55259L22.1799 4.46288C22.4079 4.26478 22.6415 4.07789 22.8807 3.90222L23.0825 3.74523L23.4189 3.49294L23.4358 13.4784ZM26.5586 3.10047L26.7044 3.20139L26.9735 3.39762L27.4557 3.76205L27.7192 3.9695L28.2126 4.37878L28.4313 4.5638C28.663 4.76564 28.8929 4.97309 29.1209 5.18614C29.3414 5.39172 29.5563 5.6029 29.7656 5.81969L29.9675 6.03274L30.4104 6.5037L30.6347 6.756L31.0384 7.22695L31.2514 7.47925C31.3972 7.65867 31.5392 7.84555 31.6775 8.03992L31.8345 8.24176C32.0251 8.49219 32.212 8.74822 32.3952 9.00987L32.4793 9.13882C32.6288 9.35935 32.7764 9.58174 32.9222 9.80601L33.0904 10.0751L33.4268 10.6358L33.6006 10.9385C33.7052 11.1217 33.8099 11.3086 33.9146 11.4992L34.0715 11.7964C34.1874 12.0132 34.2995 12.2337 34.4079 12.4579L34.5313 12.6654C34.6621 12.942 34.7892 13.2205 34.9125 13.5008H26.5586V3.10047ZM26.5586 16.6013H36.0563V16.6461L36.1124 16.8367C36.1946 17.1208 36.2731 17.4049 36.3478 17.6889L36.4319 18.0197C36.4955 18.2776 36.5553 18.5374 36.6114 18.7991L36.673 19.0906C36.7459 19.4438 36.8132 19.7914 36.8693 20.1503V20.3072C36.9178 20.6137 36.9627 20.9202 37.0038 21.2267C37.0038 21.3389 37.0038 21.451 37.0431 21.5631C37.073 21.8285 37.101 22.0939 37.1272 22.3593C37.1272 22.4658 37.1272 22.5667 37.1272 22.6732C37.1272 23.0265 37.1776 23.3797 37.1944 23.7385H26.5586V16.6013ZM26.5586 26.8614H37.2113C37.2113 27.0913 37.2113 27.3211 37.1664 27.5454C37.1664 27.5847 37.1664 27.6239 37.1664 27.6631C37.1328 28.0108 37.0991 28.3528 37.0543 28.7004C37.0543 28.7957 37.0543 28.8854 37.015 28.9807C36.9776 29.2536 36.9365 29.5245 36.8917 29.7937L36.8524 30.0516C36.7926 30.3917 36.7272 30.73 36.6562 31.0664L36.617 31.2514C36.5572 31.5317 36.4917 31.8121 36.4207 32.0924L36.3478 32.3783C36.2693 32.6773 36.1871 32.9745 36.1011 33.2698L36.0675 33.3819V33.41H26.5586V26.8614ZM31.7896 41.8199L31.5878 42.0778L31.1673 42.6048L30.9486 42.8684L30.5113 43.3673L30.3151 43.586C30.102 43.8177 29.8871 44.0439 29.6703 44.2644L29.6031 44.3261C29.405 44.5242 29.2031 44.7111 28.9975 44.8867L28.7677 45.0942L28.2911 45.5147L28.0332 45.7333L27.5454 46.1258L27.2987 46.3164C27.0894 46.4772 26.8764 46.6341 26.6596 46.7874L26.553 46.8659V36.5272H34.9069C34.7798 36.8188 34.6472 37.1085 34.5089 37.3963L34.3799 37.6486C34.2734 37.8616 34.1725 38.0691 34.0603 38.2765L33.8921 38.5849L33.5726 39.1455L33.3988 39.4427C33.2754 39.6483 33.1483 39.8538 33.0175 40.0594L32.8829 40.2725C32.7073 40.5416 32.5204 40.807 32.3223 41.0686L32.2326 41.2592C32.0868 41.4499 31.9392 41.6368 31.7896 41.8199ZM32.3503 45.98L32.5858 45.7221L32.7147 45.582C32.939 45.3353 33.1595 45.083 33.3763 44.8251L33.4997 44.6737C33.7239 44.4046 33.9426 44.113 34.1556 43.8607L34.1837 43.8215C34.393 43.5486 34.5967 43.272 34.7948 42.9917L34.8901 42.8571C35.0882 42.5768 35.2751 42.2927 35.4508 42.0049L35.5573 41.8367C35.7479 41.5414 35.9348 41.2424 36.118 40.9397L36.1628 40.8612C36.3348 40.5659 36.503 40.2669 36.6674 39.9641L36.7347 39.8352C36.8992 39.5249 37.058 39.2128 37.2113 38.8988L37.301 38.7138C37.4542 38.3961 37.6019 38.0747 37.7439 37.7495L37.7943 37.6261C37.9326 37.3084 38.0653 36.9888 38.1924 36.6674L38.2373 36.5553V36.4936H43.9953C41.3422 40.9228 37.2253 44.2861 32.3559 46.0025L32.3503 45.98ZM45.5595 33.41H39.3081L39.3418 33.2698C39.3866 33.0978 39.4315 32.9259 39.4763 32.754L39.5324 32.5241C39.581 32.3148 39.6296 32.1036 39.6782 31.8906V31.7896C39.7305 31.5429 39.7791 31.2981 39.824 31.0552L39.8632 30.8477C39.8968 30.6683 39.9286 30.4814 39.9585 30.2871L39.9978 30.0404C40.0277 29.8572 40.0538 29.6703 40.0763 29.4797L40.1043 29.2723C40.1379 29.0256 40.1678 28.777 40.194 28.5266V28.3976C40.2164 28.1883 40.237 27.979 40.2557 27.7697C40.2557 27.6856 40.2557 27.6015 40.2557 27.523C40.2557 27.3473 40.2669 27.1698 40.2893 26.9904C40.2893 26.9399 40.2893 26.8894 40.2893 26.839H47.0173C46.8739 29.0915 46.3822 31.3081 45.5595 33.41ZM47.1406 23.7441H40.4126V23.7105C40.4126 23.4376 40.3977 23.1648 40.3678 22.8919C40.3678 22.8246 40.3678 22.7573 40.3678 22.6901C40.3678 22.4807 40.351 22.2714 40.3173 22.0621V21.821C40.2949 21.5818 40.2687 21.3426 40.2388 21.1034V21.0081C40.2052 20.739 40.1697 20.4717 40.1323 20.2063L40.0987 19.9821C40.0688 19.7802 40.0351 19.5784 39.9978 19.3765L39.9585 19.1467C39.9081 18.8832 39.8576 18.6196 39.8015 18.3561C39.7455 18.0982 39.6894 17.8403 39.6277 17.588L39.5717 17.3581C39.5231 17.16 39.4726 16.9619 39.4203 16.7638L39.3081 16.59H45.4754C46.4268 18.8626 46.9878 21.2793 47.135 23.7385L47.1406 23.7441ZM38.3046 13.4784V13.4335L38.2653 13.3326C38.142 13.0186 38.013 12.7065 37.8785 12.3963L37.8224 12.2617C37.6841 11.9477 37.5402 11.6356 37.3907 11.3254L37.301 11.1348C37.1515 10.8283 36.9982 10.5255 36.8412 10.2265L36.7627 10.0807C36.6057 9.78545 36.4432 9.49391 36.275 9.2061L36.2133 9.13321C36.0395 8.83606 35.8601 8.54451 35.6526 8.25297L35.5461 8.08477C35.3667 7.80444 35.1798 7.52784 34.9854 7.25499L34.8733 7.098C34.6771 6.81767 34.4752 6.53734 34.2678 6.26822L34.2341 6.22337C34.0323 5.95799 33.8267 5.69821 33.6174 5.44404L33.5109 5.30949C33.3016 5.05532 33.0866 4.80676 32.8661 4.5638L32.7316 4.41242L32.5578 4.2218C37.2718 5.93861 41.267 9.19877 43.8944 13.4727L38.3046 13.4784Z" fill="#25AFB5"/>
</svg>
