<svg width="60" height="31" viewBox="0 0 60 31" fill="none" xmlns="http://www.w3.org/2000/svg">
<path d="M2.87408 18.0481C3.67122 18.0481 4.12673 18.4467 4.12673 19.073V19.2439C4.12673 19.7563 3.84203 19.9841 3.44347 20.0979C3.89897 20.2118 4.18366 20.4965 4.18366 21.0089V21.2367C4.18366 21.92 3.72816 22.2616 2.93102 22.2616H0.995117V17.9912H2.87408V18.0481ZM1.90613 19.8702H2.70327C3.0449 19.8702 3.27265 19.6994 3.27265 19.4147V19.1869C3.27265 18.9022 3.10184 18.7883 2.76021 18.7883H1.90613V19.8702ZM1.90613 21.6353H2.76021C3.10184 21.6353 3.27265 21.4644 3.27265 21.1798V20.952C3.27265 20.6673 3.10184 20.4965 2.76021 20.4965H1.90613V21.6353Z" fill="#8F8F8F"/>
<path d="M6.74597 22.3192H5.83496V18.0488H7.71393C8.62494 18.0488 9.08045 18.5043 9.08045 19.2445V19.5862C9.08045 20.0986 8.79576 20.4972 8.28331 20.668L9.19432 22.3192H8.22637L7.3723 20.7819H6.74597V22.3192ZM6.74597 20.0417H7.48617C7.94168 20.0417 8.1125 19.8709 8.1125 19.5292V19.3015C8.1125 18.9598 7.94168 18.789 7.48617 18.789H6.74597V20.0417Z" fill="#8F8F8F"/>
<path d="M11.6991 18.0488H10.7881V22.3192H11.6991V18.0488Z" fill="#8F8F8F"/>
<path d="M16.7666 19.3577V19.5285H15.8556V19.4147C15.8556 18.9592 15.6278 18.7314 15.1154 18.7314C14.546 18.7314 14.2613 19.13 14.2613 19.6994V20.6673C14.2613 21.2936 14.6029 21.6353 15.1154 21.6353C15.5709 21.6353 15.9125 21.3506 15.9125 20.8381V20.6673H15.1154V20.041H16.7666V22.3185H16.368L16.2541 21.6922C16.0264 22.0908 15.6848 22.4324 15.0015 22.4324C14.0335 22.4324 13.4072 21.7491 13.4072 20.7243V19.7563C13.4072 18.7314 14.0905 17.9912 15.1723 17.9912C16.1972 17.9912 16.7666 18.5037 16.7666 19.3577Z" fill="#8F8F8F"/>
<path d="M19.5009 18.0479V19.756H21.0382V18.0479H21.9492V22.3182H21.0382V20.5531H19.5009V22.3182H18.5898V18.0479H19.5009Z" fill="#8F8F8F"/>
<path d="M26.1038 21.5221H24.5665L24.3387 22.3192H23.4277L24.8512 18.0488H25.8761L27.2995 22.3192H26.3316L26.1038 21.5221ZM24.7943 20.8388H25.8761L25.3636 19.0737L24.7943 20.8388Z" fill="#8F8F8F"/>
<path d="M30.1484 18.0488L31.1164 21.0096L32.0844 18.0488H33.3939V22.3192H32.5399V19.1307H32.4829L31.458 22.3192H30.7178L29.636 19.1307V22.3192H28.8389V18.0488H30.1484Z" fill="#8F8F8F"/>
<path d="M38.061 18.0488L38.9151 19.8709L39.8261 18.0488H40.7941L39.3706 20.7249V22.3192H38.4596V20.7249L37.0361 18.0488H38.061Z" fill="#8F8F8F"/>
<path d="M45.2358 19.7576V20.6116C45.2358 21.8074 44.5526 22.4337 43.4138 22.4337C42.332 22.4337 41.5918 21.8074 41.5918 20.6116V19.7576C41.5918 18.5619 42.2751 17.9355 43.4138 17.9355C44.4957 17.9925 45.2358 18.6188 45.2358 19.7576ZM42.5597 19.7576V20.6686C42.5597 21.3518 42.9014 21.6935 43.4138 21.6935C43.9832 21.6935 44.2679 21.4088 44.2679 20.6686V19.7576C44.2679 19.0743 43.9263 18.7327 43.4138 18.7327C42.8444 18.7327 42.5597 19.0743 42.5597 19.7576Z" fill="#8F8F8F"/>
<path d="M47.4582 18.0479V20.7809C47.4582 21.2933 47.7429 21.578 48.1984 21.578C48.7108 21.578 48.9386 21.2933 48.9386 20.7809V18.0479H49.7927V20.7809C49.7927 21.8058 49.2233 22.4321 48.1414 22.4321C47.0027 22.4321 46.4902 21.8627 46.4902 20.7809V18.0479H47.4582Z" fill="#8F8F8F"/>
<path d="M52.3524 18.0479L54.0036 20.7809V18.0479H54.8577V22.3182H53.9467L52.2955 19.5852H52.2385L52.2955 22.3182H51.4414V18.0479H52.3524Z" fill="#8F8F8F"/>
<path d="M59.6982 19.3577V19.5285H58.7872V19.4147C58.7872 18.9592 58.5595 18.7314 58.047 18.7314C57.4776 18.7314 57.1929 19.13 57.1929 19.6994V20.6673C57.1929 21.2936 57.5346 21.6353 58.047 21.6353C58.5025 21.6353 58.8442 21.3506 58.8442 20.8381V20.6673H58.047V20.041H59.6982V22.3185H59.2997L59.1858 21.6922C58.958 22.0908 58.6164 22.4324 57.9331 22.4324C56.9652 22.4324 56.3389 21.7491 56.3389 20.7243V19.7563C56.3389 18.7314 57.0221 17.9912 58.104 17.9912C59.1288 17.9912 59.6982 18.5037 59.6982 19.3577Z" fill="#8F8F8F"/>
<path d="M13.1803 26.875V29.0956C13.1803 29.4942 13.4081 29.7789 13.8067 29.7789C14.2052 29.7789 14.433 29.5511 14.433 29.0956V26.875H15.1162V29.0387C15.1162 29.8927 14.6607 30.3482 13.8067 30.3482C12.8956 30.3482 12.4971 29.8927 12.4971 29.0387V26.875H13.1803Z" fill="#8F8F8F"/>
<path d="M17.4492 26.875L18.7588 29.0956V26.875H19.442V30.2913H18.7018L17.3922 28.1276V30.2913H16.709V26.875H17.4492Z" fill="#8F8F8F"/>
<path d="M21.8349 26.875H21.0947V30.2913H21.8349V26.875Z" fill="#8F8F8F"/>
<path d="M24.0559 26.875L24.7961 29.3234L25.5363 26.875H26.2765L25.1378 30.3482H24.3976L23.2588 26.875H24.0559Z" fill="#8F8F8F"/>
<path d="M29.9771 26.875V27.5583H28.3828V28.2985H29.6354V28.8678H28.3828V29.665H29.9771V30.2913H27.6426V26.875H29.9771Z" fill="#8F8F8F"/>
<path d="M32.1972 30.2913H31.457V26.875H32.9374C33.6776 26.875 34.0193 27.2166 34.0193 27.843V28.1276C34.0193 28.5262 33.7915 28.8678 33.3929 28.9817L34.1331 30.2913H33.336L32.7097 29.0956H32.1972V30.2913ZM32.1972 28.5262H32.7666C33.1082 28.5262 33.2791 28.3554 33.2791 28.1276V27.9568C33.2791 27.6721 33.1082 27.5583 32.7666 27.5583H32.1403V28.5262H32.1972Z" fill="#8F8F8F"/>
<path d="M38.1208 27.8426V27.9564H37.3806V27.8426C37.3806 27.6148 37.2098 27.3871 36.8112 27.3871C36.4696 27.3871 36.2988 27.5579 36.2988 27.7287C36.2988 28.0134 36.4696 28.0703 37.039 28.2411C37.8931 28.4689 38.1778 28.7536 38.1778 29.266C38.1778 29.8924 37.6653 30.2909 36.8682 30.2909C35.9572 30.2909 35.5586 29.8924 35.5586 29.266V29.0952H36.2988V29.2091C36.2988 29.5507 36.5265 29.7215 36.9251 29.7215C37.2667 29.7215 37.4945 29.6077 37.4945 29.323C37.4945 29.0383 37.3806 28.9813 36.6974 28.7536C35.9002 28.5258 35.6155 28.2981 35.6155 27.7287C35.6155 27.1593 36.071 26.7607 36.8682 26.7607C37.6653 26.8177 38.1208 27.2732 38.1208 27.8426Z" fill="#8F8F8F"/>
<path d="M40.3964 26.875H39.6562V30.2913H40.3964V26.875Z" fill="#8F8F8F"/>
<path d="M44.4954 26.875V27.5583H43.5275V30.2913H42.7873V27.5583H41.8193V26.875H44.4954Z" fill="#8F8F8F"/>
<path d="M46.3186 26.875L47.0588 28.3554L47.7421 26.875H48.5392L47.4005 29.0387V30.2913H46.6603V29.0387L45.5215 26.875H46.3186Z" fill="#8F8F8F"/>
<path d="M15.6861 4.09956V2.27753C15.6861 2.16366 15.6861 2.04978 15.6861 2.04978C15.6861 2.04978 15.8 2.04978 15.9139 2.04978H17.2804C18.3622 2.04978 18.9316 2.2206 18.9316 3.18855C18.9316 3.81487 18.533 4.38425 17.2804 4.38425H15.8569C15.7431 4.38425 15.6292 4.38425 15.6292 4.38425C15.6292 4.38425 15.6861 4.21344 15.6861 4.09956ZM15.6861 8.313V6.20628C15.6861 6.03546 15.6861 5.97853 15.6861 5.97853C15.6861 5.97853 15.8 5.97853 15.9139 5.97853H17.1096C18.0206 5.97853 19.1594 5.97853 19.1594 7.28811C19.1594 8.25606 18.3622 8.59769 17.2235 8.59769H15.9139C15.8 8.59769 15.6861 8.59769 15.6861 8.59769C15.6861 8.59769 15.6861 8.42687 15.6861 8.313ZM12.3268 0.911013V9.73646C12.3268 10.0211 12.3268 10.135 12.1559 10.2489C11.9851 10.3628 11.7574 10.4197 11.4158 10.4767C11.3588 10.4767 11.4158 10.5905 11.4158 10.5905H18.59C21.6077 10.5905 22.8604 9.39483 22.8604 7.51586C22.8604 6.14934 22.234 5.29527 20.9245 4.95364V4.8967C21.7216 4.66894 22.4618 4.04262 22.4618 2.61916C22.4618 0.68326 21.1522 0 18.2484 0L11.4158 0.0569383C11.3588 0.0569383 11.3588 0.170815 11.4158 0.170815C11.7574 0.227753 11.9282 0.227753 12.1559 0.398568C12.3268 0.512445 12.3268 0.626322 12.3268 0.911013Z" fill="#8F8F8F"/>
<path d="M48.3687 0.911013C48.3687 0.626322 48.3687 0.512445 48.5395 0.398568C48.7103 0.284692 48.9381 0.227753 49.2797 0.170815C49.3366 0.170815 49.2797 0.0569383 49.2797 0.0569383H43.9844C43.9275 0.0569383 43.9275 0.170815 43.9844 0.170815C44.3261 0.227753 44.4969 0.227753 44.6677 0.34163C44.8954 0.455507 44.8385 0.569383 44.8385 0.854075V6.14934C44.8385 7.34505 44.1552 8.313 42.7887 8.313C41.4222 8.313 40.7389 7.40198 40.7389 6.14934V0.854075C40.7389 0.569383 40.7389 0.455507 40.9098 0.34163C41.0806 0.227753 41.2514 0.170815 41.593 0.113877C41.65 0.113877 41.593 0 41.593 0H36.6394C36.5824 0 36.5824 0.113877 36.6394 0.113877C36.8102 0.113877 36.9241 0.113877 37.038 0.227753C37.2088 0.34163 37.2088 0.512445 37.2088 0.797137V6.03546C37.2088 8.54075 38.5753 10.7044 42.7887 10.7044C47.0022 10.7044 48.3687 8.54075 48.3687 6.03546V0.911013Z" fill="#8F8F8F"/>
<path d="M32.368 10.5893C32.4249 10.5893 32.4249 10.4754 32.368 10.4754C32.0264 10.4184 31.8555 10.4184 31.6278 10.2476C31.4 10.1337 31.457 10.0199 31.457 9.73518V6.37582L35.101 0.966677C35.3288 0.681986 35.4427 0.511171 35.6135 0.397294C35.6135 0.397294 35.7274 0.340356 35.7274 0.283417C35.8982 0.226479 35.9551 0.169541 36.1259 0.169541C36.1829 0.169541 36.1829 0.0556641 36.1259 0.0556641H31.2292C31.1723 0.0556641 31.1723 0.169541 31.2292 0.169541C31.457 0.169541 31.7417 0.169541 31.7417 0.511171C31.7417 0.852801 30.3182 2.90258 29.8058 3.69972C29.7488 3.81359 29.6919 3.92747 29.635 4.04135C29.635 3.92747 29.5211 3.75666 29.4641 3.69972C28.7809 2.67483 27.5282 0.966677 27.5282 0.511171C27.4713 0.169541 27.756 0.169541 28.0407 0.169541C28.0976 0.169541 28.0976 0.0556641 28.0407 0.0556641H22.8593C22.8024 0.0556641 22.8593 0.169541 22.8593 0.169541C23.087 0.169541 23.2009 0.169541 23.4856 0.283417C23.5425 0.283417 23.5995 0.340356 23.5995 0.397294C23.7703 0.511171 23.8842 0.681986 24.055 0.966677L27.699 6.37582V9.73518C27.699 10.0199 27.699 10.1337 27.5282 10.2476C27.3574 10.3615 27.1297 10.4184 26.788 10.4754C26.7311 10.4754 26.788 10.5893 26.788 10.5893H32.368Z" fill="#8F8F8F"/>
</svg>
