<svg width="94" height="19" viewBox="0 0 94 19" fill="none" xmlns="http://www.w3.org/2000/svg">
<path d="M11.8953 0.189272L0.76422 11.1823C0.581197 11.363 0.581197 11.6561 0.76422 11.8368L3.5055 14.5441C3.68852 14.7249 3.98525 14.7249 4.16828 14.5441L15.2993 3.55114C15.4824 3.37034 15.4824 3.07732 15.2993 2.89652L12.558 0.189272C12.3751 0.00852402 12.0783 0.00852402 11.8953 0.189272Z" fill="#8F8F8F"/>
<path d="M16.4765 4.71568L9.93221 11.1788C9.74916 11.3596 9.74916 11.6526 9.93221 11.8334L12.6735 14.5406C12.8565 14.7213 13.1532 14.7213 13.3363 14.5406L19.8806 8.07747C20.0636 7.89674 20.0636 7.60366 19.8806 7.42293L17.1393 4.71568C16.9563 4.53488 16.6596 4.53488 16.4765 4.71568Z" fill="#8F8F8F"/>
<path d="M35.7697 8.81737C35.7697 12.1402 33.2181 14.6824 30.1473 14.6824C28.3869 14.6824 27.0548 13.9686 26.1967 12.8087V18.3008C26.1967 18.373 26.1677 18.4423 26.116 18.4934C26.0642 18.5445 25.994 18.5732 25.9208 18.5732H24.0338C23.9606 18.5732 23.8904 18.5445 23.8386 18.4934C23.7869 18.4423 23.7578 18.373 23.7578 18.3008V3.51574C23.7578 3.44345 23.7869 3.3742 23.8386 3.32309C23.8904 3.27199 23.9606 3.24325 24.0338 3.24325H25.9208C25.994 3.24325 26.0642 3.27199 26.116 3.32309C26.1677 3.3742 26.1967 3.44345 26.1967 3.51574V4.84822C27.0516 3.66699 28.3869 2.95312 30.1473 2.95312C33.2181 2.95312 35.7697 5.51758 35.7697 8.81737ZM33.3315 8.81737C33.3315 6.74495 31.7958 5.24967 29.7641 5.24967C27.7325 5.24967 26.1967 6.74414 26.1967 8.81737C26.1967 10.8906 27.7317 12.3851 29.7641 12.3851C31.7966 12.3851 33.3315 10.8913 33.3315 8.81737Z" fill="#8F8F8F"/>
<path d="M48.6869 3.51574V14.1198C48.6869 14.192 48.6578 14.2614 48.6061 14.3125C48.5544 14.3636 48.4841 14.3922 48.411 14.3922H46.5246C46.4515 14.3922 46.3813 14.3636 46.3296 14.3125C46.2779 14.2614 46.2488 14.192 46.2488 14.1198V12.7865C45.3938 13.9686 44.0586 14.6824 42.2974 14.6824C39.2266 14.6824 36.6758 12.118 36.6758 8.81737C36.6758 5.49528 39.2266 2.95312 42.2974 2.95312C44.0586 2.95312 45.3907 3.66699 46.2488 4.826V3.51574C46.2488 3.44345 46.2779 3.3742 46.3296 3.32309C46.3813 3.27199 46.4515 3.24325 46.5246 3.24325H48.411C48.4841 3.24325 48.5544 3.27199 48.6061 3.32309C48.6578 3.3742 48.6869 3.44345 48.6869 3.51574ZM46.2488 8.81737C46.2488 6.74495 44.713 5.24967 42.6814 5.24967C40.6497 5.24967 39.1139 6.74414 39.1139 8.81737C39.1139 10.8906 40.6497 12.3851 42.6814 12.3851C44.713 12.3851 46.2488 10.8913 46.2488 8.81737Z" fill="#8F8F8F"/>
<path d="M68.8571 12.4748C70.1061 12.4748 71.0667 11.9629 71.6341 11.2721C71.6756 11.223 71.7336 11.1903 71.7974 11.1797C71.8613 11.1692 71.9268 11.1815 71.9823 11.2145L73.5181 12.1011C73.5515 12.1199 73.5805 12.1455 73.6033 12.1762C73.626 12.2069 73.6419 12.2419 73.65 12.2791C73.658 12.3163 73.658 12.3546 73.65 12.3918C73.642 12.429 73.6262 12.4641 73.6036 12.4948C72.5543 13.8649 70.9268 14.6824 68.8354 14.6824C65.1093 14.6824 62.6953 12.1625 62.6953 8.81737C62.6953 5.51683 65.1109 2.95312 68.6558 2.95312C72.0204 2.95312 74.3233 5.6289 74.3233 8.83967C74.3166 9.17593 74.2865 9.51139 74.2331 9.84365H65.2446C65.6285 11.5829 67.0516 12.4748 68.8571 12.4748ZM71.8603 7.88093C71.5214 5.96198 70.0991 5.13842 68.6317 5.13842C66.8029 5.13842 65.5609 6.20841 65.2228 7.88093H71.8603Z" fill="#8F8F8F"/>
<path d="M93.8905 7.54347V14.117C93.8905 14.1893 93.8616 14.2585 93.8098 14.3096C93.758 14.3607 93.6877 14.3895 93.6144 14.3895H91.7283C91.6551 14.3895 91.5847 14.3607 91.5329 14.3096C91.4819 14.2585 91.4522 14.1893 91.4522 14.117V7.78908C91.4522 6.09433 90.4581 5.20241 88.9237 5.20241C87.3197 5.20241 86.0562 6.13885 86.0562 8.41317V14.117C86.0562 14.1528 86.0488 14.1883 86.0354 14.2214C86.0214 14.2545 86.0006 14.2846 85.9755 14.3099C85.9496 14.3353 85.9192 14.3553 85.8852 14.369C85.8519 14.3826 85.8156 14.3896 85.7793 14.3895H83.8933C83.82 14.3895 83.7497 14.3607 83.6979 14.3096C83.6461 14.2585 83.6172 14.1893 83.6172 14.117V3.51292C83.6172 3.44071 83.6461 3.37138 83.6979 3.32027C83.7497 3.26916 83.82 3.24043 83.8933 3.24043H85.7801C85.8163 3.24035 85.8526 3.24731 85.8859 3.26102C85.92 3.27464 85.9503 3.29472 85.9762 3.31997C86.0014 3.34531 86.0221 3.37538 86.0362 3.40849C86.0495 3.44159 86.0569 3.47707 86.0569 3.51292V4.66431C86.8015 3.50448 88.0214 2.94727 89.5544 2.94727C92.0844 2.9503 93.8905 4.64512 93.8905 7.54347Z" fill="#8F8F8F"/>
<path d="M81.2614 3.04102C79.8395 3.04102 78.4634 3.59904 77.7839 5.11343V3.51461C77.7839 3.44232 77.7551 3.37306 77.7033 3.32195C77.6514 3.27085 77.5811 3.24211 77.5086 3.24211H75.6218C75.5485 3.24211 75.4789 3.27085 75.4271 3.32195C75.3753 3.37306 75.3457 3.44232 75.3457 3.51461V14.1187C75.3457 14.1909 75.3753 14.2602 75.4271 14.3113C75.4789 14.3624 75.5485 14.3912 75.6218 14.3912H77.5086C77.5811 14.3912 77.6514 14.3624 77.7033 14.3113C77.7551 14.2602 77.7839 14.1909 77.7839 14.1187V8.77172C77.7839 6.27482 79.6189 5.64998 81.2614 5.64998H82.1112C82.1844 5.64998 82.254 5.62132 82.3058 5.57021C82.3577 5.5191 82.3865 5.44977 82.3865 5.37748V3.31425C82.3873 3.2784 82.3799 3.24292 82.3658 3.20974C82.3525 3.17663 82.3317 3.14649 82.3066 3.12108C82.2807 3.09568 82.2503 3.07561 82.217 3.06183C82.183 3.04805 82.1474 3.04102 82.1112 3.04102H81.2614Z" fill="#8F8F8F"/>
<path d="M55.5356 5.56146C55.5719 5.56161 55.6078 5.55457 55.6414 5.54094C55.675 5.52731 55.7055 5.50724 55.7311 5.48191C55.7568 5.45665 55.7773 5.42658 55.7912 5.39347C55.8051 5.36029 55.8123 5.32481 55.8123 5.28896V3.51511C55.8123 3.47926 55.8051 3.44379 55.7912 3.41068C55.7773 3.37757 55.7568 3.3475 55.7311 3.32217C55.7055 3.29683 55.675 3.27684 55.6414 3.26313C55.6078 3.24951 55.5719 3.24254 55.5356 3.24262H52.6335V0.325849C52.6328 0.25464 52.604 0.18649 52.5532 0.135998C52.5024 0.0854985 52.4335 0.056664 52.3614 0.0556641H50.4713C50.3981 0.0556641 50.3279 0.0843727 50.2761 0.135472C50.2244 0.186571 50.1953 0.255884 50.1953 0.328152V11.1034C50.1953 13.3923 51.3129 14.4914 53.6454 14.4914H55.5363C55.6095 14.4912 55.6795 14.4625 55.7312 14.4114C55.7829 14.3603 55.8121 14.2912 55.8123 14.2189V12.5303C55.8123 12.4944 55.8051 12.459 55.7912 12.4258C55.7773 12.3927 55.7568 12.3627 55.7311 12.3373C55.7055 12.312 55.675 12.2919 55.6414 12.2783C55.6078 12.2647 55.5719 12.2577 55.5356 12.2578H54.0845C52.9723 12.2578 52.6335 11.9723 52.6335 10.9137V5.56146H55.5356Z" fill="#8F8F8F"/>
<path d="M62.1535 5.56146C62.2267 5.56146 62.2969 5.53279 62.3486 5.48169C62.4004 5.43058 62.4294 5.36125 62.4294 5.28896V3.51511C62.4294 3.44282 62.4004 3.37357 62.3486 3.32246C62.2969 3.27136 62.2267 3.24262 62.1535 3.24262H59.2545V0.325849C59.2539 0.253981 59.2246 0.18526 59.1729 0.134657C59.1212 0.0840542 59.0514 0.0556567 58.9786 0.0556641H57.0923C57.0191 0.0556641 56.949 0.0843727 56.8972 0.135472C56.8455 0.186571 56.8164 0.255884 56.8164 0.328152V11.1034C56.8164 13.3923 57.9332 14.4914 60.2664 14.4914H62.1574C62.2304 14.491 62.3003 14.4622 62.3518 14.4112C62.4033 14.3601 62.4323 14.291 62.4325 14.2189V12.5303C62.4323 12.4944 62.4249 12.4589 62.4108 12.4258C62.3967 12.3928 62.376 12.3629 62.35 12.3378C62.3241 12.3127 62.2934 12.2928 62.2596 12.2795C62.2259 12.2662 62.1898 12.2596 62.1535 12.2601H60.7025C59.5902 12.2601 59.2514 11.9745 59.2514 10.916V5.56146H62.1535Z" fill="#8F8F8F"/>
</svg>
