<svg width="83" height="20" viewBox="0 0 83 20" fill="none" xmlns="http://www.w3.org/2000/svg">
  <path
      d="M20.5257 10.0527C20.5257 4.55884 16.0721 0.105225 10.5783 0.105225C5.08448 0.105225 0.630859 4.55884 0.630859 10.0527C0.630859 15.5465 5.08448 20.0001 10.5783 20.0001C16.0721 20.0001 20.5257 15.5465 20.5257 10.0527Z"
      fill="#69A3FF"/>
  <path
      d="M9.2529 15.6944L6.60361 14.1773L6.57129 6.9149L10.5452 4.52637L14.5837 6.9149V11.4338L13.2268 12.2085L14.5837 12.9508V16.0817L10.5452 13.7393V10.7414L11.9668 9.91673V8.43198L10.5452 7.56047L9.2529 8.43198V15.6944Z"
      fill="white"/>
  <path
      d="M24.9043 8.28908C25.1647 7.73696 25.5502 7.32033 26.0606 7.03908C26.5814 6.75783 27.2221 6.6172 27.9824 6.6172V7.69533L27.7168 7.67971C26.8522 7.67971 26.1752 7.94533 25.6856 8.47658C25.1959 9.00784 24.9512 9.75259 24.9512 10.711V14.8985H23.8418V6.6797H24.9043V8.28908ZM37.0711 11.1328H30.1961C30.2586 11.987 30.5867 12.6797 31.1804 13.211C31.7742 13.7318 32.5242 13.9922 33.4304 13.9922C33.9408 13.9922 34.4096 13.9037 34.8367 13.7266C35.2638 13.5391 35.6336 13.2682 35.9461 12.9141L36.5711 13.6329C36.2065 14.0704 35.7482 14.4037 35.1961 14.6329C34.6545 14.862 34.0555 14.9766 33.3992 14.9766C32.5555 14.9766 31.8054 14.7995 31.1492 14.4454C30.5033 14.0807 29.9982 13.5807 29.6336 12.9453C29.2689 12.31 29.0867 11.5912 29.0867 10.7891C29.0867 9.98697 29.2586 9.26822 29.6023 8.63283C29.9564 7.99745 30.4357 7.50258 31.0398 7.14845C31.6544 6.79432 32.3419 6.6172 33.1023 6.6172C33.8627 6.6172 34.5451 6.79432 35.1492 7.14845C35.7533 7.50258 36.2273 7.99745 36.5711 8.63283C36.9148 9.25784 37.0867 9.97659 37.0867 10.7891L37.0711 11.1328ZM33.1023 7.57033C32.3107 7.57033 31.6439 7.82557 31.1023 8.33596C30.5711 8.83596 30.2689 9.49221 30.1961 10.3047H36.0242C35.9513 9.49221 35.644 8.83596 35.1023 8.33596C34.5711 7.82557 33.9044 7.57033 33.1023 7.57033ZM46.0985 6.6797L42.4422 14.8985H41.3016L37.6609 6.6797H38.8172L41.8953 13.6797L45.0047 6.6797H46.0985ZM54.5882 11.1328H47.7132C47.7757 11.987 48.1038 12.6797 48.6976 13.211C49.2913 13.7318 50.0413 13.9922 50.9476 13.9922C51.4581 13.9922 51.9268 13.9037 52.3539 13.7266C52.781 13.5391 53.1507 13.2682 53.4632 12.9141L54.0882 13.6329C53.7237 14.0704 53.2653 14.4037 52.7132 14.6329C52.1716 14.862 51.5726 14.9766 50.9163 14.9766C50.0726 14.9766 49.3226 14.7995 48.6663 14.4454C48.0206 14.0807 47.5153 13.5807 47.1507 12.9453C46.7862 12.31 46.6038 11.5912 46.6038 10.7891C46.6038 9.98697 46.7757 9.26822 47.1195 8.63283C47.4737 7.99745 47.9528 7.50258 48.557 7.14845C49.1716 6.79432 49.8591 6.6172 50.6195 6.6172C51.38 6.6172 52.0622 6.79432 52.6664 7.14845C53.2706 7.50258 53.7445 7.99745 54.0882 8.63283C54.432 9.25784 54.6039 9.97659 54.6039 10.7891L54.5882 11.1328ZM50.6195 7.57033C49.8278 7.57033 49.1612 7.82557 48.6195 8.33596C48.0882 8.83596 47.7862 9.49221 47.7132 10.3047H53.5414C53.4685 9.49221 53.1612 8.83596 52.6195 8.33596C52.0882 7.82557 51.4216 7.57033 50.6195 7.57033ZM61.19 14.3985C60.9818 14.586 60.7213 14.7319 60.4088 14.836C60.1068 14.9297 59.789 14.9766 59.4557 14.9766C58.6849 14.9766 58.0912 14.7682 57.6744 14.3516C57.2578 13.935 57.0494 13.3464 57.0494 12.586V7.6172H55.5806V6.6797H57.0494V4.88282H58.1588V6.6797H60.6588V7.6172H58.1588V12.5235C58.1588 13.0131 58.2786 13.3881 58.5182 13.6485C58.7682 13.8985 59.1224 14.0235 59.5807 14.0235C59.8099 14.0235 60.0287 13.987 60.2369 13.9141C60.4557 13.8412 60.6432 13.737 60.7994 13.6016L61.19 14.3985ZM63.2096 6.6797H64.319V14.8985H63.2096V6.6797ZM63.7721 4.88282C63.5429 4.88282 63.3502 4.80469 63.194 4.64844C63.0377 4.49219 62.9596 4.30469 62.9596 4.08594C62.9596 3.87757 63.0377 3.69531 63.194 3.53906C63.3502 3.38281 63.5429 3.30469 63.7721 3.30469C64.0013 3.30469 64.194 3.38281 64.3502 3.53906C64.5065 3.68493 64.5846 3.86194 64.5846 4.07032C64.5846 4.29945 64.5065 4.49219 64.3502 4.64844C64.194 4.80469 64.0013 4.88282 63.7721 4.88282ZM73.2027 13.9766V14.8985H66.5152V14.1641L71.6871 7.6172H66.6089V6.6797H73.1089V7.41408L67.9371 13.9766H73.2027ZM82.4051 11.1328H75.53C75.5925 11.987 75.9207 12.6797 76.5144 13.211C77.1082 13.7318 77.8582 13.9922 78.7644 13.9922C79.2749 13.9922 79.7437 13.9037 80.1707 13.7266C80.5978 13.5391 80.9676 13.2682 81.2801 12.9141L81.9051 13.6329C81.5406 14.0704 81.0822 14.4037 80.5301 14.6329C79.9884 14.862 79.3894 14.9766 78.7332 14.9766C77.8894 14.9766 77.1394 14.7995 76.4832 14.4454C75.8374 14.0807 75.3322 13.5807 74.9676 12.9453C74.603 12.31 74.4207 11.5912 74.4207 10.7891C74.4207 9.98697 74.5925 9.26822 74.9363 8.63283C75.2905 7.99745 75.7697 7.50258 76.3738 7.14845C76.9884 6.79432 77.6759 6.6172 78.4363 6.6172C79.1968 6.6172 79.8791 6.79432 80.4832 7.14845C81.0874 7.50258 81.5613 7.99745 81.9051 8.63283C82.2488 9.25784 82.4207 9.97659 82.4207 10.7891L82.4051 11.1328ZM78.4363 7.57033C77.6447 7.57033 76.978 7.82557 76.4363 8.33596C75.9051 8.83596 75.603 9.49221 75.53 10.3047H81.3582C81.2853 9.49221 80.9781 8.83596 80.4363 8.33596C79.9051 7.82557 79.2384 7.57033 78.4363 7.57033Z"
      fill="#646363"/>
</svg>
