<svg width="75" height="28" viewBox="0 0 75 28" fill="none" xmlns="http://www.w3.org/2000/svg">
<g clip-path="url(#clip0_256_487)">
<path d="M27.8012 13.8124C27.8012 6.26332 21.706 0.143555 14.1872 0.143555C6.66844 0.143555 0.573242 6.26332 0.573242 13.8124C0.573242 21.3615 6.66844 27.4813 14.1872 27.4813C21.706 27.4813 27.8012 21.3615 27.8012 13.8124Z" fill="#8F8F8F"/>
<path d="M12.3741 21.1831L8.74834 19.0984L8.7041 9.11902L14.1428 5.83691L19.6699 9.11902V15.3284L17.8128 16.393L19.6699 17.4131V21.7153L14.1428 18.4965V14.377L16.0883 13.2439V11.2037L14.1428 10.0061L12.3741 11.2037V21.1831Z" fill="#011118"/>
<path d="M34.1008 12.1848C34.2748 11.8143 34.5325 11.5347 34.8736 11.3459C35.2218 11.1572 35.65 11.0628 36.1582 11.0628V11.7863L35.9806 11.7758C35.4027 11.7758 34.9502 11.9541 34.623 12.3106C34.2957 12.6671 34.1321 13.1669 34.1321 13.8101V16.6202H33.3906V11.1048H34.1008V12.1848ZM42.2329 14.0932H37.6377C37.6795 14.6664 37.8988 15.1313 38.2957 15.4878C38.6926 15.8373 39.1938 16.0121 39.7996 16.0121C40.1407 16.0121 40.454 15.9527 40.7395 15.8338C41.025 15.708 41.2721 15.5262 41.481 15.2886L41.8987 15.7709C41.655 16.0645 41.3487 16.2882 40.9797 16.442C40.6177 16.5958 40.2173 16.6727 39.7787 16.6727C39.2147 16.6727 38.7134 16.5538 38.2748 16.3162C37.8431 16.0715 37.5055 15.7359 37.2618 15.3095C37.0181 14.8831 36.8962 14.4008 36.8962 13.8625C36.8962 13.3242 37.0111 12.8419 37.2409 12.4155C37.4776 11.9891 37.7979 11.657 38.2017 11.4193C38.6125 11.1817 39.072 11.0628 39.5803 11.0628C40.0885 11.0628 40.5446 11.1817 40.9484 11.4193C41.3522 11.657 41.669 11.9891 41.8987 12.4155C42.1285 12.8349 42.2434 13.3172 42.2434 13.8625L42.2329 14.0932ZM39.5803 11.7024C39.0511 11.7024 38.6055 11.8737 38.2435 12.2162C37.8884 12.5518 37.6865 12.9922 37.6377 13.5374H41.5332C41.4845 12.9922 41.2791 12.5518 40.917 12.2162C40.562 11.8737 40.1164 11.7024 39.5803 11.7024ZM48.2667 11.1048L45.8229 16.6202H45.0605L42.6272 11.1048H43.4L45.4574 15.8024L47.5357 11.1048H48.2667ZM53.9412 14.0932H49.346C49.3878 14.6664 49.6071 15.1313 50.004 15.4878C50.4008 15.8373 50.9021 16.0121 51.5078 16.0121C51.849 16.0121 52.1624 15.9527 52.4478 15.8338C52.7332 15.708 52.9804 15.5262 53.1893 15.2886L53.607 15.7709C53.3634 16.0645 53.057 16.2882 52.688 16.442C52.3259 16.5958 51.9256 16.6727 51.487 16.6727C50.923 16.6727 50.4217 16.5538 49.9831 16.3162C49.5514 16.0715 49.2137 15.7359 48.97 15.3095C48.7264 14.8831 48.6045 14.4008 48.6045 13.8625C48.6045 13.3242 48.7194 12.8419 48.9492 12.4155C49.1859 11.9891 49.5062 11.657 49.91 11.4193C50.3208 11.1817 50.7803 11.0628 51.2885 11.0628C51.7968 11.0628 52.2528 11.1817 52.6566 11.4193C53.0605 11.657 53.3772 11.9891 53.607 12.4155C53.8368 12.8349 53.9516 13.3172 53.9516 13.8625L53.9412 14.0932ZM51.2885 11.7024C50.7594 11.7024 50.3138 11.8737 49.9517 12.2162C49.5967 12.5518 49.3948 12.9922 49.346 13.5374H53.2415C53.1928 12.9922 52.9874 12.5518 52.6253 12.2162C52.2702 11.8737 51.8247 11.7024 51.2885 11.7024ZM58.3538 16.2847C58.2146 16.4105 58.0405 16.5084 57.8316 16.5783C57.6297 16.6412 57.4174 16.6727 57.1945 16.6727C56.6794 16.6727 56.2825 16.5328 56.004 16.2532C55.7255 15.9737 55.5862 15.5786 55.5862 15.0684V11.7339H54.6045V11.1048H55.5862V9.8989H56.3277V11.1048H57.9987V11.7339H56.3277V15.0264C56.3277 15.355 56.4078 15.6067 56.5679 15.7814C56.735 15.9492 56.9718 16.033 57.2781 16.033C57.4313 16.033 57.5775 16.0086 57.7167 15.9596C57.8629 15.9107 57.9883 15.8408 58.0927 15.7499L58.3538 16.2847ZM59.7036 11.1048H60.4451V16.6202H59.7036V11.1048ZM60.0796 9.8989C59.9264 9.8989 59.7976 9.84647 59.6932 9.74162C59.5887 9.63676 59.5365 9.51093 59.5365 9.36413C59.5365 9.2243 59.5887 9.10199 59.6932 8.99713C59.7976 8.89227 59.9264 8.83984 60.0796 8.83984C60.2328 8.83984 60.3616 8.89227 60.466 8.99713C60.5704 9.09502 60.6227 9.21381 60.6227 9.35364C60.6227 9.50741 60.5704 9.63676 60.466 9.74162C60.3616 9.84647 60.2328 9.8989 60.0796 9.8989ZM66.3829 16.0016V16.6202H61.913V16.1274L65.3699 11.7339H61.9757V11.1048H66.3202V11.5976L62.8634 16.0016H66.3829ZM72.5337 14.0932H67.9385C67.9803 14.6664 68.1996 15.1313 68.5964 15.4878C68.9933 15.8373 69.4946 16.0121 70.1003 16.0121C70.4415 16.0121 70.7548 15.9527 71.0402 15.8338C71.3257 15.708 71.5729 15.5262 71.7817 15.2886L72.1995 15.7709C71.9558 16.0645 71.6495 16.2882 71.2804 16.442C70.9184 16.5958 70.5181 16.6727 70.0794 16.6727C69.5155 16.6727 69.0142 16.5538 68.5755 16.3162C68.1439 16.0715 67.8062 15.7359 67.5625 15.3095C67.3189 14.8831 67.197 14.4008 67.197 13.8625C67.197 13.3242 67.3119 12.8419 67.5416 12.4155C67.7784 11.9891 68.0986 11.657 68.5024 11.4193C68.9132 11.1817 69.3728 11.0628 69.881 11.0628C70.3893 11.0628 70.8453 11.1817 71.2491 11.4193C71.653 11.657 71.9697 11.9891 72.1995 12.4155C72.4292 12.8349 72.5441 13.3172 72.5441 13.8625L72.5337 14.0932ZM69.881 11.7024C69.3519 11.7024 68.9063 11.8737 68.5442 12.2162C68.1891 12.5518 67.9873 12.9922 67.9385 13.5374H71.834C71.7852 12.9922 71.5799 12.5518 71.2178 12.2162C70.8627 11.8737 70.4171 11.7024 69.881 11.7024Z" fill="#8F8F8F"/>
</g>
<defs>
<clipPath id="clip0_256_487">
<rect width="74.0005" height="27.3378" fill="white" transform="translate(0.501953 0.143555)"/>
</clipPath>
</defs>
</svg>
