<svg width="17" height="17" viewBox="0 0 17 17" fill="none" xmlns="http://www.w3.org/2000/svg">
    <path d="M11.0924 8.95845C11.9875 8.39678 12.6747 7.56127 13.0506 6.57774C13.4264 5.5942 13.4707 4.5159 13.1765 3.50523C12.8824 2.49456 12.2659 1.60623 11.4198 0.974036C10.5737 0.341839 9.54386 0 8.48537 0C7.42688 0 6.39704 0.341839 5.55095 0.974036C4.70486 1.60623 4.08833 2.49456 3.79421 3.50523C3.50009 4.5159 3.5443 5.5942 3.92018 6.57774C4.29607 7.56127 4.98328 8.39678 5.87831 8.95845C4.17039 9.51124 2.68209 10.5867 1.62628 12.0311C0.570468 13.4754 0.00123575 15.2147 0 17H1.1704C1.1704 15.0678 1.94262 13.2147 3.31719 11.8485C4.69175 10.4822 6.55607 9.71462 8.5 9.71462C10.4439 9.71462 12.3082 10.4822 13.6828 11.8485C15.0574 13.2147 15.8296 15.0678 15.8296 17H17C16.9968 15.211 16.4233 13.4691 15.3619 12.0243C14.3005 10.5795 12.8058 9.50621 11.0924 8.95845ZM8.48537 1.16702C9.22058 1.16645 9.93943 1.38266 10.551 1.78829C11.1625 2.19393 11.6393 2.77076 11.9209 3.44579C12.2025 4.12082 12.2763 4.86372 12.133 5.58048C11.9898 6.29724 11.6358 6.95564 11.1159 7.47237C10.596 7.9891 9.93364 8.34094 9.21253 8.48337C8.49143 8.62579 7.74402 8.5524 7.06489 8.27248C6.38576 7.99256 5.80543 7.51869 5.39733 6.91084C4.98923 6.30299 4.77171 5.58847 4.77229 4.8577C4.77306 3.87911 5.16451 2.94082 5.86068 2.24885C6.55685 1.55688 7.50084 1.16779 8.48537 1.16702Z" fill="#25AFB5"/>
</svg>
