<svg width="17" height="18" viewBox="0 0 17 18" fill="none" xmlns="http://www.w3.org/2000/svg">
  <path d="M9.23985 17.0558H7.05153C4.47068 17.0558 0.264648 15.244 0.264648 12.5237V0.414062H15.9717V12.5237C15.9717 15.244 11.8225 17.0558 9.23985 17.0558Z" fill="white"/>
  <path d="M9.40259 17.4667H7.21428C4.34177 17.4667 0 15.4896 0 12.5222V0H16.56V12.5222C16.56 15.4896 12.2512 17.4667 9.40259 17.4667ZM0.852947 0.826751V12.5222C0.852947 14.8726 4.70496 16.6399 7.21428 16.6399H9.40259C11.8826 16.6399 15.7071 14.8726 15.7071 12.5222V0.826751H0.852947Z" fill="#25AEB4"/>
  <path d="M14.8427 2.40897C14.7862 2.40897 14.7321 2.38724 14.6922 2.34856C14.6523 2.30988 14.6299 2.25742 14.6299 2.20272V1.65156C14.6299 1.59686 14.6523 1.5444 14.6922 1.50572C14.7321 1.46704 14.7862 1.44531 14.8427 1.44531C14.8991 1.44531 14.9532 1.46704 14.9931 1.50572C15.033 1.5444 15.0554 1.59686 15.0554 1.65156V2.20272C15.0554 2.25742 15.033 2.30988 14.9931 2.34856C14.9532 2.38724 14.8991 2.40897 14.8427 2.40897Z" fill="#25AEB4"/>
  <path d="M1.71668 2.40897C1.66025 2.40897 1.60613 2.38724 1.56623 2.34856C1.52632 2.30988 1.50391 2.25742 1.50391 2.20272V1.65156C1.50391 1.59686 1.52632 1.5444 1.56623 1.50572C1.60613 1.46704 1.66025 1.44531 1.71668 1.44531C1.77312 1.44531 1.82724 1.46704 1.86714 1.50572C1.90704 1.5444 1.92946 1.59686 1.92946 1.65156V2.20272C1.92946 2.25742 1.90704 2.30988 1.86714 2.34856C1.82724 2.38724 1.77312 2.40897 1.71668 2.40897Z" fill="#25AEB4"/>
  <path d="M9.4244 16.0248H8.85026C8.82232 16.0248 8.79465 16.0195 8.76883 16.0091C8.74302 15.9988 8.71956 15.9836 8.6998 15.9644C8.68005 15.9453 8.66437 15.9226 8.65368 15.8975C8.64299 15.8725 8.63748 15.8457 8.63748 15.8186C8.63748 15.7915 8.64299 15.7647 8.65368 15.7397C8.66437 15.7147 8.68005 15.6919 8.6998 15.6728C8.71956 15.6536 8.74302 15.6384 8.76883 15.6281C8.79465 15.6177 8.82232 15.6124 8.85026 15.6124H9.4244C9.6022 15.6117 9.77982 15.601 9.95634 15.5804C9.98416 15.5772 10.0124 15.5794 10.0393 15.5868C10.0662 15.5942 10.0914 15.6067 10.1134 15.6235C10.1354 15.6404 10.1537 15.6612 10.1674 15.685C10.181 15.7087 10.1897 15.7347 10.193 15.7617C10.1962 15.7887 10.194 15.816 10.1863 15.8421C10.1787 15.8682 10.1658 15.8926 10.1484 15.9139C10.131 15.9352 10.1095 15.953 10.0851 15.9662C10.0606 15.9795 10.0337 15.9879 10.0059 15.9911C9.81288 16.0132 9.61873 16.0245 9.4244 16.0248ZM7.7185 16.0248H7.19206C6.9811 16.0243 6.77037 16.0113 6.56106 15.9857C6.53228 15.9838 6.5042 15.9762 6.47855 15.9634C6.4529 15.9505 6.4302 15.9328 6.41183 15.9112C6.39347 15.8897 6.37983 15.8647 6.37173 15.8378C6.36364 15.811 6.36126 15.7828 6.36475 15.7551C6.36824 15.7273 6.37752 15.7005 6.39202 15.6763C6.40652 15.6522 6.42595 15.6311 6.44911 15.6144C6.47228 15.5977 6.49871 15.5858 6.52678 15.5793C6.55485 15.5729 6.58399 15.572 6.61242 15.5768C6.80477 15.5994 6.9983 15.6113 7.19206 15.6124H7.7185C7.74644 15.6124 7.77411 15.6177 7.79993 15.6281C7.82574 15.6384 7.8492 15.6536 7.86896 15.6728C7.88872 15.6919 7.90439 15.7147 7.91508 15.7397C7.92578 15.7647 7.93128 15.7915 7.93128 15.8186C7.93128 15.8457 7.92578 15.8725 7.91508 15.8975C7.90439 15.9226 7.88872 15.9453 7.86896 15.9644C7.8492 15.9836 7.82574 15.9988 7.79993 16.0091C7.77411 16.0195 7.74644 16.0248 7.7185 16.0248ZM11.0899 15.7759C11.0434 15.7757 10.9982 15.7609 10.9612 15.7336C10.9241 15.7064 10.8972 15.6682 10.8845 15.6248C10.8692 15.5722 10.8761 15.5159 10.9036 15.4683C10.9311 15.4206 10.977 15.3855 11.0312 15.3706C11.3859 15.2733 11.7338 15.1545 12.0731 15.015C12.1249 14.9936 12.1834 14.993 12.2356 15.0134C12.2879 15.0337 12.3297 15.0733 12.3519 15.1234C12.374 15.1739 12.3747 15.2308 12.3537 15.2818C12.3328 15.3327 12.2919 15.3736 12.24 15.3954C11.882 15.5431 11.5143 15.6678 11.1395 15.7688C11.1233 15.7729 11.1067 15.7753 11.0899 15.7759ZM5.47883 15.7759C5.45936 15.7786 5.4396 15.7786 5.42013 15.7759C5.04506 15.6755 4.67738 15.5508 4.31956 15.4026C4.29377 15.3921 4.27037 15.3768 4.25069 15.3575C4.23102 15.3382 4.21546 15.3154 4.20489 15.2903C4.19433 15.2652 4.18898 15.2383 4.18914 15.2112C4.1893 15.1841 4.19497 15.1573 4.20583 15.1323C4.22845 15.082 4.27049 15.0423 4.32295 15.0217C4.37541 15.0011 4.43412 15.0012 4.48648 15.0221C4.82553 15.1622 5.17354 15.281 5.52835 15.3777C5.57829 15.3907 5.62162 15.4209 5.65024 15.4627C5.67885 15.5045 5.69079 15.5549 5.68382 15.6046C5.67685 15.6543 5.65145 15.6998 5.61237 15.7326C5.5733 15.7655 5.52321 15.7834 5.47149 15.783L5.47883 15.7759ZM13.1645 14.9172C13.1278 14.9178 13.0916 14.909 13.0594 14.8919C13.0272 14.8747 13.0002 14.8498 12.9811 14.8194C12.9519 14.7724 12.9431 14.7162 12.9565 14.6629C12.9699 14.6096 13.0044 14.5636 13.0526 14.5349C13.3645 14.3508 13.6554 14.135 13.9202 13.8913C13.9611 13.8533 14.0159 13.8327 14.0724 13.8338C14.129 13.835 14.1828 13.8579 14.222 13.8975C14.2612 13.9371 14.2825 13.9902 14.2813 14.045C14.2801 14.0999 14.2564 14.152 14.2156 14.19C13.9282 14.45 13.6134 14.6801 13.2764 14.8763C13.243 14.8971 13.2042 14.9082 13.1645 14.9083V14.9172ZM3.40057 14.9172C3.36179 14.9166 3.32385 14.9062 3.29052 14.887C2.95348 14.6913 2.63815 14.4625 2.34952 14.2042C2.30997 14.165 2.28783 14.1124 2.28783 14.0575C2.28783 14.0027 2.30997 13.9501 2.34952 13.9109C2.38966 13.8726 2.44367 13.8512 2.49994 13.8512C2.5562 13.8512 2.61021 13.8726 2.65035 13.9109C2.9146 14.1419 3.20291 14.3457 3.51063 14.5189C3.55121 14.542 3.58274 14.5775 3.60029 14.6198C3.61784 14.6621 3.62042 14.7089 3.60763 14.7528C3.59485 14.7967 3.56741 14.8352 3.52961 14.8624C3.49181 14.8896 3.44579 14.9038 3.39874 14.903L3.40057 14.9172ZM14.7255 13.381C14.6972 13.3788 14.6698 13.3709 14.6448 13.3579C14.5925 13.3374 14.5508 13.2976 14.5288 13.2472C14.5067 13.1969 14.5063 13.1401 14.5274 13.0894C14.5935 12.9368 14.6284 12.7732 14.6301 12.6076V12.0796C14.6301 12.0249 14.6525 11.9724 14.6924 11.9337C14.7323 11.895 14.7865 11.8733 14.8429 11.8733C14.8993 11.8733 14.9535 11.895 14.9934 11.9337C15.0333 11.9724 15.0557 12.0249 15.0557 12.0796V12.6005C15.0537 12.819 15.0083 13.0352 14.9218 13.237C14.9061 13.2751 14.879 13.3078 14.8441 13.3309C14.8091 13.354 14.7678 13.3665 14.7255 13.3668V13.381ZM1.83592 13.3579C1.79355 13.3579 1.75213 13.3458 1.71688 13.323C1.68162 13.3002 1.65411 13.2678 1.63782 13.2299C1.55134 13.0281 1.50587 12.8119 1.50391 12.5934V12.0778C1.50391 12.0231 1.52633 11.9706 1.56624 11.9319C1.60614 11.8933 1.66026 11.8715 1.71669 11.8715C1.77312 11.8715 1.82725 11.8933 1.86715 11.9319C1.90705 11.9706 1.92947 12.0231 1.92947 12.0778V12.6005C1.93139 12.7654 1.96627 12.9285 2.03219 13.0805C2.04416 13.106 2.05066 13.1336 2.05129 13.1615C2.05192 13.1895 2.04667 13.2173 2.03586 13.2433C2.02505 13.2692 2.0089 13.2928 1.9884 13.3125C1.96791 13.3322 1.94349 13.3476 1.91663 13.3579C1.88989 13.362 1.86266 13.362 1.83592 13.3579ZM14.8429 11.1888C14.7865 11.1888 14.7323 11.1671 14.6924 11.1284C14.6525 11.0897 14.6301 11.0373 14.6301 10.9826V9.88555C14.6301 9.83085 14.6525 9.7784 14.6924 9.73972C14.7323 9.70104 14.7865 9.67931 14.8429 9.67931C14.8993 9.67931 14.9535 9.70104 14.9934 9.73972C15.0333 9.7784 15.0557 9.83085 15.0557 9.88555V10.9826C15.0557 11.0373 15.0333 11.0897 14.9934 11.1284C14.9535 11.1671 14.8993 11.1888 14.8429 11.1888ZM1.71669 11.1888C1.66026 11.1888 1.60614 11.1671 1.56624 11.1284C1.52633 11.0897 1.50391 11.0373 1.50391 10.9826V9.88378C1.50391 9.82908 1.52633 9.77662 1.56624 9.73794C1.60614 9.69926 1.66026 9.67753 1.71669 9.67753C1.77312 9.67753 1.82725 9.69926 1.86715 9.73794C1.90705 9.77662 1.92947 9.82908 1.92947 9.88378V10.9808C1.92947 11.0355 1.90705 11.0879 1.86715 11.1266C1.82725 11.1653 1.77312 11.187 1.71669 11.187V11.1888ZM14.8429 8.9948C14.7865 8.9948 14.7323 8.97307 14.6924 8.93439C14.6525 8.89571 14.6301 8.84325 14.6301 8.78855V7.68977C14.6301 7.63508 14.6525 7.58262 14.6924 7.54394C14.7323 7.50526 14.7865 7.48353 14.8429 7.48353C14.8993 7.48353 14.9535 7.50526 14.9934 7.54394C15.0333 7.58262 15.0557 7.63508 15.0557 7.68977V8.78855C15.0557 8.84325 15.0333 8.89571 14.9934 8.93439C14.9535 8.97307 14.8993 8.9948 14.8429 8.9948ZM1.71669 8.9948C1.66026 8.9948 1.60614 8.97307 1.56624 8.93439C1.52633 8.89571 1.50391 8.84325 1.50391 8.78855V7.68977C1.50391 7.63508 1.52633 7.58262 1.56624 7.54394C1.60614 7.50526 1.66026 7.48353 1.71669 7.48353C1.77312 7.48353 1.82725 7.50526 1.86715 7.54394C1.90705 7.58262 1.92947 7.63508 1.92947 7.68977V8.78678C1.92947 8.84147 1.90705 8.89393 1.86715 8.93261C1.82725 8.97129 1.77312 8.99302 1.71669 8.99302V8.9948ZM14.8429 6.79902C14.788 6.79907 14.7352 6.77856 14.6956 6.74179C14.6559 6.70501 14.6325 6.65481 14.6301 6.60166V5.49577C14.6301 5.44107 14.6525 5.38861 14.6924 5.34994C14.7323 5.31126 14.7865 5.28953 14.8429 5.28953C14.8993 5.28953 14.9535 5.31126 14.9934 5.34994C15.0333 5.38861 15.0557 5.44107 15.0557 5.49577V6.60166C15.0533 6.65481 15.0299 6.70501 14.9902 6.74179C14.9506 6.77856 14.8978 6.79907 14.8429 6.79902ZM1.71669 6.79902C1.66181 6.79907 1.60904 6.77856 1.56939 6.74179C1.52974 6.70501 1.50628 6.65481 1.50391 6.60166V5.49577C1.50391 5.44107 1.52633 5.38861 1.56624 5.34994C1.60614 5.31126 1.66026 5.28953 1.71669 5.28953C1.77312 5.28953 1.82725 5.31126 1.86715 5.34994C1.90705 5.38861 1.92947 5.44107 1.92947 5.49577V6.60166C1.9271 6.65481 1.90365 6.70501 1.864 6.74179C1.82435 6.77856 1.77157 6.79907 1.71669 6.79902ZM14.8429 4.60502C14.7865 4.60502 14.7323 4.58329 14.6924 4.54461C14.6525 4.50593 14.6301 4.45347 14.6301 4.39877V3.30177C14.6301 3.24707 14.6525 3.19461 14.6924 3.15594C14.7323 3.11726 14.7865 3.09553 14.8429 3.09553C14.8993 3.09553 14.9535 3.11726 14.9934 3.15594C15.0333 3.19461 15.0557 3.24707 15.0557 3.30177V4.39877C15.0557 4.45347 15.0333 4.50593 14.9934 4.54461C14.9535 4.58329 14.8993 4.60502 14.8429 4.60502ZM1.71669 4.60502C1.68859 4.60502 1.66078 4.59962 1.63484 4.58915C1.6089 4.57867 1.58537 4.56332 1.56558 4.54398C1.5458 4.52464 1.53017 4.50169 1.51958 4.47647C1.509 4.45124 1.50367 4.42423 1.50391 4.39699V3.29999C1.50391 3.24529 1.52633 3.19284 1.56624 3.15416C1.60614 3.11548 1.66026 3.09375 1.71669 3.09375C1.77312 3.09375 1.82725 3.11548 1.86715 3.15416C1.90705 3.19284 1.92947 3.24529 1.92947 3.29999V4.39699C1.92971 4.42423 1.92439 4.45124 1.9138 4.47647C1.90322 4.50169 1.88758 4.52464 1.8678 4.54398C1.84802 4.56332 1.82448 4.57867 1.79854 4.58915C1.77261 4.59962 1.74479 4.60502 1.71669 4.60502Z" fill="#25AEB4"/>
  <path d="M13.4674 2.37733H12.3301C12.2737 2.37733 12.2196 2.3556 12.1797 2.31692C12.1398 2.27824 12.1174 2.22579 12.1174 2.17109C12.1174 2.11639 12.1398 2.06393 12.1797 2.02525C12.2196 1.98657 12.2737 1.96484 12.3301 1.96484H13.4674C13.5238 1.96484 13.578 1.98657 13.6179 2.02525C13.6578 2.06393 13.6802 2.11639 13.6802 2.17109C13.6802 2.22579 13.6578 2.27824 13.6179 2.31692C13.578 2.3556 13.5238 2.37733 13.4674 2.37733ZM11.1947 2.37733H10.0593C10.0029 2.37733 9.94873 2.3556 9.90883 2.31692C9.86893 2.27824 9.84651 2.22579 9.84651 2.17109C9.84651 2.11639 9.86893 2.06393 9.90883 2.02525C9.94873 1.98657 10.0029 1.96484 10.0593 1.96484H11.1947C11.2511 1.96484 11.3053 1.98657 11.3452 2.02525C11.3851 2.06393 11.4075 2.11639 11.4075 2.17109C11.4075 2.22579 11.3851 2.27824 11.3452 2.31692C11.3053 2.3556 11.2511 2.37733 11.1947 2.37733ZM8.92386 2.37733H7.7866C7.73017 2.37733 7.67604 2.3556 7.63614 2.31692C7.59624 2.27824 7.57382 2.22579 7.57382 2.17109C7.57382 2.11639 7.59624 2.06393 7.63614 2.02525C7.67604 1.98657 7.73017 1.96484 7.7866 1.96484H8.92386C8.98029 1.96484 9.03441 1.98657 9.07432 2.02525C9.11422 2.06393 9.13664 2.11639 9.13664 2.17109C9.13664 2.22579 9.11422 2.27824 9.07432 2.31692C9.03441 2.3556 8.98029 2.37733 8.92386 2.37733ZM6.65117 2.37733H5.51574C5.45931 2.37733 5.40519 2.3556 5.36529 2.31692C5.32538 2.27824 5.30296 2.22579 5.30296 2.17109C5.30296 2.11639 5.32538 2.06393 5.36529 2.02525C5.40519 1.98657 5.45931 1.96484 5.51574 1.96484H6.65117C6.7076 1.96484 6.76172 1.98657 6.80163 2.02525C6.84153 2.06393 6.86395 2.11639 6.86395 2.17109C6.86395 2.22579 6.84153 2.27824 6.80163 2.31692C6.76172 2.3556 6.7076 2.37733 6.65117 2.37733ZM4.38031 2.37733H3.24305C3.18662 2.37733 3.1325 2.3556 3.0926 2.31692C3.05269 2.27824 3.03027 2.22579 3.03027 2.17109C3.03027 2.11639 3.05269 2.06393 3.0926 2.02525C3.1325 1.98657 3.18662 1.96484 3.24305 1.96484H4.38031C4.43675 1.96484 4.49087 1.98657 4.53077 2.02525C4.57067 2.06393 4.59309 2.11639 4.59309 2.17109C4.59309 2.22579 4.57067 2.27824 4.53077 2.31692C4.49087 2.3556 4.43675 2.37733 4.38031 2.37733Z" fill="#25AEB4"/>
</svg>
