<svg width="17" height="18" viewBox="0 0 17 18" fill="none" xmlns="http://www.w3.org/2000/svg">
  <path d="M9.23985 17.589H7.05153C4.47068 17.589 0.264648 15.7772 0.264648 13.0569V0.947266H15.9717V13.0569C15.9717 15.7772 11.8225 17.589 9.23985 17.589Z" fill="white"/>
  <path d="M9.40259 17.9999H7.21428C4.34177 17.9999 0 16.0228 0 13.0554V0.533203H16.56V13.0554C16.56 16.0228 12.2512 17.9999 9.40259 17.9999ZM0.852947 1.35995V13.0554C0.852947 15.4058 4.70496 17.1731 7.21428 17.1731H9.40259C11.8826 17.1731 15.7071 15.4058 15.7071 13.0554V1.35995H0.852947Z" fill="#828282"/>
  <path d="M14.8427 2.94217C14.7862 2.94217 14.7321 2.92044 14.6922 2.88176C14.6523 2.84308 14.6299 2.79063 14.6299 2.73593V2.18476C14.6299 2.13006 14.6523 2.0776 14.6922 2.03892C14.7321 2.00024 14.7862 1.97852 14.8427 1.97852C14.8991 1.97852 14.9532 2.00024 14.9931 2.03892C15.033 2.0776 15.0554 2.13006 15.0554 2.18476V2.73593C15.0554 2.79063 15.033 2.84308 14.9931 2.88176C14.9532 2.92044 14.8991 2.94217 14.8427 2.94217Z" fill="#828282"/>
  <path d="M1.71668 2.94217C1.66025 2.94217 1.60613 2.92044 1.56623 2.88176C1.52632 2.84308 1.50391 2.79063 1.50391 2.73593V2.18476C1.50391 2.13006 1.52632 2.0776 1.56623 2.03892C1.60613 2.00024 1.66025 1.97852 1.71668 1.97852C1.77312 1.97852 1.82724 2.00024 1.86714 2.03892C1.90704 2.0776 1.92946 2.13006 1.92946 2.18476V2.73593C1.92946 2.79063 1.90704 2.84308 1.86714 2.88176C1.82724 2.92044 1.77312 2.94217 1.71668 2.94217Z" fill="#828282"/>
  <path d="M9.4244 16.558H8.85026C8.82232 16.558 8.79465 16.5527 8.76883 16.5423C8.74302 16.532 8.71956 16.5168 8.6998 16.4976C8.68005 16.4785 8.66437 16.4558 8.65368 16.4307C8.64299 16.4057 8.63748 16.3789 8.63748 16.3518C8.63748 16.3247 8.64299 16.2979 8.65368 16.2729C8.66437 16.2479 8.68005 16.2251 8.6998 16.206C8.71956 16.1868 8.74302 16.1716 8.76883 16.1613C8.79465 16.1509 8.82232 16.1456 8.85026 16.1456H9.4244C9.6022 16.1449 9.77982 16.1343 9.95634 16.1136C9.98416 16.1104 10.0124 16.1126 10.0393 16.12C10.0662 16.1274 10.0914 16.1399 10.1134 16.1567C10.1354 16.1736 10.1537 16.1944 10.1674 16.2182C10.181 16.2419 10.1897 16.2679 10.193 16.2949C10.1962 16.3219 10.194 16.3492 10.1863 16.3753C10.1787 16.4014 10.1658 16.4259 10.1484 16.4471C10.131 16.4684 10.1095 16.4862 10.0851 16.4995C10.0606 16.5127 10.0337 16.5211 10.0059 16.5243C9.81288 16.5464 9.61873 16.5577 9.4244 16.558ZM7.7185 16.558H7.19206C6.9811 16.5575 6.77037 16.5445 6.56106 16.5189C6.53228 16.517 6.5042 16.5094 6.47855 16.4966C6.4529 16.4837 6.4302 16.466 6.41183 16.4444C6.39347 16.4229 6.37983 16.3979 6.37173 16.371C6.36364 16.3442 6.36126 16.316 6.36475 16.2883C6.36824 16.2605 6.37752 16.2337 6.39202 16.2095C6.40652 16.1854 6.42595 16.1643 6.44911 16.1476C6.47228 16.1309 6.49871 16.119 6.52678 16.1125C6.55485 16.1061 6.58399 16.1052 6.61242 16.11C6.80477 16.1326 6.9983 16.1445 7.19206 16.1456H7.7185C7.74644 16.1456 7.77411 16.1509 7.79993 16.1613C7.82574 16.1716 7.8492 16.1868 7.86896 16.206C7.88872 16.2251 7.90439 16.2479 7.91508 16.2729C7.92578 16.2979 7.93128 16.3247 7.93128 16.3518C7.93128 16.3789 7.92578 16.4057 7.91508 16.4307C7.90439 16.4558 7.88872 16.4785 7.86896 16.4976C7.8492 16.5168 7.82574 16.532 7.79993 16.5423C7.77411 16.5527 7.74644 16.558 7.7185 16.558ZM11.0899 16.3091C11.0434 16.3089 10.9982 16.2941 10.9612 16.2668C10.9241 16.2396 10.8972 16.2014 10.8845 16.158C10.8692 16.1054 10.8761 16.0491 10.9036 16.0015C10.9311 15.9538 10.977 15.9187 11.0312 15.9038C11.3859 15.8065 11.7338 15.6877 12.0731 15.5482C12.1249 15.5268 12.1834 15.5262 12.2356 15.5466C12.2879 15.5669 12.3297 15.6065 12.3519 15.6566C12.374 15.7071 12.3747 15.764 12.3537 15.815C12.3328 15.8659 12.2919 15.9068 12.24 15.9287C11.882 16.0763 11.5143 16.201 11.1395 16.302C11.1233 16.3061 11.1067 16.3085 11.0899 16.3091ZM5.47883 16.3091C5.45936 16.3118 5.4396 16.3118 5.42013 16.3091C5.04506 16.2087 4.67738 16.084 4.31956 15.9358C4.29377 15.9253 4.27037 15.91 4.25069 15.8907C4.23102 15.8714 4.21546 15.8486 4.20489 15.8235C4.19433 15.7984 4.18898 15.7715 4.18914 15.7444C4.1893 15.7173 4.19497 15.6905 4.20583 15.6655C4.22845 15.6152 4.27049 15.5755 4.32295 15.5549C4.37541 15.5343 4.43412 15.5344 4.48648 15.5553C4.82553 15.6954 5.17354 15.8142 5.52835 15.9109C5.57829 15.9239 5.62162 15.9542 5.65024 15.9959C5.67885 16.0377 5.69079 16.0881 5.68382 16.1378C5.67685 16.1875 5.65145 16.233 5.61237 16.2658C5.5733 16.2987 5.52321 16.3166 5.47149 16.3162L5.47883 16.3091ZM13.1645 15.4504C13.1278 15.451 13.0916 15.4423 13.0594 15.4251C13.0272 15.4079 13.0002 15.383 12.9811 15.3526C12.9519 15.3056 12.9431 15.2494 12.9565 15.1961C12.9699 15.1428 13.0044 15.0968 13.0526 15.0681C13.3645 14.884 13.6554 14.6682 13.9202 14.4245C13.9611 14.3865 14.0159 14.3659 14.0724 14.367C14.129 14.3682 14.1828 14.3911 14.222 14.4307C14.2612 14.4703 14.2825 14.5234 14.2813 14.5782C14.2801 14.6331 14.2564 14.6852 14.2156 14.7232C13.9282 14.9832 13.6134 15.2133 13.2764 15.4095C13.243 15.4303 13.2042 15.4414 13.1645 15.4415V15.4504ZM3.40057 15.4504C3.36179 15.4498 3.32385 15.4394 3.29052 15.4202C2.95348 15.2245 2.63815 14.9957 2.34952 14.7374C2.30997 14.6982 2.28783 14.6456 2.28783 14.5907C2.28783 14.5359 2.30997 14.4833 2.34952 14.4441C2.38966 14.4058 2.44367 14.3844 2.49994 14.3844C2.5562 14.3844 2.61021 14.4058 2.65035 14.4441C2.9146 14.6751 3.20291 14.8789 3.51063 15.0521C3.55121 15.0752 3.58274 15.1107 3.60029 15.153C3.61784 15.1953 3.62042 15.2421 3.60763 15.286C3.59485 15.3299 3.56741 15.3684 3.52961 15.3956C3.49181 15.4228 3.44579 15.437 3.39874 15.4362L3.40057 15.4504ZM14.7255 13.9142C14.6972 13.912 14.6698 13.9041 14.6448 13.8911C14.5925 13.8706 14.5508 13.8308 14.5288 13.7804C14.5067 13.7301 14.5063 13.6733 14.5274 13.6226C14.5935 13.47 14.6284 13.3064 14.6301 13.1408V12.6128C14.6301 12.5581 14.6525 12.5056 14.6924 12.4669C14.7323 12.4282 14.7865 12.4065 14.8429 12.4065C14.8993 12.4065 14.9535 12.4282 14.9934 12.4669C15.0333 12.5056 15.0557 12.5581 15.0557 12.6128V13.1337C15.0537 13.3522 15.0083 13.5684 14.9218 13.7702C14.9061 13.8083 14.879 13.841 14.8441 13.8641C14.8091 13.8873 14.7678 13.8997 14.7255 13.9V13.9142ZM1.83592 13.8911C1.79355 13.8911 1.75213 13.879 1.71688 13.8562C1.68162 13.8334 1.65411 13.801 1.63782 13.7631C1.55134 13.5613 1.50587 13.3451 1.50391 13.1266V12.611C1.50391 12.5563 1.52633 12.5038 1.56624 12.4651C1.60614 12.4265 1.66026 12.4047 1.71669 12.4047C1.77312 12.4047 1.82725 12.4265 1.86715 12.4651C1.90705 12.5038 1.92947 12.5563 1.92947 12.611V13.1337C1.93139 13.2986 1.96627 13.4617 2.03219 13.6138C2.04416 13.6392 2.05066 13.6668 2.05129 13.6948C2.05192 13.7227 2.04667 13.7505 2.03586 13.7765C2.02505 13.8024 2.0089 13.826 1.9884 13.8457C1.96791 13.8654 1.94349 13.8808 1.91663 13.8911C1.88989 13.8952 1.86266 13.8952 1.83592 13.8911ZM14.8429 11.722C14.7865 11.722 14.7323 11.7003 14.6924 11.6616C14.6525 11.6229 14.6301 11.5705 14.6301 11.5158V10.4188C14.6301 10.3641 14.6525 10.3116 14.6924 10.2729C14.7323 10.2342 14.7865 10.2125 14.8429 10.2125C14.8993 10.2125 14.9535 10.2342 14.9934 10.2729C15.0333 10.3116 15.0557 10.3641 15.0557 10.4188V11.5158C15.0557 11.5705 15.0333 11.6229 14.9934 11.6616C14.9535 11.7003 14.8993 11.722 14.8429 11.722ZM1.71669 11.722C1.66026 11.722 1.60614 11.7003 1.56624 11.6616C1.52633 11.6229 1.50391 11.5705 1.50391 11.5158V10.417C1.50391 10.3623 1.52633 10.3098 1.56624 10.2711C1.60614 10.2325 1.66026 10.2107 1.71669 10.2107C1.77312 10.2107 1.82725 10.2325 1.86715 10.2711C1.90705 10.3098 1.92947 10.3623 1.92947 10.417V11.514C1.92947 11.5687 1.90705 11.6211 1.86715 11.6598C1.82725 11.6985 1.77312 11.7202 1.71669 11.7202V11.722ZM14.8429 9.528C14.7865 9.528 14.7323 9.50627 14.6924 9.46759C14.6525 9.42891 14.6301 9.37646 14.6301 9.32176V8.22298C14.6301 8.16828 14.6525 8.11582 14.6924 8.07714C14.7323 8.03846 14.7865 8.01673 14.8429 8.01673C14.8993 8.01673 14.9535 8.03846 14.9934 8.07714C15.0333 8.11582 15.0557 8.16828 15.0557 8.22298V9.32176C15.0557 9.37646 15.0333 9.42891 14.9934 9.46759C14.9535 9.50627 14.8993 9.528 14.8429 9.528ZM1.71669 9.528C1.66026 9.528 1.60614 9.50627 1.56624 9.46759C1.52633 9.42891 1.50391 9.37646 1.50391 9.32176V8.22298C1.50391 8.16828 1.52633 8.11582 1.56624 8.07714C1.60614 8.03846 1.66026 8.01673 1.71669 8.01673C1.77312 8.01673 1.82725 8.03846 1.86715 8.07714C1.90705 8.11582 1.92947 8.16828 1.92947 8.22298V9.31998C1.92947 9.37468 1.90705 9.42714 1.86715 9.46581C1.82725 9.50449 1.77312 9.52622 1.71669 9.52622V9.528ZM14.8429 7.33222C14.788 7.33227 14.7352 7.31176 14.6956 7.27499C14.6559 7.23821 14.6325 7.18801 14.6301 7.13487V6.02898C14.6301 5.97428 14.6525 5.92182 14.6924 5.88314C14.7323 5.84446 14.7865 5.82273 14.8429 5.82273C14.8993 5.82273 14.9535 5.84446 14.9934 5.88314C15.0333 5.92182 15.0557 5.97428 15.0557 6.02898V7.13487C15.0533 7.18801 15.0299 7.23821 14.9902 7.27499C14.9506 7.31176 14.8978 7.33227 14.8429 7.33222ZM1.71669 7.33222C1.66181 7.33227 1.60904 7.31176 1.56939 7.27499C1.52974 7.23821 1.50628 7.18801 1.50391 7.13487V6.02898C1.50391 5.97428 1.52633 5.92182 1.56624 5.88314C1.60614 5.84446 1.66026 5.82273 1.71669 5.82273C1.77312 5.82273 1.82725 5.84446 1.86715 5.88314C1.90705 5.92182 1.92947 5.97428 1.92947 6.02898V7.13487C1.9271 7.18801 1.90365 7.23821 1.864 7.27499C1.82435 7.31176 1.77157 7.33227 1.71669 7.33222ZM14.8429 5.13822C14.7865 5.13822 14.7323 5.11649 14.6924 5.07781C14.6525 5.03913 14.6301 4.98667 14.6301 4.93198V3.83497C14.6301 3.78028 14.6525 3.72782 14.6924 3.68914C14.7323 3.65046 14.7865 3.62873 14.8429 3.62873C14.8993 3.62873 14.9535 3.65046 14.9934 3.68914C15.0333 3.72782 15.0557 3.78028 15.0557 3.83497V4.93198C15.0557 4.98667 15.0333 5.03913 14.9934 5.07781C14.9535 5.11649 14.8993 5.13822 14.8429 5.13822ZM1.71669 5.13822C1.68859 5.13822 1.66078 5.13283 1.63484 5.12235C1.6089 5.11188 1.58537 5.09652 1.56558 5.07718C1.5458 5.05784 1.53017 5.0349 1.51958 5.00967C1.509 4.98444 1.50367 4.95743 1.50391 4.9302V3.8332C1.50391 3.7785 1.52633 3.72604 1.56624 3.68736C1.60614 3.64868 1.66026 3.62695 1.71669 3.62695C1.77312 3.62695 1.82725 3.64868 1.86715 3.68736C1.90705 3.72604 1.92947 3.7785 1.92947 3.8332V4.9302C1.92971 4.95743 1.92439 4.98444 1.9138 5.00967C1.90322 5.0349 1.88758 5.05784 1.8678 5.07718C1.84802 5.09652 1.82448 5.11188 1.79854 5.12235C1.77261 5.13283 1.74479 5.13822 1.71669 5.13822Z" fill="#828282"/>
  <path d="M13.4674 2.91053H12.3301C12.2737 2.91053 12.2196 2.8888 12.1797 2.85013C12.1398 2.81145 12.1174 2.75899 12.1174 2.70429C12.1174 2.64959 12.1398 2.59713 12.1797 2.55845C12.2196 2.51978 12.2737 2.49805 12.3301 2.49805H13.4674C13.5238 2.49805 13.578 2.51978 13.6179 2.55845C13.6578 2.59713 13.6802 2.64959 13.6802 2.70429C13.6802 2.75899 13.6578 2.81145 13.6179 2.85013C13.578 2.8888 13.5238 2.91053 13.4674 2.91053ZM11.1947 2.91053H10.0593C10.0029 2.91053 9.94873 2.8888 9.90883 2.85013C9.86893 2.81145 9.84651 2.75899 9.84651 2.70429C9.84651 2.64959 9.86893 2.59713 9.90883 2.55845C9.94873 2.51978 10.0029 2.49805 10.0593 2.49805H11.1947C11.2511 2.49805 11.3053 2.51978 11.3452 2.55845C11.3851 2.59713 11.4075 2.64959 11.4075 2.70429C11.4075 2.75899 11.3851 2.81145 11.3452 2.85013C11.3053 2.8888 11.2511 2.91053 11.1947 2.91053ZM8.92386 2.91053H7.7866C7.73017 2.91053 7.67604 2.8888 7.63614 2.85013C7.59624 2.81145 7.57382 2.75899 7.57382 2.70429C7.57382 2.64959 7.59624 2.59713 7.63614 2.55845C7.67604 2.51978 7.73017 2.49805 7.7866 2.49805H8.92386C8.98029 2.49805 9.03441 2.51978 9.07432 2.55845C9.11422 2.59713 9.13664 2.64959 9.13664 2.70429C9.13664 2.75899 9.11422 2.81145 9.07432 2.85013C9.03441 2.8888 8.98029 2.91053 8.92386 2.91053ZM6.65117 2.91053H5.51574C5.45931 2.91053 5.40519 2.8888 5.36529 2.85013C5.32538 2.81145 5.30296 2.75899 5.30296 2.70429C5.30296 2.64959 5.32538 2.59713 5.36529 2.55845C5.40519 2.51978 5.45931 2.49805 5.51574 2.49805H6.65117C6.7076 2.49805 6.76172 2.51978 6.80163 2.55845C6.84153 2.59713 6.86395 2.64959 6.86395 2.70429C6.86395 2.75899 6.84153 2.81145 6.80163 2.85013C6.76172 2.8888 6.7076 2.91053 6.65117 2.91053ZM4.38031 2.91053H3.24305C3.18662 2.91053 3.1325 2.8888 3.0926 2.85013C3.05269 2.81145 3.03027 2.75899 3.03027 2.70429C3.03027 2.64959 3.05269 2.59713 3.0926 2.55845C3.1325 2.51978 3.18662 2.49805 3.24305 2.49805H4.38031C4.43675 2.49805 4.49087 2.51978 4.53077 2.55845C4.57067 2.59713 4.59309 2.64959 4.59309 2.70429C4.59309 2.75899 4.57067 2.81145 4.53077 2.85013C4.49087 2.8888 4.43675 2.91053 4.38031 2.91053Z" fill="#828282"/>
</svg>
