<svg width="39" height="39" viewBox="0 0 39 39" fill="none" xmlns="http://www.w3.org/2000/svg">
    <path d="M29.9857 2H9.01364C5.14012 2 2 5.17623 2 9.09433V29.9061C2 33.8238 5.14012 37 9.01364 37H29.9857C33.8595 37 37 33.8238 37 29.9061V9.09433C37 5.17623 33.8595 2 29.9857 2Z" fill="white" stroke="#25AEB4" stroke-width="4"/>
    <path d="M17.5608 32.3687L17.5575 32.9717H14.7273V28.3776H17.5575V28.9806H15.4686V30.3652H17.1387V30.949H15.4686V32.3687H17.5608ZM20.1614 30.5183C20.0668 30.395 19.9632 30.3088 19.8496 30.2599C19.7361 30.211 19.6135 30.1865 19.481 30.1865C19.2161 30.1865 19.0088 30.2854 18.8599 30.4832C18.711 30.6789 18.6361 30.9692 18.6361 31.3542C18.6361 31.5541 18.6534 31.7254 18.6863 31.8678C18.72 32.0082 18.7685 32.1231 18.8319 32.2124C18.8944 32.3017 18.9709 32.3666 19.0614 32.407C19.1519 32.4474 19.254 32.4676 19.3675 32.4676C19.5394 32.4676 19.6875 32.4304 19.8118 32.3559C19.9377 32.2793 20.0545 32.172 20.1614 32.0337V30.5183ZM20.8394 28.25V32.9717H20.4296C20.3391 32.9717 20.2816 32.9281 20.2561 32.8409L20.196 32.4868C20.0619 32.6463 19.908 32.775 19.7361 32.8728C19.5658 32.9706 19.3675 33.0195 19.1404 33.0195C18.9594 33.0195 18.7957 32.9833 18.6484 32.9111C18.502 32.8366 18.3761 32.7292 18.2708 32.5889C18.1655 32.4485 18.084 32.2751 18.0248 32.0688C17.968 31.8604 17.9401 31.6222 17.9401 31.3542C17.9401 31.1117 17.9713 30.8873 18.0347 30.681C18.0997 30.4747 18.1918 30.2961 18.3119 30.1451C18.4312 29.9919 18.576 29.8728 18.7463 29.7878C18.9191 29.7005 19.1108 29.657 19.3231 29.657C19.5123 29.657 19.6727 29.6878 19.8052 29.7494C19.9376 29.809 20.0561 29.893 20.1614 30.0015V28.25H20.8394ZM22.3738 29.7175V32.9717H21.6958V29.7175H22.3738ZM22.4865 28.7349C22.4865 28.7966 22.4741 28.8551 22.4486 28.9104C22.4256 28.9657 22.3935 29.0146 22.3515 29.0571C22.3096 29.0976 22.2602 29.1305 22.2035 29.156C22.1483 29.1795 22.0899 29.1912 22.0266 29.1912C21.9657 29.1912 21.9081 29.1795 21.8538 29.156C21.8011 29.1305 21.7542 29.0976 21.7147 29.0571C21.6744 29.0146 21.6424 28.9657 21.6168 28.9104C21.5938 28.8551 21.5823 28.7966 21.5823 28.7349C21.5823 28.6711 21.5938 28.6116 21.6168 28.5563C21.6424 28.5009 21.6744 28.4531 21.7147 28.4127C21.7542 28.3701 21.8011 28.3372 21.8538 28.3138C21.9081 28.2883 21.9657 28.2755 22.0266 28.2755C22.0899 28.2755 22.1483 28.2883 22.2035 28.3138C22.2602 28.3372 22.3096 28.3701 22.3515 28.4127C22.3935 28.4531 22.4256 28.5009 22.4486 28.5563C22.4741 28.6116 22.4865 28.6711 22.4865 28.7349ZM24.2553 33.0227C23.988 33.0227 23.7823 32.9472 23.6375 32.7962C23.4943 32.6431 23.4236 32.4283 23.4236 32.1518V30.2567H23.0706C23.0328 30.2567 22.9999 30.2451 22.9727 30.2216C22.9456 30.1961 22.9316 30.1589 22.9316 30.1099V29.8324L23.4515 29.7559L23.5996 28.8147C23.6103 28.7785 23.6284 28.7498 23.6531 28.7286C23.6786 28.7052 23.7123 28.6935 23.7543 28.6935H24.1007V29.7623H24.9925V30.2567H24.1007V32.1039C24.1007 32.2209 24.1295 32.3102 24.1854 32.3719C24.2422 32.4336 24.3179 32.4644 24.4125 32.4644C24.4651 32.4644 24.5104 32.458 24.5482 32.4453C24.5861 32.4304 24.619 32.4155 24.6461 32.4006C24.6733 32.3836 24.6963 32.3687 24.7153 32.3559C24.7366 32.3411 24.7564 32.3336 24.7753 32.3336C24.8132 32.3336 24.8436 32.3549 24.8666 32.3975L25.0682 32.7324C24.9629 32.826 24.8395 32.8983 24.6963 32.9493C24.5532 32.9983 24.4067 33.0227 24.2553 33.0227Z" fill="#25AEB4"/>
    <path d="M24.7678 5.97754H14.232C13.6273 5.97754 13.1362 6.5146 13.1362 7.17713V23.0734C13.1362 23.7359 13.6273 24.273 14.232 24.273H24.7678C25.3732 24.273 25.8635 23.7359 25.8635 23.0734V7.17713C25.8635 6.5146 25.3732 5.97754 24.7678 5.97754Z" fill="#00A6AB"/>
    <path d="M24.8301 5.77018C24.4902 5.5111 24.1565 5.33405 23.8221 5.18164L23.4628 5.73896L25.5044 7.41235L25.8638 6.85494C25.513 6.36885 25.1692 6.02918 24.8301 5.77018ZM23.2318 6.09753L22.8724 6.65494L24.9141 8.32825L25.2734 7.77093L23.2318 6.09753ZM22.6111 7.06103L17.7648 14.5828L18.8747 14.9894L23.553 7.83093L22.6111 7.06103ZM23.7529 8.0111L19.0994 15.1551L19.7294 16.2706L24.6528 8.73434L23.7529 8.0111ZM17.6403 14.9051L17.1138 17.9089L19.4409 16.4613L18.7805 15.3498L17.6403 14.9051Z" fill="white"/>
    <path d="M15.0973 5.97796C14.0126 5.97796 13.1362 6.98595 13.1362 8.23336V22.0273C13.1362 23.2748 14.0126 24.273 15.0973 24.273H23.107C24.1916 24.273 25.068 23.2748 25.068 22.0273V11.2341L23.8725 13.0926V21.5043C23.8725 22.273 23.3377 22.8983 22.6695 22.8983H15.5347C14.8666 22.8983 14.331 22.273 14.331 21.5043V8.74611C14.331 7.97745 14.8666 7.36182 15.5347 7.36182H21.2231L21.9879 5.97754L15.0973 5.97796Z" fill="white"/>
</svg>
