<svg width="14" height="14" viewBox="0 0 14 14" fill="none" xmlns="http://www.w3.org/2000/svg">
<path d="M8.97414 5.27871C9.15335 5.09907 9.15335 4.80889 8.97414 4.62925L8.47787 4.1318C8.29866 3.95216 8.00917 3.95216 7.82996 4.1318L6.87877 5.08525C6.69956 5.26489 6.41007 5.26489 6.23086 5.08525L5.27968 4.1318C5.10047 3.95216 4.81098 3.95216 4.63177 4.1318L4.12171 4.62925C3.9425 4.80889 3.9425 5.09907 4.12171 5.27871L5.0729 6.23216C5.25211 6.4118 5.25211 6.70198 5.0729 6.88162L4.12171 7.83507C3.9425 8.01471 3.9425 8.30489 4.12171 8.48452L4.6042 8.96816C4.7834 9.1478 5.0729 9.1478 5.25211 8.96816L6.20329 8.01471C6.3825 7.83507 6.67199 7.83507 6.8512 8.01471L7.80239 8.96816C7.9816 9.1478 8.27109 9.1478 8.4503 8.96816L8.93278 8.48452C9.11199 8.30489 9.11199 8.01471 8.93278 7.83507L7.9816 6.88162C7.80239 6.70198 7.80239 6.4118 7.9816 6.23216L8.97414 5.27871Z" fill="#DC183B"/>
<path d="M6.54802 0C2.93627 0 0 2.94327 0 6.56364C0 10.184 2.93627 13.1273 6.54802 13.1273C10.1598 13.1273 13.096 10.184 13.096 6.56364C13.096 2.94327 10.1598 0 6.54802 0ZM6.54802 11.5105C3.81853 11.5105 1.61288 9.29964 1.61288 6.56364C1.61288 3.82764 3.81853 1.61673 6.54802 1.61673C9.27751 1.61673 11.4832 3.82764 11.4832 6.56364C11.4832 9.29964 9.27751 11.5105 6.54802 11.5105Z" fill="#DC183B"/>
</svg>
