<svg width="19" height="17" viewBox="0 0 19 17" fill="none" xmlns="http://www.w3.org/2000/svg">
    <path d="M18.7361 11.292C18.7361 12.8002 18.7361 14.3084 18.7361 15.8166C18.7394 15.9237 18.7254 16.0307 18.695 16.1334C18.6563 16.2455 18.583 16.3423 18.4859 16.41C18.3896 16.4777 18.2743 16.5128 18.1566 16.5105H15.8863C15.8122 16.5139 15.7381 16.5025 15.6682 16.4767C15.5982 16.451 15.534 16.4113 15.4797 16.3603C15.4253 16.3092 15.3817 16.2477 15.3504 16.1793C15.32 16.1108 15.3035 16.0369 15.301 15.9618C15.301 15.9223 15.301 15.8826 15.301 15.843C15.301 13.7919 15.301 11.7413 15.301 9.69141V8.84308C15.301 8.13669 15.301 7.42973 15.301 6.72211C15.301 6.27909 15.5249 6.05667 15.9645 6.05667C16.6765 6.05667 17.3886 6.05667 18.1023 6.05667C18.1895 6.04643 18.2768 6.05626 18.3599 6.08514C18.4423 6.11411 18.5172 6.16148 18.5789 6.22379C18.6415 6.2861 18.6884 6.36178 18.7172 6.44506C18.7468 6.52841 18.7567 6.6173 18.7477 6.70519L18.7361 11.292Z" fill="#25AFB5"/>
    <path d="M2.1289 9.5382C1.71814 9.5472 1.31806 9.40739 1.00114 9.14419C0.683389 8.88092 0.469374 8.51159 0.397757 8.10282C0.32614 7.69396 0.40104 7.27272 0.609305 6.91503C0.817569 6.55726 1.14602 6.28673 1.53457 6.15228C1.79881 6.05531 2.0828 6.0279 2.36104 6.0728C2.63845 6.11761 2.90105 6.23316 3.12248 6.40862C3.14965 6.43561 3.18668 6.45063 3.22455 6.45063C3.26324 6.45063 3.29946 6.43561 3.32745 6.40862C4.00163 5.92978 4.67828 5.45217 5.35658 4.97589C5.3714 4.96895 5.38457 4.95921 5.3961 4.94708C5.4068 4.93503 5.41503 4.92084 5.42079 4.9054C5.42656 4.89005 5.42903 4.87363 5.4282 4.85729C5.42738 4.84087 5.42327 4.82477 5.41669 4.80991C5.35577 4.58997 5.33765 4.35996 5.36399 4.13308C5.39116 3.90612 5.46196 3.68675 5.57226 3.48744C5.68257 3.28812 5.83074 3.11283 6.00855 2.97145C6.18553 2.83008 6.38886 2.72543 6.607 2.66361C6.82432 2.60163 7.05151 2.58373 7.27624 2.61071C7.50014 2.6377 7.71747 2.70917 7.91421 2.82092C8.11095 2.93267 8.28464 3.08262 8.42458 3.26221C8.5637 3.44172 8.66742 3.6473 8.72834 3.86733C8.76538 4.02042 8.78348 4.1774 8.78266 4.33487C8.77854 4.36953 8.7876 4.40461 8.80735 4.43316C8.82711 4.46172 8.85674 4.48177 8.89049 4.48945C9.36629 4.65344 9.84704 4.80802 10.3146 4.99281C10.3936 5.03539 10.485 5.04662 10.5723 5.02433C10.6587 5.00197 10.7336 4.94774 10.783 4.87214C11.0645 4.55143 11.4555 4.35055 11.8778 4.30994C12.3001 4.26942 12.7224 4.39214 13.0583 4.65344C13.0871 4.68191 13.1258 4.69784 13.1653 4.69784C13.2056 4.69784 13.2443 4.68191 13.2731 4.65344C13.9366 4.18969 14.6025 3.72653 15.271 3.26402C15.3105 3.24199 15.3409 3.20617 15.3566 3.16309C15.3714 3.12009 15.3714 3.07288 15.3549 3.03021C15.266 2.6977 15.2767 2.34595 15.3862 2.01962C15.4949 1.6933 15.6982 1.40724 15.9682 1.19761C16.2382 0.987985 16.5642 0.864356 16.9042 0.842403C17.2441 0.82045 17.5825 0.901082 17.8772 1.07423C18.1719 1.2473 18.4089 1.50496 18.5579 1.81453C18.7077 2.12411 18.7629 2.47156 18.716 2.81291C18.6699 3.15426 18.525 3.47398 18.2986 3.73148C18.0722 3.98906 17.7759 4.17286 17.4458 4.25943C17.198 4.32975 16.9379 4.34048 16.6852 4.29071C16.4333 4.24095 16.1954 4.13209 15.9921 3.97289C15.9624 3.94293 15.9221 3.92609 15.8801 3.92609C15.8381 3.92609 15.7978 3.94293 15.7682 3.97289C15.103 4.44604 14.4321 4.91547 13.7613 5.3774C13.725 5.39489 13.6971 5.42617 13.6839 5.46438C13.6707 5.5026 13.6732 5.54452 13.6905 5.581C13.7588 5.82183 13.7744 6.0747 13.7374 6.32238C13.7003 6.57014 13.6114 6.80683 13.4756 7.01638C13.3398 7.22593 13.1612 7.40337 12.9513 7.53666C12.7413 7.66994 12.5059 7.75586 12.2598 7.78862C12.0145 7.82139 11.765 7.80017 11.528 7.72647C11.2917 7.65277 11.0736 7.52824 10.8884 7.36152C10.704 7.19473 10.5566 6.98956 10.457 6.76004C10.3582 6.5306 10.3088 6.2821 10.313 6.03154C10.3195 5.99481 10.3113 5.95701 10.2907 5.92623C10.2693 5.89553 10.2372 5.8744 10.201 5.86755C9.65853 5.67905 9.11605 5.49046 8.57605 5.30196C8.5069 5.27745 8.47727 5.30196 8.4394 5.35288C8.26077 5.59998 8.01876 5.79385 7.74052 5.91426C7.46146 6.03459 7.15605 6.07709 6.85559 6.03723C6.55596 6.0081 6.27115 5.89223 6.03572 5.70356C6.00937 5.68037 5.97645 5.66758 5.94187 5.66758C5.90812 5.66758 5.87437 5.68037 5.84885 5.70356C5.18043 6.18117 4.50953 6.6544 3.83617 7.12318C3.79666 7.14381 3.76703 7.17855 3.75221 7.2204C3.7374 7.26232 3.73904 7.30838 3.7555 7.3494C3.85922 7.71658 3.83782 8.10835 3.69377 8.46133C3.55053 8.8144 3.29287 9.10813 2.9636 9.29498C2.71582 9.4588 2.42525 9.54356 2.1289 9.5382ZM1.22998 7.80183C1.22833 7.9158 1.24975 8.02904 1.29173 8.13476C1.33371 8.24048 1.39627 8.33663 1.47529 8.41759C1.55514 8.49864 1.64898 8.56268 1.75352 8.60617C1.85807 8.64975 1.9692 8.6717 2.08197 8.67096C2.1964 8.67632 2.31082 8.65809 2.41784 8.61748C2.52485 8.57688 2.62281 8.51465 2.70513 8.43459C2.78827 8.35454 2.8533 8.25839 2.89857 8.15184C2.94302 8.04538 2.96607 7.93074 2.96525 7.81503C2.95784 7.5832 2.86318 7.36301 2.70183 7.19861C2.53967 7.03421 2.32235 6.9379 2.09351 6.92898C1.97991 6.92874 1.86795 6.95118 1.76258 6.99492C1.65804 7.03866 1.56255 7.10296 1.4827 7.18408C1.40203 7.26521 1.33864 7.36152 1.29584 7.46749C1.25221 7.57355 1.22998 7.68711 1.22998 7.80183ZM12.0408 5.187C11.8712 5.18774 11.7058 5.23916 11.565 5.33465C11.4251 5.43022 11.3156 5.56565 11.2506 5.72394C11.1855 5.88224 11.1691 6.05647 11.202 6.2245C11.2341 6.39261 11.3156 6.54711 11.4349 6.66859C11.5543 6.79016 11.7066 6.87327 11.8729 6.90761C12.0383 6.94186 12.2104 6.92585 12.3676 6.86139C12.5248 6.79693 12.659 6.687 12.7545 6.54537C12.85 6.40375 12.9018 6.23679 12.9035 6.06554C12.9043 5.95033 12.8821 5.83619 12.8393 5.72964C12.7957 5.62309 12.7323 5.5262 12.6516 5.44457C12.5718 5.36287 12.4763 5.29817 12.3709 5.25393C12.2655 5.2097 12.1528 5.187 12.0392 5.187H12.0408ZM7.06798 3.44873C6.89841 3.44799 6.73212 3.49825 6.59054 3.59308C6.44895 3.68791 6.33865 3.82309 6.27362 3.98147C6.20776 4.13993 6.19047 4.3144 6.22257 4.48284C6.2555 4.65129 6.337 4.8062 6.45636 4.92785C6.57655 5.0495 6.72883 5.13245 6.89594 5.16628C7.06222 5.20004 7.23426 5.18312 7.39148 5.11751C7.54871 5.05206 7.68207 4.94089 7.77673 4.7982C7.8714 4.6555 7.92162 4.48772 7.92162 4.31597C7.91998 4.08711 7.83024 3.86799 7.67055 3.70573C7.51085 3.54348 7.29436 3.45121 7.06798 3.44873ZM17.878 2.57778C17.8788 2.40612 17.8286 2.23816 17.7347 2.0953C17.6409 1.95236 17.5067 1.84094 17.3503 1.77508C17.1931 1.70922 17.0202 1.69189 16.8539 1.72523C16.6877 1.75866 16.5346 1.84128 16.4144 1.96268C16.295 2.08408 16.2127 2.23882 16.1798 2.40719C16.1468 2.57555 16.1641 2.75011 16.2292 2.90865C16.2942 3.06719 16.4045 3.20262 16.5461 3.29778C16.6868 3.39294 16.8531 3.44345 17.0227 3.44312C17.2474 3.43825 17.4614 3.34524 17.6195 3.18372C17.7767 3.02221 17.8665 2.80491 17.8689 2.57778H17.878Z" fill="#25AFB5"/>
    <path d="M5.34025 12.8843C5.34025 11.8983 5.34025 10.9104 5.34025 9.92445C5.34025 9.40979 5.3493 8.89703 5.35918 8.38418C5.35259 8.3052 5.36412 8.22572 5.39128 8.15152C5.41927 8.07725 5.46207 8.00998 5.51805 7.95452C5.57402 7.89898 5.64153 7.85647 5.71561 7.83006C5.78888 7.80365 5.8679 7.794 5.9461 7.80167C6.67132 7.80167 7.39572 7.81488 8.1193 7.80167C8.20985 7.79292 8.30122 7.8044 8.38601 7.83559C8.47162 7.86671 8.54982 7.91656 8.61403 7.98167C8.67741 8.04671 8.72681 8.12536 8.75727 8.21193C8.78773 8.29851 8.79925 8.39078 8.79019 8.48222C8.77867 8.63491 8.79019 8.79147 8.79019 8.94415C8.79019 11.2618 8.79019 13.5774 8.79019 15.8914C8.79431 15.9732 8.78195 16.0551 8.75232 16.1315C8.72351 16.208 8.67824 16.2774 8.62062 16.3351C8.56382 16.3928 8.49467 16.4376 8.41893 16.4664C8.34238 16.4952 8.2617 16.5074 8.18103 16.5022H5.9568C5.87366 16.5112 5.7897 16.5011 5.71149 16.4729C5.63247 16.4447 5.56086 16.3989 5.50159 16.3391C5.44315 16.2793 5.39787 16.2067 5.36988 16.127C5.34271 16.0472 5.33284 15.9622 5.34189 15.8782C5.34107 14.8814 5.34025 13.8835 5.34025 12.8843Z" fill="#25AFB5"/>
    <path d="M13.7575 13.033C13.7575 13.9757 13.7468 14.9182 13.7575 15.8608C13.7616 15.9467 13.7476 16.0324 13.7172 16.1126C13.6867 16.1928 13.6406 16.2657 13.5805 16.3269C13.5212 16.388 13.4496 16.4359 13.3706 16.4676C13.2916 16.4994 13.2068 16.5142 13.122 16.5113C12.3894 16.4962 11.6592 16.5113 10.9266 16.5113C10.8434 16.5169 10.7603 16.5044 10.6829 16.4749C10.6047 16.4452 10.5348 16.3992 10.4763 16.3397C10.417 16.2803 10.3718 16.2087 10.343 16.1301C10.3141 16.0513 10.3018 15.9673 10.3076 15.8835V10.1787C10.301 10.0938 10.3125 10.0085 10.3413 9.92842C10.3701 9.84845 10.4162 9.77573 10.4755 9.71532C10.5347 9.65483 10.6064 9.60795 10.6846 9.57791C10.7636 9.54795 10.8484 9.53549 10.9324 9.54152C11.6691 9.54152 12.4042 9.54152 13.1385 9.54152C13.2208 9.53599 13.3031 9.54812 13.3797 9.57725C13.4562 9.6063 13.5262 9.65161 13.5846 9.71013C13.6423 9.76864 13.6875 9.83896 13.7172 9.91654C13.746 9.99403 13.7591 10.0771 13.7542 10.1598L13.7575 13.033Z" fill="#25AFB5"/>
    <path d="M3.81006 13.9031C3.81006 14.5517 3.80018 15.2001 3.81006 15.8487C3.81582 15.9378 3.80348 16.0271 3.7722 16.1107C3.74092 16.1943 3.69235 16.2701 3.62979 16.3331C3.56723 16.3961 3.49232 16.4446 3.40918 16.4756C3.32686 16.5065 3.23795 16.5191 3.14987 16.5123C2.43042 16.4954 1.71097 16.5123 0.989867 16.5123C0.90508 16.521 0.81864 16.5103 0.738792 16.4811C0.658121 16.4519 0.584863 16.4048 0.524771 16.3434C0.465503 16.2819 0.419403 16.2075 0.391415 16.1258C0.363427 16.0442 0.354375 15.9572 0.36343 15.8713C0.36343 15.1907 0.36343 14.5102 0.36343 13.8295V11.9199C0.353552 11.7933 0.384005 11.6667 0.451505 11.5595C0.519005 11.4523 0.618616 11.3703 0.73633 11.326C0.814532 11.2983 0.896019 11.2855 0.978337 11.2882C1.72413 11.2882 2.46993 11.2882 3.21573 11.2882C3.2964 11.2811 3.3779 11.292 3.45446 11.32C3.53101 11.348 3.60015 11.3926 3.65778 11.4505C3.7154 11.5085 3.75985 11.5785 3.78784 11.6556C3.81665 11.7328 3.82735 11.8152 3.82076 11.8972C3.81171 12.5646 3.81006 13.2338 3.81006 13.9031Z" fill="#25AFB5"/>
</svg>
