<svg width="14" height="14" viewBox="0 0 14 14" fill="none" xmlns="http://www.w3.org/2000/svg">
<path d="M10.2624 4.6891C10.2045 4.52411 10.0494 4.41309 9.87433 4.41309H4.28853C4.11346 4.41309 3.95837 4.52411 3.90116 4.6891C3.88531 4.73367 3.87911 4.77906 3.87911 4.82452H3.87842V9.02228H9.01068C9.71374 9.02228 10.2844 8.44896 10.2844 7.74355V4.82473H10.2838C10.2838 4.77927 10.2776 4.73388 10.2624 4.6891ZM8.695 5.2361L7.08143 6.51614L5.46786 5.2361H8.695ZM9.01068 8.19968H4.69865V5.67448L6.82709 7.36354C6.90222 7.42276 6.99183 7.45219 7.08143 7.45219C7.17172 7.45219 7.26133 7.42255 7.33577 7.36354L9.46422 5.67448V7.74375C9.46422 7.99517 9.26089 8.19968 9.01068 8.19968Z" fill="#EDEDED"/>
<path d="M13.4667 5.2041L12.6678 5.39106C13.2716 7.9904 11.9689 10.7164 9.56959 11.8729C7.30328 12.9656 4.56001 12.4155 2.87544 10.5848L4.56621 10.6014L4.57448 9.77861L1.95045 9.75298C1.94838 9.75298 1.947 9.75298 1.94562 9.75298C1.72092 9.75298 1.53827 9.9342 1.53551 10.16L1.51001 12.7924L2.33023 12.8006L2.34609 11.2201C3.60055 12.5388 5.34301 13.2543 7.11167 13.2541C8.0663 13.2541 9.02851 13.0467 9.92456 12.6143C12.6671 11.2923 14.1567 8.17605 13.4667 5.2041Z" fill="#EDEDED"/>
<path d="M0.705777 8.17624L1.50464 7.98935C0.901531 5.38995 2.20356 2.66403 4.60289 1.50752C6.85404 0.422929 9.57525 0.955897 11.2633 2.75613L9.31609 2.75026L9.31403 3.57306L11.9388 3.58114C11.9388 3.58114 11.9394 3.58114 11.9401 3.58114C12.1655 3.58114 12.3489 3.39729 12.3502 3.17109L12.3578 0.537689L11.5376 0.535064L11.5335 1.87259C9.5918 0.0769217 6.67896 -0.406853 4.24723 0.765689C1.50533 2.08802 0.0158215 5.20478 0.705777 8.17624Z" fill="#EDEDED"/>
</svg>
