<svg width="21" height="21" viewBox="0 0 21 21" fill="none" xmlns="http://www.w3.org/2000/svg">
    <path d="M10.4944 1.30311C11.6468 1.30523 12.7876 1.5362 13.8521 1.98281C14.9166 2.42941 15.8825 3.08302 16.6965 3.90612C17.5097 4.72922 18.1544 5.70584 18.593 6.78005C19.0316 7.85425 19.2567 9.00517 19.2534 10.1669C19.2468 11.9113 18.7269 13.6145 17.7602 15.0615C16.7934 16.5086 15.4226 17.6344 13.8217 18.2971C12.2209 18.9598 10.4607 19.1295 8.76376 18.7848C7.06683 18.4401 5.50953 17.5965 4.28816 16.3605C3.06679 15.1245 2.23556 13.5515 1.90045 11.84C1.56533 10.1286 1.74111 8.3554 2.40477 6.74442C3.06926 5.13343 4.19206 3.75684 5.63109 2.78838C7.07094 1.81999 8.76295 1.30311 10.4944 1.30311ZM10.4944 0.319403C8.56007 0.312228 6.66765 0.883735 5.05613 1.96145C3.44462 3.03924 2.18629 4.57464 1.44131 6.37347C0.696334 8.17221 0.497557 10.1533 0.870457 12.066C1.24418 13.9785 2.1715 15.7366 3.53661 17.1173C4.90171 18.4981 6.64301 19.4395 8.53954 19.8225C10.4352 20.2053 12.4024 20.0124 14.1897 19.2682C15.977 18.5239 17.5055 17.2618 18.5807 15.6416C19.6559 14.0214 20.23 12.1161 20.23 10.1669C20.2325 8.87595 19.9828 7.59719 19.4949 6.40363C19.007 5.20999 18.2908 4.12494 17.3864 3.21044C16.4821 2.29603 15.4086 1.56995 14.2258 1.07394C13.0431 0.577844 11.7749 0.321441 10.4944 0.319403Z" fill="#25AEB4"/>
    <path d="M15.4487 12.5292C15.4487 10.7752 14.6947 9.33646 10.8951 8.53831C9.11354 8.16915 8.81785 7.89775 8.81785 7.41682C8.81785 7.06364 9.03797 6.61866 10.0737 6.61866C11.4774 6.61866 11.6573 7.28319 11.7904 7.68626H15.1161C15.0356 6.27348 13.9284 4.75698 11.5407 4.33989V3.14258H8.91477V4.32195C6.3669 4.72103 5.33526 6.34734 5.33526 8.09529C5.33526 9.72559 6.21248 11.1842 9.5308 11.8866C11.5563 12.3276 11.8692 12.591 11.8692 13.1078C11.8692 13.5408 11.5349 13.94 10.5485 13.94C9.17843 13.94 8.69136 13.3892 8.45974 12.7227H5.06421C5.21616 14.3191 6.50735 15.9155 9.01005 16.3146V17.7613H11.6335V16.3285C14.2766 15.9354 15.4487 14.375 15.4487 12.5292Z" fill="#25AEB4"/>
</svg>
