<svg width="13" height="14" viewBox="0 0 13 14" fill="none" xmlns="http://www.w3.org/2000/svg">
    <path d="M3.52939 0.894531H1.14284C0.827248 0.894531 0.571411 1.15373 0.571411 1.47348V3.89143C0.571411 4.21118 0.827248 4.47038 1.14284 4.47038H3.52939C3.84499 4.47038 4.10082 4.21118 4.10082 3.89143V1.47348C4.10082 1.15373 3.84499 0.894531 3.52939 0.894531Z" fill="#25AFB5"/>
    <path d="M7.76474 0.894531H5.37819C5.0626 0.894531 4.80676 1.15373 4.80676 1.47348V3.89143C4.80676 4.21118 5.0626 4.47038 5.37819 4.47038H7.76474C8.08034 4.47038 8.33617 4.21118 8.33617 3.89143V1.47348C8.33617 1.15373 8.08034 0.894531 7.76474 0.894531Z" fill="#25AFB5"/>
    <path d="M12 0.894531H9.61342C9.29783 0.894531 9.04199 1.15373 9.04199 1.47348V3.89143C9.04199 4.21118 9.29783 4.47038 9.61342 4.47038H12C12.3156 4.47038 12.5714 4.21118 12.5714 3.89143V1.47348C12.5714 1.15373 12.3156 0.894531 12 0.894531Z" fill="#25AFB5"/>
    <path d="M12 5.18555H9.61342C9.29783 5.18555 9.04199 5.44475 9.04199 5.76449V8.18245C9.04199 8.50219 9.29783 8.7614 9.61342 8.7614H12C12.3156 8.7614 12.5714 8.50219 12.5714 8.18245V5.76449C12.5714 5.44475 12.3156 5.18555 12 5.18555Z" fill="#25AFB5"/>
    <path d="M7.76474 5.18555H5.37819C5.0626 5.18555 4.80676 5.44475 4.80676 5.76449V8.18245C4.80676 8.50219 5.0626 8.7614 5.37819 8.7614H7.76474C8.08034 8.7614 8.33617 8.50219 8.33617 8.18245V5.76449C8.33617 5.44475 8.08034 5.18555 7.76474 5.18555Z" fill="#25AFB5"/>
    <path d="M3.52939 5.18555H1.14284C0.827248 5.18555 0.571411 5.44475 0.571411 5.76449V8.18245C0.571411 8.50219 0.827248 8.7614 1.14284 8.7614H3.52939C3.84499 8.7614 4.10082 8.50219 4.10082 8.18245V5.76449C4.10082 5.44475 3.84499 5.18555 3.52939 5.18555Z" fill="#25AFB5"/>
    <path d="M3.52939 9.47656H1.14284C0.827248 9.47656 0.571411 9.73577 0.571411 10.0555V12.4735C0.571411 12.7932 0.827248 13.0524 1.14284 13.0524H3.52939C3.84499 13.0524 4.10082 12.7932 4.10082 12.4735V10.0555C4.10082 9.73577 3.84499 9.47656 3.52939 9.47656Z" fill="#25AFB5"/>
    <path d="M7.76474 9.47656H5.37819C5.0626 9.47656 4.80676 9.73577 4.80676 10.0555V12.4735C4.80676 12.7932 5.0626 13.0524 5.37819 13.0524H7.76474C8.08034 13.0524 8.33617 12.7932 8.33617 12.4735V10.0555C8.33617 9.73577 8.08034 9.47656 7.76474 9.47656Z" fill="#25AFB5"/>
    <path d="M12 9.47656H9.61342C9.29783 9.47656 9.04199 9.73577 9.04199 10.0555V12.4735C9.04199 12.7932 9.29783 13.0524 9.61342 13.0524H12C12.3156 13.0524 12.5714 12.7932 12.5714 12.4735V10.0555C12.5714 9.73577 12.3156 9.47656 12 9.47656Z" fill="#25AFB5"/>
</svg>
