<svg width="30" height="32" viewBox="0 0 30 32" fill="none" xmlns="http://www.w3.org/2000/svg">
<g clip-path="url(#clip0)">
<path d="M16.3664 29.9817H12.4901C7.91857 29.9817 0.468262 26.7965 0.468262 22.0145V0.725586H28.2908V22.0145C28.2908 26.7965 20.9412 29.9817 16.3664 29.9817Z" fill="white"/>
<path d="M16.6552 30.7064H12.7789C7.69073 30.7064 0 27.2307 0 22.014V0H29.3333V22.014C29.3333 27.2307 21.7009 30.7064 16.6552 30.7064ZM1.51085 1.45343V22.014C1.51085 26.1459 8.33407 29.2528 12.7789 29.2528H16.6552C21.0481 29.2528 27.8225 26.1459 27.8225 22.014V1.45343H1.51085Z" fill="#25AEB4"/>
<path d="M26.292 4.23512C26.192 4.23512 26.0962 4.19692 26.0253 4.12892C25.9546 4.06092 25.915 3.9687 25.915 3.87256V2.9036C25.915 2.80744 25.9546 2.71522 26.0253 2.64722C26.0962 2.57922 26.192 2.54102 26.292 2.54102C26.3918 2.54102 26.4878 2.57922 26.5585 2.64722C26.6292 2.71522 26.6689 2.80744 26.6689 2.9036V3.87256C26.6689 3.9687 26.6292 4.06092 26.5585 4.12892C26.4878 4.19692 26.3918 4.23512 26.292 4.23512Z" fill="#25AEB4"/>
<path d="M3.04146 4.23512C2.9415 4.23512 2.84563 4.19692 2.77494 4.12892C2.70427 4.06092 2.66455 3.9687 2.66455 3.87256V2.9036C2.66455 2.80744 2.70427 2.71522 2.77494 2.64722C2.84563 2.57922 2.9415 2.54102 3.04146 2.54102C3.14142 2.54102 3.23728 2.57922 3.30798 2.64722C3.37864 2.71522 3.41836 2.80744 3.41836 2.9036V3.87256C3.41836 3.9687 3.37864 4.06092 3.30798 4.12892C3.23728 4.19692 3.14142 4.23512 3.04146 4.23512Z" fill="#25AEB4"/>
<path d="M16.6944 28.1683H15.6774C15.6279 28.1683 15.579 28.1589 15.5332 28.1407C15.4875 28.1225 15.4459 28.0959 15.411 28.0621C15.3759 28.0285 15.3482 27.9884 15.3292 27.9445C15.3103 27.9005 15.3006 27.8535 15.3006 27.8057C15.3006 27.7581 15.3103 27.7111 15.3292 27.6669C15.3482 27.6229 15.3759 27.5831 15.411 27.5493C15.4459 27.5157 15.4875 27.4891 15.5332 27.4707C15.579 27.4527 15.6279 27.4431 15.6774 27.4431H16.6944C17.0094 27.4421 17.324 27.4232 17.6367 27.3869C17.6859 27.3815 17.7359 27.3853 17.7835 27.3983C17.8314 27.4113 17.876 27.4333 17.9148 27.4628C17.9538 27.4924 17.9863 27.5291 18.0104 27.5708C18.0347 27.6124 18.0502 27.6583 18.0558 27.7057C18.0616 27.7531 18.0575 27.8012 18.044 27.8471C18.0304 27.8929 18.0076 27.9359 17.977 27.9733C17.9462 28.0108 17.908 28.0421 17.8647 28.0653C17.8212 28.0887 17.7736 28.1035 17.7243 28.1089C17.3826 28.1479 17.0386 28.1677 16.6944 28.1683ZM13.6727 28.1683H12.7402C12.3665 28.1675 11.9932 28.1444 11.6225 28.0996C11.5715 28.096 11.5218 28.0827 11.4763 28.0601C11.4309 28.0377 11.3907 28.0065 11.3581 27.9685C11.3256 27.9307 11.3014 27.8868 11.2871 27.8396C11.2728 27.7924 11.2686 27.7428 11.2748 27.694C11.2809 27.6453 11.2974 27.5981 11.323 27.5556C11.3487 27.5131 11.3831 27.4761 11.4242 27.4468C11.4652 27.4175 11.512 27.3965 11.5617 27.3851C11.6115 27.3737 11.6631 27.3723 11.7135 27.3807C12.0542 27.4204 12.397 27.4413 12.7402 27.4431H13.6727C13.7222 27.4431 13.7712 27.4527 13.817 27.4707C13.8627 27.4891 13.9042 27.5157 13.9392 27.5493C13.9742 27.5831 14.0019 27.6229 14.021 27.6669C14.0399 27.7111 14.0496 27.7581 14.0496 27.8057C14.0496 27.8535 14.0399 27.9005 14.021 27.9445C14.0019 27.9884 13.9742 28.0285 13.9392 28.0621C13.9042 28.0959 13.8627 28.1225 13.817 28.1407C13.7712 28.1589 13.7222 28.1683 13.6727 28.1683ZM19.6447 27.7307C19.5623 27.7304 19.4823 27.7041 19.4166 27.6564C19.351 27.6084 19.3034 27.5412 19.2807 27.4651C19.2538 27.3727 19.2659 27.2736 19.3147 27.1897C19.3634 27.1061 19.4447 27.0443 19.5407 27.018C20.1688 26.8472 20.7852 26.6383 21.3863 26.3929C21.478 26.3555 21.5815 26.3544 21.674 26.3901C21.7666 26.426 21.8408 26.4953 21.88 26.5836C21.9192 26.6724 21.9203 26.7724 21.8832 26.8619C21.846 26.9516 21.7738 27.0233 21.6819 27.0619C21.0476 27.3215 20.3964 27.5407 19.7323 27.7183C19.7036 27.7255 19.6743 27.7297 19.6447 27.7307ZM9.70547 27.7307C9.671 27.7355 9.63598 27.7355 9.60151 27.7307C8.93714 27.5543 8.28583 27.3348 7.65202 27.0743C7.60633 27.0559 7.56488 27.0289 7.53003 26.9952C7.49518 26.9612 7.46762 26.9212 7.44891 26.8771C7.4302 26.8329 7.42071 26.7856 7.42099 26.738C7.42127 26.6904 7.43132 26.6432 7.45055 26.5993C7.49063 26.5108 7.56511 26.4411 7.65803 26.4048C7.75097 26.3687 7.85494 26.3688 7.94768 26.4053C8.54826 26.6519 9.1647 26.8605 9.7932 27.0305C9.88166 27.0536 9.95842 27.1067 10.0091 27.1801C10.0598 27.2535 10.0809 27.3423 10.0686 27.4296C10.0562 27.5168 10.0113 27.5969 9.94203 27.6547C9.8728 27.7123 9.7841 27.7439 9.69248 27.7432L9.70547 27.7307ZM23.3195 26.2209C23.2544 26.222 23.1902 26.2067 23.1334 26.1767C23.0763 26.1464 23.0284 26.1025 22.9944 26.0492C22.9428 25.9665 22.9271 25.8676 22.9508 25.7741C22.9746 25.6804 23.0359 25.5995 23.1212 25.5491C23.6738 25.2252 24.1888 24.846 24.658 24.4176C24.7306 24.3508 24.8274 24.3144 24.9276 24.3165C25.0279 24.3187 25.1232 24.3589 25.1924 24.4285C25.2619 24.4981 25.2996 24.5915 25.2975 24.6879C25.2954 24.7844 25.2536 24.8759 25.1811 24.9427C24.6723 25.3999 24.1147 25.8041 23.5176 26.1492C23.4586 26.1859 23.3898 26.2053 23.3195 26.2055V26.2209ZM6.02419 26.2209C5.9555 26.2201 5.88827 26.2016 5.82923 26.1679C5.23223 25.824 4.67367 25.4217 4.16243 24.9677C4.09236 24.8988 4.05314 24.8061 4.05314 24.7097C4.05314 24.6135 4.09236 24.5208 4.16243 24.4519C4.23351 24.3848 4.32919 24.3471 4.42886 24.3471C4.52851 24.3471 4.62419 24.3848 4.69528 24.4519C5.16338 24.8581 5.67407 25.2163 6.21914 25.5209C6.291 25.5616 6.34686 25.624 6.37794 25.6983C6.40903 25.7727 6.41362 25.8549 6.39096 25.9321C6.36831 26.0093 6.3197 26.0769 6.25275 26.1248C6.18579 26.1724 6.10427 26.1976 6.02093 26.196L6.02419 26.2209ZM26.0843 23.5205C26.0344 23.5167 25.9858 23.5028 25.9414 23.4799C25.849 23.4439 25.775 23.3737 25.7359 23.2853C25.697 23.1969 25.696 23.0971 25.7335 23.0079C25.8506 22.7396 25.9123 22.4519 25.9155 22.1609V21.2325C25.9155 21.1363 25.9552 21.0443 26.0259 20.9761C26.0966 20.9081 26.1924 20.87 26.2923 20.87C26.3924 20.87 26.4882 20.9081 26.559 20.9761C26.6296 21.0443 26.6692 21.1363 26.6692 21.2325V22.1484C26.6659 22.5325 26.5852 22.9124 26.432 23.2673C26.4043 23.3344 26.3564 23.3919 26.2944 23.4324C26.2326 23.4731 26.1595 23.4951 26.0843 23.4956V23.5205ZM3.25267 23.4799C3.17762 23.4799 3.10423 23.4584 3.04179 23.4184C2.97935 23.3785 2.93062 23.3215 2.90175 23.2549C2.74856 22.9 2.66802 22.52 2.66456 22.1359V21.2293C2.66456 21.1332 2.70428 21.0411 2.77495 20.9731C2.84563 20.9049 2.9415 20.8668 3.04147 20.8668C3.14143 20.8668 3.2373 20.9049 3.30796 20.9731C3.37866 21.0411 3.41836 21.1332 3.41836 21.2293V22.1484C3.42176 22.4383 3.48356 22.7248 3.60031 22.9923C3.62151 23.0371 3.63303 23.0855 3.63414 23.1347C3.63526 23.1839 3.62596 23.2327 3.6068 23.2783C3.58766 23.324 3.55906 23.3653 3.52276 23.3999C3.48644 23.4347 3.44319 23.4617 3.39562 23.4799C3.34827 23.4871 3.30002 23.4871 3.25267 23.4799ZM26.2923 19.6667C26.1924 19.6667 26.0966 19.6283 26.0259 19.5604C25.9552 19.4924 25.9155 19.4001 25.9155 19.304V17.3755C25.9155 17.2793 25.9552 17.1871 26.0259 17.1191C26.0966 17.0511 26.1924 17.0129 26.2923 17.0129C26.3924 17.0129 26.4882 17.0511 26.559 17.1191C26.6296 17.1871 26.6692 17.2793 26.6692 17.3755V19.304C26.6692 19.4001 26.6296 19.4924 26.559 19.5604C26.4882 19.6283 26.3924 19.6667 26.2923 19.6667ZM3.04147 19.6667C2.9415 19.6667 2.84563 19.6283 2.77495 19.5604C2.70428 19.4924 2.66456 19.4001 2.66456 19.304V17.3724C2.66456 17.2763 2.70428 17.184 2.77495 17.116C2.84563 17.048 2.9415 17.0097 3.04147 17.0097C3.14143 17.0097 3.2373 17.048 3.30796 17.116C3.37866 17.184 3.41836 17.2763 3.41836 17.3724V19.3008C3.41836 19.3969 3.37866 19.4892 3.30796 19.5573C3.2373 19.6253 3.14143 19.6635 3.04147 19.6635V19.6667ZM26.2923 15.8096C26.1924 15.8096 26.0966 15.7713 26.0259 15.7033C25.9552 15.6353 25.9155 15.5431 25.9155 15.4469V13.5153C25.9155 13.4192 25.9552 13.3269 26.0259 13.2589C26.0966 13.1909 26.1924 13.1527 26.2923 13.1527C26.3924 13.1527 26.4882 13.1909 26.559 13.2589C26.6296 13.3269 26.6692 13.4192 26.6692 13.5153V15.4469C26.6692 15.5431 26.6296 15.6353 26.559 15.7033C26.4882 15.7713 26.3924 15.8096 26.2923 15.8096ZM3.04147 15.8096C2.9415 15.8096 2.84563 15.7713 2.77495 15.7033C2.70428 15.6353 2.66456 15.5431 2.66456 15.4469V13.5153C2.66456 13.4192 2.70428 13.3269 2.77495 13.2589C2.84563 13.1909 2.9415 13.1527 3.04147 13.1527C3.14143 13.1527 3.2373 13.1909 3.30796 13.2589C3.37866 13.3269 3.41836 13.4192 3.41836 13.5153V15.4439C3.41836 15.54 3.37866 15.6323 3.30796 15.7003C3.2373 15.7683 3.14143 15.8064 3.04147 15.8064V15.8096ZM26.2923 11.9494C26.1952 11.9495 26.1018 11.9134 26.0314 11.8488C25.9612 11.7841 25.9196 11.6959 25.9155 11.6024V9.65828C25.9155 9.56212 25.9552 9.46989 26.0259 9.40192C26.0966 9.33392 26.1924 9.29572 26.2923 9.29572C26.3924 9.29572 26.4882 9.33392 26.559 9.40192C26.6296 9.46989 26.6692 9.56212 26.6692 9.65828V11.6024C26.6652 11.6959 26.6235 11.7841 26.5532 11.8488C26.4831 11.9134 26.3895 11.9495 26.2923 11.9494ZM3.04147 11.9494C2.94426 11.9495 2.85076 11.9134 2.78054 11.8488C2.7103 11.7841 2.66875 11.6959 2.66456 11.6024V9.65828C2.66456 9.56212 2.70428 9.46989 2.77495 9.40192C2.84563 9.33392 2.9415 9.29572 3.04147 9.29572C3.14143 9.29572 3.2373 9.33392 3.30796 9.40192C3.37866 9.46989 3.41836 9.56212 3.41836 9.65828V11.6024C3.41418 11.6959 3.37262 11.7841 3.30239 11.8488C3.23215 11.9134 3.13866 11.9495 3.04147 11.9494ZM26.2923 8.09233C26.1924 8.09233 26.0966 8.05415 26.0259 7.98615C25.9552 7.91815 25.9155 7.82592 25.9155 7.72976V5.80124C25.9155 5.70508 25.9552 5.61285 26.0259 5.54485C26.0966 5.47688 26.1924 5.43868 26.2923 5.43868C26.3924 5.43868 26.4882 5.47688 26.559 5.54485C26.6296 5.61285 26.6692 5.70508 26.6692 5.80124V7.72976C26.6692 7.82592 26.6296 7.91815 26.559 7.98615C26.4882 8.05415 26.3924 8.09233 26.2923 8.09233ZM3.04147 8.09233C2.9917 8.09235 2.94242 8.08285 2.89647 8.06445C2.85054 8.04603 2.80884 8.01904 2.7738 7.98504C2.73875 7.95104 2.71106 7.91069 2.69232 7.86635C2.67356 7.822 2.66414 7.77452 2.66456 7.72664V5.79812C2.66456 5.70196 2.70428 5.60973 2.77495 5.54175C2.84563 5.47375 2.9415 5.43555 3.04147 5.43555C3.14143 5.43555 3.2373 5.47375 3.30796 5.54175C3.37866 5.60973 3.41836 5.70196 3.41836 5.79812V7.72664C3.4188 7.77452 3.40936 7.822 3.39062 7.86635C3.37186 7.91069 3.34418 7.95104 3.30914 7.98504C3.27408 8.01904 3.23239 8.04603 3.18646 8.06445C3.14051 8.08285 3.09123 8.09235 3.04147 8.09233Z" fill="#25AEB4"/>
<path d="M23.8554 4.18219H21.8408C21.741 4.18219 21.6451 4.14399 21.5744 4.07599C21.5038 4.00799 21.464 3.91576 21.464 3.8196C21.464 3.72344 21.5038 3.63123 21.5744 3.56323C21.6451 3.49523 21.741 3.45703 21.8408 3.45703H23.8554C23.9552 3.45703 24.0512 3.49523 24.1219 3.56323C24.1926 3.63123 24.2323 3.72344 24.2323 3.8196C24.2323 3.91576 24.1926 4.00799 24.1219 4.07599C24.0512 4.14399 23.9552 4.18219 23.8554 4.18219ZM19.8296 4.18219H17.8184C17.7186 4.18219 17.6226 4.14399 17.5519 4.07599C17.4812 4.00799 17.4415 3.91576 17.4415 3.8196C17.4415 3.72344 17.4812 3.63123 17.5519 3.56323C17.6226 3.49523 17.7186 3.45703 17.8184 3.45703H19.8296C19.9295 3.45703 20.0255 3.49523 20.0962 3.56323C20.1668 3.63123 20.2066 3.72344 20.2066 3.8196C20.2066 3.91576 20.1668 4.00799 20.0962 4.07599C20.0255 4.14399 19.9295 4.18219 19.8296 4.18219ZM15.8072 4.18219H13.7927C13.6928 4.18219 13.597 4.14399 13.5262 4.07599C13.4555 4.00799 13.4159 3.91576 13.4159 3.8196C13.4159 3.72344 13.4555 3.63123 13.5262 3.56323C13.597 3.49523 13.6928 3.45703 13.7927 3.45703H15.8072C15.9071 3.45703 16.003 3.49523 16.0738 3.56323C16.1444 3.63123 16.1842 3.72344 16.1842 3.8196C16.1842 3.91576 16.1444 4.00799 16.0738 4.07599C16.003 4.14399 15.9071 4.18219 15.8072 4.18219ZM11.7815 4.18219H9.77029C9.67033 4.18219 9.57446 4.14399 9.50378 4.07599C9.43309 4.00799 9.39338 3.91576 9.39338 3.8196C9.39338 3.72344 9.43309 3.63123 9.50378 3.56323C9.57446 3.49523 9.67033 3.45703 9.77029 3.45703H11.7815C11.8815 3.45703 11.9773 3.49523 12.048 3.56323C12.1187 3.63123 12.1584 3.72344 12.1584 3.8196C12.1584 3.91576 12.1187 4.00799 12.048 4.07599C11.9773 4.14399 11.8815 4.18219 11.7815 4.18219ZM7.75906 4.18219H5.74458C5.64464 4.18219 5.54877 4.14399 5.47809 4.07599C5.4074 4.00799 5.36768 3.91576 5.36768 3.8196C5.36768 3.72344 5.4074 3.63123 5.47809 3.56323C5.54877 3.49523 5.64464 3.45703 5.74458 3.45703H7.75906C7.85904 3.45703 7.95489 3.49523 8.02557 3.56323C8.09625 3.63123 8.13596 3.72344 8.13596 3.8196C8.13596 3.91576 8.09625 4.00799 8.02557 4.07599C7.95489 4.14399 7.85904 4.18219 7.75906 4.18219Z" fill="#25AEB4"/>
<path d="M21.3335 13.333C23.5426 13.333 25.3335 11.5421 25.3335 9.33301C25.3335 7.12387 23.5426 5.33301 21.3335 5.33301C19.1244 5.33301 17.3335 7.12387 17.3335 9.33301C17.3335 11.5421 19.1244 13.333 21.3335 13.333Z" fill="white" stroke="#25AEB4" stroke-width="0.25"/>
<path d="M23.5844 9.27397C23.9301 9.27397 24.2114 8.91432 24.2114 8.57544C24.2114 8.23656 23.9301 7.96094 23.5844 7.96094C23.2388 7.96094 22.9575 8.23664 22.9575 8.57544C22.9575 8.91432 23.2388 9.27397 23.5844 9.27397Z" fill="#25AFB5"/>
<path d="M24.0552 9.28125C23.9336 9.37202 23.7819 9.42611 23.6174 9.42611H23.5515C23.3872 9.42611 23.2355 9.37202 23.1138 9.28125C22.955 9.30638 22.8116 9.37599 22.6963 9.47585C22.7062 9.48652 22.7161 9.49716 22.7261 9.5082C22.9274 9.73792 23.0381 10.0313 23.0381 10.3345C23.0381 10.3725 23.0325 10.4089 23.0228 10.4438C23.1896 10.4754 23.381 10.4933 23.5846 10.4933C24.2313 10.4933 24.7556 10.3121 24.7556 10.0886C24.7556 9.68158 24.4524 9.34418 24.0552 9.28125Z" fill="#25AFB5"/>
<path d="M19.0375 9.27397C19.3833 9.27397 19.6645 8.91432 19.6645 8.57544C19.6645 8.23656 19.3833 7.96094 19.0375 7.96094C18.6919 7.96094 18.4106 8.23664 18.4106 8.57544C18.4106 8.91432 18.6919 9.27397 19.0375 9.27397Z" fill="#25AFB5"/>
<path d="M19.8962 9.50818C19.9059 9.49724 19.9159 9.48652 19.926 9.47585C19.8107 9.37599 19.6672 9.30638 19.5083 9.28125C19.3868 9.37202 19.2351 9.42611 19.0708 9.42611H19.0046C18.8403 9.42611 18.6886 9.37202 18.5671 9.28125C18.1699 9.34418 17.8667 9.68158 17.8667 10.0886C17.8667 10.3121 18.391 10.4934 19.0377 10.4934C19.2413 10.4934 19.4327 10.4755 19.5995 10.4439C19.5897 10.4089 19.5842 10.3726 19.5842 10.3346C19.5842 10.0313 19.6949 9.73792 19.8962 9.50818Z" fill="#25AFB5"/>
<path d="M21.9166 9.29688C21.7604 9.41369 21.5651 9.48309 21.3539 9.48309H21.2691C21.0577 9.48309 20.8626 9.4136 20.7063 9.29688C20.1957 9.37775 19.8057 9.81145 19.8057 10.3347C19.8057 10.6222 20.4798 10.8553 21.3115 10.8553C22.1429 10.8553 22.8171 10.6222 22.8171 10.3347C22.8171 9.81145 22.4273 9.37775 21.9166 9.29688Z" fill="#25AFB5"/>
<path d="M21.0295 9.22425C21.1173 9.26482 21.2124 9.28793 21.3114 9.28793C21.4106 9.28793 21.5059 9.26476 21.5937 9.22408C21.8994 9.08268 22.1176 8.72825 22.1176 8.38983C22.1176 7.95418 21.756 7.59961 21.3114 7.59961C20.8668 7.59961 20.5054 7.95418 20.5054 8.38983C20.5054 8.72842 20.7236 9.08297 21.0295 9.22425Z" fill="#25AFB5"/>
</g>
<defs>
<clipPath id="clip0">
<rect width="29.3333" height="32" fill="white"/>
</clipPath>
</defs>
</svg>
