<svg width="22" height="24" viewBox="0 0 22 24" fill="none" xmlns="http://www.w3.org/2000/svg">
<path d="M12.2747 22.486H9.36747C5.93881 22.486 0.351074 20.0971 0.351074 16.5106V0.543945H21.218V16.5106C21.218 20.0971 15.7058 22.486 12.2747 22.486Z" fill="#CDCDCD"/>
<path d="M12.4914 23.0298H9.58419C5.76805 23.0298 0 20.423 0 16.5105V0H22V16.5105C22 20.423 16.2757 23.0298 12.4914 23.0298ZM1.13314 1.09007V16.5105C1.13314 19.6094 6.25055 21.9396 9.58419 21.9396H12.4914C15.7861 21.9396 20.8669 19.6094 20.8669 16.5105V1.09007H1.13314Z" fill="#646363"/>
<path d="M19.7187 3.17585C19.6437 3.17585 19.5719 3.1472 19.5187 3.0962C19.4657 3.0452 19.436 2.97603 19.436 2.90393V2.17721C19.436 2.10509 19.4657 2.03592 19.5187 1.98492C19.5719 1.93392 19.6437 1.90527 19.7187 1.90527C19.7936 1.90527 19.8656 1.93392 19.9186 1.98492C19.9716 2.03592 20.0014 2.10509 20.0014 2.17721V2.90393C20.0014 2.97603 19.9716 3.0452 19.9186 3.0962C19.8656 3.1472 19.7936 3.17585 19.7187 3.17585Z" fill="#646363"/>
<path d="M2.28073 3.17585C2.20576 3.17585 2.13386 3.1472 2.08084 3.0962C2.02784 3.0452 1.99805 2.97603 1.99805 2.90393V2.17721C1.99805 2.10509 2.02784 2.03592 2.08084 1.98492C2.13386 1.93392 2.20576 1.90527 2.28073 1.90527C2.3557 1.90527 2.4276 1.93392 2.48062 1.98492C2.53362 2.03592 2.56341 2.10509 2.56341 2.17721V2.90393C2.56341 2.97603 2.53362 3.0452 2.48062 3.0962C2.4276 3.1472 2.3557 3.17585 2.28073 3.17585Z" fill="#646363"/>
<path d="M12.5205 21.1257H11.7577C11.7206 21.1257 11.6839 21.1187 11.6496 21.105C11.6153 21.0914 11.5841 21.0714 11.5579 21.0461C11.5316 21.0209 11.5108 20.9908 11.4966 20.9579C11.4824 20.9249 11.4751 20.8896 11.4751 20.8538C11.4751 20.8181 11.4824 20.7828 11.4966 20.7497C11.5108 20.7167 11.5316 20.6868 11.5579 20.6615C11.5841 20.6363 11.6153 20.6163 11.6496 20.6025C11.6839 20.589 11.7206 20.5818 11.7577 20.5818H12.5205C12.7567 20.5811 12.9927 20.5669 13.2272 20.5397C13.2641 20.5356 13.3016 20.5385 13.3373 20.5482C13.3732 20.558 13.4067 20.5745 13.4358 20.5966C13.465 20.6188 13.4894 20.6463 13.5075 20.6776C13.5257 20.7088 13.5373 20.7432 13.5415 20.7788C13.5459 20.8143 13.5428 20.8504 13.5327 20.8848C13.5225 20.9192 13.5054 20.9514 13.4824 20.9795C13.4593 21.0076 13.4307 21.0311 13.3982 21.0485C13.3656 21.066 13.3299 21.0771 13.2929 21.0812C13.0366 21.1104 12.7786 21.1253 12.5205 21.1257ZM10.2542 21.1257H9.55477C9.27451 21.1251 8.99457 21.1078 8.7165 21.0742C8.67825 21.0715 8.64096 21.0615 8.60687 21.0446C8.57279 21.0278 8.54264 21.0044 8.51824 20.9759C8.49385 20.9475 8.47572 20.9146 8.46497 20.8792C8.45421 20.8438 8.45106 20.8066 8.4557 20.77C8.46032 20.7335 8.47265 20.6981 8.49191 20.6662C8.51119 20.6343 8.53699 20.6066 8.56777 20.5846C8.59855 20.5626 8.63365 20.5469 8.67094 20.5383C8.70825 20.5298 8.74696 20.5287 8.78473 20.535C9.04025 20.5648 9.29737 20.5805 9.55477 20.5818H10.2542C10.2913 20.5818 10.3281 20.589 10.3624 20.6025C10.3967 20.6163 10.4278 20.6363 10.4541 20.6615C10.4803 20.6868 10.5011 20.7167 10.5154 20.7497C10.5296 20.7828 10.5369 20.8181 10.5369 20.8538C10.5369 20.8896 10.5296 20.9249 10.5154 20.9579C10.5011 20.9908 10.4803 21.0209 10.4541 21.0461C10.4278 21.0714 10.3967 21.0914 10.3624 21.105C10.3281 21.1187 10.2913 21.1257 10.2542 21.1257ZM14.7332 20.7975C14.6714 20.7973 14.6114 20.7776 14.5621 20.7418C14.5129 20.7058 14.4772 20.6554 14.4602 20.5983C14.44 20.529 14.4491 20.4547 14.4857 20.3918C14.5222 20.3291 14.5832 20.2827 14.6552 20.263C15.1263 20.1349 15.5886 19.9782 16.0394 19.7942C16.1082 19.7661 16.1858 19.7653 16.2552 19.7921C16.3246 19.819 16.3803 19.871 16.4097 19.9372C16.4391 20.0038 16.4399 20.0788 16.4121 20.1459C16.3842 20.2132 16.33 20.267 16.2611 20.2959C15.7854 20.4906 15.297 20.655 14.7989 20.7882C14.7774 20.7936 14.7554 20.7968 14.7332 20.7975ZM7.27874 20.7975C7.25289 20.8011 7.22662 20.8011 7.20077 20.7975C6.70249 20.6652 6.21401 20.5006 5.73865 20.3052C5.70438 20.2914 5.6733 20.2712 5.64716 20.2459C5.62102 20.2204 5.60035 20.1904 5.58632 20.1573C5.57229 20.1242 5.56517 20.0887 5.56538 20.053C5.56559 20.0173 5.57313 19.9819 5.58755 19.949C5.61761 19.8826 5.67347 19.8303 5.74316 19.8031C5.81286 19.776 5.89084 19.7761 5.9604 19.8035C6.41083 19.9884 6.87316 20.1449 7.34454 20.2724C7.41088 20.2897 7.46845 20.3295 7.50646 20.3846C7.54446 20.4396 7.56033 20.5062 7.55107 20.5717C7.54181 20.6371 7.50808 20.6972 7.45616 20.7405C7.40424 20.7837 7.33771 20.8074 7.269 20.8069L7.27874 20.7975ZM17.4893 19.6652C17.4405 19.666 17.3923 19.6545 17.3497 19.632C17.3069 19.6093 17.271 19.5764 17.2455 19.5364C17.2068 19.4744 17.195 19.4002 17.2128 19.3301C17.2306 19.2598 17.2766 19.1991 17.3406 19.1613C17.755 18.9184 18.1413 18.634 18.4932 18.3127C18.5476 18.2626 18.6202 18.2353 18.6954 18.2369C18.7706 18.2385 18.8421 18.2687 18.894 18.3209C18.9461 18.3731 18.9744 18.4431 18.9728 18.5154C18.9712 18.5878 18.9399 18.6564 18.8855 18.7065C18.5039 19.0494 18.0857 19.3526 17.6379 19.6114C17.5936 19.6389 17.542 19.6535 17.4893 19.6536V19.6652ZM4.51778 19.6652C4.46626 19.6646 4.41584 19.6507 4.37156 19.6254C3.92381 19.3675 3.50489 19.0658 3.12146 18.7253C3.06891 18.6736 3.03949 18.6041 3.03949 18.5318C3.03949 18.4596 3.06891 18.3901 3.12146 18.3384C3.17477 18.2881 3.24653 18.2598 3.32128 18.2598C3.39602 18.2598 3.46778 18.2881 3.5211 18.3384C3.87217 18.6431 4.25519 18.9117 4.66399 19.1402C4.71789 19.1707 4.75978 19.2175 4.78309 19.2732C4.80641 19.329 4.80985 19.3907 4.79286 19.4486C4.77587 19.5065 4.73941 19.5572 4.6892 19.5931C4.63898 19.6288 4.57784 19.6477 4.51533 19.6465L4.51778 19.6652ZM19.5629 17.6399C19.5255 17.637 19.489 17.6266 19.4557 17.6094C19.3864 17.5824 19.3309 17.5298 19.3016 17.4635C19.2724 17.3972 19.2717 17.3223 19.2998 17.2554C19.3876 17.0542 19.4339 16.8384 19.4363 16.6202V15.9239C19.4363 15.8517 19.4661 15.7827 19.5191 15.7316C19.5721 15.6806 19.644 15.652 19.7189 15.652C19.794 15.652 19.8658 15.6806 19.9189 15.7316C19.9719 15.7827 20.0016 15.8517 20.0016 15.9239V16.6108C19.9991 16.8989 19.9386 17.1838 19.8237 17.45C19.8029 17.5003 19.767 17.5434 19.7205 17.5738C19.6741 17.6043 19.6193 17.6208 19.5629 17.6212V17.6399ZM2.43914 17.6094C2.38285 17.6094 2.32781 17.5933 2.28098 17.5633C2.23415 17.5334 2.1976 17.4906 2.17595 17.4407C2.06106 17.1745 2.00065 16.8895 1.99806 16.6014V15.9215C1.99806 15.8494 2.02785 15.7803 2.08085 15.7293C2.13386 15.6782 2.20576 15.6496 2.28074 15.6496C2.35571 15.6496 2.42761 15.6782 2.48061 15.7293C2.53363 15.7803 2.56341 15.8494 2.56341 15.9215V16.6108C2.56596 16.8282 2.61231 17.0431 2.69987 17.2437C2.71577 17.2773 2.72441 17.3136 2.72524 17.3505C2.72608 17.3874 2.71911 17.424 2.70474 17.4582C2.69038 17.4925 2.66893 17.5235 2.64171 17.5494C2.61447 17.5755 2.58203 17.5958 2.54635 17.6094C2.51084 17.6148 2.47465 17.6148 2.43914 17.6094ZM19.7189 14.7495C19.644 14.7495 19.5721 14.7207 19.5191 14.6698C19.4661 14.6188 19.4363 14.5496 19.4363 14.4775V13.0311C19.4363 12.959 19.4661 12.8898 19.5191 12.8388C19.5721 12.7878 19.644 12.7592 19.7189 12.7592C19.794 12.7592 19.8658 12.7878 19.9189 12.8388C19.9719 12.8898 20.0016 12.959 20.0016 13.0311V14.4775C20.0016 14.5496 19.9719 14.6188 19.9189 14.6698C19.8658 14.7207 19.794 14.7495 19.7189 14.7495ZM2.28074 14.7495C2.20576 14.7495 2.13386 14.7207 2.08085 14.6698C2.02785 14.6188 1.99806 14.5496 1.99806 14.4775V13.0288C1.99806 12.9567 2.02785 12.8875 2.08085 12.8365C2.13386 12.7855 2.20576 12.7568 2.28074 12.7568C2.35571 12.7568 2.42761 12.7855 2.48061 12.8365C2.53363 12.8875 2.56341 12.9567 2.56341 13.0288V14.4751C2.56341 14.5472 2.53363 14.6164 2.48061 14.6675C2.42761 14.7185 2.35571 14.7471 2.28074 14.7471V14.7495ZM19.7189 11.8567C19.644 11.8567 19.5721 11.828 19.5191 11.777C19.4661 11.726 19.4363 11.6568 19.4363 11.5847V10.136C19.4363 10.0639 19.4661 9.99472 19.5191 9.94372C19.5721 9.89272 19.644 9.86407 19.7189 9.86407C19.794 9.86407 19.8658 9.89272 19.9189 9.94372C19.9719 9.99472 20.0016 10.0639 20.0016 10.136V11.5847C20.0016 11.6568 19.9719 11.726 19.9189 11.777C19.8658 11.828 19.794 11.8567 19.7189 11.8567ZM2.28074 11.8567C2.20576 11.8567 2.13386 11.828 2.08085 11.777C2.02785 11.726 1.99806 11.6568 1.99806 11.5847V10.136C1.99806 10.0639 2.02785 9.99472 2.08085 9.94372C2.13386 9.89272 2.20576 9.86407 2.28074 9.86407C2.35571 9.86407 2.42761 9.89272 2.48061 9.94372C2.53363 9.99472 2.56341 10.0639 2.56341 10.136V11.5824C2.56341 11.6545 2.53363 11.7237 2.48061 11.7747C2.42761 11.8257 2.35571 11.8543 2.28074 11.8543V11.8567ZM19.7189 8.96155C19.6461 8.96162 19.576 8.93457 19.5232 8.88608C19.4706 8.8376 19.4394 8.77141 19.4363 8.70133V7.24322C19.4363 7.1711 19.4661 7.10193 19.5191 7.05095C19.5721 6.99995 19.644 6.9713 19.7189 6.9713C19.794 6.9713 19.8658 6.99995 19.9189 7.05095C19.9719 7.10193 20.0016 7.1711 20.0016 7.24322V8.70133C19.9986 8.77141 19.9673 8.8376 19.9146 8.88608C19.862 8.93457 19.7918 8.96162 19.7189 8.96155ZM2.28074 8.96155C2.20783 8.96162 2.13771 8.93457 2.08504 8.88608C2.03236 8.8376 2.0012 8.77141 1.99806 8.70133V7.24322C1.99806 7.1711 2.02785 7.10193 2.08085 7.05095C2.13386 6.99995 2.20576 6.9713 2.28074 6.9713C2.35571 6.9713 2.42761 6.99995 2.48061 7.05095C2.53363 7.10193 2.56341 7.1711 2.56341 7.24322V8.70133C2.56027 8.77141 2.5291 8.8376 2.47643 8.88608C2.42375 8.93457 2.35363 8.96162 2.28074 8.96155ZM19.7189 6.06876C19.644 6.06876 19.5721 6.04012 19.5191 5.98912C19.4661 5.93812 19.4363 5.86895 19.4363 5.79683V4.35044C19.4363 4.27832 19.4661 4.20915 19.5191 4.15815C19.5721 4.10717 19.644 4.07852 19.7189 4.07852C19.794 4.07852 19.8658 4.10717 19.9189 4.15815C19.9719 4.20915 20.0016 4.27832 20.0016 4.35044V5.79683C20.0016 5.86895 19.9719 5.93812 19.9189 5.98912C19.8658 6.04012 19.794 6.06876 19.7189 6.06876ZM2.28074 6.06876C2.24341 6.06877 2.20645 6.06165 2.17199 6.04785C2.13754 6.03403 2.10627 6.01379 2.07999 5.98829C2.0537 5.96279 2.03293 5.93253 2.01888 5.89927C2.00481 5.86601 1.99774 5.8304 1.99806 5.79449V4.3481C1.99806 4.27598 2.02785 4.20681 2.08085 4.15582C2.13386 4.10482 2.20576 4.07617 2.28074 4.07617C2.35571 4.07617 2.42761 4.10482 2.48061 4.15582C2.53363 4.20681 2.56341 4.27598 2.56341 4.3481V5.79449C2.56374 5.8304 2.55666 5.86601 2.5426 5.89927C2.52853 5.93253 2.50777 5.96279 2.48149 5.98829C2.4552 6.01379 2.42393 6.03403 2.38948 6.04785C2.35502 6.06165 2.31806 6.06877 2.28074 6.06876Z" fill="#646363"/>
<path d="M17.8912 3.13664H16.3803C16.3054 3.13664 16.2335 3.10799 16.1805 3.05699C16.1275 3.00599 16.0977 2.93682 16.0977 2.8647C16.0977 2.79258 16.1275 2.72342 16.1805 2.67242C16.2335 2.62142 16.3054 2.59277 16.3803 2.59277H17.8912C17.9661 2.59277 18.0381 2.62142 18.0911 2.67242C18.1441 2.72342 18.1739 2.79258 18.1739 2.8647C18.1739 2.93682 18.1441 3.00599 18.0911 3.05699C18.0381 3.10799 17.9661 3.13664 17.8912 3.13664ZM14.8719 3.13664H13.3635C13.2886 3.13664 13.2166 3.10799 13.1636 3.05699C13.1106 3.00599 13.0808 2.93682 13.0808 2.8647C13.0808 2.79258 13.1106 2.72342 13.1636 2.67242C13.2166 2.62142 13.2886 2.59277 13.3635 2.59277H14.8719C14.9468 2.59277 15.0188 2.62142 15.0718 2.67242C15.1248 2.72342 15.1546 2.79258 15.1546 2.8647C15.1546 2.93682 15.1248 3.00599 15.0718 3.05699C15.0188 3.10799 14.9468 3.13664 14.8719 3.13664ZM11.8551 3.13664H10.3442C10.2693 3.13664 10.1974 3.10799 10.1443 3.05699C10.0913 3.00599 10.0616 2.93682 10.0616 2.8647C10.0616 2.79258 10.0913 2.72342 10.1443 2.67242C10.1974 2.62142 10.2693 2.59277 10.3442 2.59277H11.8551C11.93 2.59277 12.0019 2.62142 12.055 2.67242C12.108 2.72342 12.1378 2.79258 12.1378 2.8647C12.1378 2.93682 12.108 3.00599 12.055 3.05699C12.0019 3.10799 11.93 3.13664 11.8551 3.13664ZM8.83577 3.13664H7.32735C7.25238 3.13664 7.18048 3.10799 7.12747 3.05699C7.07445 3.00599 7.04467 2.93682 7.04467 2.8647C7.04467 2.79258 7.07445 2.72342 7.12747 2.67242C7.18048 2.62142 7.25238 2.59277 7.32735 2.59277H8.83577C8.91074 2.59277 8.98263 2.62142 9.03565 2.67242C9.08866 2.72342 9.11845 2.79258 9.11845 2.8647C9.11845 2.93682 9.08866 3.00599 9.03565 3.05699C8.98263 3.10799 8.91074 3.13664 8.83577 3.13664ZM5.81893 3.13664H4.30807C4.23311 3.13664 4.16121 3.10799 4.1082 3.05699C4.05518 3.00599 4.02539 2.93682 4.02539 2.8647C4.02539 2.79258 4.05518 2.72342 4.1082 2.67242C4.16121 2.62142 4.23311 2.59277 4.30807 2.59277H5.81893C5.89391 2.59277 5.9658 2.62142 6.01881 2.67242C6.07182 2.72342 6.1016 2.79258 6.1016 2.8647C6.1016 2.93682 6.07182 3.00599 6.01881 3.05699C5.9658 3.10799 5.89391 3.13664 5.81893 3.13664Z" fill="#646363"/>
<path d="M15.9375 9.5C17.5598 9.5 18.875 8.18484 18.875 6.5625C18.875 4.94016 17.5598 3.625 15.9375 3.625C14.3152 3.625 13 4.94016 13 6.5625C13 8.18484 14.3152 9.5 15.9375 9.5Z" fill="white" stroke="#646363" stroke-width="0.25"/>
<path d="M17.298 6.53384C17.5049 6.53384 17.6732 6.3186 17.6732 6.1158C17.6732 5.91299 17.5049 5.74805 17.298 5.74805C17.0912 5.74805 16.9229 5.91304 16.9229 6.1158C16.9229 6.3186 17.0912 6.53384 17.298 6.53384Z" fill="#7A7A7A"/>
<path d="M17.5798 6.53809C17.5071 6.59241 17.4163 6.62478 17.3179 6.62478H17.2784C17.1801 6.62478 17.0893 6.59241 17.0164 6.53809C16.9215 6.55313 16.8356 6.59478 16.7666 6.65455C16.7725 6.66093 16.7785 6.6673 16.7844 6.6739C16.9049 6.81138 16.9712 6.98697 16.9712 7.16841C16.9712 7.19116 16.9678 7.21291 16.962 7.23383C17.0618 7.25273 17.1764 7.26343 17.2982 7.26343C17.6852 7.26343 17.999 7.15497 17.999 7.02122C17.999 6.77766 17.8175 6.57575 17.5798 6.53809Z" fill="#7A7A7A"/>
<path d="M14.5768 6.53384C14.7837 6.53384 14.9521 6.3186 14.9521 6.1158C14.9521 5.91299 14.7837 5.74805 14.5768 5.74805C14.37 5.74805 14.2017 5.91304 14.2017 6.1158C14.2017 6.3186 14.37 6.53384 14.5768 6.53384Z" fill="#7A7A7A"/>
<path d="M15.0906 6.67389C15.0964 6.66735 15.1023 6.66093 15.1084 6.65455C15.0394 6.59478 14.9535 6.55313 14.8584 6.53809C14.7857 6.59241 14.6949 6.62478 14.5966 6.62478H14.557C14.4587 6.62478 14.3679 6.59241 14.2951 6.53809C14.0574 6.57575 13.876 6.77766 13.876 7.02122C13.876 7.15497 14.1898 7.26351 14.5768 7.26351C14.6986 7.26351 14.8131 7.25277 14.9129 7.23387C14.9071 7.21293 14.9038 7.19121 14.9038 7.16844C14.9038 6.98697 14.9701 6.81138 15.0906 6.67389Z" fill="#7A7A7A"/>
<path d="M16.2994 6.54785C16.2059 6.61776 16.0891 6.65929 15.9627 6.65929H15.9119C15.7854 6.65929 15.6687 6.61771 15.5751 6.54785C15.2695 6.59625 15.0361 6.8558 15.0361 7.16897C15.0361 7.34098 15.4396 7.48048 15.9373 7.48048C16.4349 7.48048 16.8383 7.341 16.8383 7.16897C16.8383 6.8558 16.6051 6.59625 16.2994 6.54785Z" fill="#7A7A7A"/>
<path d="M15.7687 6.5045C15.8213 6.52878 15.8782 6.5426 15.9374 6.5426C15.9968 6.5426 16.0538 6.52874 16.1064 6.5044C16.2893 6.41977 16.4199 6.20767 16.4199 6.00513C16.4199 5.74442 16.2035 5.53223 15.9374 5.53223C15.6714 5.53223 15.4551 5.74442 15.4551 6.00513C15.4551 6.20776 15.5857 6.41995 15.7687 6.5045Z" fill="#7A7A7A"/>
</svg>
