<svg width="14" height="14" viewBox="0 0 14 14" fill="none" xmlns="http://www.w3.org/2000/svg">
<path d="M12.86 1.63167V9.82927C12.86 10.182 12.7386 10.5203 12.5225 10.7697C12.3064 11.0191 12.0133 11.1593 11.7077 11.1593H9.54283C9.50469 11.1593 9.46816 11.1767 9.4412 11.2078C9.41424 11.2389 9.39912 11.2811 9.39912 11.3251V13.6077C9.39922 13.6238 9.39529 13.6396 9.38783 13.6532C9.38034 13.6668 9.36963 13.6776 9.35697 13.6844C9.34433 13.6911 9.33025 13.6935 9.31644 13.6912C9.30263 13.689 9.28968 13.6822 9.27912 13.6716C8.89282 13.2897 7.64429 12.0586 6.73059 11.1517H1.41733C1.1117 11.1517 0.818611 11.0115 0.602503 10.7621C0.386394 10.5127 0.265015 10.1744 0.265015 9.82166V1.63167C0.265705 1.27945 0.38743 0.941951 0.603435 0.693173C0.819475 0.444396 1.11215 0.304688 1.41733 0.304688H11.7143C12.0183 0.306697 12.3093 0.447302 12.5239 0.695864C12.7385 0.94439 12.8593 1.28075 12.86 1.63167Z" fill="white"/>
<path d="M9.32791 14C9.2492 13.9996 9.17312 13.9673 9.11301 13.9087L6.63436 11.4572H1.41731C1.23154 11.458 1.04747 11.4165 0.87562 11.335C0.703803 11.2535 0.547556 11.1338 0.415923 10.9825C0.284256 10.8313 0.179723 10.6515 0.108366 10.4535C0.0370083 10.2556 0.000173219 10.0433 6.08377e-07 9.82891V1.63131C-0.000172002 1.41665 0.0363872 1.20404 0.107606 1.00574C0.178825 0.807444 0.283289 0.627301 0.414991 0.475717C0.546659 0.324169 0.703009 0.204085 0.875033 0.122463C1.04702 0.0408049 1.23134 -0.000813157 1.41731 1.20349e-05H11.7143C12.0883 0.000406692 12.447 0.172082 12.7114 0.477367C12.9759 0.782617 13.1247 1.19654 13.125 1.62826V9.82891C13.1247 10.2606 12.9759 10.6745 12.7114 10.9798C12.447 11.2851 12.0883 11.4568 11.7143 11.4572H9.65753V13.615C9.65674 13.6886 9.63771 13.7604 9.60264 13.8219C9.5676 13.8834 9.51799 13.932 9.45975 13.962C9.41846 13.9848 9.37362 13.9977 9.32791 14ZM1.41731 0.59806C1.18 0.598455 0.952501 0.707452 0.784689 0.901121C0.616877 1.09483 0.522458 1.35738 0.522113 1.63131V9.82891C0.522458 10.1027 0.616911 10.3651 0.784757 10.5586C0.952604 10.752 1.1801 10.8606 1.41731 10.8606H6.82289L6.89542 10.9337C7.63636 11.6672 8.59487 12.6152 9.13673 13.1509V11.3248C9.13673 11.2037 9.1784 11.0876 9.25259 11.002C9.32677 10.9164 9.42737 10.8683 9.53228 10.8683H11.7077C11.9449 10.8683 12.1724 10.7596 12.3402 10.5662C12.5081 10.3727 12.6025 10.1103 12.6029 9.83651V1.63131C12.6025 1.35738 12.5081 1.09483 12.3403 0.901121C12.1725 0.707452 11.945 0.598455 11.7077 0.59806H1.41731Z" fill="#25AEB4"/>
<path d="M3.95131 5.82974H2.45492V4.49974C2.43507 4.09084 2.52734 3.68514 2.7186 3.34021C2.89525 3.05717 3.19718 2.80606 3.62698 2.58846L3.95 3.29608C3.7437 3.39212 3.55724 3.53728 3.40286 3.72216C3.30167 3.8651 3.24257 4.04151 3.23408 4.22585H3.95L3.95131 5.82974ZM5.69561 5.82974H4.19918V4.49974C4.17936 4.09084 4.27164 3.68514 4.46286 3.34021C4.64086 3.05717 4.94279 2.80606 5.37259 2.58691L5.69561 3.29453C5.48931 3.39058 5.30285 3.53578 5.14847 3.72062C5.04608 3.86359 4.98601 4.04065 4.97707 4.22585H5.69299L5.69561 5.82974Z" fill="#25AEB4"/>
<path d="M9.17496 5.40527H10.6714V6.73527C10.6912 7.14417 10.5989 7.54988 10.4077 7.89484C10.231 8.17943 9.9291 8.42899 9.4993 8.64659L9.17628 7.93897C9.38234 7.84235 9.56865 7.69726 9.72342 7.51289C9.82429 7.36973 9.88336 7.19343 9.8922 7.0092H9.17496V5.40527ZM7.43066 5.40527H8.93238V6.73527C8.95219 7.14417 8.85992 7.54988 8.66866 7.89484C8.49201 8.17943 8.19008 8.42899 7.76028 8.64659L7.43726 7.93897C7.64332 7.84235 7.82967 7.69726 7.9844 7.51289C8.08103 7.36805 8.13588 7.19189 8.1413 7.0092H7.43066V5.40527Z" fill="#25AEB4"/>
</svg>
