<svg width="25" height="12" viewBox="0 0 25 12" fill="none" xmlns="http://www.w3.org/2000/svg">
  <path d="M20.2122 5.92254C21.4343 5.92254 22.4283 4.65125 22.4283 3.45338C22.4283 2.25554 21.4341 1.28125 20.2122 1.28125C18.9904 1.28125 17.9961 2.25582 17.9961 3.45338C17.9961 4.65125 18.9904 5.92254 20.2122 5.92254Z" fill="white"/>
  <path d="M21.8759 5.94336C21.446 6.26422 20.9099 6.45544 20.3284 6.45544H20.0955C19.5146 6.45544 18.9781 6.26422 18.5482 5.94336C17.9867 6.0322 17.4802 6.27828 17.0723 6.63124C17.1076 6.6689 17.1427 6.70656 17.1773 6.74555C17.889 7.55754 18.2809 8.5947 18.2809 9.66631C18.2809 9.80077 18.2611 9.92914 18.2269 10.0528C18.8162 10.1644 19.4926 10.2276 20.2124 10.2276C22.4982 10.2276 24.3516 9.58703 24.3516 8.79702C24.3516 7.3584 23.2796 6.16585 21.8759 5.94336Z" fill="white"/>
  <path d="M4.14004 5.92254C5.3622 5.92254 6.35625 4.65125 6.35625 3.45338C6.35625 2.25554 5.3622 1.28125 4.14004 1.28125C2.91816 1.28125 1.92383 2.25582 1.92383 3.45338C1.92408 4.65125 2.91816 5.92254 4.14004 5.92254Z" fill="white"/>
  <path d="M7.17436 6.74553C7.20845 6.70683 7.24363 6.6689 7.27907 6.63124C6.87132 6.27828 6.36456 6.0322 5.80313 5.94336C5.37319 6.26422 4.83692 6.45544 4.25602 6.45544H4.0228C3.44188 6.45544 2.90535 6.26422 2.47569 5.94336C1.0717 6.16585 0 7.3584 0 8.79702C0 9.58703 1.85339 10.228 4.1394 10.228C4.85884 10.228 5.53526 10.1646 6.12483 10.053C6.09073 9.92934 6.07071 9.80102 6.07071 9.66658C6.07071 8.59468 6.46277 7.55754 7.17436 6.74553Z" fill="white"/>
  <path d="M14.3152 5.99219C13.7625 6.40509 13.0725 6.65038 12.326 6.65038H12.026C11.2789 6.65038 10.5893 6.40481 10.0368 5.99219C8.2318 6.27806 6.85352 7.8111 6.85352 9.66078C6.85352 10.6767 9.23641 11.5007 12.1759 11.5007C15.1153 11.5007 17.498 10.6769 17.498 9.66078C17.4982 7.8111 16.1198 6.27806 14.3152 5.99219Z" fill="white"/>
  <path d="M11.179 5.74263C11.4894 5.88609 11.8251 5.96777 12.1755 5.96777C12.5262 5.96777 12.8625 5.88582 13.1731 5.7421C14.2538 5.24222 15.0252 3.98947 15.0252 2.79322C15.0252 1.25328 13.747 0 12.1755 0C10.6043 0 9.32617 1.25328 9.32617 2.79322C9.32617 3.99 10.0978 5.24328 11.179 5.74263Z" fill="white"/>
</svg>
