<svg width="16" height="18" viewBox="0 0 16 18" fill="none" xmlns="http://www.w3.org/2000/svg">
  <path fill-rule="evenodd" clip-rule="evenodd" d="M1.4167 1.66576L0.191127 2.891C-0.0611963 3.14326 -0.0611963 3.5757 0.191127 3.82796L1.66902 5.30546L3.8318 3.14326L2.3539 1.66576C2.10158 1.4135 1.66902 1.4135 1.4167 1.66576ZM2.17367 5.80998L9.16664 12.8011L11.3294 10.6389L4.33644 3.64777L2.17367 5.80998ZM9.74338 13.2335L12.2666 14.0264C12.4468 14.0624 12.591 13.9182 12.555 13.7381L11.762 11.2155L9.74338 13.2335Z" fill="#FF3366"/>
  <path d="M2.28763 9.15377C2.28763 8.89482 2.06562 8.67287 1.80661 8.67287C1.5476 8.67287 1.32559 8.89482 1.32559 9.15377V15.4794C1.32559 16.8481 2.47263 17.9948 3.84169 17.9948H13.3511C14.7571 17.9948 15.8672 16.8481 15.8672 15.4794V5.97247C15.8672 4.56679 14.7571 3.45703 13.3511 3.45703H8.09687C7.83786 3.45703 7.65285 3.67898 7.65285 3.93792C7.65285 4.19687 7.83786 4.38183 8.09687 4.38183H13.3511C14.2391 4.38183 14.9421 5.08467 14.9421 5.97247V15.4794C14.9421 16.3302 14.2391 17.033 13.3511 17.033H3.84169C2.99065 17.033 2.28763 16.3302 2.28763 15.4794V9.15377Z" fill="#FF3366"/>
</svg>
