<svg width="16" height="19" viewBox="0 0 16 19" fill="none" xmlns="http://www.w3.org/2000/svg">
<path d="M11.8763 12.7979C11.8763 12.2968 11.4798 11.8906 10.9907 11.8906H5.39529C4.90617 11.8906 4.50964 12.2968 4.50964 12.7979V13.1815C4.50964 13.6826 4.90617 14.0888 5.39529 14.0888H10.9907C11.4798 14.0888 11.8763 13.6826 11.8763 13.1815V12.7979Z" fill="#FF3366"/>
<path d="M11.8764 15.8956C11.8764 15.4279 11.5064 15.0488 11.0499 15.0488H9.02194C8.56546 15.0488 8.19543 15.4279 8.19543 15.8956C8.19543 16.363 8.56546 16.7423 9.02194 16.7423H11.0499C11.5064 16.7423 11.8764 16.363 11.8764 15.8956Z" fill="#FF3366"/>
<path d="M8.19076 6.06685C6.98676 6.05285 5.80143 6.37073 4.75912 6.9865C4.40929 7.19841 4.13758 7.52229 3.98598 7.90812C3.83438 8.29297 3.8114 8.71881 3.92049 9.11866C4.02966 9.5195 4.26482 9.87135 4.58972 10.1213C4.91453 10.3712 5.31097 10.5051 5.71767 10.5011H10.6735C11.0801 10.5051 11.4766 10.3712 11.8015 10.1213C12.1263 9.87135 12.3614 9.5195 12.4706 9.11866C12.5797 8.71881 12.5567 8.29297 12.4051 7.90812C12.2535 7.52229 11.9819 7.19841 11.6321 6.9865C10.5878 6.37173 9.40101 6.05385 8.19555 6.06685H8.19076Z" fill="#FF3366"/>
<path d="M8.05641 7.05034C9.26881 7.05034 10.2516 6.04673 10.2516 4.80823C10.2516 3.57011 9.26881 2.56641 8.05641 2.56641C6.84412 2.56641 5.86133 3.57011 5.86133 4.80823C5.86133 6.04673 6.84412 7.05034 8.05641 7.05034Z" fill="#FF3366"/>
<path d="M13.7627 1H1.77494C1.34695 1 1 1.35541 1 1.79384V17.2062C1 17.6446 1.34695 18 1.77494 18H13.7627C14.1907 18 14.5377 17.6446 14.5377 17.2062V1.79384C14.5377 1.35541 14.1907 1 13.7627 1Z" stroke="#FF3366"/>
</svg>
