<svg width="17" height="17" viewBox="0 0 17 17" fill="none" xmlns="http://www.w3.org/2000/svg">
    <path d="M7.38664 3.05418e-06C7.14999 -0.0009012 6.92647 0.199145 6.86669 0.389963L6.39196 2.05153C6.05842 2.16112 5.73851 2.29021 5.43119 2.44714L3.92221 1.61071C3.71734 1.49581 3.43801 1.53467 3.27228 1.70113L1.70679 3.27227C1.54285 3.43722 1.50417 3.71285 1.61636 3.91656L2.4528 5.43118C2.29744 5.73577 2.16609 6.05598 2.05719 6.38629L0.39562 6.86102C0.168842 6.92484 -0.00141444 7.15105 8.858e-06 7.38663V9.61336C0.00109396 9.84705 0.170658 10.07 0.39562 10.1333L2.05154 10.6024C2.16074 10.9352 2.29645 11.2564 2.4528 11.5631L1.61636 13.0778C1.50417 13.2815 1.54285 13.5571 1.70679 13.7221L3.27228 15.2932C3.43801 15.4597 3.71734 15.4985 3.92221 15.3836L5.43119 14.5472C5.73872 14.7042 6.05818 14.8388 6.39196 14.9485L6.86669 16.6044C6.93 16.8293 7.15294 16.999 7.38664 17H9.61336C9.84706 16.9982 10.07 16.8293 10.1333 16.6044L10.608 14.9485C10.9418 14.8388 11.2613 14.7042 11.5688 14.5472L13.0778 15.3836C13.2827 15.4985 13.562 15.4597 13.7277 15.2932L15.2932 13.7221C15.4571 13.5571 15.4958 13.2815 15.3836 13.0778L14.5472 11.5631C14.7036 11.2564 14.8393 10.9352 14.9485 10.6024L16.6044 10.1333C16.8293 10.07 16.999 9.84705 17 9.61336V7.38663C17.0014 7.15105 16.8312 6.92484 16.6044 6.86102L14.9428 6.38629C14.8339 6.05598 14.7026 5.73577 14.5472 5.43118L15.3836 3.91656C15.4958 3.71285 15.4571 3.43722 15.2932 3.27227L13.7277 1.70113C13.562 1.53467 13.2827 1.49581 13.0778 1.61071L11.5688 2.44714C11.2615 2.29021 10.9416 2.16112 10.608 2.05153L10.1333 0.389963C10.068 0.167062 9.84564 0.00032316 9.61336 3.05418e-06H7.38664ZM7.79355 1.08511H9.20645L9.64162 2.61669C9.6913 2.79664 9.84033 2.94567 10.0203 2.99535C10.4773 3.12125 10.9081 3.30104 11.3145 3.53225C11.4749 3.62456 11.6834 3.62678 11.8457 3.53789L13.2473 2.75797L14.242 3.75265L13.4621 5.14858C13.3715 5.30995 13.3715 5.51847 13.4621 5.67983C13.6933 6.0862 13.8787 6.52268 14.0046 6.97969C14.0533 7.15834 14.1998 7.307 14.3777 7.35836L15.9149 7.79352V9.20078L14.3777 9.64161C14.2011 9.69195 14.055 9.83803 14.0046 10.0146C13.8787 10.4716 13.6933 10.9081 13.4621 11.3145C13.3715 11.4758 13.3715 11.6844 13.4621 11.8457L14.242 13.2473L13.2473 14.2363L11.8457 13.4564C11.6834 13.3676 11.4749 13.3698 11.3145 13.462C10.9081 13.6933 10.4773 13.8787 10.0203 14.0046C9.84164 14.0533 9.69298 14.1997 9.64162 14.3776L9.20645 15.9148H7.79355L7.35838 14.3776C7.30702 14.1997 7.15836 14.0533 6.97972 14.0046C6.52271 13.8787 6.09187 13.6933 5.68551 13.462C5.52511 13.3697 5.31658 13.3675 5.15426 13.4564L3.75266 14.2363L2.75798 13.2473L3.5379 11.8457C3.62849 11.6844 3.62849 11.4758 3.5379 11.3145C3.3067 10.9081 3.12126 10.4716 2.99535 10.0146C2.945 9.83803 2.79893 9.69195 2.62235 9.64161L1.08511 9.20078V7.79352L2.62235 7.35836C2.80023 7.307 2.94667 7.15834 2.99535 6.97969C3.12126 6.52268 3.3067 6.0862 3.5379 5.67983C3.62849 5.51847 3.62849 5.30995 3.5379 5.14858L2.75798 3.75266L3.75266 2.75798L5.15426 3.5379C5.31658 3.62678 5.52511 3.62456 5.68551 3.53226C6.09187 3.30105 6.52271 3.12126 6.97972 2.99536C7.15967 2.94568 7.3087 2.79665 7.35838 2.6167L7.79355 1.08511ZM8.5 4.52126C6.30904 4.52126 4.52128 6.30905 4.52128 8.49998C4.52128 10.6909 6.30904 12.4787 8.5 12.4787C10.691 12.4787 12.4787 10.6909 12.4787 8.49998C12.4787 6.30905 10.691 4.52126 8.5 4.52126ZM8.5 5.60637C10.1045 5.60637 11.3936 6.89547 11.3936 8.49998C11.3936 10.1045 10.1045 11.3936 8.5 11.3936C6.89548 11.3936 5.60639 10.1045 5.60639 8.49998C5.60639 6.89547 6.89548 5.60637 8.5 5.60637Z" fill="#25AFB5"/>
</svg>
