<svg width="24" height="24" viewBox="0 0 24 24" fill="none" xmlns="http://www.w3.org/2000/svg">
<circle cx="12" cy="12" r="11.5" fill="white" stroke="#646363"/>
<path d="M18.0584 12.1271C18.9855 12.1271 19.7394 11.1627 19.7394 10.2541C19.7394 9.34549 18.9854 8.60645 18.0584 8.60645C17.1317 8.60645 16.3774 9.3457 16.3774 10.2541C16.3774 11.1627 17.1317 12.1271 18.0584 12.1271Z" fill="#646363"/>
<path d="M19.3205 12.1436C18.9944 12.3869 18.5877 12.532 18.1467 12.532H17.97C17.5294 12.532 17.1224 12.3869 16.7963 12.1436C16.3704 12.2109 15.9862 12.3976 15.6768 12.6653C15.7036 12.6939 15.7302 12.7225 15.7564 12.7521C16.2963 13.368 16.5935 14.1547 16.5935 14.9676C16.5935 15.0696 16.5785 15.1669 16.5526 15.2607C16.9996 15.3454 17.5127 15.3934 18.0587 15.3934C19.7926 15.3934 21.1985 14.9074 21.1985 14.3082C21.1985 13.2169 20.3853 12.3123 19.3205 12.1436Z" fill="#646363"/>
<path d="M5.86713 12.1271C6.79419 12.1271 7.54822 11.1627 7.54822 10.2541C7.54822 9.34549 6.79419 8.60645 5.86713 8.60645C4.94028 8.60645 4.18604 9.3457 4.18604 10.2541C4.18623 11.1627 4.94028 12.1271 5.86713 12.1271Z" fill="#646363"/>
<path d="M8.16912 12.752C8.19497 12.7227 8.22166 12.6939 8.24855 12.6653C7.93924 12.3976 7.55484 12.2109 7.12897 12.1436C6.80285 12.3869 6.39606 12.532 5.95543 12.532H5.77852C5.33787 12.532 4.93089 12.3869 4.60497 12.1436C3.53998 12.3123 2.72705 13.2169 2.72705 14.3082C2.72705 14.9074 4.13293 15.3937 5.86697 15.3937C6.41269 15.3937 6.92579 15.3456 7.373 15.2609C7.34713 15.1671 7.33195 15.0698 7.33195 14.9678C7.33195 14.1547 7.62935 13.368 8.16912 12.752Z" fill="#646363"/>
<path d="M13.5853 12.1846C13.166 12.4978 12.6427 12.6838 12.0764 12.6838H11.8488C11.2822 12.6838 10.759 12.4976 10.3399 12.1846C8.97078 12.4014 7.92529 13.5643 7.92529 14.9674C7.92529 15.738 9.73282 16.363 11.9625 16.363C14.1922 16.363 15.9996 15.7381 15.9996 14.9674C15.9998 13.5643 14.9542 12.4014 13.5853 12.1846Z" fill="#646363"/>
<path d="M11.2067 11.9918C11.4421 12.1006 11.6968 12.1626 11.9626 12.1626C12.2286 12.1626 12.4837 12.1004 12.7193 11.9914C13.5391 11.6122 14.1242 10.6619 14.1242 9.75452C14.1242 8.58641 13.1546 7.63574 11.9626 7.63574C10.7708 7.63574 9.80127 8.58641 9.80127 9.75452C9.80127 10.6623 10.3866 11.613 11.2067 11.9918Z" fill="#646363"/>
</svg>
